<?xml version="1.0" encoding="utf-8"?>
<!-- Generator: Adobe Illustrator 24.3.0, SVG Export Plug-In . SVG Version: 6.00 Build 0)  -->
<svg version="1.1" id="Layer_1" xmlns="http://www.w3.org/2000/svg" xmlns:xlink="http://www.w3.org/1999/xlink" x="0px" y="0px"
	 viewBox="0 0 32 32" style="enable-background:new 0 0 32 32;" xml:space="preserve">
<style type="text/css">
	.st0{fill:#FFFFFF;}
	.st1{fill:#E82826;}
	.st2{fill:#0E0F10;}
	.st3{fill:#E23332;}
	.st4{fill:#DD494E;}
</style>
<circle class="st0" cx="16" cy="16" r="16"/>
<g>
	<g>
		<path class="st1" d="M8.1,23.8c0-0.4,0-0.8,0-1.2c0-0.5,0.4-0.9,0.9-1c0.6,0,1.1,0,1.7,0c0.3,0,0.2,0.2,0.1,0.4
			c-0.5,1.5,0.4,3.1,1.9,3.4c0.9,0.2,1.7,0,2.4-0.7c0.8-0.7,1-1.7,0.7-2.7c0-0.1-0.3-0.3,0-0.4c0.2-0.1,0.3,0.1,0.4,0.3
			c0.2,0.6,0.7,1,1.4,1c0.7,0,1.2-0.4,1.4-1c0.1-0.2,0.1-0.3,0.3-0.3c0.2,0,0.3,0,0.4,0.2c0.6,0.9,1.5,0.9,2.1,0
			c0-0.1,0.1-0.1,0.2-0.2c0.9-0.4,1.9,0.1,1.9,1.1c0,0.9,0.1,1.8,0,2.7c-0.1,1.3-1,2.1-2.4,2.1c-3.5,0-7.1,0-10.6,0
			c-0.4,0-0.9,0.1-1.3-0.1c-0.9-0.2-1.5-0.9-1.5-1.8c0-0.3,0-0.6,0-0.9c0.2-0.1,0.3,0.1,0.4,0.2c0.4,0.2,0.8,0.2,1.1-0.2
			c0.3-0.4,0.2-0.8-0.1-1.1c0,0,0,0,0,0c-0.3-0.3-0.7-0.3-1,0C8.3,23.7,8.2,23.8,8.1,23.8z M21.8,24.1c0.3,0,0.6-0.3,0.6-0.6
			c0-0.3-0.3-0.6-0.6-0.6c-0.3,0-0.6,0.3-0.6,0.6C21.2,23.8,21.5,24.1,21.8,24.1z M17,23.6c-0.3,0-0.6,0.3-0.6,0.6
			c0,0.3,0.3,0.6,0.6,0.6c0.3,0,0.6-0.2,0.6-0.6C17.6,23.9,17.3,23.6,17,23.6z M9.6,22.1c-0.2,0-0.3,0.1-0.3,0.3
			c0,0.2,0.1,0.3,0.3,0.3c0.2,0,0.3-0.1,0.3-0.3C9.9,22.2,9.8,22.1,9.6,22.1z M19.4,24.2c0,0.2,0.1,0.3,0.3,0.3
			c0.2,0,0.3-0.1,0.3-0.3c0-0.2-0.1-0.3-0.3-0.3C19.6,23.9,19.5,24,19.4,24.2z M18.1,23.3c-0.1,0-0.3,0.1-0.3,0.3
			c0,0.2,0.1,0.3,0.3,0.3c0.2,0,0.3-0.1,0.3-0.3C18.4,23.4,18.3,23.3,18.1,23.3z"/>
		<path class="st2" d="M14.2,21.3c0,0.1,0.1,0.2,0.1,0.3c0,0.1,0,0.2,0.1,0.2c0,0.1,0.1,0.2,0.1,0.3c0,0.1,0,0.1,0,0.2
			c0,0.1,0,0.2,0,0.3c0,0.2,0,0.5,0,0.7c0,0.1-0.1,0.3-0.1,0.4c-0.1,0-0.1,0.1-0.1,0.2c-0.8,0.6-1.4,0.6-2.2,0
			c0-0.1-0.1-0.1-0.1-0.2c0,0,0-0.1-0.1-0.1c0-0.2-0.1-0.5-0.1-0.7c0-0.1,0-0.1,0-0.2c0.1-0.2,0.1-0.4,0.1-0.6c0-0.1,0-0.2,0-0.3
			c0.1-0.3,0.1-0.6,0.1-0.9c0-0.2,0-0.3,0.2-0.3c0.5-0.1,1-0.4,1.4-0.7c0.1-0.1,0.2-0.2,0.3,0c0,0.1,0,0.2,0.1,0.3
			C14,20.6,14.1,21,14.2,21.3z"/>
		<path class="st2" d="M12.2,17.8c0.1-0.2,0.1-0.3,0.1-0.5c0.1-0.1,0.1-0.3,0.1-0.4c0-0.1,0-0.2,0-0.2c0.4-0.1,0.7-0.2,1.1-0.4
			c0.2-0.1,0.3-0.1,0.3,0.2c0,0.6,0,1.1,0,1.7c0,0.9-0.7,1.8-1.7,2c0-0.3,0-0.5,0-0.8c0.1-0.2,0.1-0.5,0.1-0.7c0-0.2,0-0.3,0-0.5
			C12.2,18,12.2,17.9,12.2,17.8z"/>
		<path class="st3" d="M10.6,10c0.5,0,0.9,0.4,0.9,1c0,0.5-0.4,0.9-0.9,0.9c-0.5,0-0.9-0.4-0.9-0.9C9.7,10.4,10.1,10,10.6,10z"/>
		<path class="st3" d="M17.7,4c0,0.3-0.2,0.6-0.5,0.5c-0.3,0-0.6-0.3-0.5-0.6c0-0.3,0.2-0.5,0.5-0.5C17.4,3.4,17.7,3.7,17.7,4z"/>
		<path class="st4" d="M19.8,10.6c0,0.3-0.2,0.4-0.4,0.4c-0.3,0-0.4-0.2-0.4-0.4c0-0.2,0.1-0.4,0.4-0.4
			C19.7,10.2,19.8,10.3,19.8,10.6z"/>
		<path class="st4" d="M10.5,17c-0.3,0-0.4-0.2-0.4-0.4c0-0.2,0.1-0.4,0.4-0.4c0.2,0,0.4,0.1,0.4,0.4C10.9,16.9,10.8,17,10.5,17z"/>
		<path class="st4" d="M16.6,13.9c-0.2,0-0.3-0.2-0.3-0.5c0-0.3,0.2-0.5,0.5-0.5c0.3,0,0.5,0.2,0.5,0.5C17.3,13.7,17,13.9,16.6,13.9
			z M16.9,13.1c-0.3,0-0.4,0.1-0.4,0.3c0,0.2,0.1,0.3,0.3,0.3c0.2,0,0.3-0.2,0.3-0.4C17.1,13.2,17,13.1,16.9,13.1z"/>
		<path class="st4" d="M20.2,16.2c0,0.2-0.1,0.3-0.3,0.3c-0.2,0-0.3-0.1-0.3-0.3c0-0.2,0.1-0.3,0.3-0.3C20.1,15.9,20.2,16,20.2,16.2
			z"/>
		<path class="st4" d="M21.8,19.9c0.1,0,0.3,0.1,0.2,0.3c0,0.2-0.1,0.3-0.3,0.3c-0.2,0-0.2-0.1-0.2-0.3C21.5,20,21.6,19.9,21.8,19.9
			z"/>
		<g>
			<path d="M18.6,15.6C18.6,15.6,18.6,15.6,18.6,15.6c0-0.1,0.1-0.1,0.1-0.2C18.6,15.4,18.6,15.5,18.6,15.6z"/>
			<path d="M18.6,15.6c-0.1,0.2-0.3,0.3-0.3,0.6c-0.4,0.7-0.6,1.4-0.7,2.1c-0.3,1-0.2,2.1-0.4,3.1c0,0.2,0.1,0.4,0.3,0.5
				c0.2,0.1,0.4,0.1,0.5-0.1c0.2-0.2,0.2-0.4,0.1-0.6c-0.5-1.7-0.3-3.3,0.3-4.9C18.5,16.1,18.6,15.9,18.6,15.6z"/>
		</g>
		<path d="M16.6,8.9c-0.3,0.2-0.4,0.5-0.5,0.7c0,0,0,0,0,0c-0.2,0.2-0.4,0.4-0.6,0.6c-0.5,0.4-0.5,0.4-0.9,0
			c-0.1-0.1-0.1-0.1-0.1-0.2c0,0,0-0.1,0.1-0.2c0.1-0.1,0.1-0.3,0.2-0.5c0.4-1.5,1.1-2.9,1.7-4.1c-0.1,0.1-0.4,0.4-0.6,0.7
			c-0.7,1.1-1.3,2.3-1.7,3.5c0,0.1-0.1,0.2-0.1,0.3c0,0,0,0,0,0c-0.1,0.1-0.2,0.1-0.4,0c-0.5,0-0.8,0.1-1,0.6
			c-0.2,0.4-0.2,0.7,0.1,1c0.3,0.4,0.7,0.4,1.1,0.2c0.3-0.1,0.6-0.2,0.8-0.4c0.1-0.1,0.2-0.1,0.3,0.1c0.6,1.1,0.2,3-0.7,3.8
			c-0.1,0.1-0.2,0.2-0.3,0c-0.2-0.2-0.4-0.4-0.7-0.5c-0.1,0-0.1-0.1-0.1-0.1c0.1-0.1,0.1,0,0.2,0c0.2,0.1,0.3,0.1,0.5,0.2
			c0-0.2,0-0.5,0.1-0.7c0.2-0.7,0.2-1.4,0.4-2c0-0.1,0-0.2-0.1-0.2c-0.2-0.1-0.8,0.2-0.8,0.5c-0.1,0.5-0.2,1-0.4,1.4
			c-0.1,0.5-0.1,0.5,0.1,0.8c-1.5,0.1-2,0.7-1.5,1.7c0.1,0,0.2,0,0.2,0.1c0.1,0,0.2,0,0.2,0.1c0.6,0,1.2-0.2,1.7-0.5
			c0.2-0.2,0.3-0.1,0.4,0.1c0.5,1.3,0.1,2.8-1.1,3.8l0.1,0.1c0.2-0.2,0.5-0.4,0.7-0.5c0.9-1.1,1-2.3,0.5-3.6
			c-0.1-0.2-0.1-0.3,0.1-0.5c1.2-1.2,1.3-2.6,0.8-4.2c-0.1-0.2,0-0.3,0.1-0.5c0.3-0.3,0.7-0.6,0.8-1c0,0,0,0,0,0
			C16.2,9.4,16.7,9.3,16.6,8.9z M14.6,10.9c-0.3,0.1-0.5,0.4-0.8,0.4c-0.3,0.1-0.6,0.1-0.8-0.2c-0.2-0.3-0.1-0.5,0.1-0.7
			c0.2-0.4,0.6-0.4,1-0.2c0.4,0.1,0.5,0.3,0.7,0.5C14.7,10.8,14.7,10.9,14.6,10.9z M13,15.9c-0.2,0.1-0.5,0.2-0.7,0.2
			c-0.2,0.1-0.5,0-0.6-0.2c-0.1-0.2,0-0.4,0.1-0.6c0.3-0.4,0.9-0.6,1.4-0.3c0,0,0,0,0,0c0.2,0.1,0.6,0.3,0.5,0.5
			C13.6,15.7,13.3,15.9,13,15.9z"/>
		<path d="M20.9,21C20.9,21,20.9,20.9,20.9,21C20.9,20.9,20.9,20.9,20.9,21c-0.1-0.6-0.1-1.2,0.1-1.7c0.1-0.4,0.2-0.8,0.4-1.2
			c-0.3,0.3-0.5,0.6-0.5,1c-0.1,0.3-0.1,0.6-0.2,0.9c0,0.1,0,0.1,0,0.2c0,0.2,0,0.3-0.1,0.5c0,0.2,0.1,0.4,0,0.6
			c0,0.2-0.1,0.3,0.1,0.4c0.1,0.1,0.2,0.1,0.3,0c0.2-0.1,0.1-0.3,0.1-0.5C20.9,21.1,20.9,21,20.9,21z"/>
		<path class="st2" d="M13.1,20c-0.3,0.2-0.6,0.4-1,0.4c0.3-0.2,0.6-0.3,0.9-0.5C13.1,19.9,13.1,20,13.1,20z"/>
		<path class="st1" d="M16.9,13.1c0.2,0,0.2,0.1,0.2,0.3c0,0.2-0.1,0.4-0.3,0.4c-0.2,0-0.3-0.1-0.3-0.3
			C16.5,13.2,16.6,13.1,16.9,13.1z"/>
		<path class="st2" d="M13.9,10.3c0.2,0.1,0.4,0.2,0.4,0.4c0,0.2-0.3,0.2-0.5,0.3c-0.1,0-0.2,0-0.3,0.1
			C13.7,10.8,13.7,10.6,13.9,10.3z"/>
		<path class="st2" d="M13,15.1C13.1,15.1,13.1,15.1,13,15.1c0.5,0.3,0.5,0.3,0,0.6c0,0-0.1,0-0.1,0.1c-0.2,0-0.4,0.2-0.5,0.1
			c-0.2-0.2,0-0.5,0.1-0.6C12.6,14.9,12.9,15.1,13,15.1z"/>
	</g>
</g>
</svg>
