<svg width="76" height="77" viewBox="0 0 76 77" fill="none" xmlns="http://www.w3.org/2000/svg">
<g clip-path="url(#clip0_135_3418)">
<path d="M39.4455 33.442C38.6116 34.149 37.3886 34.149 36.5547 33.442C28.6519 26.7427 24.5884 20.2412 24.5884 13.8546C24.5882 6.44746 30.593 0.442871 38 0.442871C45.407 0.442871 51.4118 6.44746 51.4118 13.8546C51.4118 20.2412 47.3483 26.7427 39.4455 33.442ZM39.4455 43.4437C47.3483 50.143 51.4118 56.6446 51.4118 63.0311C51.4118 70.4383 45.4072 76.4429 38 76.4429C30.5928 76.4429 24.5882 70.4383 24.5882 63.0311C24.5882 56.6446 28.6517 50.143 36.5545 43.4437C37.3886 42.7367 38.6114 42.7367 39.4455 43.4437ZM43.0009 39.8884C42.2939 39.0544 42.2939 37.8315 43.0009 36.9975C49.7003 29.0947 56.2019 25.0312 62.5882 25.0312C69.9954 25.0311 76 31.0357 76 38.4429C76 45.8501 69.9954 51.8546 62.5882 51.8546C56.2017 51.8546 49.7001 47.7912 43.0009 39.8884ZM32.9991 39.8884C26.2997 47.7912 19.7981 51.8546 13.4118 51.8546C6.00459 51.8546 0 45.8501 0 38.4429C0 31.0357 6.00459 25.0311 13.4118 25.0311C19.7983 25.0311 26.2999 29.0946 32.9991 36.9974C33.7061 37.8315 33.7061 39.0543 32.9991 39.8884Z" fill="#CD5F37"/>
</g>
<defs>
<clipPath id="clip0_135_3418">
<rect width="76" height="76" fill="white" transform="translate(0 0.442871)"/>
</clipPath>
</defs>
</svg>
