<svg width="1800" height="801" viewBox="0 0 1800 801" fill="none" xmlns="http://www.w3.org/2000/svg">
<g clip-path="url(#clip0_146_8889)">
<path d="M82.7315 776.125C83.379 780.935 83.194 786.578 79.4013 789.816C75.6086 792.961 69.0408 791.574 66.8207 787.226C67.1907 792.499 63.028 797.679 57.8478 798.419C52.6675 799.159 47.2097 795.181 46.1922 790.001C45.0821 793.701 40.4569 795.459 36.8492 794.256C33.2416 793.054 30.6514 789.631 29.7264 785.931C28.7088 782.231 29.0789 778.345 29.6339 774.553C31.9465 759.197 37.8668 744.489 46.8397 731.816C48.6898 729.133 50.8174 724.415 54.1476 725.803C57.1077 727.005 60.3454 731.168 62.473 733.481C67.5607 738.938 71.9084 745.136 75.2386 751.797C79.1238 759.289 81.7139 767.615 82.7315 776.125Z" stroke="#481E0B" stroke-opacity="0.1" stroke-miterlimit="10"/>
<path d="M61.087 731.816C66.9148 744.951 70.8 759.012 72.6501 773.258C68.1174 763.175 63.5847 753.092 59.0519 742.916C57.7569 756.33 57.6644 769.928 58.6819 783.433C52.5766 771.778 49.709 758.457 50.5415 745.322C45.2688 755.497 41.2911 766.413 38.7935 777.606C37.4984 765.672 39.071 753.462 43.2337 742.269C44.5287 738.754 46.1013 735.239 47.0264 731.631" stroke="#481E0B" stroke-opacity="0.1" stroke-miterlimit="10"/>
<path d="M64.1295 644.861C66.4421 640.606 69.9573 636.073 74.7675 635.796C79.6703 635.426 84.203 640.421 83.3704 645.324C86.1456 640.791 92.6209 639.126 97.2461 641.624C101.871 644.121 103.999 650.504 101.686 655.222C104.739 652.909 109.549 654.204 111.769 657.257C113.989 660.309 114.082 664.657 112.694 668.172C111.307 671.78 108.717 674.74 106.034 677.423C95.211 688.431 81.7054 696.941 66.9972 701.936C63.9445 702.954 59.4118 705.544 57.4692 702.491C55.8041 699.809 55.6191 694.536 55.2491 691.391C54.324 683.991 54.5091 676.498 55.7116 669.097C57.2842 660.587 60.0593 652.354 64.1295 644.861Z" stroke="#481E0B" stroke-opacity="0.1" stroke-miterlimit="10"/>
<path d="M55.6172 693.519C58.6698 679.458 63.7576 665.768 70.6029 653.094C68.2903 663.917 66.0702 674.74 63.7576 685.564C72.7305 675.388 80.7784 664.565 87.8088 653.002C85.8662 666.045 80.4084 678.533 71.9905 688.709C82.2585 683.528 91.8789 677.146 100.482 669.56C94.4691 679.921 86.0512 688.894 76.1532 695.554C73.008 697.682 69.6779 699.532 66.8102 701.937" stroke="#481E0B" stroke-opacity="0.1" stroke-miterlimit="10"/>
<path d="M-9.87062 680.753C-13.2008 677.145 -16.4384 672.52 -15.2359 667.802C-14.0333 662.992 -7.92802 660.217 -3.58031 662.53C-7.00298 658.552 -6.63296 651.799 -2.84028 648.191C0.952405 644.584 7.70523 644.584 11.4979 648.191C10.2954 644.584 12.8855 640.421 16.5857 639.219C20.1933 638.016 24.356 639.311 27.3162 641.716C30.2763 644.121 32.3114 647.451 34.069 650.874C41.1919 664.657 45.077 680.013 45.2621 695.554C45.2621 698.791 46.3721 703.879 42.8569 704.804C39.7118 705.637 34.7165 704.064 31.5714 703.509C24.2635 702.122 17.1407 699.624 10.4804 696.201C2.9875 692.224 -4.04284 686.951 -9.87062 680.753Z" stroke="#481E0B" stroke-opacity="0.1" stroke-miterlimit="10"/>
<path d="M33.7016 703.879C21.306 696.664 9.83548 687.599 -0.0625 677.053C9.55797 682.603 19.1784 688.061 28.7989 693.611C21.9536 681.956 14.0907 670.948 5.30276 660.587C17.1433 666.415 27.2263 675.573 34.3492 686.674C32.5916 675.295 29.4464 664.195 24.9137 653.649C32.8691 662.622 38.7894 673.353 42.1195 684.916C43.1371 688.524 43.8771 692.316 45.2647 695.739" stroke="#481E0B" stroke-opacity="0.1" stroke-miterlimit="10"/>
<path d="M117.051 702.214C121.861 703.139 127.134 704.989 128.984 709.522C130.834 714.055 127.504 719.975 122.601 720.622C127.689 721.825 131.389 727.468 130.372 732.648C129.447 737.828 123.989 741.806 118.809 741.066C121.954 743.286 122.231 748.189 120.011 751.334C117.791 754.387 113.721 755.774 109.836 755.589C106.043 755.404 102.435 753.832 99.0125 752.166C85.1369 745.229 72.9263 735.053 63.6758 722.658C61.7332 720.067 57.9406 716.552 60.1607 713.777C62.1958 711.279 67.191 709.522 70.0586 708.227C76.8115 705.082 84.0268 702.862 91.4272 701.751C99.9376 700.549 108.633 700.641 117.051 702.214Z" stroke="#481E0B" stroke-opacity="0.1" stroke-miterlimit="10"/>
<path d="M68.2112 709.152C82.5494 707.672 97.0726 708.32 111.318 711.002C100.31 712.205 89.3022 713.407 78.2942 714.61C90.6898 719.975 103.548 724.323 116.684 727.468C103.733 729.688 90.1347 728.301 77.8316 723.398C85.8795 731.538 94.945 738.661 104.843 744.581C93.0949 742.084 81.9943 736.903 72.5589 729.503C69.5987 727.19 66.8236 724.6 63.5859 722.565" stroke="#481E0B" stroke-opacity="0.1" stroke-miterlimit="10"/>
<path d="M6.22745 759.752C1.78724 761.787 -3.57802 763.452 -7.74072 760.862C-11.9034 758.272 -12.6435 751.519 -9.12829 748.096C-14.031 750.131 -20.2288 747.726 -22.5414 743.008C-24.8541 738.291 -22.7265 731.908 -18.1012 729.318C-21.8939 729.41 -25.0391 725.525 -25.0391 721.732C-25.0391 717.94 -22.5414 714.424 -19.3038 712.297C-16.0661 710.262 -12.2734 709.337 -8.48076 708.689C6.78248 706.099 22.6932 707.209 37.494 711.834C40.6391 712.759 45.7269 713.407 45.5419 716.922C45.3568 720.16 42.3967 724.415 40.8241 727.19C37.2164 733.758 32.6837 739.678 27.411 744.951C21.1207 751.056 13.9978 756.051 6.22745 759.752Z" stroke="#481E0B" stroke-opacity="0.1" stroke-miterlimit="10"/>
<path d="M41.7484 725.432C31.0179 735.053 18.8073 743.101 5.76415 749.298C13.997 741.898 22.1374 734.405 30.3703 727.005C17.1422 729.965 4.19157 734.035 -8.29654 739.215C0.861408 729.78 12.702 722.935 25.4676 719.697C14.1821 717.847 2.61899 717.384 -8.85156 718.494C2.06397 713.592 14.1821 711.279 26.1151 711.742C29.9078 711.927 33.7005 712.297 37.4007 712.112" stroke="#481E0B" stroke-opacity="0.1" stroke-miterlimit="10"/>
<path d="M55.8111 695.184C54.2386 694.814 52.5735 694.721 50.8159 694.814C48.8733 694.906 47.0232 695.369 45.2656 696.016" stroke="#481E0B" stroke-opacity="0.1" stroke-miterlimit="10"/>
<path d="M39.7109 728.855C41.6535 730.428 43.8736 731.723 46.3713 732.463" stroke="#481E0B" stroke-opacity="0.1" stroke-miterlimit="10"/>
<path d="M60.6172 731.26C63.0223 730.058 65.0574 728.393 66.7225 726.45" stroke="#481E0B" stroke-opacity="0.1" stroke-miterlimit="10"/>
<path d="M33.0547 710.725C33.4247 708.412 34.2572 706.284 35.4598 704.342" stroke="#481E0B" stroke-opacity="0.1" stroke-miterlimit="10"/>
<path d="M66.9141 701.937C68.3941 703.787 69.5967 705.914 70.3367 708.227" stroke="#481E0B" stroke-opacity="0.1" stroke-miterlimit="10"/>
<path d="M1793.05 2.96683C1793.11 2.96683 1793.11 3.02201 1793.16 3.02201C1801.17 12.1824 1826.66 43.6369 1818.16 65.5446L1808.39 90.8737C1808.34 91.0944 1808.12 91.2048 1807.9 91.2048C1807.68 91.2048 1807.51 91.0392 1807.46 90.8185C1807.35 90.4322 1798.24 53.8458 1789.85 52.3558C1789.19 52.2454 1788.86 52.4662 1788.69 52.6317C1786.93 54.5079 1789.25 63.4476 1791.67 72.9391C1794.82 85.3002 1798.41 99.3167 1795.59 105.828C1790.13 118.52 1774.57 129.171 1774.46 129.281C1774.29 129.392 1774.13 129.392 1773.96 129.281C1773.8 129.171 1773.68 129.005 1773.74 128.84C1774.18 117.913 1774.07 89.6045 1767.95 89.2734C1767.45 89.2734 1767.06 89.3837 1766.73 89.7148C1764.86 91.5911 1765.24 98.5442 1765.57 105.939C1766.12 116.975 1766.73 129.447 1761.71 135.407C1752.33 146.609 1745.98 144.843 1745.71 144.732C1745.49 144.677 1745.38 144.457 1745.38 144.236C1745.71 133.585 1745.49 112.506 1742.34 109.25C1742.12 109.029 1741.9 108.919 1741.68 108.919C1739.8 108.863 1739.42 116.037 1739.03 122.935C1738.48 132.703 1737.82 144.898 1732.96 148.982C1724.52 156.155 1682.8 159.025 1681.03 159.191C1680.87 159.191 1680.7 159.135 1680.59 158.97C1680.48 158.804 1680.48 158.639 1680.59 158.473C1681.25 157.425 1748.41 53.9561 1792.39 2.91165C1792.5 2.80128 1792.61 2.74609 1792.78 2.74609C1792.89 2.85646 1793 2.91164 1793.05 2.96683ZM1808.06 89.1078L1817.33 65.1583C1825.39 44.1335 1801.06 13.6172 1792.78 4.07049C1750.89 52.7973 1688.37 148.43 1681.91 158.308C1688.37 157.811 1724.79 154.776 1732.3 148.43C1736.82 144.622 1737.48 132.647 1737.98 123.046C1738.48 114.327 1738.81 108.036 1741.62 108.091C1742.12 108.091 1742.56 108.312 1742.95 108.753C1746.92 112.892 1746.37 140.152 1746.26 144.015C1747.69 144.181 1753.16 144.07 1760.88 134.91C1765.68 129.226 1765.02 116.368 1764.52 106.104C1764.14 97.8268 1763.81 91.3152 1765.96 89.1078C1766.51 88.556 1767.17 88.3353 1767.95 88.3353C1775.62 88.6664 1774.9 120.838 1774.68 127.902C1777.88 125.584 1790.07 116.203 1794.71 105.442C1797.41 99.2064 1793.88 85.3554 1790.74 73.1599C1787.76 61.4058 1785.99 54.1217 1788.03 51.9695C1788.53 51.4177 1789.19 51.2521 1790.07 51.4177C1798.13 52.8525 1806.19 82.0996 1808.06 89.1078Z" fill="#481E0B" fill-opacity="0.1"/>
<path d="M1787.75 -0.288177C1787.86 -0.232993 1787.92 -0.122627 1787.92 -0.0122606C1787.97 0.153289 1787.92 0.31884 1787.86 0.429207C1754.37 45.3483 1684.06 149.314 1681.47 158.971C1681.41 159.191 1681.25 159.302 1681.03 159.302C1680.81 159.302 1680.64 159.136 1680.59 158.971C1680.09 157.26 1669.05 117.583 1672.86 107.209C1675.01 101.249 1686.22 96.448 1695.21 92.53C1701.56 89.7708 1708.12 86.9565 1707.46 85.1906C1707.41 84.9699 1707.19 84.8595 1706.91 84.694C1702.6 82.8178 1680.97 90.7641 1673.03 93.9648C1672.81 94.0751 1672.59 93.9648 1672.47 93.7992C1672.31 93.5785 1668.45 88.2809 1675.73 75.5888C1679.59 68.8012 1691.51 65.0488 1702.05 61.7378C1709.12 59.5304 1715.79 57.4335 1716.9 55.0606C1717.12 54.6191 1717.12 54.1777 1716.9 53.7362C1714.52 48.1627 1687.87 57.8198 1677.77 62.0137C1677.61 62.0689 1677.39 62.0689 1677.28 61.9585C1677.11 61.8481 1677.06 61.6274 1677.11 61.4618C1677.17 61.2963 1681.8 42.9755 1691.79 33.484C1696.98 28.5726 1711.32 27.0827 1724.02 25.7583C1733.73 24.765 1742.94 23.7717 1744.1 21.5092C1744.21 21.2885 1744.32 20.9574 1743.99 20.3503C1740.63 14.6665 1715.9 15.6598 1701.89 17.1497C1701.67 17.1497 1701.45 17.0394 1701.39 16.8738C1701.28 16.7083 1701.34 16.4875 1701.5 16.322C1701.67 16.2116 1702.94 15.0528 1715.3 4.18166L1721.92 -1.61257C1738.64 -16.2913 1773.57 -5.58577 1787.81 -0.288177C1787.7 -0.34336 1787.75 -0.288177 1787.75 -0.288177ZM1681.08 157.315C1688.15 141.478 1753.43 45.0724 1786.7 0.318838C1775.01 -3.98545 1738.92 -15.4636 1722.42 -1.00556L1715.79 4.78868C1708.07 11.5762 1704.65 14.6113 1703.16 15.9357C1711.93 15.0528 1740.68 12.8454 1744.76 19.7985C1745.21 20.5159 1745.26 21.2333 1744.93 21.8955C1743.61 24.5443 1736.16 25.4272 1724.07 26.6964C1711.54 28.0208 1697.36 29.4556 1692.4 34.1462C1683.9 42.2029 1679.32 56.8816 1678.21 60.6893C1684.28 58.206 1710.55 47.8316 1716.68 52.0807C1717.12 52.4118 1717.5 52.7981 1717.67 53.2947C1717.95 54.0121 1717.95 54.7295 1717.67 55.3917C1716.4 58.1509 1710.17 60.1375 1702.22 62.6207C1692.4 65.711 1680.15 69.5738 1676.45 76.0302C1670.54 86.4047 1672.31 91.5919 1672.97 92.8611C1676.56 91.4263 1701.89 81.4382 1707.19 83.7559C1707.74 83.9766 1708.07 84.3077 1708.23 84.8043C1709.23 87.398 1703.49 89.9364 1695.49 93.3577C1686.66 97.1654 1675.68 101.911 1673.69 107.485C1670.38 116.59 1679.1 149.976 1681.08 157.315Z" fill="#481E0B" fill-opacity="0.1"/>
<path d="M1807.12 -23.5207C1807.18 -23.4656 1807.12 -23.4656 1807.12 -23.5207C1809.38 -21.479 1811.48 -19.7683 1813.47 -18.168C1813.58 -18.0576 1813.63 -17.9472 1813.63 -17.7817C1813.63 -17.6161 1813.58 -17.5058 1813.47 -17.3954C1807.89 -12.6496 1801.05 -5.58619 1793.1 3.68459C1749.18 54.6187 1682.07 158.087 1681.41 159.136C1681.3 159.356 1681.03 159.412 1680.81 159.301C1680.58 159.191 1680.47 158.97 1680.53 158.749C1683.23 148.761 1752.71 46.0101 1787.09 -0.123053C1796.58 -12.9256 1802.76 -20.4305 1805.35 -22.5274L1805.46 -22.6378C1805.85 -22.9137 1806.18 -23.1896 1806.57 -23.4656C1806.73 -23.6311 1806.95 -23.6311 1807.12 -23.5207ZM1812.42 -17.7817C1810.6 -19.2164 1808.78 -20.7616 1806.79 -22.4723C1806.57 -22.3067 1806.29 -22.086 1806.02 -21.8652L1805.91 -21.7549C1803.42 -19.7683 1797.19 -12.0978 1787.86 0.428779C1758.61 39.7192 1701.17 124.094 1685.44 151.189C1701.72 126.412 1755.25 46.1205 1792.39 3.07757C1800.17 -5.97248 1806.9 -12.9807 1812.42 -17.7817Z" fill="#481E0B" fill-opacity="0.1"/>
<path d="M1778.04 12.4036C1778.26 12.5692 1778.32 12.8451 1778.21 13.0106C1778.1 13.2314 1777.77 13.3417 1777.55 13.1762C1777.38 13.121 1762.81 5.00906 1749.13 5.28498C1735.22 5.5609 1721.98 -0.840355 1721.87 -0.950721C1721.64 -1.06109 1721.53 -1.33701 1721.64 -1.61292C1721.76 -1.83366 1722.03 -1.94402 1722.31 -1.83366C1722.42 -1.77847 1735.44 4.5676 1749.13 4.29168C1763.03 4.07095 1777.88 12.2932 1778.04 12.4036C1778.04 12.3484 1778.04 12.3484 1778.04 12.4036Z" fill="#481E0B" fill-opacity="0.1"/>
<path d="M1756.85 42.8091C1756.96 42.9195 1757.07 43.085 1757.07 43.2506C1757.07 43.5265 1756.8 43.6921 1756.58 43.6921C1756.3 43.6921 1730.31 41.6503 1716.85 38.6704C1703.6 35.7457 1684.89 44.4646 1684.67 44.5198C1684.45 44.6302 1684.12 44.5198 1684.01 44.2991C1683.9 44.0783 1684.01 43.7472 1684.23 43.6369C1685.01 43.2506 1703.44 34.6972 1717.01 37.7323C1730.37 40.7122 1756.3 42.6988 1756.58 42.7539C1756.69 42.7539 1756.8 42.7539 1756.85 42.8091Z" fill="#481E0B" fill-opacity="0.1"/>
<path d="M1736.21 72.719C1736.32 72.7742 1736.43 72.9397 1736.43 73.1053C1736.43 73.3812 1736.27 73.6019 1735.99 73.6019C1735.77 73.6019 1715.52 75.0919 1702.66 74.0986C1690.02 73.1053 1672.47 86.7907 1672.31 86.9563C1672.09 87.1218 1671.81 87.0666 1671.65 86.9011C1671.48 86.6803 1671.54 86.4044 1671.7 86.2389C1672.42 85.6871 1689.69 72.1672 1702.71 73.2156C1715.52 74.2089 1735.71 72.7742 1735.94 72.719C1735.99 72.6086 1736.1 72.6638 1736.21 72.719Z" fill="#481E0B" fill-opacity="0.1"/>
<path d="M1710.66 110.685C1710.77 110.74 1710.82 110.851 1710.82 110.961C1710.88 111.237 1710.77 111.458 1710.49 111.568C1710.44 111.568 1706.24 112.782 1693.44 118.135C1680.69 123.433 1674.51 129.172 1674.46 129.227C1674.24 129.392 1673.96 129.392 1673.8 129.227C1673.63 129.006 1673.63 128.73 1673.8 128.565C1673.85 128.509 1680.14 122.605 1693.05 117.252C1705.91 111.899 1710.05 110.74 1710.22 110.685C1710.38 110.575 1710.49 110.575 1710.66 110.685Z" fill="#481E0B" fill-opacity="0.1"/>
<path d="M1782.57 15.5484C1782.68 15.6588 1790.85 23.2189 1800.17 40.2705C1809.44 57.2117 1816.95 67.8069 1817.06 67.9173C1817.22 68.138 1817.17 68.4139 1816.95 68.5795C1816.73 68.745 1816.45 68.6898 1816.29 68.4691C1816.23 68.3587 1808.67 57.7084 1799.34 40.712C1790.07 23.8259 1782.07 16.3762 1781.96 16.321C1781.74 16.1554 1781.74 15.8243 1781.91 15.6588C1782.13 15.438 1782.4 15.3829 1782.57 15.5484Z" fill="#481E0B" fill-opacity="0.1"/>
<path d="M1759.89 44.9068C1759.94 44.9619 1760 45.0171 1760.05 45.1275C1760.16 45.3482 1769.21 65.3797 1772.08 69.7392C1772.58 70.4566 1773.07 71.1188 1773.57 71.8362C1776.28 75.5334 1779.37 79.6722 1781.74 93.7439C1784.5 110.189 1787.53 117.307 1787.53 117.418C1787.64 117.638 1787.53 117.969 1787.26 118.025C1787.04 118.135 1786.7 118.025 1786.59 117.749C1786.54 117.693 1783.5 110.464 1780.74 93.8543C1778.43 80.0033 1775.39 75.9197 1772.74 72.3328C1772.25 71.6154 1771.69 70.9532 1771.25 70.1807C1768.33 65.766 1759.55 46.2312 1759.17 45.4034C1759.06 45.1827 1759.17 44.8516 1759.39 44.7412C1759.55 44.7964 1759.72 44.7964 1759.89 44.9068Z" fill="#481E0B" fill-opacity="0.1"/>
<path d="M1739.08 74.7058C1739.14 74.7058 1739.14 74.761 1739.2 74.761C1739.36 74.9266 1742.89 78.8998 1744.82 85.6873C1746.7 92.1437 1748.74 98.2691 1753.6 110.189C1758.34 121.943 1754.98 140.981 1754.81 141.809C1754.76 142.085 1754.54 142.25 1754.26 142.195C1753.98 142.14 1753.82 141.919 1753.87 141.643C1753.93 141.422 1757.35 122.053 1752.72 110.575C1747.86 98.6002 1745.82 92.4748 1743.89 85.9632C1742.01 79.4516 1738.48 75.4784 1738.42 75.4232C1738.26 75.2025 1738.26 74.9266 1738.48 74.761C1738.64 74.5955 1738.92 74.5955 1739.08 74.7058Z" fill="#481E0B" fill-opacity="0.1"/>
<path d="M1712.87 110.905C1712.98 111.016 1713.09 111.126 1713.09 111.292C1713.09 111.347 1712.93 117.803 1713.48 120.783C1713.76 122.218 1713.48 124.591 1713.09 127.902C1712.65 131.82 1712.04 136.731 1712.15 142.249C1712.32 151.851 1714.8 154.059 1714.8 154.114C1715.02 154.279 1715.02 154.61 1714.86 154.776C1714.69 154.997 1714.36 154.997 1714.2 154.831C1714.09 154.721 1711.38 152.403 1711.16 142.249C1711.05 136.676 1711.66 131.765 1712.1 127.791C1712.49 124.701 1712.76 122.328 1712.49 121.004C1711.93 117.914 1712.1 111.567 1712.1 111.292C1712.1 111.016 1712.32 110.795 1712.6 110.795C1712.71 110.85 1712.76 110.85 1712.87 110.905Z" fill="#481E0B" fill-opacity="0.1"/>
</g>
<defs>
<clipPath id="clip0_146_8889">
<rect width="1800" height="801" rx="40" fill="white"/>
</clipPath>
</defs>
</svg>
