<svg width="1800" height="980" viewBox="0 0 1800 980" fill="none" xmlns="http://www.w3.org/2000/svg">
<g clip-path="url(#clip0_155_45)">
<path d="M1704.67 852.633C1704.07 852.833 1703.47 852.533 1703.37 851.933C1703.37 851.833 1703.17 851.433 1702.87 850.633C1700.07 844.833 1686.67 833.033 1673.67 821.633C1649.57 800.533 1633.97 786.133 1636.47 778.833C1637.37 776.433 1639.97 775.133 1644.67 774.933C1676.47 773.733 1701.27 839.533 1704.97 849.933C1705.17 850.433 1705.37 850.833 1705.47 851.333C1705.57 851.833 1705.27 852.433 1704.87 852.633C1704.77 852.633 1704.77 852.633 1704.67 852.633ZM1638.57 779.633C1636.27 786.033 1657.77 804.833 1675.07 820.033C1685.17 828.833 1694.37 836.933 1699.97 843.133C1691.87 823.133 1670.17 776.333 1644.77 777.333C1643.27 777.433 1641.67 777.533 1640.37 778.133C1639.47 778.333 1638.87 778.833 1638.57 779.633Z" fill="#481E0B" fill-opacity="0.1"/>
<path d="M1729.06 837.434C1728.56 837.134 1728.36 836.534 1728.66 835.934C1728.66 835.834 1728.86 835.433 1729.26 834.733C1731.56 828.733 1730.76 810.833 1729.96 793.533C1728.56 761.533 1728.16 740.334 1735.16 737.134H1735.26C1737.56 736.134 1740.36 737.233 1743.66 740.433C1766.46 762.533 1736.06 826.034 1731.16 835.834C1730.96 836.334 1730.76 836.734 1730.46 837.134C1730.36 837.334 1730.16 837.433 1729.96 837.533C1729.76 837.633 1729.36 837.634 1729.06 837.434ZM1736.16 739.233C1729.96 742.033 1731.26 770.633 1732.26 793.533C1732.86 806.933 1733.36 819.134 1732.76 827.434C1741.66 807.734 1760.46 759.733 1742.16 742.033C1740.36 740.333 1737.96 738.433 1736.16 739.233C1736.16 739.133 1736.16 739.133 1736.16 739.233Z" fill="#481E0B" fill-opacity="0.1"/>
<path d="M1728.76 842.534C1728.16 842.634 1727.66 842.134 1727.56 841.634C1727.56 841.534 1727.46 841.134 1727.36 840.234C1725.76 834.034 1714.76 819.934 1704.06 806.234C1684.36 780.934 1671.76 763.934 1675.66 757.234C1676.96 755.034 1679.86 754.234 1684.46 754.934C1715.86 759.734 1727.86 829.034 1729.56 839.934C1729.66 840.434 1729.76 840.934 1729.76 841.334C1729.76 841.834 1729.46 842.234 1729.06 842.434C1728.96 842.534 1728.86 842.534 1728.76 842.534ZM1677.56 758.434C1674.16 764.334 1691.66 786.834 1705.86 804.934C1714.06 815.534 1721.66 825.134 1725.96 832.234C1721.76 811.034 1709.26 761.034 1684.16 757.134C1682.36 756.834 1680.26 756.734 1678.86 757.334C1678.26 757.634 1677.86 757.934 1677.56 758.434Z" fill="#481E0B" fill-opacity="0.1"/>
<path d="M1726.26 867.733C1725.96 867.233 1726.06 866.633 1726.56 866.233C1726.56 866.233 1727.06 865.933 1727.76 865.433C1732.66 861.233 1740.56 845.233 1748.26 829.733C1762.46 801.033 1772.36 782.233 1780.06 782.833C1782.66 783.033 1784.56 785.333 1785.96 789.733C1795.26 820.133 1737.96 861.033 1728.96 867.233C1728.56 867.533 1728.16 867.833 1727.76 868.033H1727.66C1727.06 868.333 1726.56 868.133 1726.26 867.733ZM1750.16 830.733C1744.26 842.733 1738.76 853.633 1734.26 860.633C1751.56 847.633 1791.16 814.633 1783.76 790.433C1783.06 788.033 1781.76 785.233 1779.86 785.033C1779.36 785.033 1778.76 785.133 1778.26 785.333C1771.16 788.333 1759.66 811.733 1750.16 830.733Z" fill="#481E0B" fill-opacity="0.1"/>
<path d="M1769.37 901.733C1768.77 901.533 1768.47 901.033 1768.57 900.433C1768.67 900.033 1768.87 899.533 1769.07 899.033C1772.77 888.733 1797.37 822.733 1829.17 823.833C1833.77 824.033 1836.47 825.233 1837.37 827.733C1839.97 835.033 1824.37 849.433 1800.37 870.633C1787.37 882.033 1773.97 893.933 1771.27 899.733C1770.97 900.533 1770.87 901.033 1770.77 901.033C1770.67 901.333 1770.47 901.533 1770.17 901.733C1769.87 901.733 1769.57 901.733 1769.37 901.733ZM1774.07 892.033C1779.67 885.833 1788.77 877.733 1798.87 868.933C1816.07 853.733 1837.57 834.833 1835.27 828.433C1834.57 826.633 1831.57 826.133 1829.07 826.033C1825.77 825.933 1822.57 826.633 1819.47 827.933C1798.37 836.833 1781.07 874.633 1774.07 892.033Z" fill="#481E0B" fill-opacity="0.1"/>
<path d="M1764.56 916.234C1764.06 915.934 1763.96 915.234 1764.26 914.734C1764.46 914.334 1764.76 914.034 1765.16 913.634C1772.26 905.234 1818.66 852.334 1847.96 864.634C1852.26 866.434 1854.26 868.534 1854.26 871.134C1854.16 878.834 1834.46 886.834 1804.46 898.134C1788.26 904.234 1771.56 910.534 1766.96 915.034C1766.36 915.634 1766.06 916.034 1766.06 916.134C1765.96 916.234 1765.76 916.334 1765.66 916.434C1765.36 916.534 1764.86 916.534 1764.56 916.234ZM1772.36 908.934C1779.76 905.134 1791.16 900.834 1803.76 896.034C1825.26 887.934 1851.96 877.834 1852.16 871.034C1852.16 869.134 1849.46 867.534 1847.26 866.634C1840.16 863.634 1831.96 864.934 1823.36 868.534C1803.56 876.834 1782.56 897.834 1772.36 908.934Z" fill="#481E0B" fill-opacity="0.1"/>
<path d="M1709.66 863.834C1709.66 863.834 1709.26 863.434 1708.66 862.834C1703.76 858.634 1686.66 853.434 1670.16 848.334C1639.56 838.934 1619.36 832.234 1618.76 824.534C1618.56 821.934 1620.46 819.734 1624.66 817.634C1653.16 803.434 1702.76 853.434 1710.36 861.334C1710.76 861.734 1711.06 862.034 1711.36 862.434C1711.76 862.934 1711.66 863.534 1711.16 863.934C1711.06 864.034 1710.96 864.034 1710.86 864.134C1710.46 864.334 1709.96 864.234 1709.66 863.834ZM1625.66 819.634C1623.46 820.734 1620.86 822.434 1620.96 824.334C1621.46 831.134 1648.86 839.434 1670.86 846.234C1683.66 850.134 1695.36 853.734 1702.96 857.034C1687.56 842.334 1649.66 809.434 1626.76 819.034C1626.36 819.334 1625.96 819.434 1625.66 819.634Z" fill="#481E0B" fill-opacity="0.1"/>
<path d="M1683.76 892.434C1683.76 892.434 1683.36 892.034 1682.76 891.434C1677.76 887.334 1660.56 882.534 1643.96 877.834C1613.16 869.134 1592.86 862.834 1592.06 855.134C1591.76 852.534 1593.66 850.234 1597.76 848.134C1625.86 833.434 1676.66 882.234 1684.36 890.034C1684.76 890.334 1685.06 890.734 1685.36 891.034C1685.76 891.534 1685.66 892.134 1685.26 892.534C1685.16 892.634 1685.06 892.634 1684.96 892.734C1684.56 892.834 1684.06 892.734 1683.76 892.434ZM1598.76 850.034C1596.56 851.134 1593.96 852.934 1594.16 854.834C1594.86 861.634 1622.36 869.334 1644.46 875.634C1657.36 879.234 1669.06 882.634 1676.76 885.834C1661.16 871.534 1622.86 839.734 1600.16 849.334C1599.76 849.534 1599.26 849.734 1598.76 850.034Z" fill="#481E0B" fill-opacity="0.1"/>
<path d="M1713.87 911.533C1713.77 911.533 1713.37 911.433 1712.47 911.233C1706.07 910.533 1689.07 915.933 1672.47 921.033C1641.87 930.633 1621.47 936.433 1616.57 930.433C1614.97 928.433 1615.27 925.433 1617.57 921.433C1633.17 893.733 1702.27 906.933 1712.97 909.133C1713.47 909.233 1713.97 909.333 1714.37 909.433C1714.97 909.633 1715.27 910.233 1715.07 910.733C1714.97 911.033 1714.77 911.333 1714.47 911.433C1714.37 911.533 1714.17 911.533 1713.87 911.533ZM1619.57 922.533C1618.37 924.733 1617.17 927.533 1618.37 929.033C1622.67 934.333 1649.97 925.833 1671.87 918.933C1684.67 914.933 1696.27 911.333 1704.47 909.733C1687.97 907.033 1653.37 902.833 1632.87 911.433C1627.07 914.033 1622.37 917.533 1619.57 922.533Z" fill="#481E0B" fill-opacity="0.1"/>
<path d="M1763.56 951.434C1763.46 951.434 1763.06 951.334 1762.16 951.134C1755.76 950.434 1738.76 955.834 1722.16 960.934C1691.56 970.534 1671.16 976.334 1666.26 970.334C1664.66 968.334 1664.96 965.334 1667.26 961.334C1682.86 933.634 1751.96 946.834 1762.66 949.034C1763.16 949.134 1763.66 949.234 1764.06 949.334C1764.66 949.534 1764.96 950.134 1764.76 950.634C1764.66 950.934 1764.46 951.234 1764.16 951.334C1764.06 951.434 1763.86 951.534 1763.56 951.434ZM1669.26 962.434C1668.06 964.634 1666.86 967.434 1668.06 968.934C1672.36 974.234 1699.66 965.734 1721.56 958.834C1734.36 954.834 1745.96 951.234 1754.16 949.634C1737.66 946.934 1703.06 942.734 1682.56 951.334C1676.76 953.934 1672.06 957.434 1669.26 962.434Z" fill="#481E0B" fill-opacity="0.1"/>
<path d="M1797.36 991.533C1797.46 991.533 1797.56 991.433 1797.66 991.333C1798.06 990.933 1798.16 990.233 1797.76 989.733C1747.06 935.033 1706.06 851.733 1705.66 850.933C1705.36 850.433 1704.76 850.133 1704.16 850.433C1703.66 850.733 1703.36 851.333 1703.66 851.933C1704.06 852.733 1745.16 936.333 1796.16 991.333C1796.46 991.633 1796.96 991.733 1797.36 991.533Z" fill="#481E0B" fill-opacity="0.1"/>
<path d="M1732.36 901.833C1732.86 901.633 1733.16 901.033 1732.96 900.533C1732.86 900.133 1721.76 858.233 1733.36 829.633C1733.56 829.033 1733.36 828.433 1732.76 828.233C1732.16 828.033 1731.56 828.233 1731.36 828.833C1719.46 858.133 1730.76 900.633 1730.86 901.133C1731.06 901.733 1731.66 902.033 1732.16 901.933C1732.26 901.833 1732.26 901.833 1732.36 901.833Z" fill="#481E0B" fill-opacity="0.1"/>
<path d="M1745.26 922.533C1745.56 922.433 1745.76 922.133 1745.86 921.833C1746.06 921.233 1745.66 920.633 1745.16 920.433C1744.76 920.333 1704.46 908.333 1684.06 889.833C1683.66 889.433 1682.96 889.433 1682.46 889.933C1682.06 890.333 1682.06 891.033 1682.56 891.533C1703.26 910.333 1744.06 922.433 1744.46 922.533C1744.76 922.733 1744.96 922.633 1745.26 922.533Z" fill="#481E0B" fill-opacity="0.1"/>
<path d="M1768.16 955.933C1768.66 955.733 1768.96 955.133 1768.76 954.633C1768.66 954.333 1759.86 922.433 1770.66 901.133C1770.96 900.633 1770.76 899.933 1770.16 899.633C1769.66 899.333 1768.96 899.533 1768.66 900.133C1757.46 922.233 1766.26 953.833 1766.66 955.233C1766.86 955.833 1767.46 956.133 1768.06 956.033C1768.06 955.933 1768.06 955.933 1768.16 955.933Z" fill="#481E0B" fill-opacity="0.1"/>
<path d="M95.9125 115.624C99.592 114.167 107.104 117.617 115 121.296C119.293 123.289 123.739 125.282 127.035 126.279C132.861 127.965 146.812 133.178 151.335 145.519C154.631 154.488 152.101 165.22 143.899 177.408C143.822 177.485 143.746 177.561 143.669 177.638C143.362 177.791 111.78 194.272 97.0624 175.722C87.7104 163.917 90.3166 151.269 92.5396 140.077C93.8428 133.561 95.146 127.429 93.9195 122.139C93.2296 119.227 93.5362 117.233 94.916 116.16C95.2226 115.93 95.5292 115.777 95.9125 115.624ZM142.902 176.488C150.798 164.683 153.174 154.411 150.108 145.979C145.815 134.174 132.324 129.192 126.651 127.582C123.202 126.585 118.909 124.592 114.387 122.523C106.874 119.073 98.3654 115.087 95.7591 117.233C94.8393 117.923 94.686 119.533 95.2226 121.909C96.5257 127.505 95.2226 133.714 93.8428 140.383C91.6197 151.269 89.0901 163.61 98.0588 174.879C111.704 191.896 140.603 177.715 142.902 176.488Z" fill="#481E0B" fill-opacity="0.1"/>
<path d="M94.7626 116.39C94.9925 116.314 95.2992 116.39 95.5291 116.544C95.6058 116.697 106.951 129.039 120.212 148.509C133.397 167.903 143.746 176.335 143.822 176.412C144.129 176.642 144.129 177.102 143.899 177.332C143.669 177.638 143.209 177.638 142.979 177.408C142.902 177.332 132.4 168.746 119.139 149.199C105.954 129.805 94.6859 117.464 94.6092 117.387C94.3792 117.08 94.3793 116.697 94.6859 116.467C94.6093 116.467 94.6859 116.39 94.7626 116.39Z" fill="#481E0B" fill-opacity="0.1"/>
<path d="M99.5132 115.471C99.7431 115.394 100.05 115.394 100.203 115.624C100.356 115.701 112.008 126.816 132.015 148.816C142.824 160.697 148.036 168.9 147.04 172.579C146.733 173.729 145.89 174.036 145.813 174.036C145.43 174.112 145.047 173.959 144.97 173.576C144.893 173.269 145.047 172.886 145.353 172.732C145.353 172.732 145.66 172.579 145.737 172.119C146.043 170.586 145.277 165.45 131.019 149.736C111.012 127.812 99.3598 116.774 99.2065 116.62C98.8999 116.391 98.8999 115.931 99.2065 115.701C99.3598 115.624 99.4365 115.547 99.5132 115.471Z" fill="#481E0B" fill-opacity="0.1"/>
<path d="M118.834 123.289C119.064 123.212 119.37 123.212 119.6 123.442C119.677 123.519 125.119 129.191 133.935 137.317C142.827 145.519 151.949 158.934 152.025 159.087C152.255 159.394 152.179 159.777 151.872 160.007C151.566 160.237 151.182 160.16 150.952 159.854C150.876 159.7 141.754 146.439 133.015 138.314C124.2 130.188 118.68 124.439 118.68 124.362C118.45 124.132 118.45 123.672 118.68 123.442C118.68 123.366 118.757 123.289 118.834 123.289Z" fill="#481E0B" fill-opacity="0.1"/>
<path d="M94.2205 133.254C94.4504 133.178 94.7571 133.254 94.987 133.484C95.0637 133.561 99.5864 139.157 110.701 154.411C121.74 169.589 135.691 179.784 135.845 179.861C136.151 180.091 136.228 180.474 135.998 180.781C135.768 181.087 135.385 181.164 135.078 180.934C134.925 180.858 120.82 170.509 109.628 155.178C98.5133 139.923 93.9906 134.404 93.9139 134.328C93.684 134.021 93.6839 133.638 93.9906 133.408C94.0672 133.331 94.1438 133.331 94.2205 133.254Z" fill="#481E0B" fill-opacity="0.1"/>
<path d="M91.3861 148.432C91.6927 148.279 91.9993 148.432 92.2293 148.739C92.2293 148.815 95.9088 154.871 101.658 164.76C107.331 174.418 122.355 183.004 122.508 183.081C122.815 183.234 122.968 183.694 122.738 184C122.585 184.307 122.125 184.46 121.818 184.23C121.205 183.847 106.334 175.415 100.508 165.373C94.759 155.561 91.0795 149.429 91.0795 149.352C90.8495 149.045 91.0028 148.586 91.3095 148.432H91.3861Z" fill="#481E0B" fill-opacity="0.1"/>
<path d="M114.693 46.097C120.978 43.6441 129.181 42.0343 136.999 45.1772C145.815 48.78 152.101 57.8254 155.627 72.0833C155.627 72.16 155.627 72.3133 155.627 72.3899C155.55 72.7732 146.505 107.192 122.818 105.582C107.794 104.585 100.128 94.1602 93.3823 84.9615C89.4729 79.5956 85.7934 74.5363 81.0408 71.93C78.4345 70.4735 77.208 68.8638 77.2846 67.1774C77.5146 63.038 85.7934 59.5118 94.5322 55.8323C98.9015 53.9926 103.348 52.0762 106.337 50.2365C108.177 49.0866 111.09 47.4769 114.693 46.097ZM154.247 72.3133C150.797 58.5919 144.818 49.8532 136.463 46.4803C124.811 41.7277 112.01 48.3967 107.027 51.4629C103.961 53.3793 99.6681 55.2191 95.0688 57.1355C87.4799 60.355 78.8178 64.0345 78.5878 67.3307C78.5112 68.4805 79.5844 69.6303 81.6541 70.8568C86.6367 73.6164 90.3928 78.829 94.4555 84.2716C101.048 93.2403 108.483 103.359 122.895 104.355C144.665 105.735 153.557 74.7663 154.247 72.3133Z" fill="#481E0B" fill-opacity="0.1"/>
<path d="M65.3244 63.5742C65.5543 63.4975 65.861 63.4975 66.0143 63.7275C68.2373 65.9505 75.4429 66.8704 77.9725 67.0237C78.1259 67.0237 94.8368 66.947 118.217 70.2432C141.443 73.5394 154.628 71.5464 154.781 71.5464C155.165 71.4697 155.471 71.7763 155.548 72.0829C155.625 72.4662 155.318 72.7728 155.011 72.8495C154.858 72.8495 141.443 74.8425 118.063 71.5464C94.7602 68.2502 78.1259 68.3268 77.9725 68.3268C77.5126 68.3268 68.1606 67.7136 65.0944 64.6473C64.8644 64.4174 64.8644 63.9574 65.0944 63.7275C65.171 63.6508 65.2477 63.6508 65.3244 63.5742Z" fill="#481E0B" fill-opacity="0.1"/>
<path d="M80.27 62.9614C80.3467 62.9614 80.4233 62.9613 80.4233 62.8847C80.5766 62.8847 96.6743 61.6582 126.417 61.6582C142.514 61.6582 152.096 63.3446 154.089 66.4875C154.703 67.484 154.396 68.3272 154.319 68.4039C154.166 68.7105 153.783 68.8638 153.4 68.7105C153.093 68.5572 152.94 68.1739 153.093 67.8673C153.093 67.8673 153.17 67.5607 152.863 67.1774C151.943 65.9509 147.574 63.038 126.417 63.038C96.7509 63.038 80.73 64.2645 80.5766 64.2645C80.1934 64.2645 79.8867 64.0345 79.8867 63.6512C79.8101 63.3446 79.9634 63.1147 80.27 62.9614Z" fill="#481E0B" fill-opacity="0.1"/>
<path d="M98.9755 53.9156C99.0522 53.9156 99.1288 53.839 99.2055 53.839C99.2821 53.839 107.178 53.609 119.136 52.6125C131.171 51.5393 147.269 53.7623 147.422 53.839C147.805 53.9156 148.035 54.2222 147.959 54.6055C147.882 54.9888 147.575 55.2188 147.192 55.1421C147.039 55.1421 131.094 52.9191 119.213 53.9156C107.254 54.9121 99.2821 55.1421 99.2055 55.1421C98.8222 55.1421 98.5156 54.8355 98.5156 54.4522C98.5156 54.2989 98.7456 53.9923 98.9755 53.9156Z" fill="#481E0B" fill-opacity="0.1"/>
<path d="M89.8514 78.9058C89.9281 78.9058 90.0048 78.8291 90.1581 78.8291C90.2347 78.8291 97.4404 79.2124 116.221 81.2054C134.848 83.1985 151.789 79.749 152.019 79.749C152.402 79.6723 152.709 79.9023 152.786 80.2856C152.862 80.6688 152.632 80.9755 152.249 81.0521C152.096 81.0521 134.925 84.5783 116.068 82.5852C97.3637 80.5922 90.1581 80.2089 90.0814 80.2089C89.6982 80.2089 89.3915 79.9023 89.4682 79.519C89.3915 79.2124 89.6215 78.9824 89.8514 78.9058Z" fill="#481E0B" fill-opacity="0.1"/>
<path d="M99.1323 91.0936C99.209 91.017 99.3623 91.017 99.5156 91.0936C99.5923 91.0936 106.568 92.4734 117.76 94.8498C128.721 97.1494 145.126 91.7835 145.356 91.7835C145.739 91.6302 146.122 91.8602 146.199 92.2435C146.352 92.6267 146.199 93.01 145.739 93.0867C145.049 93.3166 128.798 98.6059 117.453 96.2296C106.338 93.8532 99.3624 92.4734 99.2857 92.4734C98.9024 92.3968 98.6724 92.0135 98.7491 91.7069C98.8257 91.4002 98.979 91.1703 99.1323 91.0936Z" fill="#481E0B" fill-opacity="0.1"/>
<path d="M93.3808 -20.2871C96.6003 -21.5136 100.203 -22.2801 104.036 -22.0502C113.541 -21.4369 122.357 -14.8445 130.175 -2.4263C130.252 -2.34965 130.252 -2.19634 130.252 -2.11968C130.252 -1.7364 132.628 33.7552 109.708 39.7343C95.1439 43.5671 84.5654 36.0548 75.29 29.4625C69.8475 25.6297 64.7882 22.0269 59.4224 20.9537C56.4328 20.4171 54.8229 19.2673 54.363 17.6575C53.2898 13.6714 60.0356 7.69225 67.1646 1.40648C70.6907 -1.7364 74.3701 -4.95594 76.5931 -7.63889C79.3527 -10.8584 85.4086 -17.2208 93.3808 -20.2871ZM128.949 -1.81306C121.36 -13.7713 112.928 -20.1338 103.883 -20.6704C91.3878 -21.5136 81.2692 -11.165 77.5897 -6.64236C75.29 -3.88276 71.7639 -0.739876 68.0077 2.55632C61.7986 8.07553 54.7463 14.2846 55.6662 17.4275C55.9728 18.5007 57.3526 19.3439 59.7289 19.8038C65.3248 20.877 70.5374 24.5565 76.1332 28.4659C85.1786 34.905 95.4505 42.1873 109.402 38.5078C130.482 32.9886 129.102 0.793235 128.949 -1.81306Z" fill="#481E0B" fill-opacity="0.1"/>
<path d="M46.7739 14.8211C47.0806 14.6677 47.3872 14.8211 47.6171 15.1277C48.767 17.1207 53.2896 17.4273 55.0527 17.3507C56.4325 16.8908 71.9169 11.7548 94.2237 7.69208C117.297 3.47601 129.179 -2.57978 129.332 -2.65644C129.639 -2.80975 130.099 -2.73309 130.252 -2.34982C130.405 -2.04319 130.329 -1.58326 129.945 -1.42995C129.792 -1.35329 117.757 4.77916 94.4537 9.07188C71.3804 13.3646 55.5893 18.6538 55.436 18.7305C55.3593 18.7305 55.2827 18.7305 55.2061 18.7305C54.8994 18.7305 48.307 18.9605 46.4673 15.8942C46.314 15.5876 46.3906 15.1277 46.6972 14.9744C46.6972 14.8977 46.7739 14.8977 46.7739 14.8211Z" fill="#481E0B" fill-opacity="0.1"/>
<path d="M63.3322 9.76143C70.3845 7.00183 82.4194 2.5558 99.207 -3.11672C114.461 -8.25265 124.043 -9.70911 126.956 -7.33278C127.876 -6.56622 127.8 -5.72301 127.8 -5.64636C127.723 -5.26308 127.416 -5.03311 127.033 -5.03311C126.65 -5.10977 126.42 -5.41639 126.42 -5.72301C126.42 -5.72301 126.42 -6.02964 125.96 -6.33626C124.733 -7.25613 119.674 -8.63593 99.5136 -1.89023C71.381 7.53842 56.5865 13.7475 56.4332 13.8242C56.0499 13.9008 55.6667 13.8242 55.59 13.4409C55.4367 13.1343 55.59 12.6743 55.9733 12.5977C56.1266 12.6743 58.5796 11.6012 63.3322 9.76143Z" fill="#481E0B" fill-opacity="0.1"/>
<path d="M70.1553 24.7093C70.232 24.7093 70.232 24.7093 70.1553 24.7093C70.3086 24.6327 77.2076 22.7163 95.6816 18.7302C114.002 14.7441 128.95 6.08202 129.103 6.00537C129.41 5.85206 129.87 5.92871 130.023 6.23533C130.177 6.54196 130.1 7.00189 129.793 7.1552C129.64 7.23186 114.462 16.0473 95.9116 20.0334C77.5142 24.0194 70.6153 25.9358 70.5386 26.0125C70.1553 26.0892 69.772 25.9358 69.6953 25.5526C69.6953 25.1693 69.8487 24.8627 70.1553 24.7093Z" fill="#481E0B" fill-opacity="0.1"/>
<path d="M82.9584 33.3722C83.0351 33.3722 83.035 33.3722 83.1117 33.2955C83.1884 33.2955 90.2408 32.3756 101.586 31.0725C112.701 29.846 126.575 19.4975 126.729 19.4208C127.035 19.1909 127.419 19.2675 127.649 19.5741C127.879 19.8808 127.802 20.264 127.495 20.494C126.882 20.9539 113.161 31.1491 101.662 32.3756C90.3174 33.6788 83.2651 34.5986 83.1884 34.5986C82.8052 34.6753 82.4985 34.3687 82.4219 33.9854C82.4219 33.7554 82.6518 33.5255 82.9584 33.3722Z" fill="#481E0B" fill-opacity="0.1"/>
<path d="M54.3641 77.832C54.9773 77.602 55.5906 77.5253 56.2038 77.602C60.2666 78.2919 62.7962 86.954 65.4791 96.076C66.7823 100.599 68.1621 105.275 69.6186 108.418C72.1482 113.937 77.4375 127.888 71.075 139.386C66.4757 147.742 56.7405 152.878 42.1759 154.718C42.0992 154.718 41.9459 154.718 41.8692 154.641C41.5626 154.488 8.37072 141.533 12.7401 118.229C15.4997 103.435 26.768 97.0725 36.6566 91.4767C42.4058 88.1805 47.925 85.1142 51.0679 80.7449C52.1411 79.2884 53.2909 78.2919 54.3641 77.832ZM55.7439 150.195C62.4129 147.589 67.089 143.832 69.8486 138.85C75.9044 127.888 70.8451 114.397 68.3921 109.031C66.859 105.811 65.5558 101.289 64.176 96.4593C61.8764 88.4871 59.1934 79.5184 55.9739 78.9051C54.8241 78.6752 53.5209 79.595 52.1411 81.5881C48.7683 86.1874 43.1724 89.3303 37.2699 92.7032C27.6113 98.1457 16.6495 104.355 13.9666 118.536C9.98047 140 39.6462 152.418 42.0992 153.414C47.3117 152.801 51.8345 151.728 55.7439 150.195Z" fill="#481E0B" fill-opacity="0.1"/>
<path d="M61.6482 57.1352C61.7249 57.1352 61.8016 57.0586 61.9549 57.0586C62.3381 57.0586 62.5681 57.3652 62.5681 57.7485C62.1082 64.5708 56.8189 77.1424 56.2057 78.4455C56.0524 79.902 54.0594 96.0763 48.3102 118C42.3311 140.613 42.7143 154.028 42.7143 154.181C42.7143 154.565 42.4077 154.871 42.101 154.871C41.7177 154.871 41.4112 154.565 41.4112 154.258C41.4112 154.105 41.0279 140.613 47.007 117.693C52.9862 95.0032 54.9026 78.4455 54.9026 78.2922C54.9026 78.2156 54.9026 78.1389 54.9792 78.1389C55.0559 77.9856 60.805 64.6475 61.2649 57.8252C61.2649 57.4419 61.4183 57.2119 61.6482 57.1352Z" fill="#481E0B" fill-opacity="0.1"/>
<path d="M59.1164 80.6685C59.1931 80.6685 59.2697 80.5918 59.4231 80.5918C59.8063 80.5918 60.1129 80.8984 60.0362 81.2817C60.0362 81.435 59.3463 97.5327 55.8968 127.045C54.0571 142.99 51.2208 152.342 47.848 153.951C46.7748 154.488 46.0082 154.028 45.9316 153.951C45.625 153.721 45.5484 153.338 45.7017 153.031C45.855 152.725 46.3149 152.648 46.6215 152.801C46.6215 152.801 46.9281 152.878 47.3881 152.648C48.7679 151.882 52.1407 147.895 54.5937 126.815C58.0432 97.3027 58.7331 81.2817 58.7331 81.1284C58.7331 80.9751 58.8864 80.7451 59.1164 80.6685Z" fill="#481E0B" fill-opacity="0.1"/>
<path d="M65.9358 100.292C66.0125 100.292 66.1657 100.216 66.2424 100.216C66.6257 100.216 66.8557 100.599 66.8557 100.982C66.8557 101.059 66.1658 108.955 65.7825 120.913C65.3992 132.948 61.3364 148.662 61.2598 148.816C61.1831 149.199 60.7999 149.352 60.4166 149.275C60.0333 149.199 59.88 148.816 59.9567 148.432C60.0333 148.279 64.0195 132.718 64.4027 120.76C64.786 108.725 65.4758 100.829 65.4758 100.752C65.5525 100.599 65.7059 100.446 65.9358 100.292Z" fill="#481E0B" fill-opacity="0.1"/>
<path d="M42.2501 88.3339C42.3267 88.2572 42.48 88.2572 42.6333 88.3339C43.0166 88.4105 43.2466 88.7171 43.1699 89.1004C43.1699 89.1771 41.9434 96.306 37.7274 114.703C33.5113 132.947 34.9678 150.272 35.0444 150.425C35.0444 150.808 34.8144 151.115 34.4311 151.191C34.0479 151.191 33.7412 150.962 33.6646 150.578C33.6646 150.425 32.1315 132.947 36.4243 114.473C40.6403 96.0761 41.8668 89.0238 41.8668 88.9471C41.8668 88.5638 42.0201 88.4105 42.2501 88.3339Z" fill="#481E0B" fill-opacity="0.1"/>
<path d="M28.9927 96.1532C29.146 96.0765 29.2993 96.0765 29.4526 96.1532C29.8359 96.2299 29.9893 96.6131 29.9126 96.9964C29.9126 97.0731 27.6895 103.819 24.0101 114.627C20.4073 125.282 23.7801 142.223 23.8568 142.377C23.9335 142.76 23.7034 143.066 23.3202 143.143C22.9369 143.22 22.6303 142.99 22.5536 142.607C22.4003 141.917 19.0275 125.129 22.7836 114.167C26.4631 103.359 28.6094 96.6131 28.6094 96.5365C28.6094 96.3832 28.7627 96.2299 28.9927 96.1532Z" fill="#481E0B" fill-opacity="0.1"/>
<path d="M-9.2618 33.3722C-2.66942 30.8426 4.45956 30.4593 11.0519 30.1527C17.6443 29.846 23.9302 29.5394 28.7595 27.0864C31.4424 25.7066 33.4354 25.5533 34.8152 26.5498C38.1114 29.0028 36.5016 37.8949 34.7386 47.2469C33.8954 51.8462 32.9755 56.6755 32.8222 60.2017C32.5922 66.2575 30.9825 81.1287 20.0974 88.4876C12.2018 93.8535 1.2401 94.0068 -12.6346 89.1009C-12.7112 89.1009 -12.8646 89.0242 -12.9412 88.9476C-13.1712 88.7176 -36.8578 62.1181 -22.4465 43.2608C-18.5371 38.2015 -14.0911 35.2119 -9.2618 33.3722ZM27.5329 29.1561C22.7803 30.9959 17.1078 31.2258 11.1287 31.5325C0.013605 32.069 -12.558 32.6056 -21.2967 44.104C-34.5581 61.4282 -13.7078 85.958 -11.9448 87.951C1.39333 92.7037 11.9718 92.5504 19.4074 87.4911C29.7559 80.4388 31.3657 66.1042 31.5957 60.2783C31.749 56.6755 32.5922 52.0762 33.5121 47.1702C35.0452 39.0447 36.8083 29.846 34.1254 27.853C33.2055 27.1631 31.6724 27.393 29.526 28.4662C28.7595 28.6195 28.1462 28.9262 27.5329 29.1561Z" fill="#481E0B" fill-opacity="0.1"/>
<path d="M45.7002 10.2987C45.7769 10.222 45.9302 10.222 46.0835 10.2987C46.4668 10.3754 46.6967 10.682 46.6201 11.0653C45.7002 16.5845 34.8917 26.933 34.4318 27.3929C34.4318 27.3929 25.2331 41.4209 9.51872 59.0517C-6.04238 76.5292 -11.7915 88.6408 -11.7915 88.7941C-11.9448 89.1007 -12.3281 89.254 -12.7114 89.1007C-13.018 88.9474 -13.1713 88.5641 -13.018 88.1809C-12.9413 88.0276 -7.19216 75.8393 8.52226 58.1318C24.16 40.5777 33.282 26.703 33.4353 26.5497C33.6653 26.3197 44.4738 15.8946 45.317 10.8353C45.317 10.6053 45.4703 10.3754 45.7002 10.2987Z" fill="#481E0B" fill-opacity="0.1"/>
<path d="M35.7322 30.689C35.8855 30.6124 36.1154 30.6124 36.2687 30.7657C36.5754 30.919 36.7287 31.3789 36.4987 31.6855C36.4221 31.8389 28.5265 45.8668 12.1222 70.7033C3.23014 84.118 -3.43886 91.1703 -7.19499 91.0937C-8.42148 91.0937 -8.88147 90.3271 -8.88147 90.2505C-9.11144 89.9439 -8.95809 89.4839 -8.65147 89.3306C-8.34485 89.1773 -7.9616 89.254 -7.73164 89.5606C-7.73164 89.5606 -7.50165 89.7905 -7.04172 89.7905C-5.5086 89.7139 -0.679316 87.7208 11.049 70.0134C27.4533 45.2536 35.3489 31.2256 35.4255 31.149C35.5022 30.8423 35.5789 30.7657 35.7322 30.689Z" fill="#481E0B" fill-opacity="0.1"/>
<path d="M32.9011 51.3091C33.131 51.2325 33.2844 51.2325 33.5143 51.3858C33.821 51.6158 33.8977 51.999 33.7443 52.3057C33.6677 52.3823 29.5283 59.0514 23.7791 69.5532C17.9533 80.1317 7.22143 92.3199 7.14477 92.4732C6.91481 92.7799 6.45491 92.7799 6.22494 92.5499C5.91832 92.3199 5.91834 91.86 6.14831 91.63C6.22496 91.4767 16.8801 79.4418 22.6293 69.0166C28.3784 58.4381 32.5945 51.7691 32.6711 51.6924C32.6711 51.4625 32.8244 51.3091 32.9011 51.3091Z" fill="#481E0B" fill-opacity="0.1"/>
<path d="M17.1824 29.8463C17.4124 29.7696 17.6424 29.7696 17.7957 29.9229C18.1023 30.1529 18.179 30.5362 17.949 30.8428C17.8723 30.9194 13.5797 36.6686 1.54475 51.2332C-10.4902 65.6444 -16.9293 81.6655 -17.006 81.8188C-17.1593 82.2021 -17.5426 82.3554 -17.8492 82.2021C-18.1558 82.0488 -18.3858 81.6655 -18.2325 81.3589C-18.1558 81.2055 -11.6401 64.9545 0.548186 50.39C12.5831 35.902 16.8759 30.1529 16.9525 30.0762C16.9525 29.9996 17.1058 29.9229 17.1824 29.8463Z" fill="#481E0B" fill-opacity="0.1"/>
<path d="M1.85451 30.8427C2.08447 30.7661 2.39111 30.7661 2.54443 30.996C2.77439 31.226 2.77439 31.6859 2.54443 31.9159C2.46777 31.9926 -2.51481 37.0518 -10.6403 45.024C-18.6892 52.8429 -23.2885 69.5538 -23.3651 69.7071C-23.4418 70.0904 -23.8251 70.2437 -24.2084 70.1671C-24.5917 70.0904 -24.745 69.7071 -24.6683 69.3239C-24.515 68.634 -19.9157 52.153 -11.6369 44.0275C-3.51137 36.0553 1.54796 30.996 1.54796 30.996C1.70127 30.9194 1.77785 30.8427 1.85451 30.8427Z" fill="#481E0B" fill-opacity="0.1"/>
<path d="M58.5798 -68.2735C58.8098 -68.3501 59.1164 -68.3501 59.2697 -68.1202C59.5764 -67.8902 59.5764 -67.4303 59.3464 -67.2003C7.29718 -10.3218 95.3746 114.32 96.2945 115.623C96.5244 115.93 96.4477 116.313 96.1411 116.543C95.8345 116.773 95.4512 116.697 95.2213 116.39C94.9913 116.083 72.5312 84.5012 56.8168 46.1734C35.9665 -4.6493 36.5031 -44.2036 58.3499 -68.1202C58.3499 -68.1968 58.4265 -68.2735 58.5798 -68.2735Z" fill="#481E0B" fill-opacity="0.1"/>
</g>
<defs>
<clipPath id="clip0_155_45">
<rect y="0.545898" width="1800" height="979" rx="40" fill="white"/>
</clipPath>
</defs>
</svg>
