<svg width="160" height="162" viewBox="0 0 160 162" fill="none" xmlns="http://www.w3.org/2000/svg">
<path d="M160 80.9989C160 125.203 124.183 161.037 80 161.037C35.8172 161.037 0 125.203 0 80.9989C0 36.7952 35.8172 0.960938 80 0.960938C124.183 0.960938 160 36.7952 160 80.9989Z" fill="white"/>
<ellipse cx="80" cy="81.001" rx="35" ry="35.0166" fill="#CD5F37"/>
<g clip-path="url(#clip0_687_241)">
<path d="M80.7608 78.3684C80.3219 78.7407 79.6782 78.7407 79.2393 78.3684C75.0799 74.8408 72.9412 71.4173 72.9412 68.0544C72.9412 64.154 76.1016 60.9922 80 60.9922C83.8984 60.9922 87.0588 64.154 87.0588 68.0544C87.0588 71.4173 84.9202 74.8408 80.7608 78.3684ZM80.7608 83.635C84.9202 87.1626 87.0588 90.5861 87.0588 93.949C87.0588 97.8494 83.8985 101.011 80 101.011C76.1015 101.011 72.9412 97.8494 72.9412 93.949C72.9412 90.5861 75.0798 87.1626 79.2392 83.635C79.6782 83.2627 80.3218 83.2627 80.7608 83.635ZM82.632 81.7628C82.2599 81.3237 82.2599 80.6797 82.632 80.2406C86.158 76.0793 89.5799 73.9396 92.9412 73.9396C96.8397 73.9395 100 77.1013 100 81.0017C100 84.902 96.8397 88.0639 92.9412 88.0639C89.5798 88.0639 86.158 85.9242 82.632 81.7628ZM77.368 81.7628C73.842 85.9242 70.4201 88.0639 67.0588 88.0639C63.1603 88.0639 60 84.902 60 81.0017C60 77.1013 63.1603 73.9395 67.0588 73.9395C70.4202 73.9395 73.842 76.0792 77.368 80.2405C77.7401 80.6797 77.7401 81.3236 77.368 81.7628Z" fill="white"/>
</g>
<path d="M81.3868 23.7609C81.4183 23.6685 81.4488 23.5536 81.4781 23.4163C81.5119 23.2792 81.543 23.1084 81.5713 22.9039C81.5996 22.6994 81.6253 22.4567 81.6485 22.1758C81.672 21.8904 81.6933 21.558 81.7126 21.1784L81.9341 16.8175C81.9534 16.4379 81.9419 16.1351 81.8997 15.9091C81.8574 15.6831 81.8014 15.5079 81.7317 15.3835C81.6664 15.2592 81.5949 15.1683 81.5173 15.1106C81.4441 15.0532 81.3819 15.0008 81.3306 14.9534L81.332 14.9266L83.4266 14.2607L83.4253 14.2875C83.3937 14.38 83.361 14.4947 83.3272 14.6318C83.2979 14.7691 83.2689 14.9422 83.2404 15.1512C83.2121 15.3557 83.1863 15.6007 83.1628 15.886C83.1396 16.1669 83.1184 16.4972 83.0991 16.8767L82.8776 21.2376C82.8584 21.6172 82.8459 21.9501 82.8403 22.2364C82.835 22.5182 82.836 22.7622 82.8434 22.9686C82.8509 23.1749 82.8622 23.3479 82.8775 23.4874C82.8972 23.6272 82.9181 23.7447 82.9402 23.8398L82.9388 23.8666L81.3854 23.7877L81.3868 23.7609Z" fill="#481E0B"/>
<path d="M85.995 25.1446C86.6568 25.0982 87.2727 25.0029 87.8429 24.8585C88.4175 24.7149 88.9268 24.5167 89.3709 24.2638C89.8158 24.0064 90.1826 23.6899 90.4714 23.3141C90.7602 22.9384 90.9494 22.4973 91.0389 21.9909C91.1276 21.489 91.1018 21.0439 90.9616 20.6559C90.8214 20.2678 90.5951 19.9303 90.2827 19.6435C89.9747 19.3574 89.5924 19.1195 89.1357 18.9297C88.6835 18.7408 88.1897 18.5944 87.6543 18.4906L89.1923 14.7576L90.4532 14.9806C90.8273 15.0468 91.153 15.1044 91.4302 15.1534C91.7127 15.1989 91.9551 15.2395 92.1576 15.2753C92.3608 15.3067 92.5311 15.3323 92.6683 15.352C92.8055 15.3717 92.9211 15.3854 93.0151 15.3929L93.0415 15.3976L92.7882 16.8308L92.7618 16.8262C92.674 16.7834 92.5639 16.7389 92.4313 16.6928C92.2988 16.6466 92.1328 16.5969 91.9335 16.5434C91.7342 16.49 91.4944 16.434 91.2143 16.3753C90.9386 16.3175 90.6137 16.2555 90.2396 16.1893L89.2625 16.0165L88.65 17.4407C89.0049 17.5125 89.3508 17.61 89.6876 17.7332C90.0252 17.8519 90.3415 18.001 90.6366 18.1803C90.9325 18.3553 91.1983 18.559 91.4341 18.7914C91.6751 19.0202 91.8724 19.2776 92.0261 19.5636C92.1806 19.8452 92.2844 20.1565 92.3377 20.4974C92.3961 20.8347 92.3906 21.1992 92.3214 21.5911C92.2319 22.0975 92.0739 22.5418 91.8475 22.9241C91.6211 23.3063 91.3467 23.6392 91.0243 23.9228C90.7018 24.2063 90.342 24.4446 89.9448 24.6377C89.5476 24.8308 89.1316 24.9888 88.6968 25.1117C88.2665 25.2354 87.8276 25.3303 87.3802 25.3965C86.9328 25.4627 86.4981 25.5084 86.076 25.5336L85.995 25.1446Z" fill="#481E0B"/>
<path d="M100.347 22.8718L99.2712 25.9844L98.6186 25.7587L99.694 22.6461L96.5828 21.5702L96.8084 20.9173L99.9195 21.9932L100.995 18.8806L101.648 19.1063L100.572 22.2189L103.683 23.2947L103.458 23.9477L100.347 22.8718Z" fill="#481E0B"/>
<path d="M113.463 29.0215L112.403 30.7078C112.201 31.0296 112.027 31.314 111.882 31.561C111.74 31.8042 111.622 32.0177 111.527 32.2013C111.433 32.3849 111.359 32.5414 111.304 32.6706C111.253 32.8023 111.213 32.915 111.186 33.0087L111.172 33.0314L109.81 32.1745L109.824 32.1518C109.897 32.0866 109.979 32.0012 110.072 31.8958C110.169 31.7927 110.277 31.6577 110.398 31.4907C110.523 31.3261 110.664 31.127 110.821 30.8933C110.985 30.6582 111.168 30.3797 111.37 30.058L112.359 28.4852L111.992 23.4369C111.978 23.2649 111.959 23.1022 111.934 22.9491C111.913 22.7983 111.887 22.6631 111.856 22.5436C111.828 22.4203 111.799 22.315 111.77 22.2277C111.74 22.1404 111.715 22.0747 111.696 22.0305L111.71 22.0078L113.43 23.0897C113.375 23.1768 113.32 23.3432 113.266 23.5891C113.218 23.8335 113.206 24.1508 113.23 24.541L113.489 28.2615L116.985 26.7448C117.108 26.6906 117.233 26.6346 117.36 26.5766C117.486 26.5187 117.604 26.4609 117.714 26.4034C117.824 26.3459 117.918 26.2888 117.996 26.2322C118.078 26.1779 118.135 26.1242 118.168 26.0712L119.275 26.7675L119.261 26.7902C119.132 26.8098 118.953 26.8474 118.722 26.9032C118.494 26.9552 118.225 27.0473 117.915 27.1797L113.463 29.0215Z" fill="#481E0B"/>
<path d="M117.126 37.6632C116.75 37.3397 116.448 36.9772 116.221 36.5758C115.994 36.1744 115.857 35.7552 115.808 35.3182C115.762 34.8777 115.812 34.4284 115.958 33.9703C116.11 33.5116 116.373 33.0653 116.746 32.6312C117.075 32.248 117.444 31.949 117.852 31.7342C118.263 31.516 118.686 31.3841 119.12 31.3386C119.554 31.2931 119.98 31.3322 120.398 31.4559C120.82 31.5826 121.207 31.7974 121.559 32.1005C121.909 32.4007 122.18 32.7401 122.373 33.1186C122.57 33.4938 122.677 33.89 122.696 34.3071C122.721 34.7237 122.651 35.1556 122.485 35.6025C122.325 36.049 122.066 36.492 121.706 36.9314C121.329 36.5953 120.95 36.2609 120.57 35.9281C120.19 35.5954 119.793 35.2513 119.379 34.8957C119.084 34.6422 118.795 34.3961 118.511 34.1576C118.23 33.922 117.975 33.7115 117.745 33.5259C117.462 33.8961 117.243 34.2615 117.086 34.6221C116.933 34.9857 116.847 35.3362 116.828 35.6738C116.816 36.0108 116.875 36.3298 117.005 36.6307C117.139 36.9345 117.348 37.2088 117.633 37.4536C117.83 37.6226 118.033 37.7594 118.244 37.864C118.461 37.968 118.676 38.0406 118.888 38.0816C119.1 38.1226 119.309 38.1369 119.514 38.1246C119.722 38.1089 119.92 38.0701 120.109 38.0082L120.144 38.0912L118.99 38.6732C118.725 38.6108 118.437 38.5042 118.124 38.3534C117.815 38.1993 117.482 37.9692 117.126 37.6632ZM119.115 33.9787C119.454 34.2702 119.793 34.5616 120.132 34.853C120.477 35.144 120.793 35.4039 121.08 35.6327C121.303 35.3114 121.473 34.9974 121.589 34.6905C121.705 34.3837 121.767 34.092 121.775 33.8156C121.782 33.5391 121.734 33.2796 121.63 33.0369C121.526 32.7943 121.366 32.5797 121.149 32.3932C120.952 32.2242 120.733 32.1123 120.491 32.0577C120.256 32.0026 120.007 32.0039 119.745 32.0618C119.483 32.1197 119.213 32.2352 118.935 32.4085C118.659 32.5784 118.385 32.8084 118.112 33.0986C118.259 33.2365 118.417 33.3783 118.586 33.5241C118.756 33.6698 118.932 33.8213 119.115 33.9787Z" fill="#481E0B"/>
<path d="M122.345 39.5465C122.611 39.3142 122.888 39.1666 123.178 39.1038C123.47 39.0444 123.764 39.0453 124.061 39.1066C124.358 39.1679 124.65 39.278 124.937 39.4369C125.227 39.5928 125.505 39.7748 125.769 39.9829C126.037 40.188 126.286 40.4044 126.514 40.6323C126.746 40.8571 126.952 41.0691 127.132 41.2683L127.389 41.0433C127.611 40.8492 127.778 40.6529 127.89 40.4544C128.001 40.256 128.064 40.059 128.077 39.8634C128.094 39.6649 128.063 39.4695 127.984 39.2771C127.911 39.0853 127.798 38.9017 127.646 38.7266C127.54 38.6053 127.425 38.4946 127.302 38.3944C127.179 38.2941 127.038 38.2006 126.879 38.1138C126.723 38.0303 126.543 37.9532 126.339 37.8823C126.138 37.8148 125.904 37.7546 125.639 37.7018L125.625 37.6248L126.637 37.3463C126.784 37.4133 126.92 37.4875 127.045 37.5688C127.172 37.6472 127.295 37.7331 127.412 37.8266C127.529 37.9201 127.641 38.0212 127.748 38.1298C127.861 38.2389 127.973 38.3574 128.085 38.4854C128.393 38.839 128.613 39.1787 128.743 39.5044C128.879 39.8306 128.941 40.139 128.927 40.4296C128.92 40.7207 128.848 40.9915 128.711 41.2421C128.577 41.4897 128.395 41.7135 128.166 41.9135L126.52 43.3517C126.234 43.6017 125.986 43.8242 125.777 44.0192C125.573 44.2146 125.399 44.385 125.253 44.5304C125.11 44.6791 124.993 44.8075 124.904 44.9156C124.817 45.0269 124.747 45.1236 124.694 45.2056L124.674 45.2232L123.699 44.1067L123.719 44.089C123.788 44.0588 123.859 44.0177 123.932 43.9656C124.008 43.9169 124.096 43.8547 124.196 43.7791C124.074 43.7613 123.938 43.7315 123.789 43.6897C123.643 43.6513 123.488 43.5933 123.326 43.5157C123.169 43.4386 123.01 43.3375 122.847 43.2124C122.684 43.0936 122.525 42.9449 122.369 42.7664C121.858 42.1804 121.599 41.6082 121.592 41.05C121.589 40.4889 121.84 39.9877 122.345 39.5465ZM126.738 41.6124C126.467 41.3088 126.191 41.0303 125.91 40.7768C125.633 40.5203 125.349 40.3267 125.056 40.196C124.767 40.0687 124.471 40.0217 124.168 40.0551C123.871 40.0888 123.568 40.241 123.258 40.5116C122.861 40.8586 122.645 41.2227 122.609 41.6038C122.574 41.9849 122.709 42.3505 123.015 42.7008C123.156 42.8625 123.306 42.9899 123.464 43.083C123.629 43.1766 123.789 43.2445 123.945 43.2867C124.106 43.3293 124.259 43.3507 124.401 43.3509C124.547 43.3481 124.675 43.3314 124.785 43.3008C124.918 43.1957 125.063 43.0756 125.218 42.9403C125.376 42.8021 125.554 42.6462 125.753 42.4727L126.738 41.6124Z" fill="#481E0B"/>
<path d="M129.786 44.993C130.099 44.778 130.368 44.5853 130.593 44.4149C130.824 44.2457 131.019 44.0956 131.178 43.9645C131.34 43.8371 131.471 43.7231 131.57 43.6226C131.671 43.5258 131.753 43.4397 131.816 43.3645L131.838 43.3493L132.714 44.6271L132.691 44.6423C132.586 44.6709 132.466 44.7159 132.329 44.7773C132.194 44.8423 132.028 44.935 131.828 45.0554C132.036 45.1135 132.246 45.1783 132.458 45.25C132.669 45.3216 132.871 45.4058 133.062 45.5025C133.253 45.5992 133.428 45.7092 133.588 45.8323C133.751 45.9592 133.888 46.1037 134 46.266C134.068 46.3655 134.122 46.456 134.161 46.5373C134.204 46.6162 134.237 46.6914 134.259 46.763C134.285 46.8322 134.303 46.8983 134.314 46.9614C134.328 47.022 134.341 47.0807 134.353 47.1376L133.111 47.5911L133.069 47.4819C133.201 47.3264 133.273 47.1549 133.285 46.9674C133.301 46.7775 133.237 46.5774 133.093 46.3672C133.015 46.2529 132.913 46.1469 132.786 46.0494C132.66 45.9518 132.515 45.8638 132.353 45.7853C132.195 45.7043 132.023 45.6321 131.839 45.5688C131.658 45.5029 131.475 45.4446 131.288 45.3937C131.176 45.4597 131.057 45.5356 130.932 45.6216C130.807 45.7076 130.674 45.7987 130.534 45.8948L129.108 46.8735C128.794 47.0884 128.522 47.2805 128.291 47.4498C128.064 47.6165 127.871 47.7654 127.711 47.8965C127.552 48.0275 127.422 48.1415 127.32 48.2383C127.218 48.3352 127.136 48.4212 127.074 48.4964L127.052 48.5116L126.176 47.2338L126.198 47.2187C126.291 47.1877 126.401 47.1422 126.527 47.0823C126.657 47.026 126.81 46.9452 126.987 46.8399C127.167 46.7384 127.375 46.6116 127.613 46.4596C127.856 46.3088 128.135 46.126 128.448 45.911L129.786 44.993Z" fill="#481E0B"/>
<path d="M135.58 51.9789L135.524 51.9023C135.6 51.8264 135.673 51.7296 135.742 51.6118C135.813 51.4981 135.866 51.3687 135.9 51.2238C135.936 51.0829 135.946 50.9287 135.927 50.7611C135.915 50.5953 135.862 50.4236 135.768 50.246C135.703 50.1235 135.623 50.0165 135.529 49.9248C135.437 49.8371 135.333 49.7707 135.218 49.7255C135.109 49.6822 134.991 49.6642 134.863 49.6713C134.735 49.6785 134.602 49.7188 134.464 49.7923C134.27 49.8951 134.116 50.0529 134.002 50.2658C133.893 50.4806 133.8 50.7249 133.723 50.9989C133.65 51.2707 133.582 51.5575 133.519 51.8591C133.459 52.1646 133.382 52.4586 133.289 52.7409C133.196 53.0233 133.073 53.2814 132.919 53.5153C132.771 53.751 132.572 53.935 132.324 54.0672C132.122 54.1742 131.906 54.2436 131.675 54.2753C131.448 54.305 131.219 54.2846 130.99 54.2143C130.762 54.148 130.539 54.0235 130.321 53.8409C130.108 53.6601 129.917 53.4098 129.747 53.09C129.646 52.9004 129.57 52.7133 129.517 52.5286C129.467 52.3478 129.43 52.1747 129.408 52.0092C129.392 51.8456 129.387 51.6917 129.391 51.5475C129.401 51.4053 129.414 51.2769 129.429 51.1625L130.586 50.6237L130.636 50.7185C130.471 50.8566 130.333 51.0061 130.221 51.1669C130.109 51.3277 130.028 51.4947 129.979 51.668C129.935 51.8431 129.922 52.0225 129.938 52.2061C129.959 52.3876 130.016 52.5672 130.11 52.7449C130.266 53.0371 130.469 53.2251 130.721 53.3088C130.975 53.3965 131.233 53.3711 131.493 53.2326C131.702 53.1214 131.862 52.9604 131.973 52.7496C132.09 52.5407 132.182 52.3044 132.249 52.0406C132.317 51.7769 132.377 51.4994 132.43 51.208C132.484 50.9206 132.555 50.6398 132.643 50.3656C132.734 50.0893 132.856 49.8342 133.011 49.6003C133.171 49.3683 133.391 49.1778 133.671 49.0288C133.9 48.9071 134.131 48.8373 134.365 48.8195C134.604 48.8036 134.831 48.835 135.045 48.9137C135.265 48.9942 135.468 49.1192 135.654 49.2886C135.84 49.458 135.999 49.6671 136.131 49.9159C136.306 50.2436 136.415 50.5349 136.459 50.7899C136.509 51.0467 136.533 51.2491 136.531 51.3972L135.58 51.9789Z" fill="#481E0B"/>
<path d="M137.311 60.896C137.797 60.7582 138.272 60.721 138.736 60.7845C139.204 60.8469 139.636 60.9917 140.03 61.2191C140.426 61.4508 140.77 61.7574 141.064 62.1388C141.358 62.5202 141.575 62.9582 141.716 63.4529C141.853 63.939 141.901 64.4182 141.858 64.8905C141.821 65.3658 141.699 65.8047 141.493 66.2072C141.287 66.6098 140.996 66.9618 140.622 67.2632C140.248 67.569 139.797 67.7969 139.268 67.947C138.826 68.0727 138.378 68.116 137.926 68.0771C137.473 68.0381 137.047 67.9126 136.648 67.7006C136.249 67.4885 135.892 67.1899 135.579 66.8048C135.271 66.4228 135.036 65.9478 134.875 65.38C134.739 64.8982 134.69 64.4218 134.728 63.9507C134.766 63.4797 134.889 63.0429 135.095 62.6404C135.302 62.2379 135.589 61.8843 135.958 61.5798C136.331 61.274 136.782 61.0461 137.311 60.896ZM135.388 65.3948C135.475 65.7002 135.614 65.9628 135.807 66.1824C136 66.4064 136.237 66.5785 136.517 66.6988C136.798 66.8191 137.116 66.8846 137.472 66.8951C137.828 66.9056 138.212 66.8523 138.625 66.7351C139.09 66.6034 139.506 66.4319 139.873 66.2207C140.245 66.0083 140.547 65.7623 140.779 65.4826C141.016 65.2061 141.175 64.8962 141.254 64.553C141.333 64.2098 141.317 63.8403 141.205 63.4446C141.118 63.1391 140.978 62.8766 140.786 62.6569C140.598 62.4361 140.365 62.2627 140.088 62.1369C139.812 62.0154 139.496 61.9493 139.14 61.9388C138.788 61.9271 138.406 61.9798 137.993 62.0969C137.529 62.2287 137.111 62.4008 136.739 62.6132C136.368 62.8299 136.063 63.0793 135.822 63.3614C135.586 63.6422 135.425 63.9527 135.341 64.2928C135.261 64.636 135.277 65.0033 135.388 65.3948Z" fill="#481E0B"/>
<path d="M146.105 71.5858C146.088 71.4754 146.049 71.3592 145.989 71.2373C145.93 71.1198 145.84 71.0162 145.717 70.9267C145.595 70.8372 145.433 70.772 145.232 70.7309C145.035 70.6891 144.789 70.6913 144.493 70.7375L143.235 70.9339C143.276 71.1673 143.316 71.385 143.357 71.5869C143.398 71.7931 143.436 71.9773 143.47 72.1394C143.504 72.3015 143.535 72.4371 143.561 72.5462C143.591 72.6546 143.615 72.7324 143.631 72.7796L142.937 72.7657C142.917 72.6104 142.898 72.4415 142.878 72.2589C142.863 72.1029 142.841 71.9185 142.812 71.7058C142.784 71.493 142.752 71.2626 142.718 71.0145L139.042 71.588C138.666 71.6466 138.338 71.7023 138.057 71.7553C137.781 71.8119 137.542 71.8627 137.341 71.9077C137.141 71.957 136.974 72.0035 136.84 72.0469C136.707 72.0948 136.597 72.1392 136.508 72.1802L136.482 72.1843L136.243 70.6534L136.27 70.6493C136.366 70.6613 136.485 70.6677 136.625 70.6684C136.766 70.6692 136.939 70.6625 137.145 70.6485C137.351 70.6345 137.593 70.6102 137.873 70.5756C138.157 70.5404 138.487 70.4935 138.862 70.4349L142.538 69.8613L142.325 68.7542L142.908 68.6632C142.921 68.8016 142.939 68.9661 142.965 69.1567C142.99 69.3474 143.02 69.5554 143.055 69.7807L144.168 69.6071C144.508 69.5541 144.816 69.5558 145.091 69.6124C145.372 69.6726 145.615 69.7774 145.819 69.9265C146.028 70.075 146.198 70.2657 146.329 70.4987C146.46 70.7316 146.549 70.9961 146.595 71.2921C146.62 71.4556 146.633 71.6097 146.633 71.7546C146.633 71.8994 146.626 72.0294 146.613 72.1447C146.6 72.2644 146.582 72.369 146.56 72.4584C146.543 72.5516 146.525 72.629 146.508 72.6906L145.409 73.1268L145.356 73.0535C145.451 72.9662 145.548 72.872 145.645 72.7709C145.747 72.669 145.836 72.5578 145.912 72.4373C145.988 72.3168 146.044 72.1858 146.081 72.0443C146.123 71.9065 146.131 71.7537 146.105 71.5858Z" fill="#481E0B"/>
<path d="M146.839 80.2774C146.819 80.8359 146.801 81.3901 146.786 81.9399C146.77 82.4942 146.756 83.0015 146.744 83.462C146.736 83.9226 146.733 84.3162 146.735 84.6429C146.736 84.9696 146.746 85.1914 146.764 85.3084L145.885 84.9477C145.931 84.8017 145.973 84.6309 146.011 84.4354C146.044 84.2666 146.076 84.0597 146.107 83.8147C146.143 83.5744 146.166 83.2956 146.178 82.9783C146.182 82.8711 146.182 82.7413 146.178 82.5891C146.179 82.4415 146.178 82.2982 146.174 82.1594C146.171 81.9982 146.168 81.8347 146.165 81.6691L142.507 81.5364C142.495 81.9969 142.493 82.4129 142.502 82.7846C142.511 83.1564 142.522 83.4722 142.535 83.7322C142.55 84.037 142.572 84.3063 142.599 84.5399L141.635 84.2969C141.687 83.99 141.736 83.6764 141.783 83.3559C141.825 83.08 141.862 82.7794 141.897 82.454C141.935 82.1287 141.96 81.8164 141.971 81.517L137.77 81.3647C137.751 81.892 137.756 82.3776 137.784 82.8217C137.813 83.2657 137.85 83.6541 137.896 83.9868C137.945 84.3734 138.006 84.7269 138.079 85.0472L137.001 84.8135C137.007 84.76 137.015 84.6797 137.023 84.5727C137.032 84.4656 137.04 84.3451 137.05 84.2112C137.059 84.0818 137.068 83.9434 137.078 83.7961C137.083 83.6531 137.091 83.5169 137.1 83.3875C137.104 83.2579 137.111 83.1418 137.119 83.0392C137.123 82.9408 137.125 82.8693 137.127 82.8247L137.232 79.929L137.258 79.93C137.351 79.9602 137.467 79.989 137.604 80.0163C137.742 80.0482 137.913 80.0767 138.118 80.1021C138.322 80.1274 138.565 80.1496 138.846 80.1688C139.132 80.1881 139.465 80.2046 139.844 80.2184L144.206 80.3765C144.585 80.3903 144.916 80.3978 145.198 80.3991C145.484 80.4005 145.73 80.396 145.936 80.3856C146.147 80.3753 146.322 80.3593 146.461 80.3375C146.601 80.3202 146.718 80.2998 146.812 80.2764L146.839 80.2774Z" fill="#481E0B"/>
<path d="M139.147 91.3637L137.434 89.4182C137.37 89.3475 137.304 89.2742 137.236 89.1983C137.167 89.1267 137.099 89.06 137.033 88.9981C136.967 88.9406 136.903 88.8905 136.842 88.8477C136.781 88.8094 136.729 88.7863 136.685 88.7783L136.885 87.6694L136.911 87.6742C136.96 87.7558 137.035 87.8693 137.136 88.0147C137.236 88.1646 137.364 88.3262 137.519 88.4996L139.775 91.0546L142.901 89.5136C143.072 89.4262 143.219 89.337 143.345 89.2461C143.47 89.1552 143.551 89.0857 143.587 89.0377L143.613 89.0424L143.287 90.851C143.212 90.8374 143.088 90.8424 142.916 90.8658C142.747 90.8943 142.536 90.9698 142.282 91.092L140.549 91.9374L141.941 93.5113C142.002 93.5768 142.067 93.6431 142.137 93.7103C142.205 93.7818 142.274 93.8441 142.341 93.8972C142.413 93.9555 142.479 94.0038 142.54 94.0422C142.601 94.0805 142.654 94.1036 142.698 94.1116L142.498 95.2205L142.471 95.2157C142.434 95.1453 142.377 95.0556 142.302 94.9465C142.226 94.8374 142.107 94.691 141.945 94.5072L139.936 92.2423L136.54 93.9186C136.315 94.0324 136.127 94.1416 135.977 94.2462C135.826 94.3507 135.728 94.4284 135.682 94.4793L135.656 94.4745L135.981 92.6726C136.056 92.6861 136.18 92.679 136.353 92.6512C136.531 92.6242 136.741 92.5532 136.984 92.4381L139.147 91.3637Z" fill="#481E0B"/>
<path d="M139.343 97.6293C139.703 97.7505 140.019 97.8496 140.29 97.9268C140.564 98.0096 140.801 98.0753 141.002 98.1239C141.201 98.1768 141.37 98.2126 141.51 98.2314C141.649 98.2544 141.767 98.2682 141.864 98.2727L141.89 98.2812L141.396 99.7497L141.37 99.7412C141.314 99.6986 141.248 99.6553 141.174 99.6113C141.099 99.5672 141.013 99.5217 140.915 99.4748C140.975 99.7733 141.003 100.089 141 100.423C140.999 100.762 140.936 101.117 140.812 101.485C140.654 101.956 140.429 102.357 140.139 102.688C139.851 103.025 139.512 103.282 139.123 103.457C138.733 103.637 138.302 103.733 137.831 103.744C137.361 103.756 136.865 103.674 136.344 103.498C135.907 103.351 135.514 103.134 135.163 102.846C134.81 102.562 134.528 102.222 134.317 101.825C134.105 101.433 133.977 100.994 133.933 100.507C133.894 100.022 133.966 99.504 134.152 98.953C134.263 98.6225 134.39 98.3301 134.532 98.076C134.674 97.8219 134.823 97.5939 134.981 97.3922L134.053 97.0799C133.693 96.9587 133.378 96.8574 133.108 96.776C132.834 96.6932 132.597 96.6275 132.397 96.5789C132.196 96.5302 132.027 96.4944 131.888 96.4714C131.75 96.4484 131.632 96.4346 131.534 96.4301L131.509 96.4215L132.003 94.953L132.028 94.9616C132.108 95.017 132.211 95.0774 132.335 95.1428C132.458 95.2124 132.614 95.2864 132.805 95.3647C132.994 95.4472 133.223 95.5384 133.491 95.6381C133.754 95.7406 134.065 95.8525 134.425 95.9737L139.343 97.6293ZM140.41 101.102C140.459 100.958 140.49 100.803 140.503 100.638C140.519 100.478 140.518 100.313 140.5 100.142C140.485 99.9763 140.449 99.8086 140.393 99.6387C140.34 99.4746 140.268 99.3181 140.176 99.1694C140.018 99.1067 139.838 99.039 139.636 98.9664C139.434 98.8937 139.213 98.8167 138.971 98.7354L135.642 97.6146C135.55 97.678 135.458 97.7534 135.368 97.8408C135.277 97.9282 135.186 98.0298 135.095 98.1455C135.007 98.2668 134.923 98.4059 134.842 98.5626C134.759 98.7236 134.684 98.9057 134.616 99.1092C134.504 99.4397 134.463 99.7585 134.492 100.065C134.521 100.372 134.617 100.655 134.78 100.913C134.942 101.175 135.167 101.409 135.457 101.614C135.744 101.824 136.091 101.998 136.498 102.135C136.956 102.289 137.392 102.393 137.807 102.448C138.227 102.505 138.607 102.496 138.948 102.422C139.292 102.353 139.589 102.213 139.84 102C140.09 101.787 140.281 101.488 140.41 101.102Z" fill="#481E0B"/>
<path d="M130.748 107.066C130.975 106.625 131.257 106.247 131.594 105.933C131.931 105.618 132.307 105.386 132.72 105.237C133.138 105.089 133.586 105.033 134.065 105.068C134.547 105.11 135.042 105.261 135.551 105.523C136 105.753 136.376 106.042 136.68 106.39C136.989 106.739 137.215 107.12 137.361 107.531C137.506 107.943 137.568 108.366 137.545 108.802C137.52 109.242 137.401 109.668 137.189 110.082C136.979 110.492 136.712 110.835 136.389 111.111C136.071 111.39 135.711 111.587 135.31 111.702C134.91 111.824 134.474 111.856 134.001 111.799C133.53 111.748 133.039 111.599 132.528 111.351C132.767 110.906 133.003 110.46 133.238 110.012C133.473 109.565 133.715 109.098 133.964 108.613C134.141 108.267 134.313 107.928 134.479 107.596C134.642 107.268 134.787 106.97 134.914 106.704C134.488 106.515 134.082 106.387 133.695 106.318C133.306 106.254 132.945 106.252 132.613 106.313C132.282 106.379 131.986 106.511 131.724 106.708C131.46 106.909 131.242 107.177 131.07 107.511C130.952 107.741 130.866 107.971 130.814 108.201C130.763 108.436 130.743 108.662 130.753 108.878C130.762 109.094 130.797 109.301 130.857 109.497C130.921 109.696 131.005 109.88 131.109 110.049L131.036 110.102L130.201 109.115C130.2 108.843 130.237 108.538 130.31 108.198C130.388 107.861 130.534 107.484 130.748 107.066ZM134.793 108.142C134.589 108.54 134.385 108.938 134.181 109.335C133.979 109.739 133.8 110.107 133.644 110.439C134.008 110.581 134.353 110.673 134.679 110.715C135.004 110.756 135.302 110.748 135.572 110.691C135.843 110.634 136.084 110.527 136.295 110.369C136.507 110.212 136.678 110.005 136.809 109.751C136.927 109.52 136.985 109.281 136.982 109.033C136.98 108.791 136.921 108.549 136.804 108.308C136.686 108.067 136.511 107.831 136.278 107.6C136.048 107.372 135.761 107.159 135.415 106.961C135.315 107.136 135.214 107.323 135.112 107.522C135.01 107.721 134.904 107.927 134.793 108.142Z" fill="#481E0B"/>
<path d="M131.773 114.068C132.087 114.281 132.365 114.461 132.606 114.608C132.847 114.761 133.058 114.888 133.239 114.989C133.416 115.093 133.57 115.173 133.7 115.228C133.827 115.288 133.937 115.332 134.03 115.363L134.052 115.378L133.184 116.661L133.161 116.646C133.096 116.558 133.01 116.462 132.903 116.357C132.794 116.256 132.646 116.135 132.461 115.993C132.483 116.208 132.5 116.427 132.51 116.65C132.521 116.873 132.517 117.092 132.496 117.305C132.476 117.518 132.438 117.722 132.382 117.916C132.324 118.114 132.239 118.294 132.129 118.457C132.061 118.557 131.997 118.641 131.936 118.707C131.878 118.776 131.82 118.834 131.761 118.881C131.706 118.93 131.652 118.971 131.597 119.004C131.546 119.04 131.496 119.073 131.447 119.105L130.571 118.115L130.658 118.035C130.85 118.101 131.036 118.106 131.215 118.049C131.398 117.994 131.561 117.862 131.704 117.651C131.781 117.536 131.842 117.402 131.887 117.248C131.931 117.095 131.961 116.928 131.974 116.748C131.992 116.571 131.996 116.385 131.988 116.19C131.983 115.998 131.97 115.806 131.949 115.613C131.847 115.533 131.733 115.451 131.607 115.365C131.481 115.28 131.348 115.19 131.207 115.095L129.775 114.124C129.461 113.911 129.183 113.728 128.941 113.575C128.703 113.424 128.493 113.298 128.313 113.198C128.133 113.097 127.979 113.017 127.852 112.958C127.725 112.899 127.615 112.854 127.522 112.824L127.5 112.809L128.368 111.526L128.391 111.541C128.453 111.616 128.536 111.701 128.638 111.798C128.737 111.898 128.869 112.011 129.031 112.137C129.192 112.267 129.386 112.415 129.614 112.581C129.843 112.752 130.115 112.945 130.43 113.158L131.773 114.068Z" fill="#481E0B"/>
<path d="M128.372 118.839C128.668 119.076 128.931 119.277 129.159 119.443C129.389 119.614 129.589 119.757 129.761 119.872C129.93 119.989 130.077 120.081 130.202 120.147C130.324 120.216 130.43 120.269 130.52 120.307L130.541 120.323L129.575 121.534L129.554 121.517C129.498 121.438 129.422 121.346 129.328 121.242C129.233 121.138 129.111 121.015 128.962 120.873C128.812 120.73 128.629 120.567 128.411 120.381C128.196 120.198 127.941 119.988 127.644 119.751L126.376 118.738C126.079 118.501 125.816 118.297 125.587 118.125C125.361 117.957 125.162 117.815 124.991 117.701C124.819 117.586 124.672 117.495 124.55 117.426C124.427 117.357 124.321 117.303 124.231 117.266L124.21 117.249L125.176 116.038L125.197 116.055C125.254 116.134 125.329 116.226 125.424 116.33C125.515 116.438 125.637 116.561 125.79 116.7C125.939 116.842 126.121 117.004 126.335 117.187C126.551 117.376 126.807 117.589 127.104 117.826L128.372 118.839ZM132.095 121.633C132.172 121.695 132.233 121.766 132.277 121.847C132.321 121.934 132.349 122.022 132.359 122.11C132.372 122.2 132.366 122.29 132.341 122.379C132.317 122.474 132.273 122.561 132.208 122.642C132.144 122.722 132.07 122.783 131.986 122.824C131.902 122.872 131.814 122.899 131.723 122.906C131.632 122.92 131.541 122.912 131.449 122.885C131.357 122.863 131.273 122.822 131.196 122.76C131.035 122.632 130.944 122.47 130.922 122.275C130.901 122.081 130.954 121.903 131.082 121.742C131.146 121.662 131.22 121.598 131.304 121.55C131.388 121.509 131.474 121.483 131.562 121.473C131.654 121.466 131.745 121.474 131.837 121.495C131.929 121.523 132.015 121.569 132.095 121.633Z" fill="#481E0B"/>
<path d="M120.676 120.995C121.024 120.641 121.405 120.364 121.821 120.164C122.236 119.964 122.663 119.855 123.102 119.835C123.545 119.818 123.989 119.898 124.437 120.074C124.884 120.256 125.312 120.548 125.72 120.949C126.08 121.303 126.354 121.691 126.541 122.113C126.732 122.538 126.835 122.968 126.852 123.405C126.869 123.841 126.802 124.264 126.65 124.673C126.496 125.085 126.256 125.458 125.931 125.789C125.608 126.118 125.252 126.366 124.861 126.534C124.474 126.706 124.072 126.787 123.655 126.778C123.238 126.776 122.812 126.677 122.377 126.482C121.942 126.293 121.517 126.004 121.103 125.616C121.463 125.262 121.822 124.906 122.179 124.548C122.536 124.191 122.905 123.817 123.287 123.428C123.56 123.151 123.824 122.878 124.081 122.61C124.334 122.345 124.561 122.104 124.762 121.887C124.411 121.581 124.061 121.337 123.712 121.157C123.359 120.98 123.016 120.871 122.68 120.83C122.345 120.795 122.023 120.833 121.714 120.943C121.402 121.057 121.115 121.248 120.852 121.516C120.67 121.701 120.52 121.895 120.402 122.098C120.284 122.308 120.197 122.518 120.142 122.727C120.087 122.936 120.059 123.143 120.058 123.349C120.06 123.558 120.086 123.758 120.135 123.951L120.05 123.98L119.546 122.789C119.625 122.529 119.751 122.248 119.922 121.946C120.096 121.647 120.348 121.331 120.676 120.995ZM124.219 123.225C123.906 123.544 123.593 123.863 123.28 124.182C122.967 124.508 122.687 124.806 122.44 125.077C122.745 125.321 123.047 125.511 123.346 125.647C123.644 125.784 123.931 125.865 124.206 125.891C124.481 125.917 124.743 125.886 124.992 125.798C125.241 125.71 125.466 125.564 125.666 125.36C125.848 125.175 125.974 124.964 126.044 124.726C126.115 124.494 126.13 124.246 126.089 123.981C126.049 123.716 125.952 123.438 125.797 123.149C125.646 122.862 125.435 122.574 125.163 122.282C125.016 122.419 124.864 122.568 124.708 122.727C124.551 122.887 124.388 123.053 124.219 123.225Z" fill="#481E0B"/>
<path d="M115.971 131.148C116.328 131.618 116.684 131.892 117.04 131.97C117.396 132.048 117.733 131.966 118.05 131.726C118.164 131.639 118.273 131.517 118.378 131.359C118.485 131.205 118.582 131.03 118.67 130.834C118.76 130.642 118.839 130.436 118.908 130.216C118.976 129.995 119.03 129.775 119.07 129.554L118.55 128.845L117.57 127.552C117.34 127.249 117.135 126.987 116.955 126.764C116.778 126.545 116.62 126.359 116.482 126.206C116.343 126.053 116.223 125.928 116.121 125.831C116.02 125.734 115.93 125.656 115.852 125.598L115.836 125.576L117.07 124.64L117.086 124.661C117.121 124.752 117.172 124.86 117.238 124.984C117.3 125.11 117.388 125.26 117.502 125.432C117.612 125.606 117.748 125.809 117.911 126.039C118.074 126.275 118.269 126.544 118.499 126.847L119.48 128.14C119.709 128.443 119.914 128.702 120.095 128.919C120.275 129.141 120.435 129.329 120.573 129.482C120.708 129.638 120.828 129.763 120.933 129.857C121.035 129.954 121.124 130.032 121.203 130.091L121.219 130.112L119.985 131.048L119.969 131.027C119.93 130.916 119.866 130.785 119.779 130.632C119.69 130.486 119.571 130.296 119.422 130.061C119.368 130.293 119.303 130.533 119.227 130.781C119.148 131.032 119.053 131.273 118.942 131.503C118.833 131.737 118.706 131.955 118.56 132.155C118.418 132.359 118.255 132.529 118.074 132.667C117.796 132.878 117.525 133.008 117.259 133.058C116.991 133.111 116.736 133.104 116.496 133.039C116.253 132.977 116.027 132.865 115.82 132.702C115.612 132.546 115.429 132.365 115.273 132.158L113.895 130.341C113.665 130.039 113.461 129.776 113.281 129.553C113.103 129.334 112.945 129.148 112.807 128.995C112.668 128.842 112.548 128.717 112.447 128.62C112.345 128.523 112.255 128.445 112.177 128.387L112.161 128.365L113.395 127.429L113.411 127.45C113.446 127.541 113.497 127.649 113.563 127.773C113.625 127.9 113.713 128.049 113.827 128.221C113.937 128.395 114.074 128.598 114.237 128.828C114.399 129.064 114.595 129.333 114.824 129.636L115.971 131.148Z" fill="#481E0B"/>
<path d="M105.914 133.644L105.771 132.359C105.851 132.254 105.949 132.144 106.064 132.029C106.179 131.914 106.304 131.802 106.437 131.693C106.567 131.585 106.703 131.485 106.845 131.391C106.985 131.293 107.122 131.207 107.255 131.134C107.728 130.872 108.204 130.699 108.683 130.613C109.16 130.534 109.619 130.546 110.059 130.651C110.495 130.757 110.903 130.958 111.281 131.255C111.659 131.552 111.985 131.949 112.259 132.446C112.503 132.889 112.645 133.344 112.684 133.813C112.721 134.288 112.666 134.747 112.518 135.192C112.366 135.638 112.128 136.053 111.803 136.437C111.479 136.82 111.076 137.145 110.595 137.41C110.376 137.531 110.13 137.641 109.858 137.741C109.588 137.844 109.339 137.92 109.111 137.969L108.144 137.201L108.191 137.121C108.356 137.188 108.534 137.233 108.725 137.255C108.914 137.284 109.11 137.288 109.314 137.267C109.513 137.249 109.713 137.21 109.915 137.15C110.117 137.09 110.311 137.008 110.499 136.904C110.804 136.735 111.052 136.527 111.242 136.279C111.434 136.035 111.564 135.762 111.632 135.459C111.699 135.156 111.702 134.828 111.64 134.474C111.575 134.126 111.44 133.765 111.232 133.389C110.999 132.966 110.735 132.598 110.44 132.286C110.142 131.976 109.824 131.738 109.487 131.571C109.149 131.411 108.794 131.333 108.424 131.338C108.053 131.35 107.673 131.462 107.286 131.676C107.106 131.775 106.94 131.895 106.787 132.036C106.633 132.182 106.501 132.339 106.39 132.508C106.277 132.683 106.186 132.866 106.118 133.056C106.05 133.247 106.011 133.442 106.003 133.641L105.914 133.644Z" fill="#481E0B"/>
<path d="M100.023 134.444C100.487 134.269 100.95 134.179 101.411 134.173C101.871 134.167 102.305 134.247 102.712 134.414C103.12 134.586 103.49 134.846 103.821 135.194C104.15 135.548 104.415 135.993 104.616 136.529C104.794 137.002 104.879 137.469 104.87 137.931C104.864 138.396 104.776 138.831 104.608 139.233C104.439 139.636 104.2 139.991 103.891 140.298C103.577 140.607 103.203 140.843 102.767 141.007C102.337 141.169 101.909 141.244 101.484 141.232C101.061 141.224 100.662 141.128 100.287 140.944C99.9098 140.766 99.5652 140.496 99.2531 140.136C98.9385 139.781 98.675 139.341 98.4628 138.814C98.9387 138.644 99.4138 138.473 99.8881 138.299C100.362 138.126 100.855 137.943 101.365 137.751C101.729 137.614 102.084 137.478 102.43 137.344C102.771 137.21 103.078 137.088 103.351 136.976C103.163 136.55 102.948 136.181 102.707 135.871C102.462 135.562 102.196 135.318 101.909 135.139C101.62 134.966 101.312 134.864 100.986 134.834C100.655 134.806 100.314 134.857 99.9626 134.99C99.72 135.081 99.5022 135.194 99.3093 135.328C99.1137 135.469 98.947 135.622 98.809 135.789C98.671 135.955 98.5581 136.131 98.4704 136.317C98.3842 136.507 98.3229 136.7 98.2864 136.895L98.197 136.886L98.2415 135.594C98.4234 135.392 98.6555 135.19 98.9379 134.988C99.2218 134.79 99.5834 134.609 100.023 134.444ZM102.296 137.96C101.878 138.117 101.459 138.275 101.041 138.432C100.62 138.595 100.24 138.747 99.9019 138.889C100.076 139.239 100.27 139.539 100.483 139.788C100.696 140.038 100.922 140.232 101.161 140.372C101.399 140.511 101.65 140.594 101.913 140.619C102.175 140.645 102.441 140.607 102.708 140.506C102.951 140.415 103.154 140.276 103.318 140.091C103.48 139.91 103.598 139.692 103.673 139.434C103.749 139.176 103.777 138.884 103.759 138.556C103.743 138.233 103.673 137.882 103.55 137.503C103.358 137.565 103.158 137.636 102.949 137.715C102.739 137.793 102.522 137.875 102.296 137.96Z" fill="#481E0B"/>
<path d="M90.4615 144.921L88.7294 144.333L88.9296 143.827L90.6087 144.512L90.2735 142.731L90.8169 142.647L91.0414 144.459L92.4348 143.287L92.7779 143.709L91.3162 144.789L93.0361 145.386L92.8359 145.892L91.1547 145.194L91.4853 146.989L90.942 147.073L90.724 145.261L89.3307 146.432L88.9876 146.01L90.4615 144.921Z" fill="#481E0B"/>
<path d="M79.771 138.234C79.7414 138.327 79.7133 138.442 79.6868 138.58C79.6558 138.718 79.6282 138.889 79.6041 139.094C79.58 139.299 79.5593 139.542 79.5418 139.824C79.5242 140.11 79.5097 140.442 79.4982 140.822L79.366 145.187C79.3545 145.567 79.3722 145.869 79.4191 146.094C79.4659 146.319 79.5255 146.493 79.5978 146.616C79.6656 146.739 79.7389 146.829 79.8177 146.885C79.892 146.941 79.9553 146.992 80.0075 147.038L80.0067 147.065L77.9262 147.774L77.927 147.747C77.9566 147.654 77.987 147.538 78.0179 147.401C78.0445 147.263 78.0699 147.089 78.0941 146.88C78.1182 146.674 78.139 146.429 78.1566 146.143C78.1741 145.862 78.1886 145.531 78.2001 145.151L78.3322 140.787C78.3437 140.407 78.3493 140.074 78.349 139.788C78.3486 139.506 78.3426 139.262 78.3309 139.056C78.3193 138.85 78.3044 138.677 78.2862 138.538C78.2636 138.398 78.2403 138.281 78.2164 138.187L78.2172 138.16L79.7718 138.207L79.771 138.234Z" fill="#481E0B"/>
<path d="M75.1091 136.944C74.4484 137.004 73.8345 137.112 73.2674 137.268C72.6959 137.423 72.1907 137.632 71.7518 137.894C71.3123 138.16 70.9519 138.484 70.6708 138.865C70.3897 139.247 70.2096 139.692 70.1304 140.2C70.0519 140.704 70.0867 141.148 70.2348 141.533C70.3829 141.918 70.616 142.251 70.9341 142.532C71.2479 142.811 71.635 143.041 72.0954 143.222C72.5514 143.402 73.0481 143.538 73.5855 143.631L72.1238 147.394L70.8585 147.197C70.4832 147.138 70.1564 147.087 69.8782 147.044C69.5949 147.004 69.3516 146.969 69.1485 146.937C68.9447 146.91 68.774 146.888 68.6364 146.871C68.4988 146.854 68.3829 146.842 68.2888 146.837L68.2623 146.833L68.4864 145.395L68.5129 145.399C68.6015 145.44 68.7125 145.482 68.846 145.525C68.9795 145.569 69.1464 145.615 69.3468 145.665C69.5472 145.714 69.788 145.765 70.0692 145.818C70.3461 145.87 70.6722 145.926 71.0475 145.984L72.0279 146.137L72.6113 144.701C72.255 144.636 71.9072 144.546 71.568 144.429C71.2281 144.317 70.9088 144.175 70.6101 144.002C70.3107 143.833 70.0408 143.634 69.8003 143.407C69.5548 143.183 69.3522 142.93 69.1928 142.647C69.0326 142.368 68.9224 142.059 68.8623 141.72C68.797 141.384 68.795 141.019 68.8563 140.626C68.9355 140.118 69.0844 139.67 69.303 139.283C69.5216 138.897 69.7891 138.558 70.1057 138.268C70.4223 137.978 70.7773 137.733 71.1705 137.531C71.5637 137.33 71.9764 137.164 72.4085 137.032C72.8363 136.9 73.2731 136.796 73.7191 136.721C74.1651 136.645 74.5988 136.591 75.0202 136.557L75.1091 136.944Z" fill="#481E0B"/>
<path d="M60.817 139.508L61.828 136.374L62.4851 136.586L61.4742 139.72L64.6068 140.732L64.3948 141.389L61.2621 140.378L60.2511 143.512L59.594 143.3L60.605 140.166L57.4723 139.154L57.6844 138.497L60.817 139.508Z" fill="#481E0B"/>
<path d="M47.5758 133.633L48.6011 131.925C48.7967 131.6 48.9644 131.312 49.104 131.062C49.2413 130.816 49.3552 130.6 49.4458 130.414C49.5363 130.229 49.6077 130.071 49.6599 129.94C49.7082 129.808 49.7451 129.694 49.7704 129.6L49.7842 129.577L51.1635 130.406L51.1497 130.429C51.0784 130.496 50.9975 130.583 50.907 130.69C50.8126 130.795 50.7068 130.932 50.5894 131.102C50.4682 131.269 50.3313 131.471 50.1787 131.708C50.0199 131.946 49.8427 132.228 49.6471 132.554L48.6908 134.147L49.1608 139.186C49.1776 139.358 49.2001 139.52 49.2284 139.673C49.2529 139.823 49.2815 139.958 49.3144 140.077C49.345 140.199 49.376 140.304 49.4074 140.391C49.4388 140.477 49.4648 140.543 49.4855 140.586L49.4717 140.609L47.7303 139.563C47.7833 139.475 47.8343 139.307 47.8835 139.06C47.9266 138.815 47.9321 138.497 47.9001 138.108L47.5651 134.393L44.1012 135.981C43.9786 136.038 43.8547 136.097 43.7298 136.157C43.6048 136.218 43.4879 136.278 43.379 136.338C43.2701 136.397 43.1774 136.456 43.1007 136.515C43.0202 136.57 42.9638 136.625 42.9316 136.679L41.8109 136.005L41.8247 135.982C41.9527 135.96 42.1314 135.919 42.3606 135.859C42.5875 135.802 42.8547 135.704 43.1621 135.566L47.5758 133.633Z" fill="#481E0B"/>
<path d="M43.7407 125.065C44.1234 125.38 44.4323 125.737 44.6673 126.133C44.9023 126.53 45.0487 126.946 45.1064 127.382C45.1614 127.822 45.1205 128.272 44.9839 128.733C44.8409 129.195 44.5875 129.646 44.2236 130.088C43.9023 130.478 43.5396 130.784 43.1356 131.007C42.7288 131.234 42.3089 131.374 41.876 131.429C41.4431 131.483 41.0163 131.453 40.5957 131.337C40.1716 131.219 39.7802 131.013 39.4216 130.717C39.0664 130.424 38.7883 130.09 38.5871 129.715C38.3832 129.344 38.2676 128.95 38.2402 128.534C38.2066 128.118 38.2681 127.685 38.4248 127.234C38.5753 126.785 38.8259 126.337 39.1766 125.89C39.5606 126.218 39.946 126.545 40.3328 126.87C40.7197 127.195 41.1234 127.531 41.5441 127.878C41.8442 128.125 42.1387 128.365 42.4278 128.598C42.7134 128.828 42.9728 129.033 43.2061 129.214C43.4811 128.838 43.6932 128.468 43.8424 128.104C43.9881 127.738 44.067 127.385 44.0789 127.048C44.0846 126.71 44.0191 126.393 43.8825 126.095C43.7425 125.794 43.5276 125.524 43.2379 125.285C43.0379 125.12 42.8315 124.987 42.6187 124.887C42.3996 124.787 42.1835 124.719 41.9704 124.682C41.7573 124.646 41.5484 124.636 41.3436 124.652C41.136 124.672 40.9385 124.715 40.7511 124.781L40.7146 124.698L41.8566 124.093C42.1224 124.15 42.4131 124.251 42.7286 124.395C43.0412 124.543 43.3786 124.766 43.7407 125.065ZM41.827 128.789C41.4822 128.505 41.1373 128.22 40.7925 127.936C40.4414 127.652 40.1201 127.398 39.8289 127.175C39.6125 127.501 39.4494 127.819 39.3394 128.128C39.2294 128.437 39.1734 128.73 39.1714 129.006C39.1695 129.283 39.2229 129.541 39.3317 129.782C39.4406 130.022 39.6053 130.234 39.826 130.416C40.026 130.581 40.2475 130.688 40.4904 130.738C40.727 130.788 40.9756 130.782 41.2362 130.718C41.4968 130.655 41.7646 130.534 42.0395 130.355C42.3115 130.18 42.581 129.944 42.8478 129.648C42.6983 129.514 42.5374 129.375 42.365 129.233C42.1926 129.091 42.0132 128.943 41.827 128.789Z" fill="#481E0B"/>
<path d="M38.4837 123.283C38.2226 123.521 37.948 123.674 37.66 123.743C37.369 123.808 37.0745 123.813 36.7766 123.758C36.4786 123.703 36.1845 123.599 35.8943 123.446C35.6009 123.296 35.3197 123.12 35.0508 122.917C34.7787 122.717 34.526 122.506 34.2929 122.283C34.0566 122.063 33.8465 121.855 33.6627 121.66L33.4098 121.89C33.1916 122.088 33.0287 122.288 32.9212 122.489C32.8136 122.689 32.7552 122.888 32.746 123.083C32.7334 123.282 32.7685 123.477 32.8513 123.668C32.9277 123.858 33.0441 124.039 33.2006 124.211C33.3088 124.33 33.4255 124.439 33.5506 124.536C33.6757 124.634 33.8186 124.725 33.9792 124.808C34.1367 124.888 34.3183 124.962 34.524 125.029C34.7267 125.092 34.9614 125.147 35.228 125.195L35.2434 125.272L34.2374 125.571C34.0886 125.507 33.9511 125.435 33.8251 125.356C33.6958 125.281 33.5716 125.197 33.4525 125.106C33.3335 125.015 33.2195 124.916 33.1106 124.81C32.9954 124.703 32.8807 124.587 32.7664 124.461C32.4506 124.114 32.2243 123.779 32.0877 123.456C31.9448 123.133 31.877 122.825 31.8844 122.535C31.8855 122.243 31.9521 121.971 32.0843 121.718C32.2132 121.468 32.39 121.24 32.6149 121.035L34.2315 119.564C34.5125 119.308 34.7557 119.081 34.9613 118.882C35.1606 118.682 35.3317 118.508 35.4748 118.36C35.6148 118.208 35.7285 118.077 35.816 117.968C35.9004 117.854 35.9683 117.756 36.0197 117.673L36.0395 117.655L37.0366 118.752L37.0168 118.77C36.9488 118.801 36.8788 118.844 36.8067 118.897C36.7315 118.948 36.6447 119.012 36.5461 119.089C36.6688 119.105 36.8051 119.132 36.9551 119.17C37.1022 119.206 37.2578 119.261 37.422 119.335C37.5798 119.409 37.7413 119.507 37.9064 119.628C38.0718 119.744 38.2342 119.889 38.3936 120.065C38.917 120.64 39.1876 121.207 39.2056 121.765C39.2203 122.326 38.9796 122.832 38.4837 123.283ZM34.0495 121.307C34.3265 121.605 34.6079 121.878 34.8936 122.126C35.176 122.377 35.4645 122.564 35.7592 122.689C36.0509 122.811 36.3479 122.852 36.6504 122.812C36.9465 122.772 37.2466 122.614 37.5508 122.337C37.9409 121.982 38.1497 121.614 38.1772 121.232C38.2047 120.85 38.062 120.487 37.7492 120.143C37.6049 119.985 37.4525 119.86 37.2923 119.77C37.1257 119.68 36.9642 119.616 36.8078 119.577C36.6452 119.537 36.4926 119.519 36.3501 119.522C36.2043 119.527 36.0768 119.547 35.9677 119.58C35.836 119.687 35.6942 119.81 35.5421 119.949C35.3867 120.09 35.2115 120.25 35.0165 120.427L34.0495 121.307Z" fill="#481E0B"/>
<path d="M30.9353 117.994C30.6265 118.216 30.3615 118.414 30.1404 118.589C29.9131 118.763 29.7211 118.917 29.5644 119.051C29.405 119.182 29.2769 119.298 29.1798 119.401C29.0802 119.5 29.0001 119.588 28.9394 119.664L28.9176 119.68L28.0157 118.42L28.0375 118.405C28.1419 118.374 28.2618 118.326 28.3974 118.262C28.5303 118.194 28.6951 118.098 28.8918 117.974C28.6829 117.92 28.4719 117.859 28.2588 117.792C28.0457 117.725 27.8427 117.645 27.6498 117.552C27.4569 117.459 27.279 117.353 27.1163 117.233C26.9509 117.11 26.8109 116.968 26.6964 116.808C26.6261 116.71 26.5704 116.621 26.5292 116.54C26.4844 116.462 26.4503 116.388 26.4268 116.316C26.3997 116.248 26.3801 116.182 26.3681 116.119C26.3524 116.059 26.3381 116 26.325 115.944L27.5572 115.465L27.6018 115.573C27.4732 115.731 27.4046 115.904 27.396 116.092C27.3838 116.282 27.4519 116.481 27.6002 116.688C27.6809 116.801 27.7855 116.905 27.914 117C28.0424 117.095 28.1886 117.18 28.3523 117.255C28.5125 117.333 28.6853 117.401 28.8709 117.461C29.0528 117.523 29.2376 117.577 29.4252 117.624C29.5358 117.556 29.6528 117.478 29.7764 117.389C29.8999 117.301 30.0307 117.207 30.1688 117.108L31.5748 116.1C31.8837 115.879 32.1518 115.681 32.3791 115.507C32.6028 115.336 32.793 115.183 32.9497 115.049C33.1064 114.915 33.2346 114.798 33.3342 114.699C33.4338 114.6 33.514 114.512 33.5747 114.436L33.5965 114.42L34.4984 115.68L34.4766 115.695C34.3846 115.728 34.2759 115.776 34.1502 115.839C34.022 115.897 33.8704 115.981 33.6954 116.09C33.5179 116.196 33.3121 116.327 33.078 116.483C32.8376 116.639 32.563 116.828 32.2542 117.049L30.9353 117.994Z" fill="#481E0B"/>
<path d="M24.998 111.132L25.0554 111.207C24.9809 111.285 24.9103 111.383 24.8437 111.502C24.7749 111.617 24.7248 111.748 24.6934 111.893C24.6598 112.035 24.6538 112.189 24.6754 112.357C24.6909 112.522 24.7477 112.693 24.8457 112.868C24.9132 112.989 24.995 113.095 25.0912 113.184C25.1851 113.27 25.2901 113.335 25.406 113.377C25.516 113.418 25.6347 113.434 25.7623 113.424C25.8899 113.414 26.022 113.371 26.1586 113.295C26.3499 113.188 26.5006 113.027 26.6109 112.812C26.7151 112.595 26.803 112.349 26.8745 112.074C26.9421 111.8 27.0041 111.512 27.0604 111.209C27.1145 110.903 27.1851 110.607 27.2722 110.323C27.3594 110.039 27.4776 109.778 27.6269 109.541C27.7702 109.302 27.9647 109.114 28.2106 108.977C28.4096 108.866 28.6244 108.792 28.8548 108.756C29.0813 108.721 29.3101 108.737 29.5412 108.803C29.7701 108.864 29.9956 108.984 30.2178 109.162C30.4339 109.338 30.6302 109.585 30.8066 109.901C30.9112 110.088 30.9916 110.274 31.048 110.458C31.1021 110.637 31.142 110.81 31.1675 110.975C31.1869 111.138 31.1959 111.292 31.1944 111.436C31.1869 111.578 31.1767 111.707 31.1639 111.822L30.0189 112.384L29.9667 112.29C30.1283 112.149 30.2635 111.997 30.3721 111.834C30.4807 111.67 30.5581 111.502 30.6042 111.328C30.6443 111.152 30.6541 110.972 30.6338 110.789C30.6096 110.608 30.5485 110.429 30.4504 110.254C30.2893 109.965 30.0818 109.781 29.8282 109.702C29.5723 109.62 29.3156 109.651 29.058 109.794C28.8512 109.91 28.6946 110.074 28.5882 110.287C28.4757 110.498 28.3885 110.737 28.3265 111.002C28.2645 111.267 28.2101 111.545 28.1634 111.838C28.1144 112.126 28.0492 112.408 27.9677 112.684C27.8823 112.963 27.7649 113.22 27.6156 113.457C27.4602 113.692 27.244 113.887 26.9669 114.042C26.7405 114.168 26.5108 114.243 26.2777 114.266C26.0386 114.286 25.8113 114.26 25.5958 114.185C25.3743 114.109 25.1687 113.989 24.9791 113.823C24.7895 113.658 24.6261 113.452 24.4889 113.206C24.3081 112.882 24.1929 112.593 24.1434 112.339C24.0878 112.083 24.0596 111.881 24.0589 111.733L24.998 111.132Z" fill="#481E0B"/>
<path d="M23.0839 102.252C22.601 102.4 22.1269 102.447 21.6617 102.393C21.1922 102.341 20.758 102.205 20.3591 101.986C19.9588 101.762 19.6078 101.463 19.306 101.088C19.0043 100.712 18.7781 100.279 18.6277 99.7873C18.4798 99.3041 18.4224 98.826 18.4552 98.353C18.4825 97.877 18.5952 97.4357 18.7933 97.0289C18.9913 96.6222 19.2744 96.2643 19.6426 95.9551C20.0094 95.6417 20.4556 95.4045 20.9813 95.2434C21.4215 95.1086 21.8681 95.056 22.3212 95.0856C22.7743 95.1151 23.2026 95.2318 23.6062 95.4355C24.0098 95.6393 24.3723 95.9304 24.6938 96.3089C25.0097 96.6845 25.254 97.1545 25.4267 97.7189C25.5732 98.1977 25.6322 98.673 25.6036 99.1448C25.575 99.6165 25.4617 100.056 25.2636 100.462C25.0655 100.869 24.7852 101.229 24.4227 101.541C24.0558 101.854 23.6096 102.091 23.0839 102.252ZM24.9136 97.7147C24.8207 97.4111 24.6758 97.1515 24.479 96.9359C24.2808 96.716 24.0403 96.5488 23.7576 96.4344C23.4748 96.3199 23.1553 96.2611 22.7991 96.2579C22.443 96.2548 22.0597 96.3161 21.6494 96.4417C21.1879 96.5831 20.7756 96.7632 20.4125 96.9819C20.0451 97.202 19.7484 97.4542 19.5222 97.7386C19.2905 98.02 19.1386 98.3331 19.0665 98.6779C18.9943 99.0226 19.0185 99.3917 19.1388 99.7851C19.2317 100.089 19.3766 100.348 19.5734 100.564C19.766 100.781 20.0022 100.949 20.282 101.069C20.5605 101.185 20.8778 101.245 21.234 101.248C21.586 101.252 21.9671 101.192 22.3773 101.066C22.8389 100.925 23.2533 100.744 23.6207 100.524C23.9867 100.299 24.2871 100.044 24.5218 99.7567C24.7522 99.471 24.9063 99.1572 24.984 98.8155C25.0561 98.4707 25.0327 98.1038 24.9136 97.7147Z" fill="#481E0B"/>
<path d="M14.0679 91.7273C14.0873 91.8374 14.1282 91.9528 14.1903 92.0735C14.2517 92.1898 14.3446 92.2914 14.4689 92.3784C14.5932 92.4654 14.7562 92.5273 14.9579 92.5643C15.1552 92.6021 15.4013 92.5948 15.6962 92.5427L16.9505 92.3207C16.9049 92.0882 16.8597 91.8714 16.8151 91.6704C16.7697 91.465 16.7282 91.2816 16.6906 91.1202C16.653 90.9589 16.6201 90.8239 16.5919 90.7154C16.5592 90.6077 16.5342 90.5304 16.5168 90.4835L17.2112 90.4832C17.234 90.6381 17.257 90.8066 17.2801 90.9887C17.2986 91.1444 17.3243 91.3283 17.3572 91.5404C17.3902 91.7525 17.4263 91.9823 17.4654 92.2296L21.1294 91.5814C21.5035 91.5152 21.8306 91.4528 22.1107 91.3941C22.3856 91.3319 22.6232 91.2762 22.8233 91.2272C23.0226 91.1737 23.1886 91.124 23.3211 91.0778C23.4529 91.0272 23.5626 90.9806 23.6504 90.9378L23.6768 90.9331L23.9465 92.4588L23.9201 92.4635C23.823 92.4534 23.7043 92.4495 23.5639 92.4516C23.4236 92.4537 23.2507 92.4639 23.0451 92.4821C22.8395 92.5003 22.5973 92.5295 22.3185 92.5698C22.0353 92.6108 21.7066 92.6644 21.3325 92.7306L17.6686 93.3789L17.9043 94.4815L17.3234 94.5843C17.3081 94.4462 17.2859 94.2821 17.2568 94.092C17.2277 93.9019 17.1933 93.6946 17.1537 93.47L16.0446 93.6662C15.7057 93.7262 15.3978 93.7307 15.1211 93.6798C14.8391 93.6252 14.5945 93.5254 14.3873 93.3805C14.1758 93.2363 14.002 93.049 13.8659 92.8188C13.7299 92.5886 13.6359 92.326 13.5837 92.031C13.5549 91.868 13.5391 91.7142 13.5362 91.5694C13.5333 91.4246 13.5375 91.2944 13.5488 91.1789C13.5594 91.059 13.5749 90.954 13.5953 90.8642C13.6106 90.7706 13.6263 90.6929 13.6426 90.631L14.7326 90.1725L14.7862 90.2448C14.693 90.3339 14.5988 90.43 14.5036 90.5332C14.4039 90.6371 14.3172 90.75 14.2435 90.8721C14.1698 90.9941 14.116 91.1262 14.0821 91.2684C14.043 91.407 14.0383 91.56 14.0679 91.7273Z" fill="#481E0B"/>
<path d="M13.16 83.0876C13.1688 82.5288 13.1753 81.9743 13.1794 81.4243C13.1837 80.8698 13.1872 80.3623 13.19 79.9017C13.1883 79.4411 13.1833 79.0474 13.175 78.7209C13.1667 78.3943 13.1523 78.1727 13.1318 78.0561L14.0182 78.3987C13.9757 78.5456 13.9372 78.7172 13.9028 78.9134C13.8733 79.0829 13.8455 79.2904 13.8193 79.536C13.7887 79.777 13.7709 80.0562 13.7659 80.3737C13.7642 80.481 13.7666 80.6107 13.7732 80.7628C13.7753 80.9105 13.7798 81.0536 13.7865 81.1924C13.7929 81.3535 13.7993 81.5168 13.8056 81.6824L17.4657 81.74C17.4684 81.2794 17.4616 80.8634 17.445 80.4919C17.4285 80.1205 17.4112 79.8049 17.3929 79.5453C17.3709 79.2408 17.3438 78.9721 17.3117 78.739L18.2804 78.9622C18.2353 79.2701 18.1924 79.5847 18.1516 79.906C18.1159 80.1827 18.0844 80.4841 18.0569 80.8101C18.025 81.1361 18.0066 81.4489 18.0019 81.7484L22.2049 81.8146C22.2132 81.287 22.1985 80.8015 22.1607 80.3582C22.123 79.9149 22.0777 79.5273 22.0248 79.1956C21.9683 78.8101 21.9001 78.4579 21.8202 78.1392L22.903 78.3507C22.8977 78.4043 22.892 78.4847 22.8858 78.592C22.8797 78.6992 22.8733 78.8198 22.8667 78.9539C22.8602 79.0835 22.8536 79.222 22.8468 79.3695C22.8445 79.5126 22.8402 79.6489 22.8337 79.7785C22.8316 79.9081 22.8275 80.0244 22.8215 80.1271C22.8199 80.2255 22.8188 80.297 22.8181 80.3417L22.7725 83.2389L22.7457 83.2385C22.6523 83.2102 22.5365 83.1838 22.3983 83.1592C22.2602 83.1302 22.0885 83.1052 21.8832 83.0841C21.6779 83.0629 21.4346 83.0457 21.1532 83.0323C20.8673 83.0189 20.5344 83.0092 20.1546 83.0032L15.7907 82.9345C15.4109 82.9285 15.0801 82.9278 14.7984 82.9323C14.5123 82.9367 14.2663 82.9463 14.0604 82.9609C13.8501 82.9755 13.6755 82.9951 13.5365 83.0198C13.3976 83.0399 13.2811 83.0627 13.1868 83.088L13.16 83.0876Z" fill="#481E0B"/>
<path d="M20.6267 71.8267L22.3788 73.7369C22.4447 73.8063 22.5124 73.8782 22.582 73.9527C22.6522 74.0228 22.721 74.0882 22.7883 74.1487C22.8563 74.2049 22.9209 74.2537 22.9822 74.2952C23.0441 74.3323 23.0972 74.3543 23.1413 74.3614L22.9636 75.4741L22.9372 75.4699C22.8867 75.3893 22.8095 75.2774 22.7057 75.134C22.6025 74.9862 22.4718 74.8272 22.3134 74.657L20.0051 72.1484L16.911 73.7528C16.7426 73.8436 16.5967 73.9357 16.4731 74.0292C16.3496 74.1227 16.2703 74.1938 16.2354 74.2425L16.2089 74.2383L16.4987 72.4235C16.5737 72.4355 16.6971 72.428 16.8689 72.4011C17.0369 72.3691 17.2465 72.2894 17.4977 72.162L19.2134 71.2815L17.79 69.7363C17.7278 69.6721 17.6612 69.6071 17.5903 69.5414C17.52 69.4713 17.4505 69.4104 17.3818 69.3586C17.3094 69.3018 17.2422 69.2548 17.1803 69.2178C17.1183 69.1807 17.0653 69.1586 17.0211 69.1516L17.1988 68.0388L17.2253 68.0431C17.2639 68.1127 17.3222 68.2012 17.4001 68.3088C17.478 68.4163 17.5998 68.5603 17.7656 68.7408L19.8207 70.9643L23.1816 69.2192C23.4042 69.1008 23.5897 68.9878 23.7382 68.8802C23.8866 68.7726 23.9831 68.693 24.0275 68.6412L24.054 68.6454L23.7653 70.4536C23.6903 70.4416 23.5665 70.4513 23.3941 70.4826C23.2172 70.5132 23.0083 70.5885 22.7673 70.7084L20.6267 71.8267Z" fill="#481E0B"/>
<path d="M20.2996 65.568C19.9371 65.4542 19.6195 65.3616 19.3468 65.2901C19.0712 65.213 18.8327 65.1522 18.6311 65.1077C18.431 65.059 18.2608 65.0266 18.1205 65.0108C17.9816 64.9906 17.8634 64.9793 17.7658 64.9768L17.7402 64.9688L18.2037 63.4904L18.2293 63.4984C18.2866 63.5398 18.353 63.5817 18.4287 63.6242C18.5044 63.6667 18.5914 63.7104 18.6897 63.7553C18.6236 63.4581 18.589 63.1427 18.5859 62.8089C18.5799 62.4696 18.635 62.1144 18.7514 61.7432C18.8999 61.2696 19.116 60.8641 19.3997 60.5267C19.6806 60.1837 20.0137 59.9203 20.3992 59.7367C20.786 59.5487 21.2146 59.4442 21.6849 59.4231C22.1553 59.402 22.6527 59.4737 23.1773 59.6383C23.6165 59.7761 24.0146 59.9854 24.3716 60.2661C24.7299 60.5426 25.0186 60.8768 25.2376 61.2689C25.458 61.6567 25.5951 62.0934 25.649 62.579C25.6986 63.0632 25.6365 63.5826 25.4626 64.1372C25.3583 64.47 25.2378 64.7649 25.101 65.022C24.9642 65.279 24.8192 65.5099 24.6659 65.7149L25.5999 66.008C25.9624 66.1217 26.2793 66.2165 26.5507 66.2922C26.8263 66.3694 27.0648 66.4302 27.2663 66.4746C27.4679 66.5191 27.6381 66.5514 27.777 66.5716C27.9159 66.5917 28.0341 66.6031 28.1317 66.6056L28.1573 66.6136L27.6938 68.092L27.6682 68.084C27.5867 68.0303 27.4832 67.972 27.3577 67.9092C27.2335 67.8421 27.0753 67.7714 26.8831 67.697C26.6923 67.6184 26.4618 67.532 26.1915 67.4378C25.9269 67.3407 25.6133 67.2353 25.2508 67.1216L20.2996 65.568ZM19.1609 62.1177C19.1155 62.2628 19.0878 62.4181 19.0781 62.5838C19.0654 62.7438 19.0697 62.9092 19.0912 63.08C19.1097 63.2451 19.1487 63.412 19.2082 63.5806C19.2649 63.7437 19.3404 63.8986 19.4349 64.0454C19.5943 64.1048 19.7757 64.1687 19.979 64.2372C20.1824 64.3057 20.4056 64.3781 20.6487 64.4544L24.0007 65.5062C24.0914 65.4409 24.1812 65.3636 24.2701 65.2744C24.3589 65.1851 24.4476 65.0817 24.5359 64.9642C24.6214 64.841 24.703 64.7002 24.7807 64.5419C24.8598 64.3792 24.9315 64.1955 24.9957 63.9907C25.1 63.6579 25.1346 63.3384 25.0994 63.0321C25.0643 62.7259 24.9625 62.4455 24.794 62.1912C24.6268 61.9325 24.3965 61.7033 24.1032 61.5034C23.8112 61.2993 23.4605 61.133 23.0511 61.0046C22.5905 60.8601 22.152 60.7646 21.7356 60.7183C21.3149 60.6707 20.9349 60.6874 20.5957 60.7684C20.2535 60.8438 19.9593 60.9905 19.713 61.2084C19.4667 61.4264 19.2827 61.7295 19.1609 62.1177Z" fill="#481E0B"/>
<path d="M28.6968 55.9727C28.4793 56.4188 28.2052 56.8024 27.8745 57.1236C27.5438 57.4448 27.1734 57.6845 26.7631 57.8425C26.3489 57.9985 25.9018 58.0639 25.4218 58.0386C24.9398 58.0073 24.4417 57.8662 23.9275 57.6152C23.4736 57.3937 23.0911 57.1125 22.7799 56.7715C22.4647 56.4286 22.2302 56.053 22.0763 55.6445C21.9224 55.2361 21.8523 54.8138 21.866 54.3777C21.8817 53.9376 21.9914 53.5085 22.1952 53.0906C22.397 52.6766 22.6565 52.3281 22.9735 52.045C23.2866 51.76 23.6424 51.5555 24.0409 51.4316C24.4375 51.3018 24.8728 51.2605 25.347 51.3079C25.8191 51.3492 26.3132 51.4884 26.8293 51.7253C26.5998 52.1755 26.3723 52.6267 26.1469 53.0789C25.9214 53.5311 25.6892 54.0023 25.4501 54.4926C25.2796 54.8422 25.1151 55.1848 24.9564 55.5203C24.7998 55.8518 24.6608 56.1522 24.5395 56.4213C24.969 56.6011 25.3779 56.7211 25.7663 56.7813C26.1567 56.8375 26.5174 56.8319 26.8486 56.7647C27.1777 56.6915 27.4711 56.5536 27.729 56.3511C27.9888 56.1446 28.2011 55.8725 28.3657 55.535C28.4793 55.3019 28.56 55.0701 28.6077 54.8397C28.6534 54.6032 28.6692 54.3771 28.6551 54.1612C28.641 53.9454 28.602 53.7398 28.5381 53.5444C28.4702 53.3471 28.3825 53.165 28.2749 52.9981L28.3463 52.9434L29.2013 53.9129C29.208 54.1848 29.178 54.4911 29.1114 54.8317C29.0407 55.1704 28.9025 55.5507 28.6968 55.9727ZM24.6303 54.9806C24.8263 54.5787 25.0223 54.1768 25.2182 53.7749C25.4121 53.3671 25.5834 52.9954 25.732 52.66C25.3649 52.5256 25.0183 52.441 24.6921 52.4062C24.366 52.3714 24.0683 52.3853 23.799 52.4479C23.5298 52.5106 23.291 52.6229 23.0827 52.7849C22.8744 52.9469 22.7076 53.1565 22.5822 53.4138C22.4685 53.6468 22.4159 53.8873 22.4243 54.1352C22.4307 54.3772 22.495 54.6175 22.6172 54.8563C22.7395 55.0951 22.9197 55.3273 23.1578 55.5529C23.3918 55.7766 23.6837 55.9838 24.0334 56.1743C24.1296 55.9974 24.2267 55.8085 24.3246 55.6075C24.4226 55.4066 24.5245 55.1976 24.6303 54.9806Z" fill="#481E0B"/>
<path d="M27.5313 48.9766C27.2125 48.7699 26.9313 48.5956 26.6877 48.4536C26.4428 48.3055 26.2292 48.183 26.047 48.0861C25.8672 47.9855 25.7118 47.9088 25.581 47.8559C25.4525 47.7993 25.3417 47.7567 25.2483 47.7282L25.2258 47.7136L26.068 46.4133L26.0905 46.4279C26.1573 46.5139 26.2453 46.6082 26.3545 46.711C26.4662 46.81 26.6158 46.9284 26.8036 47.0661C26.7772 46.8519 26.7564 46.6332 26.7411 46.4102C26.7258 46.1871 26.7261 45.9688 26.7419 45.7553C26.7577 45.5417 26.7916 45.3373 26.8436 45.1419C26.8981 44.9427 26.9788 44.7606 27.0857 44.5955C27.1513 44.4942 27.2141 44.4096 27.274 44.3419C27.3301 44.2717 27.387 44.2126 27.4446 44.1648C27.4985 44.1144 27.5525 44.0722 27.6066 44.038C27.6569 44.0014 27.7061 43.9666 27.754 43.9338L28.6499 44.9063L28.5654 44.9874C28.3712 44.9254 28.1853 44.9247 28.0075 44.9853C27.8261 45.0435 27.6661 45.1795 27.5275 45.3934C27.4522 45.5098 27.3938 45.6451 27.3524 45.7994C27.311 45.9538 27.2853 46.1209 27.2753 46.3009C27.2614 46.4784 27.2608 46.6645 27.2732 46.859C27.2819 47.0512 27.2987 47.2432 27.3235 47.4351C27.4274 47.5131 27.5431 47.5935 27.6706 47.6762C27.7981 47.7589 27.9332 47.8464 28.0757 47.9388L29.5272 48.8799C29.846 49.0866 30.1279 49.264 30.3728 49.4121C30.614 49.5578 30.8257 49.6791 31.0079 49.776C31.1902 49.8728 31.3455 49.9496 31.4739 50.0062C31.6024 50.0628 31.7133 50.1054 31.8066 50.1339L31.8291 50.1485L30.9869 51.4488L30.9644 51.4342C30.9002 51.3606 30.8161 51.2767 30.712 51.1826C30.6103 51.0847 30.4768 50.9742 30.3116 50.8511C30.1487 50.7242 29.9516 50.5804 29.7202 50.4197C29.4874 50.2528 29.2117 50.066 28.8928 49.8593L27.5313 48.9766Z" fill="#481E0B"/>
<path d="M30.8316 44.1423C30.53 43.9113 30.2632 43.7155 30.0315 43.5549C29.7989 43.3881 29.5956 43.2492 29.4215 43.1384C29.25 43.024 29.1012 42.9354 28.9749 42.8724C28.8513 42.8059 28.744 42.7548 28.6532 42.719L28.6319 42.7027L29.5732 41.4724L29.5945 41.4887C29.6527 41.5671 29.7301 41.6573 29.8265 41.7593C29.9229 41.8613 30.0474 41.9819 30.1997 42.1211C30.3521 42.2603 30.5392 42.4205 30.7609 42.6015C30.9791 42.7798 31.239 42.9845 31.5406 43.2155L32.829 44.2021C33.1306 44.4331 33.3978 44.632 33.6303 44.7989C33.8594 44.963 34.0609 45.1005 34.2351 45.2113C34.4092 45.3221 34.5581 45.4108 34.6817 45.4773C34.8053 45.5438 34.9125 45.5949 35.0033 45.6307L35.0246 45.647L34.0833 46.8773L34.062 46.861C34.0038 46.7826 33.9265 46.6925 33.83 46.5904C33.7363 46.4849 33.6119 46.3643 33.4568 46.2286C33.3044 46.0894 33.1191 45.9306 32.9009 45.7523C32.682 45.5677 32.4216 45.3599 32.1199 45.1289L30.8316 44.1423ZM27.0514 41.4249C26.9734 41.3651 26.9115 41.2951 26.8658 41.2151C26.8192 41.1288 26.7901 41.0417 26.7785 40.954C26.7633 40.8635 26.7673 40.7737 26.7905 40.6845C26.8129 40.589 26.8553 40.5004 26.9178 40.4187C26.9803 40.3371 27.0533 40.2747 27.1369 40.2317C27.2196 40.1825 27.3066 40.1534 27.3979 40.1444C27.4883 40.1292 27.5799 40.1346 27.6726 40.1605C27.7645 40.1802 27.8495 40.2199 27.9275 40.2797C28.0908 40.4047 28.1853 40.5644 28.2111 40.7587C28.2369 40.9531 28.1874 41.1319 28.0624 41.2952C27.9999 41.3769 27.9273 41.4424 27.8446 41.4917C27.761 41.5347 27.6754 41.562 27.5877 41.5737C27.4964 41.5826 27.4048 41.5772 27.313 41.5575C27.2202 41.5316 27.1331 41.4874 27.0514 41.4249Z" fill="#481E0B"/>
<path d="M38.482 41.8341C38.1418 42.1953 37.7661 42.4801 37.3549 42.6884C36.9437 42.8967 36.5188 43.0153 36.0802 43.0441C35.6383 43.0699 35.192 42.9993 34.7412 42.8323C34.2903 42.6591 33.8566 42.3762 33.4403 41.9836C33.0728 41.6371 32.7911 41.2547 32.5953 40.8367C32.3963 40.4155 32.284 39.9871 32.2585 39.5513C32.2329 39.1155 32.2915 38.6915 32.4342 38.2792C32.58 37.8637 32.8123 37.4867 33.1311 37.1483C33.4468 36.8131 33.7981 36.5575 34.185 36.3816C34.5685 36.2025 34.969 36.1132 35.3864 36.1134C35.8036 36.1074 36.2315 36.1975 36.6702 36.3838C37.1086 36.5637 37.539 36.8436 37.9613 37.2233C37.6084 37.5849 37.2571 37.948 36.9075 38.3127C36.5579 38.6773 36.1961 39.0581 35.8221 39.4551C35.5554 39.7383 35.2965 40.0164 35.0453 40.2895C34.7972 40.5595 34.5752 40.8049 34.3794 41.0258C34.7361 41.3252 35.0909 41.5614 35.4438 41.7344C35.7998 41.9042 36.1459 42.0062 36.482 42.0405C36.818 42.0685 37.1392 42.0242 37.4456 41.9076C37.755 41.7877 38.0385 41.5911 38.296 41.3177C38.4738 41.129 38.6197 40.9317 38.7338 40.7259C38.8476 40.5137 38.9299 40.3025 38.9806 40.0922C39.0313 39.8819 39.0551 39.674 39.0522 39.4685C39.046 39.2599 39.0164 39.0599 38.9633 38.8685L39.0478 38.8376L39.5759 40.0176C39.5015 40.2792 39.3818 40.5627 39.217 40.8681C39.0489 41.1704 38.8039 41.4924 38.482 41.8341ZM34.8944 39.6772C35.2009 39.3518 35.5074 39.0264 35.814 38.701C36.1203 38.3692 36.3943 38.0653 36.6359 37.7893C36.3253 37.5518 36.0195 37.3679 35.7185 37.2376C35.4174 37.1074 35.129 37.0321 34.8534 37.0118C34.5777 36.9915 34.3163 37.0277 34.0693 37.1204C33.8223 37.2132 33.6007 37.3637 33.4045 37.5719C33.2267 37.7607 33.105 37.9746 33.0393 38.2138C32.9735 38.4467 32.9635 38.6953 33.0093 38.9597C33.055 39.224 33.158 39.4993 33.3183 39.7856C33.4753 40.0688 33.6924 40.3534 33.9696 40.6393C34.1141 40.499 34.2629 40.3475 34.4162 40.1848C34.5694 40.0221 34.7288 39.8529 34.8944 39.6772Z" fill="#481E0B"/>
<path d="M42.9786 31.579C42.6125 31.1161 42.2506 30.8495 41.8929 30.7792C41.5352 30.7088 41.2004 30.7972 40.8884 31.0441C40.7763 31.1329 40.6695 31.2573 40.5682 31.4174C40.464 31.574 40.3703 31.7509 40.2868 31.9481C40.2007 32.1418 40.1256 32.3495 40.0616 32.5712C39.9976 32.7929 39.9479 33.0148 39.9125 33.2366L40.447 33.934L41.4538 35.2068C41.6895 35.5049 41.8996 35.7633 42.0842 35.9822C42.2659 36.1975 42.4276 36.3803 42.5692 36.5305C42.7108 36.6807 42.8333 36.8032 42.9368 36.8981C43.0403 36.9929 43.1317 37.0688 43.211 37.1258L43.2276 37.1468L42.0132 38.1083L41.9966 38.0872C41.9594 37.997 41.9065 37.8905 41.8381 37.768C41.7731 37.6426 41.6821 37.4951 41.565 37.3255C41.4515 37.1531 41.3108 36.9537 41.1431 36.7272C40.9761 36.4945 40.7748 36.2291 40.539 35.931L39.5322 34.6582C39.2965 34.3602 39.086 34.1048 38.9008 33.8923C38.7162 33.6734 38.5532 33.4889 38.4116 33.3387C38.2735 33.1857 38.1509 33.0632 38.0439 32.9711C37.9404 32.8763 37.849 32.8004 37.7698 32.7434L37.7531 32.7224L38.9675 31.7609L38.9842 31.7819C39.0255 31.8918 39.0914 32.022 39.1821 32.1727C39.2735 32.317 39.3964 32.5048 39.5508 32.7361C39.6002 32.5031 39.6601 32.2618 39.7305 32.0122C39.8045 31.7598 39.8947 31.5172 40.0014 31.2845C40.1052 31.0483 40.2279 30.8287 40.3692 30.6255C40.5078 30.4188 40.6665 30.2447 40.8453 30.1032C41.1186 29.8868 41.3874 29.751 41.6515 29.6958C41.9192 29.6379 42.1736 29.6389 42.4148 29.6988C42.6595 29.756 42.8872 29.8637 43.0978 30.0219C43.3092 30.1739 43.4954 30.3516 43.6562 30.5549L45.0707 32.3432C45.3064 32.6413 45.5166 32.8997 45.7011 33.1186C45.8828 33.3339 46.0445 33.5167 46.1861 33.6669C46.3277 33.8171 46.4503 33.9396 46.5538 34.0344C46.6573 34.1293 46.7486 34.2052 46.8279 34.2622L46.8446 34.2832L45.6301 35.2447L45.6135 35.2236C45.5763 35.1334 45.5235 35.0269 45.455 34.9044C45.3901 34.779 45.299 34.6315 45.182 34.4619C45.0684 34.2895 44.9278 34.0901 44.7601 33.8636C44.5931 33.6309 44.3917 33.3655 44.156 33.0674L42.9786 31.579Z" fill="#481E0B"/>
<path d="M52.9841 28.8775L53.1527 30.1594C53.0751 30.2663 52.9799 30.3783 52.8669 30.4955C52.7539 30.6126 52.6318 30.7273 52.5004 30.8395C52.373 30.9495 52.2392 31.0528 52.0989 31.1496C51.9609 31.2502 51.8261 31.3386 51.6946 31.4148C51.2266 31.6859 50.7542 31.8691 50.2774 31.9644C49.8023 32.0537 49.3435 32.0507 48.9011 31.9556C48.4626 31.8583 48.0513 31.6651 47.6671 31.3761C47.283 31.0871 46.9487 30.6969 46.6643 30.2054C46.4112 29.7682 46.2604 29.3156 46.2117 28.8478C46.1647 28.3738 46.2105 27.9132 46.3494 27.4659C46.4921 27.0164 46.7217 26.5967 47.0382 26.2066C47.3548 25.8166 47.7509 25.4837 48.2267 25.2082C48.4433 25.0827 48.6865 24.9676 48.9565 24.8629C49.2242 24.7543 49.4715 24.6731 49.6985 24.6191L50.6815 25.3672L50.6354 25.4482C50.4693 25.3843 50.2905 25.3431 50.0992 25.3248C49.9094 25.3004 49.7132 25.3004 49.5104 25.3248C49.3115 25.347 49.1119 25.3903 48.9116 25.4547C48.7113 25.5191 48.5183 25.605 48.3327 25.7126C48.031 25.8873 47.7877 26.1006 47.6029 26.3523C47.4158 26.6002 47.2915 26.8763 47.23 27.1806C47.1686 27.4849 47.1726 27.8132 47.2423 28.1655C47.3135 28.5118 47.4567 28.8706 47.6717 29.2421C47.9135 29.6601 48.185 30.0221 48.4861 30.3282C48.7911 30.6321 49.1136 30.8637 49.4538 31.0232C49.7956 31.1766 50.1514 31.2469 50.5211 31.2343C50.8924 31.2155 51.2695 31.0952 51.6525 30.8734C51.8304 30.7704 51.994 30.6471 52.1435 30.5037C52.2945 30.3542 52.4239 30.194 52.5316 30.0232C52.6409 29.8462 52.7277 29.6615 52.792 29.4693C52.8564 29.277 52.8904 29.0816 52.8943 28.883L52.9841 28.8775Z" fill="#481E0B"/>
<path d="M58.8632 27.9586C58.4025 28.1427 57.9418 28.2426 57.4812 28.2581C57.0206 28.2737 56.5853 28.202 56.1754 28.0432C55.7638 27.8803 55.3888 27.6281 55.0503 27.2867C54.7144 26.9394 54.4403 26.5 54.2281 25.9685C54.0407 25.4993 53.9463 25.0338 53.9449 24.5721C53.9418 24.1063 54.0205 23.6704 54.1808 23.2645C54.3412 22.8585 54.573 22.4987 54.876 22.1849C55.1833 21.8696 55.5527 21.6256 55.9844 21.4531C56.4119 21.2823 56.8381 21.1986 57.263 21.2021C57.6863 21.2015 58.0871 21.2893 58.4655 21.4655C58.8464 21.6359 59.1965 21.8981 59.5159 22.252C59.8377 22.6 60.1101 23.0353 60.3331 23.5577C59.8608 23.7368 59.3893 23.918 58.9186 24.1013C58.448 24.2845 57.9594 24.4774 57.4531 24.6797C57.092 24.824 56.74 24.9671 56.3972 25.1089C56.0585 25.2491 55.7538 25.378 55.4832 25.4958C55.6805 25.9177 55.9028 26.2815 56.1499 26.5872C56.4013 26.8912 56.6721 27.1297 56.9625 27.3025C57.2554 27.4696 57.5654 27.5648 57.8923 27.5882C58.2235 27.61 58.5634 27.5512 58.912 27.4119C59.1528 27.3157 59.3682 27.1983 59.5583 27.0597C59.7509 26.9153 59.9145 26.7584 60.049 26.5891C60.1836 26.4198 60.2928 26.2413 60.3767 26.0537C60.459 25.8619 60.5163 25.6681 60.5488 25.4721L60.6384 25.4797L60.6204 26.7725C60.4427 26.9783 60.2147 27.185 59.9366 27.3924C59.6568 27.5957 59.299 27.7845 58.8632 27.9586ZM56.5182 24.4899C56.9333 24.3241 57.3483 24.1582 57.7634 23.9923C58.1809 23.8207 58.5574 23.6606 58.8928 23.5121C58.7112 23.1658 58.5113 22.8701 58.2932 22.625C58.075 22.38 57.8452 22.1901 57.6037 22.0555C57.3623 21.9209 57.11 21.8435 56.8469 21.8234C56.5839 21.8034 56.3195 21.8464 56.0539 21.9526C55.8131 22.0488 55.6126 22.1915 55.4523 22.3808C55.2946 22.5642 55.1808 22.7854 55.1109 23.0445C55.0411 23.3035 55.0185 23.5966 55.0433 23.9238C55.0663 24.2468 55.1434 24.5964 55.2743 24.9726C55.4644 24.9063 55.6632 24.8316 55.8707 24.7487C56.0783 24.6658 56.2941 24.5795 56.5182 24.4899Z" fill="#481E0B"/>
<path d="M68.2142 17.2797L69.9578 17.8325L69.7679 18.3424L68.0753 17.6921L68.4466 19.4656L67.9051 19.5604L67.6437 17.754L66.2745 18.9537L65.9229 18.5386L67.3623 17.4288L65.6306 16.8671L65.8205 16.3572L67.5155 17.0207L67.1485 15.2328L67.69 15.138L67.9447 16.9455L69.314 15.7458L69.6656 16.1609L68.2142 17.2797Z" fill="#481E0B"/>
<defs>
<clipPath id="clip0_687_241">
<rect width="40" height="40.019" fill="white" transform="translate(60 60.9922)"/>
</clipPath>
</defs>
</svg>
