<svg width="161" height="161" viewBox="0 0 161 161" fill="none" xmlns="http://www.w3.org/2000/svg">
<path d="M160.772 80.9714C160.772 125.154 124.955 160.971 80.7717 160.971C36.5889 160.971 0.771729 125.154 0.771729 80.9714C0.771729 36.7887 36.5889 0.971436 80.7717 0.971436C124.955 0.971436 160.772 36.7887 160.772 80.9714Z" fill="#481E0B"/>
<circle cx="80.7717" cy="80.9714" r="35" fill="#CD5F37"/>
<g clip-path="url(#clip0_142_500)">
<path d="M81.5325 78.3394C81.0936 78.7115 80.4499 78.7115 80.011 78.3394C75.8517 74.8135 73.713 71.3916 73.713 68.0303C73.7129 64.1317 76.8733 60.9714 80.7717 60.9714C84.6702 60.9714 87.8306 64.1317 87.8306 68.0303C87.8306 71.3916 85.6919 74.8135 81.5325 78.3394ZM81.5325 83.6035C85.6919 87.1294 87.8306 90.5513 87.8306 93.9126C87.8306 97.8111 84.6702 100.971 80.7717 100.971C76.8732 100.971 73.7129 97.8111 73.7129 93.9126C73.7129 90.5513 75.8516 87.1294 80.0109 83.6035C80.4499 83.2314 81.0935 83.2314 81.5325 83.6035ZM83.4038 81.7322C83.0317 81.2933 83.0317 80.6496 83.4038 80.2107C86.9298 76.0514 90.3517 73.9127 93.7129 73.9127C97.6114 73.9126 100.772 77.0729 100.772 80.9714C100.772 84.87 97.6114 88.0303 93.7129 88.0303C90.3516 88.0303 86.9297 85.8916 83.4038 81.7322ZM78.1397 81.7322C74.6137 85.8916 71.1918 88.0303 67.8306 88.0303C63.932 88.0303 60.7717 84.87 60.7717 80.9714C60.7717 77.0729 63.932 73.9126 67.8306 73.9126C71.1919 73.9126 74.6138 76.0513 78.1397 80.2107C78.5118 80.6496 78.5118 81.2932 78.1397 81.7322Z" fill="white"/>
</g>
<path d="M82.1591 23.7639C82.1907 23.6715 82.2211 23.5567 82.2505 23.4195C82.2843 23.2825 82.3153 23.1117 82.3436 22.9073C82.3719 22.7029 82.3977 22.4603 82.4209 22.1796C82.4443 21.8943 82.4657 21.562 82.485 21.1826L82.7064 16.8238C82.7257 16.4444 82.7142 16.1418 82.672 15.9159C82.6298 15.69 82.5738 15.5148 82.504 15.3904C82.4387 15.2663 82.3673 15.1754 82.2896 15.1177C82.2165 15.0603 82.1542 15.0079 82.103 14.9606L82.1043 14.9338L84.199 14.2683L84.1976 14.295C84.166 14.3874 84.1334 14.5021 84.0996 14.6391C84.0702 14.7764 84.0413 14.9494 84.0128 15.1583C83.9845 15.3627 83.9586 15.6076 83.9352 15.8928C83.912 16.1735 83.8907 16.5036 83.8714 16.883L83.65 21.2418C83.6307 21.6212 83.6183 21.954 83.6127 22.2401C83.6073 22.5218 83.6083 22.7657 83.6158 22.972C83.6232 23.1782 83.6345 23.3511 83.6498 23.4906C83.6696 23.6303 83.6905 23.7477 83.7125 23.8428L83.7111 23.8696L82.1578 23.7907L82.1591 23.7639Z" fill="white"/>
<path d="M86.767 25.1457C87.4287 25.0993 88.0447 25.004 88.6149 24.8597C89.1894 24.7162 89.6988 24.518 90.1429 24.2652C90.5878 24.008 90.9546 23.6916 91.2434 23.316C91.5322 22.9405 91.7214 22.4996 91.8109 21.9935C91.8996 21.4917 91.8738 21.0469 91.7336 20.659C91.5934 20.2711 91.3671 19.9338 91.0547 19.6471C90.7467 19.3612 90.3644 19.1234 89.9077 18.9337C89.4555 18.7448 88.9617 18.5985 88.4263 18.4948L89.9642 14.7635L91.2252 14.9865C91.5993 15.0526 91.9249 15.1102 92.2022 15.1592C92.4847 15.2046 92.7271 15.2452 92.9296 15.281C93.1328 15.3124 93.303 15.338 93.4402 15.3577C93.5775 15.3774 93.6931 15.391 93.787 15.3986L93.8134 15.4033L93.5602 16.8358L93.5337 16.8312C93.446 16.7884 93.3358 16.744 93.2033 16.6978C93.0707 16.6517 92.9048 16.602 92.7055 16.5486C92.5061 16.4952 92.2664 16.4392 91.9863 16.3805C91.7106 16.3227 91.3857 16.2607 91.0116 16.1946L90.0345 16.0218L89.422 17.4454C89.7769 17.5172 90.1228 17.6147 90.4596 17.7378C90.7972 17.8564 91.1135 18.0054 91.4086 18.1847C91.7045 18.3595 91.9703 18.5631 92.2061 18.7954C92.447 19.0241 92.6444 19.2814 92.7981 19.5673C92.9526 19.8488 93.0564 20.1599 93.1096 20.5006C93.168 20.8378 93.1626 21.2022 93.0933 21.5939C93.0039 22.1 92.8459 22.5441 92.6195 22.9262C92.3931 23.3083 92.1187 23.641 91.7962 23.9244C91.4738 24.2078 91.114 24.446 90.7168 24.639C90.3195 24.832 89.9035 24.9899 89.4688 25.1128C89.0385 25.2364 88.5996 25.3313 88.1522 25.3974C87.7048 25.4635 87.27 25.5092 86.848 25.5345L86.767 25.1457Z" fill="white"/>
<path d="M101.119 22.8801L100.043 25.9913L99.3908 25.7657L100.466 22.6546L97.3551 21.5792L97.5806 20.9266L100.692 22.0019L101.767 18.8908L102.42 19.1164L101.344 22.2275L104.456 23.3029L104.23 23.9555L101.119 22.8801Z" fill="white"/>
<path d="M114.235 29.0257L113.175 30.7113C112.973 31.0329 112.8 31.3171 112.655 31.564C112.513 31.8071 112.394 32.0205 112.3 32.204C112.206 32.3876 112.131 32.544 112.076 32.6731C112.025 32.8047 111.986 32.9173 111.959 33.0111L111.945 33.0338L110.582 32.1772L110.597 32.1545C110.669 32.0893 110.752 32.0041 110.845 31.8987C110.941 31.7957 111.05 31.6607 111.171 31.4938C111.295 31.3293 111.436 31.1302 111.594 30.8966C111.757 30.6616 111.94 30.3833 112.143 30.0617L113.131 28.4897L112.764 23.4438C112.751 23.2718 112.732 23.1093 112.707 22.9562C112.685 22.8055 112.659 22.6704 112.629 22.5509C112.601 22.4276 112.572 22.3224 112.542 22.2351C112.513 22.1479 112.488 22.0822 112.468 22.0381L112.483 22.0154L114.202 23.0968C114.147 23.1838 114.093 23.3502 114.039 23.5959C113.991 23.8402 113.979 24.1574 114.003 24.5474L114.262 28.2661L117.757 26.7501C117.881 26.696 118.006 26.64 118.132 26.582C118.258 26.5241 118.377 26.4664 118.487 26.4089C118.597 26.3514 118.691 26.2944 118.768 26.2377C118.85 26.1835 118.908 26.1299 118.941 26.0769L120.048 26.7728L120.033 26.7955C119.905 26.8151 119.725 26.8527 119.495 26.9085C119.267 26.9604 118.998 27.0525 118.688 27.1848L114.235 29.0257Z" fill="white"/>
<path d="M117.898 37.6595C117.521 37.3362 117.22 36.9739 116.993 36.5727C116.766 36.1715 116.628 35.7525 116.579 35.3156C116.533 34.8754 116.584 34.4263 116.73 33.9684C116.882 33.51 117.144 33.0638 117.517 32.6299C117.847 32.2469 118.215 31.948 118.624 31.7333C119.035 31.5152 119.458 31.3834 119.892 31.3379C120.326 31.2924 120.752 31.3315 121.17 31.4552C121.592 31.5818 121.979 31.7966 122.331 32.0995C122.68 32.3996 122.952 32.7388 123.145 33.1171C123.341 33.4921 123.449 33.8881 123.468 34.305C123.493 34.7215 123.423 35.1531 123.257 35.5998C123.097 36.0461 122.837 36.4889 122.478 36.9281C122.1 36.5921 121.722 36.2579 121.342 35.9253C120.961 35.5927 120.565 35.2488 120.151 34.8934C119.856 34.6399 119.567 34.394 119.282 34.1556C119.002 33.9202 118.746 33.7097 118.517 33.5242C118.234 33.8942 118.015 34.2594 117.858 34.6199C117.705 34.9833 117.619 35.3337 117.6 35.6711C117.587 36.008 117.646 36.3268 117.777 36.6275C117.911 36.9311 118.12 37.2053 118.405 37.45C118.601 37.619 118.805 37.7557 119.016 37.8602C119.233 37.9642 119.448 38.0367 119.66 38.0777C119.872 38.1187 120.081 38.1331 120.286 38.1207C120.494 38.105 120.692 38.0662 120.881 38.0044L120.916 38.0874L119.762 38.669C119.497 38.6067 119.208 38.5001 118.896 38.3494C118.586 38.1954 118.254 37.9654 117.898 37.6595ZM119.887 33.9768C120.226 34.2681 120.565 34.5594 120.904 34.8507C121.249 35.1415 121.565 35.4013 121.852 35.63C122.075 35.3089 122.244 34.995 122.361 34.6883C122.477 34.3815 122.539 34.09 122.546 33.8137C122.554 33.5374 122.506 33.278 122.402 33.0355C122.298 32.7929 122.138 32.5785 121.921 32.392C121.724 32.2231 121.505 32.1113 121.263 32.0567C121.027 32.0016 120.779 32.003 120.517 32.0608C120.255 32.1186 119.985 32.2342 119.706 32.4073C119.431 32.5771 119.157 32.8071 118.884 33.0971C119.031 33.235 119.189 33.3767 119.358 33.5224C119.528 33.668 119.704 33.8195 119.887 33.9768Z" fill="white"/>
<path d="M123.116 39.5472C123.382 39.3149 123.66 39.1674 123.949 39.1047C124.242 39.0452 124.536 39.0462 124.833 39.1074C125.13 39.1687 125.422 39.2787 125.709 39.4375C125.999 39.5934 126.276 39.7753 126.541 39.9833C126.809 40.1883 127.057 40.4047 127.286 40.6324C127.518 40.8571 127.724 41.069 127.903 41.2681L128.161 41.0432C128.383 40.8492 128.55 40.653 128.662 40.4546C128.773 40.2563 128.836 40.0594 128.849 39.8639C128.865 39.6655 128.834 39.4701 128.755 39.2779C128.683 39.0861 128.57 38.9027 128.417 38.7276C128.312 38.6064 128.197 38.4957 128.074 38.3955C127.951 38.2953 127.81 38.2019 127.651 38.1151C127.495 38.0317 127.315 37.9546 127.111 37.8837C126.909 37.8162 126.676 37.7561 126.41 37.7033L126.397 37.6263L127.408 37.3479C127.556 37.4149 127.692 37.4891 127.816 37.5704C127.944 37.6487 128.066 37.7346 128.184 37.828C128.301 37.9215 128.413 38.0225 128.519 38.1311C128.632 38.2401 128.745 38.3586 128.857 38.4865C129.165 38.84 129.385 39.1795 129.515 39.5051C129.651 39.8311 129.712 40.1393 129.699 40.4298C129.692 40.7208 129.62 40.9915 129.483 41.2419C129.349 41.4894 129.167 41.7131 128.938 41.913L127.292 43.3506C127.006 43.6004 126.758 43.8228 126.548 44.0177C126.345 44.213 126.17 44.3833 126.024 44.5286C125.881 44.6773 125.765 44.8057 125.675 44.9136C125.589 45.025 125.519 45.1216 125.466 45.2035L125.445 45.2212L124.471 44.1052L124.491 44.0875C124.56 44.0573 124.63 44.0162 124.704 43.9641C124.78 43.9154 124.868 43.8533 124.968 43.7777C124.846 43.7599 124.71 43.7301 124.561 43.6884C124.415 43.65 124.26 43.592 124.097 43.5145C123.941 43.4374 123.782 43.3363 123.619 43.2113C123.456 43.0925 123.297 42.9439 123.141 42.7655C122.629 42.1797 122.37 41.6079 122.364 41.0499C122.36 40.4891 122.611 39.9881 123.116 39.5472ZM127.509 41.612C127.239 41.3086 126.963 41.0302 126.682 40.7768C126.405 40.5205 126.12 40.327 125.828 40.1964C125.539 40.0691 125.243 40.0221 124.94 40.0554C124.643 40.0892 124.34 40.2413 124.03 40.5118C123.633 40.8587 123.416 41.2225 123.381 41.6034C123.346 41.9843 123.481 42.3498 123.787 42.7C123.928 42.8615 124.078 42.9889 124.236 43.082C124.401 43.1755 124.561 43.2433 124.716 43.2855C124.878 43.3282 125.03 43.3495 125.173 43.3497C125.319 43.3469 125.447 43.3302 125.556 43.2996C125.69 43.1946 125.835 43.0745 125.989 42.9393C126.148 42.8011 126.326 42.6453 126.525 42.4719L127.509 41.612Z" fill="white"/>
<path d="M130.558 44.9865C130.871 44.7717 131.14 44.5791 131.365 44.4088C131.596 44.2396 131.791 44.0896 131.95 43.9585C132.112 43.8312 132.243 43.7173 132.342 43.6168C132.444 43.52 132.526 43.434 132.588 43.3588L132.61 43.3437L133.486 44.6208L133.464 44.636C133.359 44.6646 133.238 44.7096 133.101 44.7709C132.967 44.8359 132.8 44.9286 132.601 45.049C132.809 45.107 133.018 45.1718 133.23 45.2434C133.442 45.315 133.643 45.3992 133.834 45.4958C134.025 45.5925 134.201 45.7024 134.361 45.8255C134.524 45.9523 134.661 46.0968 134.772 46.2589C134.84 46.3585 134.894 46.4489 134.934 46.5302C134.977 46.609 135.009 46.6841 135.031 46.7558C135.057 46.8248 135.075 46.8909 135.086 46.954C135.1 47.0146 135.114 47.0733 135.125 47.1302L133.884 47.5835L133.841 47.4743C133.973 47.3188 134.045 47.1474 134.058 46.9601C134.074 46.7702 134.01 46.5702 133.866 46.3601C133.787 46.2458 133.685 46.1399 133.558 46.0424C133.432 45.9449 133.288 45.8569 133.125 45.7785C132.967 45.6975 132.796 45.6254 132.611 45.5621C132.431 45.4963 132.247 45.4379 132.06 45.3871C131.948 45.453 131.83 45.529 131.704 45.6149C131.579 45.7008 131.446 45.7918 131.306 45.8879L129.88 46.8662C129.567 47.081 129.295 47.273 129.064 47.4422C128.837 47.6088 128.643 47.7576 128.484 47.8886C128.324 48.0197 128.194 48.1336 128.092 48.2304C127.991 48.3272 127.909 48.4132 127.846 48.4884L127.824 48.5035L126.948 47.2263L126.971 47.2112C127.063 47.1802 127.173 47.1348 127.3 47.0748C127.429 47.0186 127.582 46.9379 127.76 46.8326C127.939 46.7311 128.148 46.6044 128.385 46.4525C128.628 46.3018 128.907 46.119 129.22 45.9041L130.558 44.9865Z" fill="white"/>
<path d="M136.352 51.9725L136.296 51.8959C136.372 51.82 136.445 51.7232 136.514 51.6055C136.585 51.4918 136.638 51.3625 136.672 51.2177C136.709 51.0769 136.718 50.9227 136.7 50.7552C136.688 50.5895 136.634 50.4179 136.54 50.2403C136.475 50.118 136.395 50.011 136.301 49.9193C136.209 49.8316 136.105 49.7652 135.99 49.7201C135.881 49.6768 135.763 49.6588 135.635 49.6659C135.507 49.6731 135.374 49.7134 135.236 49.7868C135.043 49.8896 134.889 50.0474 134.774 50.2602C134.665 50.4748 134.572 50.719 134.495 50.9929C134.422 51.2646 134.354 51.5512 134.292 51.8527C134.231 52.1581 134.155 52.4519 134.062 52.7341C133.969 53.0163 133.845 53.2743 133.691 53.5081C133.543 53.7437 133.344 53.9276 133.096 54.0597C132.895 54.1667 132.678 54.236 132.447 54.2677C132.22 54.2974 131.992 54.2771 131.762 54.2068C131.534 54.1405 131.311 54.016 131.093 53.8335C130.88 53.6528 130.689 53.4027 130.519 53.083C130.419 52.8935 130.342 52.7065 130.289 52.5218C130.239 52.3412 130.203 52.1681 130.181 52.0027C130.165 51.8392 130.159 51.6853 130.163 51.5413C130.174 51.3991 130.186 51.2708 130.202 51.1564L131.358 50.6179L131.408 50.7126C131.244 50.8507 131.105 51 130.993 51.1608C130.881 51.3215 130.801 51.4885 130.751 51.6616C130.707 51.8367 130.694 52.016 130.71 52.1995C130.731 52.3809 130.788 52.5604 130.883 52.7381C131.038 53.0301 131.241 53.218 131.493 53.3017C131.748 53.3894 132.005 53.364 132.265 53.2256C132.475 53.1144 132.634 52.9535 132.745 52.7428C132.862 52.534 132.954 52.2977 133.022 52.0341C133.089 51.7705 133.149 51.4931 133.202 51.2019C133.257 50.9146 133.328 50.634 133.415 50.3599C133.506 50.0837 133.629 49.8287 133.783 49.595C133.943 49.3631 134.163 49.1726 134.443 49.0237C134.672 48.9021 134.903 48.8324 135.137 48.8146C135.376 48.7986 135.603 48.83 135.817 48.9087C136.037 48.9892 136.24 49.1141 136.426 49.2834C136.612 49.4527 136.772 49.6617 136.904 49.9104C137.078 50.2379 137.187 50.5291 137.231 50.784C137.282 51.0406 137.306 51.243 137.303 51.391L136.352 51.9725Z" fill="white"/>
<path d="M138.083 60.8834C138.569 60.7456 139.044 60.7084 139.508 60.7719C139.976 60.8342 140.408 60.979 140.802 61.2063C141.197 61.4379 141.542 61.7443 141.836 62.1255C142.13 62.5067 142.347 62.9446 142.487 63.439C142.625 63.9249 142.673 64.4039 142.63 64.8759C142.593 65.351 142.471 65.7897 142.265 66.1921C142.058 66.5944 141.768 66.9462 141.393 67.2475C141.02 67.5532 140.569 67.781 140.04 67.931C139.597 68.0566 139.15 68.0999 138.697 68.061C138.245 68.0221 137.819 67.8966 137.42 67.6847C137.021 67.4727 136.664 67.1743 136.351 66.7893C136.043 66.4075 135.808 65.9328 135.647 65.3652C135.51 64.8836 135.461 64.4074 135.5 63.9366C135.538 63.4658 135.66 63.0293 135.867 62.6269C136.073 62.2246 136.361 61.8712 136.73 61.5668C137.103 61.2612 137.554 61.0334 138.083 60.8834ZM136.16 65.38C136.247 65.6853 136.386 65.9477 136.578 66.1673C136.772 66.3911 137.009 66.5631 137.289 66.6834C137.57 66.8037 137.888 66.869 138.244 66.8796C138.6 66.8901 138.984 66.8368 139.397 66.7197C139.861 66.588 140.277 66.4166 140.645 66.2055C141.017 65.9932 141.319 65.7473 141.551 65.4678C141.788 65.1914 141.947 64.8816 142.026 64.5386C142.105 64.1956 142.089 63.8263 141.976 63.4307C141.89 63.1254 141.75 62.863 141.558 62.6434C141.37 62.4227 141.137 62.2494 140.86 62.1236C140.584 62.0022 140.268 61.9362 139.912 61.9256C139.56 61.9139 139.178 61.9666 138.765 62.0837C138.301 62.2154 137.883 62.3874 137.511 62.5997C137.14 62.8163 136.835 63.0656 136.594 63.3475C136.358 63.6283 136.197 63.9386 136.112 64.2785C136.033 64.6216 136.049 64.9887 136.16 65.38Z" fill="white"/>
<path d="M146.877 71.5691C146.86 71.4587 146.822 71.3425 146.762 71.2207C146.703 71.1032 146.612 70.9998 146.49 70.9103C146.367 70.8208 146.205 70.7556 146.004 70.7145C145.808 70.6728 145.562 70.675 145.266 70.7212L144.007 70.9174C144.048 71.1508 144.089 71.3683 144.129 71.5701C144.171 71.7763 144.208 71.9604 144.243 72.1224C144.277 72.2844 144.307 72.4199 144.333 72.5289C144.364 72.6373 144.387 72.7151 144.404 72.7623L143.709 72.7484C143.69 72.5931 143.67 72.4243 143.651 72.2419C143.635 72.0859 143.613 71.9016 143.585 71.689C143.556 71.4763 143.525 71.246 143.491 70.998L139.814 71.5713C139.439 71.6298 139.111 71.6855 138.829 71.7384C138.553 71.7951 138.315 71.8458 138.114 71.8908C137.913 71.9401 137.746 71.9865 137.613 72.0299C137.48 72.0778 137.369 72.1222 137.281 72.1631L137.254 72.1673L137.016 70.6371L137.042 70.633C137.139 70.645 137.258 70.6514 137.398 70.6521C137.538 70.6528 137.711 70.6462 137.917 70.6322C138.123 70.6182 138.366 70.5939 138.646 70.5593C138.93 70.5241 139.259 70.4772 139.635 70.4187L143.311 69.8454L143.098 68.7387L143.681 68.6478C143.693 68.7861 143.712 68.9505 143.737 69.1411C143.762 69.3317 143.792 69.5396 143.828 69.7648L144.94 69.5913C145.28 69.5383 145.588 69.54 145.864 69.5965C146.145 69.6568 146.387 69.7615 146.592 69.9106C146.8 70.059 146.97 70.2496 147.101 70.4824C147.233 70.7153 147.321 70.9796 147.368 71.2755C147.393 71.4389 147.406 71.593 147.406 71.7377C147.406 71.8825 147.399 72.0125 147.385 72.1277C147.372 72.2473 147.354 72.3519 147.332 72.4413C147.315 72.5344 147.298 72.6117 147.28 72.6733L146.181 73.1093L146.129 73.036C146.224 72.9488 146.32 72.8547 146.417 72.7535C146.519 72.6517 146.608 72.5406 146.684 72.4202C146.761 72.2997 146.817 72.1688 146.854 72.0273C146.896 71.8896 146.903 71.7369 146.877 71.5691Z" fill="white"/>
<path d="M147.611 80.2527C147.591 80.811 147.573 81.3649 147.558 81.9145C147.542 82.4685 147.528 82.9756 147.516 83.4358C147.508 83.8962 147.505 84.2896 147.507 84.6162C147.508 84.9427 147.518 85.1645 147.536 85.2814L146.657 84.9208C146.703 84.7749 146.745 84.6042 146.783 84.4088C146.816 84.2401 146.848 84.0333 146.879 83.7884C146.915 83.5482 146.938 83.2695 146.95 82.9524C146.954 82.8452 146.954 82.7155 146.951 82.5633C146.951 82.4158 146.95 82.2726 146.946 82.1338C146.943 81.9727 146.94 81.8094 146.937 81.6438L143.279 81.5112C143.267 81.9714 143.265 82.3873 143.274 82.7588C143.283 83.1303 143.294 83.446 143.307 83.7059C143.322 84.0106 143.344 84.2797 143.371 84.5133L142.407 84.2704C142.459 83.9636 142.508 83.6501 142.555 83.3298C142.597 83.054 142.634 82.7535 142.669 82.4283C142.707 82.1032 142.732 81.791 142.743 81.4918L138.542 81.3395C138.523 81.8666 138.528 82.352 138.556 82.7958C138.585 83.2396 138.622 83.6278 138.668 83.9604C138.717 84.3468 138.778 84.7001 138.851 85.0203L137.773 84.7867C137.78 84.7332 137.787 84.653 137.795 84.546C137.804 84.4389 137.812 84.3185 137.822 84.1847C137.831 84.0553 137.84 83.917 137.85 83.7698C137.855 83.6268 137.863 83.4907 137.872 83.3613C137.876 83.2318 137.883 83.1158 137.891 83.0132C137.895 82.9149 137.897 82.8435 137.899 82.7988L138.004 79.9045L138.031 79.9055C138.123 79.9357 138.239 79.9645 138.376 79.9918C138.514 80.0236 138.685 80.0522 138.89 80.0775C139.095 80.1028 139.337 80.125 139.619 80.1442C139.904 80.1635 140.237 80.18 140.616 80.1937L144.978 80.3518C145.358 80.3656 145.688 80.3731 145.97 80.3744C146.256 80.3758 146.502 80.3713 146.708 80.3609C146.919 80.3506 147.094 80.3346 147.233 80.3128C147.373 80.2955 147.49 80.2751 147.584 80.2517L147.611 80.2527Z" fill="white"/>
<path d="M139.919 91.3276L138.207 89.383C138.142 89.3124 138.076 89.2391 138.008 89.1632C137.939 89.0917 137.872 89.025 137.806 88.9631C137.739 88.9057 137.675 88.8556 137.615 88.8128C137.554 88.7745 137.501 88.7514 137.457 88.7435L137.657 87.6351L137.684 87.6399C137.732 87.7214 137.807 87.8348 137.908 87.9802C138.008 88.13 138.136 88.2916 138.291 88.4649L140.548 91.0187L143.674 89.4784C143.844 89.391 143.992 89.3019 144.117 89.211C144.242 89.1201 144.323 89.0507 144.359 89.0027L144.385 89.0075L144.059 90.8151C143.984 90.8016 143.861 90.8065 143.688 90.8299C143.52 90.8585 143.308 90.9339 143.055 91.0561L141.321 91.9011L142.713 93.4742C142.774 93.5397 142.839 93.606 142.909 93.6731C142.978 93.7445 143.046 93.8068 143.114 93.8599C143.185 93.9182 143.251 93.9665 143.312 94.0048C143.373 94.0431 143.426 94.0662 143.47 94.0742L143.27 95.1825L143.243 95.1778C143.206 95.1075 143.15 95.0178 143.074 94.9087C142.998 94.7997 142.879 94.6533 142.717 94.4696L140.708 92.2058L137.312 93.8813C137.087 93.9951 136.899 94.1042 136.749 94.2087C136.598 94.3132 136.5 94.3909 136.455 94.4417L136.428 94.437L136.754 92.6359C136.828 92.6494 136.952 92.6423 137.125 92.6145C137.303 92.5875 137.513 92.5165 137.757 92.4015L139.919 91.3276Z" fill="white"/>
<path d="M140.115 97.5959C140.475 97.717 140.791 97.8162 141.062 97.8932C141.336 97.976 141.573 98.0417 141.774 98.0903C141.973 98.1432 142.143 98.179 142.282 98.1977C142.421 98.2207 142.539 98.2345 142.636 98.239L142.662 98.2476L142.168 99.7154L142.142 99.7068C142.086 99.6642 142.02 99.621 141.946 99.5769C141.871 99.5329 141.785 99.4874 141.687 99.4405C141.747 99.7389 141.775 100.055 141.772 100.388C141.771 100.728 141.708 101.081 141.584 101.45C141.426 101.92 141.202 102.321 140.911 102.652C140.623 102.989 140.285 103.246 139.895 103.421C139.505 103.601 139.074 103.697 138.603 103.708C138.133 103.719 137.637 103.637 137.116 103.462C136.68 103.315 136.286 103.098 135.935 102.81C135.582 102.526 135.3 102.186 135.09 101.79C134.877 101.398 134.749 100.959 134.705 100.472C134.666 99.9875 134.739 99.4697 134.924 98.919C135.035 98.5886 135.162 98.2964 135.304 98.0424C135.446 97.7884 135.595 97.5606 135.753 97.3589L134.825 97.0467C134.465 96.9256 134.15 96.8244 133.881 96.743C133.607 96.6603 133.369 96.5946 133.169 96.546C132.968 96.4974 132.799 96.4616 132.66 96.4386C132.522 96.4156 132.404 96.4018 132.306 96.3973L132.281 96.3887L132.775 94.9209L132.8 94.9295C132.881 94.9848 132.983 95.0452 133.107 95.1106C133.23 95.1802 133.387 95.2541 133.577 95.3324C133.766 95.4149 133.995 95.506 134.263 95.6057C134.526 95.7082 134.837 95.82 135.197 95.9411L140.115 97.5959ZM141.182 101.067C141.231 100.923 141.262 100.769 141.275 100.603C141.291 100.444 141.29 100.278 141.272 100.107C141.257 99.9418 141.221 99.7742 141.165 99.6044C141.112 99.4403 141.04 99.2839 140.948 99.1353C140.79 99.0726 140.61 99.005 140.408 98.9323C140.206 98.8597 139.985 98.7828 139.743 98.7015L136.414 97.5812C136.322 97.6446 136.23 97.7199 136.14 97.8073C136.049 97.8947 135.958 97.9962 135.867 98.1118C135.779 98.2331 135.695 98.3721 135.614 98.5288C135.532 98.6896 135.456 98.8718 135.388 99.0751C135.276 99.4055 135.235 99.7241 135.264 100.031C135.293 100.338 135.389 100.62 135.552 100.878C135.714 101.14 135.939 101.373 136.229 101.579C136.516 101.789 136.864 101.963 137.27 102.099C137.728 102.253 138.164 102.358 138.58 102.413C138.999 102.469 139.379 102.46 139.72 102.386C140.064 102.318 140.361 102.177 140.612 101.965C140.863 101.752 141.053 101.453 141.182 101.067Z" fill="white"/>
<path d="M131.52 107.023C131.747 106.582 132.029 106.204 132.366 105.89C132.703 105.576 133.079 105.344 133.492 105.194C133.909 105.047 134.358 104.991 134.837 105.026C135.318 105.067 135.813 105.219 136.322 105.48C136.772 105.711 137.148 106 137.452 106.347C137.76 106.696 137.987 107.076 138.133 107.488C138.278 107.899 138.339 108.322 138.317 108.758C138.292 109.197 138.173 109.624 137.961 110.037C137.751 110.447 137.484 110.79 137.161 111.066C136.842 111.345 136.482 111.542 136.081 111.657C135.682 111.779 135.246 111.811 134.773 111.754C134.302 111.703 133.811 111.553 133.3 111.306C133.538 110.861 133.775 110.415 134.01 109.968C134.245 109.52 134.487 109.054 134.736 108.569C134.913 108.223 135.085 107.884 135.25 107.552C135.414 107.224 135.559 106.927 135.686 106.661C135.26 106.472 134.854 106.344 134.467 106.275C134.078 106.211 133.717 106.209 133.384 106.27C133.054 106.336 132.758 106.468 132.496 106.665C132.232 106.866 132.014 107.133 131.842 107.467C131.724 107.698 131.638 107.928 131.586 108.157C131.535 108.392 131.515 108.618 131.525 108.834C131.534 109.05 131.569 109.256 131.629 109.453C131.693 109.652 131.777 109.835 131.881 110.004L131.808 110.058L130.973 109.071C130.972 108.799 131.009 108.494 131.082 108.155C131.16 107.818 131.306 107.441 131.52 107.023ZM135.565 108.098C135.361 108.496 135.157 108.894 134.953 109.291C134.75 109.695 134.572 110.063 134.416 110.395C134.78 110.537 135.125 110.628 135.45 110.67C135.776 110.711 136.074 110.704 136.344 110.646C136.615 110.589 136.856 110.482 137.067 110.325C137.279 110.167 137.45 109.961 137.581 109.706C137.699 109.476 137.757 109.237 137.753 108.989C137.752 108.747 137.693 108.505 137.575 108.264C137.458 108.023 137.283 107.787 137.049 107.557C136.82 107.328 136.532 107.115 136.187 106.918C136.087 107.093 135.986 107.279 135.884 107.478C135.782 107.677 135.676 107.884 135.565 108.098Z" fill="white"/>
<path d="M132.545 114.027C132.86 114.24 133.137 114.42 133.378 114.566C133.62 114.719 133.831 114.846 134.011 114.947C134.189 115.051 134.343 115.131 134.472 115.186C134.6 115.245 134.71 115.29 134.802 115.321L134.825 115.336L133.956 116.618L133.934 116.603C133.869 116.516 133.783 116.419 133.676 116.315C133.566 116.213 133.419 116.092 133.234 115.951C133.256 116.165 133.272 116.384 133.283 116.607C133.294 116.831 133.289 117.049 133.269 117.262C133.249 117.475 133.211 117.678 133.155 117.873C133.096 118.071 133.012 118.251 132.902 118.414C132.834 118.514 132.769 118.597 132.708 118.663C132.651 118.732 132.593 118.79 132.534 118.837C132.479 118.886 132.424 118.927 132.369 118.96C132.318 118.996 132.268 119.029 132.22 119.061L131.344 118.071L131.43 117.992C131.623 118.058 131.809 118.062 131.988 118.005C132.17 117.951 132.333 117.818 132.476 117.607C132.554 117.493 132.615 117.359 132.659 117.205C132.704 117.052 132.733 116.885 132.747 116.706C132.764 116.528 132.769 116.343 132.76 116.148C132.755 115.956 132.743 115.763 132.722 115.571C132.619 115.491 132.505 115.408 132.38 115.323C132.254 115.238 132.121 115.148 131.98 115.052L130.548 114.082C130.233 113.869 129.955 113.686 129.713 113.533C129.475 113.383 129.266 113.257 129.086 113.157C128.906 113.056 128.752 112.976 128.625 112.917C128.497 112.858 128.387 112.813 128.295 112.783L128.272 112.768L129.141 111.485L129.163 111.501C129.226 111.575 129.308 111.661 129.41 111.757C129.51 111.857 129.641 111.97 129.804 112.097C129.964 112.227 130.158 112.374 130.386 112.54C130.616 112.711 130.888 112.904 131.202 113.117L132.545 114.027Z" fill="white"/>
<path d="M129.144 118.793C129.441 119.03 129.704 119.231 129.932 119.396C130.161 119.568 130.362 119.71 130.533 119.825C130.702 119.943 130.85 120.034 130.975 120.1C131.097 120.169 131.203 120.222 131.293 120.26L131.314 120.276L130.348 121.487L130.327 121.47C130.27 121.39 130.195 121.299 130.1 121.195C130.006 121.091 129.884 120.968 129.735 120.825C129.585 120.683 129.401 120.519 129.183 120.334C128.969 120.151 128.713 119.941 128.416 119.704L127.148 118.692C126.851 118.455 126.588 118.251 126.359 118.079C126.134 117.911 125.935 117.769 125.763 117.655C125.591 117.541 125.444 117.449 125.322 117.38C125.2 117.311 125.094 117.258 125.004 117.22L124.983 117.203L125.949 115.993L125.97 116.01C126.027 116.089 126.102 116.181 126.196 116.285C126.288 116.392 126.41 116.515 126.562 116.654C126.712 116.796 126.894 116.959 127.108 117.142C127.323 117.331 127.579 117.543 127.876 117.781L129.144 118.793ZM132.868 121.586C132.945 121.647 133.005 121.718 133.049 121.799C133.094 121.886 133.121 121.974 133.131 122.062C133.145 122.152 133.139 122.242 133.114 122.331C133.089 122.426 133.045 122.513 132.981 122.594C132.917 122.674 132.843 122.735 132.758 122.776C132.674 122.824 132.587 122.851 132.495 122.858C132.405 122.871 132.313 122.864 132.221 122.836C132.13 122.815 132.046 122.773 131.969 122.712C131.808 122.584 131.717 122.422 131.695 122.228C131.673 122.033 131.726 121.855 131.855 121.694C131.919 121.614 131.993 121.55 132.076 121.503C132.161 121.461 132.247 121.436 132.335 121.426C132.426 121.419 132.518 121.426 132.609 121.448C132.701 121.475 132.788 121.521 132.868 121.586Z" fill="white"/>
<path d="M121.449 120.949C121.796 120.595 122.178 120.319 122.593 120.119C123.009 119.919 123.436 119.809 123.875 119.789C124.317 119.773 124.762 119.852 125.209 120.028C125.657 120.211 126.084 120.502 126.493 120.903C126.853 121.257 127.127 121.644 127.314 122.066C127.504 122.491 127.608 122.922 127.625 123.358C127.641 123.794 127.574 124.216 127.423 124.625C127.269 125.037 127.029 125.409 126.703 125.741C126.381 126.07 126.024 126.318 125.634 126.486C125.247 126.657 124.845 126.738 124.427 126.729C124.01 126.727 123.584 126.628 123.149 126.433C122.715 126.244 122.29 125.956 121.876 125.568C122.236 125.214 122.594 124.858 122.951 124.501C123.308 124.143 123.678 123.77 124.06 123.381C124.332 123.104 124.597 122.831 124.853 122.563C125.107 122.298 125.334 122.058 125.534 121.841C125.184 121.534 124.834 121.291 124.484 121.111C124.132 120.934 123.788 120.825 123.453 120.784C123.117 120.749 122.795 120.787 122.487 120.897C122.175 121.011 121.887 121.201 121.624 121.469C121.443 121.654 121.293 121.849 121.175 122.052C121.056 122.262 120.97 122.471 120.915 122.68C120.86 122.889 120.832 123.096 120.831 123.302C120.833 123.51 120.858 123.711 120.907 123.903L120.822 123.932L120.318 122.742C120.398 122.483 120.523 122.202 120.694 121.9C120.869 121.601 121.12 121.284 121.449 120.949ZM124.992 123.178C124.679 123.497 124.366 123.816 124.053 124.135C123.74 124.46 123.459 124.758 123.212 125.029C123.518 125.273 123.82 125.463 124.118 125.599C124.417 125.735 124.703 125.817 124.979 125.842C125.254 125.868 125.516 125.837 125.765 125.75C126.014 125.662 126.238 125.516 126.439 125.312C126.62 125.127 126.746 124.916 126.817 124.678C126.887 124.447 126.902 124.199 126.862 123.933C126.822 123.668 126.724 123.391 126.57 123.102C126.419 122.816 126.207 122.527 125.936 122.235C125.789 122.373 125.637 122.521 125.48 122.68C125.324 122.84 125.161 123.006 124.992 123.178Z" fill="white"/>
<path d="M116.743 131.099C117.1 131.569 117.456 131.843 117.812 131.921C118.168 131.998 118.505 131.917 118.822 131.677C118.936 131.59 119.045 131.468 119.15 131.31C119.257 131.156 119.354 130.981 119.442 130.786C119.532 130.594 119.611 130.388 119.68 130.167C119.748 129.947 119.802 129.727 119.842 129.506L119.322 128.798L118.342 127.505C118.112 127.203 117.907 126.94 117.727 126.717C117.55 126.499 117.392 126.313 117.254 126.16C117.115 126.007 116.995 125.882 116.893 125.785C116.792 125.688 116.702 125.61 116.624 125.552L116.608 125.53L117.842 124.594L117.858 124.616C117.893 124.707 117.944 124.814 118.01 124.938C118.072 125.065 118.16 125.214 118.274 125.386C118.384 125.56 118.52 125.762 118.683 125.992C118.845 126.228 119.041 126.498 119.271 126.8L120.252 128.093C120.481 128.395 120.686 128.655 120.867 128.871C121.047 129.094 121.207 129.281 121.345 129.434C121.48 129.59 121.6 129.715 121.705 129.809C121.807 129.906 121.896 129.984 121.975 130.042L121.991 130.064L120.757 131L120.741 130.978C120.702 130.868 120.638 130.736 120.551 130.584C120.462 130.438 120.343 130.247 120.194 130.013C120.14 130.245 120.075 130.485 119.999 130.733C119.92 130.984 119.825 131.224 119.714 131.454C119.605 131.688 119.478 131.905 119.332 132.106C119.19 132.309 119.027 132.48 118.846 132.618C118.568 132.828 118.297 132.959 118.031 133.008C117.763 133.061 117.508 133.055 117.268 132.99C117.025 132.928 116.799 132.815 116.592 132.653C116.384 132.497 116.201 132.315 116.045 132.109L114.667 130.293C114.437 129.99 114.233 129.728 114.053 129.505C113.875 129.286 113.717 129.1 113.579 128.947C113.44 128.794 113.32 128.669 113.219 128.573C113.117 128.476 113.027 128.398 112.949 128.339L112.933 128.318L114.167 127.382L114.183 127.403C114.218 127.494 114.269 127.602 114.335 127.726C114.397 127.852 114.485 128.002 114.599 128.173C114.709 128.348 114.846 128.55 115.009 128.78C115.171 129.016 115.367 129.285 115.596 129.588L116.743 131.099Z" fill="white"/>
<path d="M106.686 133.596L106.544 132.312C106.623 132.206 106.721 132.096 106.836 131.982C106.952 131.867 107.076 131.755 107.21 131.645C107.339 131.538 107.475 131.437 107.617 131.344C107.757 131.246 107.894 131.16 108.027 131.087C108.501 130.826 108.977 130.652 109.455 130.567C109.932 130.487 110.391 130.5 110.831 130.604C111.267 130.71 111.675 130.912 112.053 131.208C112.431 131.505 112.757 131.902 113.032 132.399C113.276 132.841 113.417 133.296 113.456 133.765C113.493 134.239 113.438 134.699 113.29 135.143C113.138 135.589 112.9 136.004 112.576 136.387C112.251 136.77 111.848 137.095 111.367 137.36C111.148 137.481 110.902 137.591 110.63 137.691C110.36 137.793 110.111 137.87 109.883 137.919L108.916 137.151L108.964 137.071C109.128 137.138 109.306 137.183 109.497 137.205C109.686 137.234 109.883 137.238 110.086 137.218C110.285 137.199 110.486 137.16 110.687 137.1C110.889 137.04 111.084 136.958 111.271 136.854C111.577 136.686 111.824 136.478 112.014 136.23C112.206 135.986 112.336 135.713 112.404 135.41C112.472 135.107 112.474 134.779 112.412 134.425C112.348 134.078 112.212 133.716 112.005 133.341C111.771 132.918 111.507 132.551 111.213 132.239C110.914 131.929 110.596 131.691 110.259 131.524C109.921 131.364 109.567 131.286 109.197 131.291C108.825 131.303 108.446 131.415 108.058 131.629C107.878 131.728 107.712 131.848 107.56 131.988C107.406 132.134 107.273 132.292 107.162 132.46C107.049 132.635 106.958 132.818 106.89 133.009C106.822 133.199 106.784 133.394 106.776 133.592L106.686 133.596Z" fill="white"/>
<path d="M100.795 134.395C101.26 134.22 101.722 134.13 102.183 134.124C102.644 134.118 103.078 134.198 103.484 134.365C103.893 134.537 104.262 134.796 104.594 135.144C104.922 135.498 105.187 135.943 105.389 136.478C105.566 136.951 105.651 137.418 105.643 137.88C105.637 138.345 105.549 138.779 105.38 139.182C105.212 139.584 104.973 139.939 104.663 140.246C104.35 140.555 103.975 140.791 103.54 140.955C103.109 141.117 102.681 141.192 102.257 141.179C101.833 141.171 101.435 141.075 101.06 140.891C100.683 140.713 100.338 140.444 100.026 140.084C99.7112 139.73 99.4477 139.289 99.2355 138.762C99.7114 138.593 100.187 138.422 100.661 138.248C101.135 138.075 101.628 137.892 102.138 137.7C102.502 137.563 102.857 137.428 103.202 137.293C103.544 137.16 103.851 137.037 104.124 136.925C103.936 136.499 103.721 136.131 103.48 135.821C103.235 135.512 102.969 135.268 102.682 135.089C102.393 134.916 102.085 134.815 101.758 134.785C101.428 134.756 101.087 134.808 100.735 134.94C100.493 135.031 100.275 135.144 100.082 135.279C99.8864 135.419 99.7197 135.572 99.5817 135.739C99.4437 135.905 99.3308 136.081 99.2431 136.267C99.1569 136.457 99.0956 136.65 99.0591 136.845L98.9697 136.836L99.0142 135.544C99.1961 135.342 99.4282 135.14 99.7106 134.938C99.9945 134.741 100.356 134.56 100.795 134.395ZM103.069 137.909C102.65 138.066 102.232 138.224 101.814 138.381C101.393 138.544 101.013 138.696 100.675 138.837C100.849 139.187 101.043 139.487 101.256 139.736C101.469 139.986 101.695 140.18 101.934 140.32C102.172 140.459 102.423 140.542 102.685 140.567C102.948 140.592 103.213 140.555 103.481 140.454C103.724 140.363 103.927 140.224 104.091 140.039C104.253 139.859 104.371 139.64 104.446 139.382C104.521 139.125 104.55 138.833 104.532 138.505C104.515 138.182 104.445 137.831 104.322 137.452C104.131 137.515 103.931 137.585 103.721 137.664C103.512 137.742 103.295 137.824 103.069 137.909Z" fill="white"/>
<path d="M91.2334 144.868L89.5014 144.28L89.7016 143.774L91.3807 144.458L91.0455 142.679L91.5888 142.595L91.8134 144.405L93.2067 143.234L93.5499 143.656L92.0882 144.736L93.8081 145.333L93.6078 145.838L91.9267 145.141L92.2573 146.935L91.714 147.019L91.496 145.207L90.1027 146.378L89.7596 145.956L91.2334 144.868Z" fill="white"/>
<path d="M80.5429 138.181C80.5132 138.274 80.4851 138.39 80.4586 138.528C80.4276 138.665 80.4001 138.837 80.376 139.041C80.3519 139.246 80.3311 139.49 80.3136 139.771C80.296 140.056 80.2815 140.389 80.27 140.769L80.1379 145.131C80.1264 145.511 80.1441 145.813 80.1909 146.038C80.2378 146.263 80.2973 146.437 80.3696 146.56C80.4374 146.683 80.5107 146.772 80.5895 146.828C80.6639 146.884 80.7271 146.935 80.7794 146.982L80.7786 147.008L78.698 147.717L78.6988 147.69C78.7285 147.597 78.7588 147.482 78.7898 147.344C78.8163 147.206 78.8417 147.032 78.8659 146.823C78.89 146.618 78.9109 146.373 78.9285 146.087C78.9459 145.806 78.9604 145.476 78.9719 145.096L79.104 140.733C79.1155 140.354 79.1211 140.021 79.1209 139.735C79.1204 139.453 79.1144 139.209 79.1028 139.003C79.0911 138.797 79.0762 138.624 79.0581 138.485C79.0355 138.346 79.0122 138.229 78.9882 138.134L78.989 138.107L80.5437 138.155L80.5429 138.181Z" fill="white"/>
<path d="M75.8812 136.892C75.2205 136.952 74.6066 137.06 74.0395 137.215C73.468 137.371 72.9628 137.579 72.5239 137.841C72.0844 138.107 71.724 138.431 71.4429 138.812C71.1618 139.194 70.9817 139.638 70.9025 140.146C70.824 140.65 70.8588 141.094 71.0069 141.479C71.1549 141.864 71.3881 142.196 71.7062 142.477C72.02 142.756 72.4071 142.986 72.8675 143.166C73.3235 143.346 73.8202 143.482 74.3576 143.575L72.8958 147.337L71.6306 147.14C71.2553 147.081 70.9285 147.03 70.6503 146.987C70.367 146.947 70.1237 146.912 69.9206 146.88C69.7168 146.853 69.546 146.831 69.4085 146.814C69.2709 146.797 69.155 146.785 69.0609 146.78L69.0344 146.776L69.2585 145.338L69.285 145.342C69.3736 145.383 69.4846 145.426 69.6181 145.469C69.7516 145.512 69.9185 145.559 70.1189 145.608C70.3192 145.657 70.5601 145.709 70.8413 145.761C71.1182 145.814 71.4443 145.869 71.8196 145.928L72.8 146.08L73.3834 144.645C73.0271 144.58 72.6793 144.49 72.3401 144.373C72.0002 144.262 71.6809 144.119 71.3822 143.946C71.0828 143.777 70.8129 143.579 70.5724 143.352C70.3269 143.128 70.1243 142.875 69.9649 142.592C69.8047 142.314 69.6945 142.005 69.6344 141.665C69.5691 141.329 69.5671 140.965 69.6284 140.572C69.7076 140.064 69.8565 139.617 70.0751 139.23C70.2936 138.843 70.5612 138.505 70.8778 138.215C71.1944 137.925 71.5493 137.68 71.9426 137.479C72.3358 137.278 72.7485 137.111 73.1806 136.98C73.6084 136.847 74.0452 136.744 74.4912 136.668C74.9372 136.593 75.3709 136.539 75.7923 136.505L75.8812 136.892Z" fill="white"/>
<path d="M61.5897 139.453L62.6007 136.321L63.2579 136.533L62.2469 139.666L65.3795 140.677L65.1675 141.334L62.0348 140.323L61.0239 143.455L60.3667 143.243L61.3777 140.111L58.245 139.1L58.4571 138.443L61.5897 139.453Z" fill="white"/>
<path d="M48.3482 133.578L49.3734 131.871C49.5691 131.546 49.7367 131.258 49.8763 131.008C50.0136 130.762 50.1276 130.546 50.2181 130.361C50.3087 130.176 50.38 130.018 50.4322 129.887C50.4806 129.755 50.5174 129.641 50.5428 129.547L50.5566 129.524L51.9359 130.353L51.922 130.376C51.8507 130.442 51.7698 130.529 51.6793 130.637C51.585 130.742 51.4791 130.879 51.3618 131.048C51.2406 131.215 51.1037 131.417 50.951 131.654C50.7922 131.892 50.615 132.174 50.4194 132.5L49.4632 134.092L49.9332 139.129C49.9499 139.301 49.9725 139.463 50.0007 139.615C50.0252 139.765 50.0539 139.9 50.0868 140.019C50.1174 140.142 50.1484 140.246 50.1797 140.333C50.2111 140.419 50.2372 140.485 50.2578 140.528L50.244 140.551L48.5027 139.505C48.5556 139.417 48.6067 139.25 48.6558 139.003C48.6989 138.758 48.7044 138.44 48.6724 138.051L48.3374 134.338L44.8736 135.925C44.7509 135.982 44.6271 136.041 44.5021 136.101C44.3771 136.162 44.2602 136.222 44.1513 136.281C44.0425 136.341 43.9497 136.4 43.873 136.458C43.7925 136.514 43.7361 136.569 43.7039 136.623L42.5833 135.95L42.5971 135.927C42.7251 135.904 42.9037 135.863 43.1329 135.803C43.3598 135.746 43.627 135.648 43.9344 135.51L48.3482 133.578Z" fill="white"/>
<path d="M44.5126 125.023C44.8954 125.338 45.2043 125.694 45.4393 126.091C45.6742 126.487 45.8206 126.903 45.8784 127.339C45.9334 127.778 45.8925 128.228 45.7559 128.689C45.6129 129.15 45.3595 129.602 44.9955 130.043C44.6742 130.433 44.3116 130.739 43.9076 130.962C43.5008 131.189 43.0809 131.329 42.648 131.383C42.2151 131.438 41.7883 131.407 41.3676 131.292C40.9435 131.174 40.5522 130.968 40.1936 130.672C39.8384 130.379 39.5602 130.045 39.3591 129.671C39.1552 129.3 39.0395 128.906 39.0122 128.49C38.9785 128.074 39.0401 127.641 39.1968 127.191C39.3473 126.742 39.5978 126.294 39.9486 125.847C40.3326 126.175 40.718 126.502 41.1048 126.827C41.4916 127.151 41.8954 127.487 42.3161 127.834C42.6161 128.081 42.9107 128.321 43.1997 128.554C43.4853 128.784 43.7448 128.989 43.9781 129.17C44.2531 128.794 44.4652 128.424 44.6143 128.061C44.7601 127.694 44.8389 127.342 44.8509 127.004C44.8566 126.667 44.7911 126.35 44.6545 126.052C44.5144 125.751 44.2996 125.481 44.0099 125.242C43.8099 125.077 43.6035 124.945 43.3907 124.845C43.1715 124.745 42.9554 124.677 42.7424 124.64C42.5293 124.604 42.3204 124.594 42.1156 124.61C41.908 124.63 41.7105 124.673 41.5231 124.739L41.4866 124.656L42.6285 124.051C42.8944 124.108 43.185 124.209 43.5005 124.353C43.8132 124.501 44.1506 124.724 44.5126 125.023ZM42.599 128.745C42.2542 128.461 41.9093 128.176 41.5645 127.892C41.2133 127.608 40.8921 127.355 40.6008 127.132C40.3845 127.458 40.2213 127.775 40.1114 128.084C40.0014 128.393 39.9454 128.686 39.9434 128.962C39.9414 129.239 39.9949 129.497 40.1037 129.737C40.2125 129.978 40.3773 130.189 40.598 130.371C40.798 130.536 41.0195 130.643 41.2624 130.693C41.499 130.743 41.7476 130.737 42.0082 130.673C42.2688 130.61 42.5366 130.489 42.8115 130.31C43.0835 130.135 43.353 129.9 43.6198 129.604C43.4703 129.469 43.3094 129.331 43.1369 129.189C42.9645 129.046 42.7852 128.899 42.599 128.745Z" fill="white"/>
<path d="M39.2562 123.241C38.995 123.479 38.7205 123.632 38.4325 123.7C38.1415 123.766 37.847 123.771 37.549 123.716C37.2511 123.66 36.957 123.556 36.6668 123.403C36.3733 123.253 36.0921 123.077 35.8233 122.875C35.5511 122.675 35.2985 122.464 35.0654 122.241C34.829 122.021 34.6189 121.813 34.4352 121.618L34.1823 121.848C33.9641 122.047 33.8012 122.246 33.6936 122.447C33.5861 122.647 33.5277 122.845 33.5184 123.041C33.5059 123.24 33.541 123.435 33.6237 123.625C33.7002 123.815 33.8166 123.996 33.973 124.168C34.0813 124.287 34.198 124.396 34.3231 124.493C34.4482 124.591 34.591 124.682 34.7516 124.765C34.9092 124.845 35.0908 124.919 35.2965 124.985C35.4991 125.049 35.7338 125.104 36.0005 125.152L36.0159 125.228L35.0099 125.527C34.861 125.463 34.7236 125.392 34.5976 125.313C34.4683 125.237 34.3441 125.154 34.225 125.063C34.1059 124.972 33.9919 124.873 33.8831 124.767C33.7679 124.66 33.6531 124.544 33.5388 124.418C33.223 124.071 32.9968 123.736 32.8602 123.413C32.7172 123.09 32.6495 122.783 32.6569 122.493C32.658 122.202 32.7246 121.929 32.8568 121.676C32.9857 121.426 33.1625 121.199 33.3873 120.994L35.0039 119.523C35.2849 119.268 35.5282 119.04 35.7338 118.841C35.933 118.642 36.1042 118.468 36.2472 118.32C36.3873 118.168 36.501 118.037 36.5884 117.928C36.6729 117.815 36.7408 117.717 36.7922 117.634L36.812 117.616L37.8091 118.711L37.7892 118.73C37.7213 118.761 37.6513 118.804 37.5791 118.857C37.504 118.907 37.4171 118.971 37.3186 119.049C37.4412 119.064 37.5776 119.091 37.7276 119.13C37.8746 119.165 38.0302 119.22 38.1944 119.294C38.3523 119.368 38.5138 119.466 38.6789 119.588C38.8443 119.703 39.0067 119.849 39.1661 120.024C39.6895 120.599 39.9601 121.165 39.9781 121.723C39.9927 122.284 39.7521 122.79 39.2562 123.241ZM34.822 121.266C35.099 121.564 35.3803 121.837 35.666 122.084C35.9484 122.335 36.237 122.522 36.5317 122.647C36.8233 122.768 37.1204 122.809 37.4228 122.77C37.7189 122.73 38.0191 122.572 38.3232 122.295C38.7133 121.94 38.9221 121.572 38.9496 121.19C38.9772 120.809 38.8345 120.446 38.5217 120.102C38.3773 119.944 38.225 119.82 38.0647 119.73C37.8981 119.64 37.7367 119.575 37.5803 119.536C37.4176 119.497 37.2651 119.478 37.1225 119.481C36.9767 119.487 36.8493 119.506 36.7401 119.539C36.6085 119.647 36.4667 119.77 36.3146 119.908C36.1592 120.049 35.984 120.209 35.7889 120.386L34.822 121.266Z" fill="white"/>
<path d="M31.7073 117.958C31.3984 118.179 31.1335 118.377 30.9124 118.552C30.6851 118.726 30.493 118.88 30.3363 119.014C30.177 119.144 30.0488 119.261 29.9518 119.364C29.8522 119.462 29.772 119.55 29.7114 119.627L29.6896 119.642L28.7877 118.383L28.8095 118.368C28.9139 118.337 29.0338 118.289 29.1693 118.225C29.3022 118.158 29.4671 118.061 29.6638 117.937C29.4549 117.883 29.2439 117.823 29.0307 117.755C28.8176 117.688 28.6146 117.608 28.4217 117.516C28.2289 117.423 28.051 117.317 27.8882 117.197C27.7228 117.073 27.5829 116.932 27.4684 116.772C27.3981 116.674 27.3424 116.584 27.3012 116.504C27.2564 116.426 27.2223 116.352 27.1988 116.28C27.1717 116.212 27.1521 116.146 27.1401 116.083C27.1244 116.023 27.11 115.965 27.097 115.908L28.3292 115.429L28.3738 115.538C28.2452 115.696 28.1766 115.869 28.168 116.056C28.1558 116.246 28.2239 116.445 28.3722 116.652C28.4529 116.765 28.5575 116.868 28.6859 116.963C28.8144 117.058 28.9605 117.143 29.1243 117.218C29.2844 117.296 29.4573 117.365 29.6428 117.424C29.8248 117.486 30.0096 117.541 30.1972 117.588C30.3078 117.52 30.4248 117.441 30.5483 117.353C30.6719 117.264 30.8027 117.171 30.9407 117.072L32.3468 116.064C32.6557 115.843 32.9237 115.646 33.1511 115.472C33.3748 115.3 33.565 115.148 33.7217 115.013C33.8784 114.879 34.0066 114.763 34.1062 114.664C34.2058 114.565 34.286 114.477 34.3466 114.401L34.3684 114.385L35.2703 115.644L35.2485 115.66C35.1566 115.693 35.0478 115.74 34.9222 115.803C34.7939 115.862 34.6423 115.946 34.4674 116.054C34.2899 116.16 34.084 116.291 33.8499 116.447C33.6096 116.603 33.335 116.791 33.0262 117.013L31.7073 117.958Z" fill="white"/>
<path d="M25.7702 111.091L25.8277 111.166C25.7531 111.244 25.6826 111.342 25.6159 111.461C25.5471 111.576 25.497 111.706 25.4656 111.852C25.432 111.993 25.426 112.148 25.4476 112.315C25.4632 112.48 25.5199 112.651 25.6179 112.826C25.6855 112.947 25.7673 113.053 25.8634 113.142C25.9573 113.228 26.0623 113.292 26.1783 113.335C26.2882 113.376 26.4069 113.392 26.5345 113.382C26.6621 113.372 26.7943 113.329 26.9309 113.253C27.1221 113.146 27.2728 112.985 27.3831 112.77C27.4873 112.553 27.5752 112.307 27.6467 112.032C27.7144 111.759 27.7763 111.471 27.8326 111.168C27.8867 110.862 27.9573 110.566 28.0445 110.282C28.1316 109.998 28.2498 109.738 28.3991 109.501C28.5424 109.262 28.7369 109.074 28.9828 108.937C29.1818 108.826 29.3966 108.752 29.627 108.716C29.8536 108.681 30.0824 108.697 30.3134 108.762C30.5423 108.824 30.7679 108.944 30.99 109.122C31.2061 109.298 31.4024 109.544 31.5788 109.861C31.6834 110.048 31.7638 110.233 31.8202 110.417C31.8744 110.596 31.9142 110.769 31.9397 110.934C31.9591 111.097 31.9681 111.25 31.9666 111.395C31.9591 111.537 31.9489 111.665 31.9361 111.78L30.7911 112.342L30.7389 112.249C30.9005 112.107 31.0357 111.955 31.1443 111.792C31.253 111.629 31.3303 111.46 31.3765 111.286C31.4165 111.11 31.4263 110.931 31.406 110.748C31.3818 110.567 31.3207 110.388 31.2227 110.213C31.0615 109.924 30.8541 109.74 30.6004 109.662C30.3445 109.579 30.0878 109.61 29.8302 109.754C29.6234 109.869 29.4668 110.033 29.3604 110.246C29.2479 110.458 29.1607 110.696 29.0987 110.961C29.0367 111.225 28.9823 111.504 28.9356 111.796C28.8866 112.085 28.8214 112.367 28.7399 112.643C28.6545 112.921 28.5371 113.178 28.3878 113.415C28.2324 113.65 28.0162 113.845 27.7391 114C27.5127 114.126 27.283 114.2 27.0499 114.223C26.8108 114.244 26.5835 114.217 26.368 114.143C26.1465 114.067 25.9409 113.946 25.7513 113.781C25.5617 113.615 25.3983 113.41 25.2611 113.164C25.0803 112.84 24.9651 112.551 24.9156 112.297C24.86 112.041 24.8318 111.84 24.8311 111.692L25.7702 111.091Z" fill="white"/>
<path d="M23.8565 102.22C23.3736 102.368 22.8995 102.415 22.4343 102.361C21.9648 102.308 21.5306 102.172 21.1317 101.953C20.7314 101.73 20.3804 101.431 20.0786 101.056C19.7768 100.681 19.5507 100.247 19.4003 99.756C19.2524 99.2731 19.1949 98.7952 19.2278 98.3224C19.2551 97.8466 19.3678 97.4055 19.5658 96.999C19.7639 96.5924 20.047 96.2347 20.4151 95.9256C20.782 95.6123 21.2282 95.3752 21.7539 95.2143C22.1941 95.0795 22.6407 95.0269 23.0938 95.0565C23.5469 95.0861 23.9752 95.2027 24.3788 95.4063C24.7823 95.61 25.1449 95.901 25.4664 96.2793C25.7823 96.6547 26.0266 97.1244 26.1993 97.6885C26.3458 98.1672 26.4048 98.6423 26.3762 99.1138C26.3476 99.5853 26.2343 100.024 26.0362 100.431C25.8381 100.837 25.5578 101.197 25.1953 101.509C24.8284 101.822 24.3822 102.059 23.8565 102.22ZM25.6862 97.6844C25.5933 97.3809 25.4484 97.1215 25.2516 96.906C25.0534 96.6862 24.8129 96.5191 24.5302 96.4046C24.2474 96.2902 23.9279 96.2314 23.5717 96.2283C23.2155 96.2252 22.8323 96.2864 22.422 96.412C21.9605 96.5533 21.5482 96.7333 21.1851 96.952C20.8177 97.1719 20.521 97.424 20.2948 97.7083C20.0631 97.9896 19.9112 98.3025 19.839 98.6471C19.7669 98.9917 19.791 99.3606 19.9114 99.7538C20.0043 100.057 20.1492 100.317 20.346 100.532C20.5386 100.749 20.7748 100.917 21.0546 101.037C21.3331 101.153 21.6504 101.213 22.0066 101.216C22.3585 101.22 22.7396 101.16 23.1499 101.034C23.6115 100.893 24.0259 100.712 24.3933 100.492C24.7593 100.268 25.0597 100.012 25.2944 99.7254C25.5248 99.4398 25.6789 99.1262 25.7566 98.7846C25.8287 98.44 25.8052 98.0733 25.6862 97.6844Z" fill="white"/>
<path d="M14.8402 91.6999C14.8597 91.8099 14.9005 91.9253 14.9627 92.0459C15.0241 92.1621 15.1169 92.2637 15.2412 92.3506C15.3656 92.4376 15.5286 92.4995 15.7303 92.5365C15.9276 92.5742 16.1737 92.567 16.4685 92.5149L17.7228 92.293C17.6772 92.0606 17.6321 91.8439 17.5875 91.643C17.5421 91.4377 17.5006 91.2544 17.463 91.0931C17.4254 90.9318 17.3925 90.7969 17.3642 90.6885C17.3315 90.5808 17.3065 90.5035 17.2892 90.4566L17.9835 90.4564C18.0064 90.6112 18.0294 90.7796 18.0525 90.9616C18.0709 91.1172 18.0966 91.301 18.1296 91.5131C18.1625 91.7251 18.1986 91.9547 18.2378 92.202L21.9017 91.554C22.2758 91.4879 22.6029 91.4255 22.883 91.3669C23.158 91.3046 23.3955 91.249 23.5956 91.2C23.795 91.1466 23.9609 91.0968 24.0934 91.0507C24.2252 91.0001 24.335 90.9535 24.4227 90.9107L24.4491 90.9061L24.7188 92.4311L24.6924 92.4357C24.5953 92.4257 24.4766 92.4217 24.3363 92.4238C24.196 92.426 24.023 92.4361 23.8174 92.4543C23.6119 92.4725 23.3697 92.5017 23.0909 92.542C22.8076 92.583 22.479 92.6366 22.1049 92.7027L18.4409 93.3507L18.6767 94.4527L18.0957 94.5555C18.0804 94.4175 18.0582 94.2535 18.0291 94.0635C18.0001 93.8734 17.9657 93.6662 17.926 93.4417L16.8169 93.6379C16.478 93.6978 16.1702 93.7023 15.8934 93.6514C15.6114 93.5969 15.3668 93.4972 15.1597 93.3523C14.9481 93.2081 14.7743 93.021 14.6383 92.7909C14.5023 92.5608 14.4082 92.2983 14.356 92.0034C14.3273 91.8405 14.3114 91.6868 14.3085 91.542C14.3056 91.3973 14.3098 91.2672 14.3212 91.1517C14.3317 91.0318 14.3472 90.927 14.3677 90.8371C14.3829 90.7437 14.3987 90.666 14.415 90.6041L15.5049 90.1458L15.5585 90.218C15.4654 90.3071 15.3712 90.4032 15.2759 90.5063C15.1763 90.6102 15.0896 90.7231 15.0158 90.8451C14.9421 90.967 14.8883 91.0991 14.8544 91.2412C14.8154 91.3798 14.8106 91.5327 14.8402 91.6999Z" fill="white"/>
<path d="M13.9323 83.0644C13.9411 82.5058 13.9476 81.9516 13.9518 81.4019C13.956 80.8477 13.9595 80.3404 13.9623 79.88C13.9606 79.4196 13.9556 79.0262 13.9474 78.6997C13.9391 78.3733 13.9247 78.1518 13.9042 78.0353L14.7905 78.3778C14.748 78.5246 14.7095 78.6961 14.6752 78.8922C14.6457 79.0616 14.6178 79.269 14.5916 79.5145C14.561 79.7554 14.5432 80.0345 14.5382 80.3517C14.5365 80.459 14.539 80.5887 14.5455 80.7407C14.5477 80.8883 14.5521 81.0314 14.5589 81.1701C14.5653 81.3311 14.5716 81.4944 14.578 81.6598L18.238 81.7174C18.2408 81.2571 18.2339 80.8412 18.2174 80.47C18.2009 80.0987 18.1835 79.7833 18.1652 79.5238C18.1432 79.2194 18.1161 78.9508 18.084 78.7179L19.0527 78.941C19.0077 79.2487 18.9647 79.5632 18.9239 79.8843C18.8883 80.1609 18.8567 80.4622 18.8292 80.788C18.7973 81.1138 18.779 81.4264 18.7743 81.7259L22.9772 81.792C22.9855 81.2647 22.9708 80.7794 22.9331 80.3363C22.8954 79.8932 22.85 79.5058 22.7972 79.1742C22.7406 78.7889 22.6724 78.4369 22.5925 78.1183L23.6754 78.3298C23.6701 78.3833 23.6643 78.4637 23.6582 78.5709C23.652 78.6781 23.6456 78.7987 23.6391 78.9327C23.6326 79.0622 23.6259 79.2007 23.6191 79.3481C23.6169 79.4911 23.6125 79.6273 23.606 79.7569C23.604 79.8865 23.5999 80.0026 23.5938 80.1053C23.5923 80.2036 23.5911 80.2751 23.5904 80.3198L23.5449 83.2157L23.5181 83.2152C23.4246 83.1869 23.3088 83.1605 23.1706 83.136C23.0325 83.107 22.8608 83.082 22.6555 83.0609C22.4503 83.0398 22.2069 83.0225 21.9255 83.0091C21.6396 82.9957 21.3068 82.986 20.9269 82.98L16.5631 82.9114C16.1832 82.9054 15.8525 82.9047 15.5708 82.9092C15.2846 82.9136 15.0386 82.9232 14.8328 82.9378C14.6225 82.9524 14.4478 82.972 14.3089 82.9966C14.17 83.0168 14.0534 83.0395 13.9591 83.0649L13.9323 83.0644Z" fill="white"/>
<path d="M21.3986 71.803L23.1507 73.7123C23.2165 73.7816 23.2843 73.8536 23.3538 73.928C23.4241 73.9981 23.4929 74.0634 23.5601 74.1239C23.6281 74.1801 23.6927 74.2289 23.754 74.2703C23.816 74.3074 23.869 74.3294 23.9132 74.3365L23.7355 75.4487L23.709 75.4445C23.6585 75.364 23.5813 75.2521 23.4775 75.1087C23.3744 74.961 23.2436 74.8021 23.0852 74.6319L20.7769 72.1246L17.6829 73.7282C17.5145 73.819 17.3685 73.9111 17.245 74.0045C17.1214 74.0979 17.0422 74.169 17.0072 74.2177L16.9807 74.2135L17.2705 72.3995C17.3456 72.4115 17.4689 72.4041 17.6407 72.3772C17.8088 72.3452 18.0184 72.2655 18.2695 72.1382L19.9852 71.2581L18.5618 69.7136C18.4997 69.6494 18.4331 69.5844 18.3621 69.5188C18.2918 69.4487 18.2224 69.3878 18.1537 69.3361C18.0813 69.2793 18.0141 69.2324 17.9521 69.1953C17.8902 69.1583 17.8371 69.1362 17.793 69.1291L17.9706 68.017L17.9971 68.0212C18.0358 68.0907 18.0941 68.1792 18.172 68.2867C18.2498 68.3942 18.3717 68.5382 18.5375 68.7185L20.5926 70.941L23.9535 69.1968C24.1761 69.0784 24.3616 68.9655 24.51 68.858C24.6585 68.7504 24.7549 68.6708 24.7994 68.619L24.8259 68.6233L24.5371 70.4306C24.4621 70.4186 24.3384 70.4282 24.1659 70.4595C23.989 70.4901 23.7801 70.5654 23.5392 70.6853L21.3986 71.803Z" fill="white"/>
<path d="M21.0717 65.553C20.7092 65.4394 20.3916 65.3468 20.1189 65.2753C19.8433 65.1982 19.6048 65.1375 19.4032 65.093C19.2031 65.0443 19.0329 65.012 18.8926 64.9961C18.7537 64.9759 18.6355 64.9646 18.5379 64.9621L18.5123 64.9541L18.9758 63.4764L19.0014 63.4844C19.0586 63.5258 19.1251 63.5678 19.2008 63.6102C19.2765 63.6527 19.3635 63.6964 19.4618 63.7413C19.3957 63.4442 19.3611 63.1289 19.358 62.7953C19.352 62.4562 19.4071 62.1011 19.5235 61.7301C19.672 61.2567 19.8881 60.8514 20.1718 60.5141C20.4527 60.1713 20.7858 59.9081 21.1713 59.7245C21.5581 59.5366 21.9867 59.4322 22.457 59.4111C22.9274 59.39 23.4248 59.4617 23.9493 59.6262C24.3886 59.7639 24.7867 59.9731 25.1437 60.2537C25.502 60.53 25.7907 60.8641 26.0097 61.256C26.2301 61.6437 26.3672 62.0801 26.4211 62.5654C26.4707 63.0494 26.4086 63.5686 26.2347 64.123C26.1304 64.4556 26.0099 64.7504 25.8731 65.0073C25.7363 65.2642 25.5913 65.495 25.438 65.6999L26.372 65.9928C26.7345 66.1065 27.0514 66.2012 27.3227 66.277C27.5984 66.354 27.8369 66.4148 28.0384 66.4593C28.24 66.5037 28.4102 66.536 28.5491 66.5562C28.6879 66.5763 28.8062 66.5876 28.9038 66.5901L28.9294 66.5982L28.4659 68.0759L28.4403 68.0678C28.3588 68.0142 28.2553 67.9559 28.1297 67.8931C28.0056 67.8261 27.8474 67.7554 27.6552 67.6811C27.4644 67.6025 27.2339 67.5161 26.9636 67.422C26.699 67.325 26.3854 67.2196 26.0229 67.1059L21.0717 65.553ZM19.933 62.1044C19.8876 62.2494 19.8599 62.4047 19.8502 62.5703C19.8375 62.7302 19.8418 62.8955 19.8633 63.0662C19.8818 63.2313 19.9208 63.3981 19.9803 63.5666C20.0369 63.7296 20.1125 63.8845 20.207 64.0312C20.3664 64.0906 20.5478 64.1545 20.7511 64.2229C20.9545 64.2914 21.1777 64.3637 21.4208 64.44L24.7728 65.4913C24.8635 65.426 24.9533 65.3488 25.0422 65.2596C25.131 65.1704 25.2197 65.067 25.308 64.9495C25.3935 64.8264 25.4751 64.6857 25.5528 64.5274C25.6319 64.3649 25.7036 64.1812 25.7678 63.9765C25.8721 63.6439 25.9067 63.3245 25.8715 63.0184C25.8364 62.7123 25.7346 62.4321 25.5661 62.1778C25.3989 61.9193 25.1686 61.6902 24.8753 61.4904C24.5833 61.2864 24.2326 61.1202 23.8232 60.9918C23.3626 60.8474 22.9241 60.752 22.5077 60.7057C22.087 60.6581 21.707 60.6748 21.3678 60.7557C21.0256 60.8311 20.7314 60.9777 20.4851 61.1955C20.2388 61.4134 20.0548 61.7163 19.933 62.1044Z" fill="white"/>
<path d="M29.4686 55.9544C29.2511 56.4003 28.977 56.7838 28.6463 57.1048C28.3157 57.4259 27.9452 57.6654 27.535 57.8233C27.1208 57.9793 26.6736 58.0446 26.1937 58.0193C25.7116 57.9881 25.2135 57.847 24.6994 57.5962C24.2454 57.3747 23.8629 57.0937 23.5517 56.7529C23.2366 56.4102 23.002 56.0347 22.8481 55.6264C22.6942 55.2181 22.6241 54.7961 22.6378 54.3602C22.6535 53.9203 22.7633 53.4914 22.9671 53.0737C23.1689 52.6599 23.4283 52.3116 23.7454 52.0286C24.0584 51.7437 24.4142 51.5394 24.8128 51.4155C25.2093 51.2857 25.6447 51.2445 26.1189 51.2918C26.591 51.3332 27.0851 51.4723 27.6011 51.7091C27.3716 52.1591 27.1442 52.61 26.9187 53.062C26.6933 53.5139 26.461 53.985 26.222 54.475C26.0515 54.8245 25.8869 55.1669 25.7283 55.5023C25.5716 55.8336 25.4326 56.1338 25.3113 56.4029C25.7409 56.5826 26.1498 56.7025 26.5382 56.7627C26.9285 56.8188 27.2892 56.8133 27.6204 56.7461C27.9495 56.6729 28.243 56.5351 28.5009 56.3327C28.7607 56.1263 28.9729 55.8543 29.1375 55.5169C29.2512 55.2839 29.3319 55.0523 29.3796 54.8219C29.4252 54.5856 29.441 54.3596 29.4269 54.1438C29.4128 53.9281 29.3738 53.7226 29.31 53.5273C29.2421 53.3301 29.1543 53.1481 29.0468 52.9812L29.1182 52.9265L29.9732 53.8956C29.9798 54.1674 29.9499 54.4735 29.8832 54.814C29.8126 55.1525 29.6744 55.5326 29.4686 55.9544ZM25.4022 54.9628C25.5981 54.5611 25.7941 54.1594 25.9901 53.7577C26.184 53.35 26.3552 52.9786 26.5039 52.6433C26.1368 52.509 25.7901 52.4244 25.464 52.3896C25.1378 52.3548 24.8401 52.3687 24.5709 52.4313C24.3016 52.4939 24.0629 52.6062 23.8546 52.7681C23.6463 52.9301 23.4794 53.1396 23.354 53.3967C23.2403 53.6297 23.1877 53.8701 23.1962 54.1178C23.2025 54.3596 23.2668 54.5999 23.3891 54.8385C23.5114 55.0772 23.6915 55.3093 23.9296 55.5349C24.1637 55.7585 24.4555 55.9655 24.8052 56.156C24.9014 55.9791 24.9985 55.7903 25.0965 55.5894C25.1945 55.3886 25.2964 55.1797 25.4022 54.9628Z" fill="white"/>
<path d="M28.3037 48.9669C27.9849 48.7603 27.7037 48.5861 27.4601 48.4442C27.2152 48.2961 27.0016 48.1737 26.8193 48.0769C26.6395 47.9763 26.4842 47.8996 26.3533 47.8468C26.2249 47.7902 26.114 47.7476 26.0206 47.7191L25.9981 47.7045L26.8403 46.4049L26.8629 46.4195C26.9297 46.5054 27.0177 46.5997 27.1269 46.7024C27.2385 46.8014 27.3882 46.9197 27.5759 47.0573C27.5496 46.8432 27.5288 46.6247 27.5135 46.4017C27.4982 46.1788 27.4984 45.9606 27.5142 45.7471C27.5301 45.5337 27.564 45.3293 27.616 45.134C27.6704 44.935 27.7511 44.7529 27.8581 44.5879C27.9237 44.4866 27.9864 44.4021 28.0463 44.3344C28.1024 44.2642 28.1593 44.2052 28.2169 44.1574C28.2708 44.1071 28.3248 44.0649 28.3789 44.0307C28.4293 43.9941 28.4784 43.9593 28.5263 43.9265L29.4223 44.8985L29.3378 44.9796C29.1436 44.9177 28.9576 44.917 28.7799 44.9776C28.5984 45.0357 28.4384 45.1717 28.2999 45.3855C28.2245 45.5017 28.1661 45.637 28.1248 45.7913C28.0834 45.9455 28.0577 46.1126 28.0476 46.2925C28.0338 46.4699 28.0331 46.6559 28.0456 46.8504C28.0543 47.0424 28.071 47.2344 28.0958 47.4262C28.1997 47.5042 28.3154 47.5845 28.443 47.6671C28.5705 47.7498 28.7055 47.8373 28.848 47.9296L30.2996 48.8703C30.6184 49.0769 30.9002 49.2542 31.1451 49.4023C31.3863 49.5479 31.598 49.6691 31.7803 49.7659C31.9625 49.8627 32.1179 49.9394 32.2463 49.996C32.3747 50.0526 32.4856 50.0952 32.5789 50.1237L32.6015 50.1383L31.7592 51.4379L31.7367 51.4233C31.6726 51.3498 31.5884 51.266 31.4843 51.1719C31.3826 51.074 31.2491 50.9636 31.0839 50.8405C30.9211 50.7137 30.724 50.57 30.4925 50.4093C30.2598 50.2425 29.984 50.0558 29.6652 49.8492L28.3037 48.9669Z" fill="white"/>
<path d="M31.6038 44.1362C31.3022 43.9053 31.0355 43.7096 30.8037 43.5491C30.5711 43.3823 30.3678 43.2435 30.1937 43.1328C30.0223 43.0185 29.8734 42.9298 29.7471 42.8669C29.6235 42.8005 29.5163 42.7493 29.4254 42.7136L29.4041 42.6973L30.3454 41.4675L30.3667 41.4838C30.4249 41.5622 30.5023 41.6523 30.5987 41.7543C30.6952 41.8562 30.8196 41.9768 30.972 42.116C31.1244 42.2551 31.3114 42.4152 31.5331 42.5961C31.7513 42.7744 32.0112 42.9789 32.3129 43.2099L33.6012 44.196C33.9029 44.4269 34.17 44.6257 34.4026 44.7925C34.6316 44.9565 34.8332 45.0939 35.0073 45.2047C35.1814 45.3154 35.3303 45.4041 35.4539 45.4705C35.5775 45.537 35.6847 45.5881 35.7755 45.6239L35.7968 45.6402L34.8555 46.8699L34.8342 46.8536C34.776 46.7753 34.6987 46.6851 34.6022 46.5832C34.5085 46.4777 34.3841 46.3571 34.229 46.2215C34.0766 46.0823 33.8913 45.9236 33.6732 45.7454C33.4542 45.5609 33.1938 45.3532 32.8922 45.1223L31.6038 44.1362ZM27.8237 41.42C27.7456 41.3603 27.6837 41.2904 27.638 41.2104C27.5915 41.1241 27.5624 41.0371 27.5507 40.9494C27.5355 40.8589 27.5395 40.7691 27.5627 40.68C27.5851 40.5846 27.6276 40.496 27.69 40.4144C27.7525 40.3328 27.8255 40.2705 27.9091 40.2275C27.9918 40.1782 28.0788 40.1491 28.1701 40.1402C28.2605 40.125 28.3521 40.1304 28.4448 40.1563C28.5367 40.176 28.6217 40.2157 28.6998 40.2754C28.863 40.4004 28.9575 40.56 28.9834 40.7542C29.0092 40.9485 28.9596 41.1272 28.8346 41.2905C28.7721 41.3721 28.6995 41.4375 28.6168 41.4868C28.5333 41.5298 28.4476 41.5571 28.3599 41.5688C28.2686 41.5777 28.1771 41.5723 28.0852 41.5527C27.9925 41.5267 27.9053 41.4825 27.8237 41.42Z" fill="white"/>
<path d="M39.2547 41.8216C38.9145 42.1826 38.5388 42.4672 38.1276 42.6754C37.7164 42.8837 37.2915 43.0022 36.8529 43.031C36.411 43.0567 35.9647 42.9862 35.5139 42.8193C35.063 42.6461 34.6293 42.3633 34.213 41.971C33.8455 41.6246 33.5638 41.2425 33.3681 40.8246C33.169 40.4037 33.0567 39.9754 33.0312 39.5398C33.0056 39.1043 33.0642 38.6804 33.2069 38.2683C33.3527 37.853 33.585 37.4762 33.9038 37.1379C34.2195 36.8029 34.5708 36.5475 34.9577 36.3716C35.3413 36.1926 35.7417 36.1033 36.1591 36.1036C36.5763 36.0976 37.0042 36.1876 37.4429 36.3738C37.8814 36.5537 38.3117 36.8334 38.734 37.2129C38.3811 37.5744 38.0299 37.9373 37.6802 38.3018C37.3306 38.6663 36.9688 39.0469 36.5948 39.4437C36.3281 39.7267 36.0692 40.0047 35.818 40.2777C35.5699 40.5475 35.3479 40.7928 35.1521 41.0136C35.5088 41.3129 35.8636 41.549 36.2165 41.7219C36.5725 41.8916 36.9186 41.9936 37.2547 42.0279C37.5907 42.0558 37.9119 42.0115 38.2183 41.895C38.5277 41.7751 38.8112 41.5786 39.0687 41.3054C39.2465 41.1167 39.3924 40.9196 39.5065 40.7138C39.6203 40.5018 39.7026 40.2907 39.7533 40.0805C39.804 39.8703 39.8278 39.6625 39.8249 39.4571C39.8187 39.2486 39.7891 39.0487 39.736 38.8574L39.8205 38.8264L40.3486 40.0059C40.2742 40.2674 40.1545 40.5508 39.9897 40.856C39.8216 41.1582 39.5766 41.48 39.2547 41.8216ZM35.6671 39.6657C35.9736 39.3404 36.2801 39.0151 36.5867 38.6899C36.893 38.3583 37.167 38.0546 37.4086 37.7787C37.098 37.5412 36.7922 37.3574 36.4912 37.2272C36.1901 37.097 35.9017 37.0218 35.6261 37.0015C35.3504 36.9812 35.089 37.0174 34.842 37.1101C34.595 37.2028 34.3734 37.3532 34.1772 37.5614C33.9994 37.7501 33.8777 37.9639 33.8121 38.203C33.7462 38.4357 33.7362 38.6842 33.782 38.9485C33.8277 39.2127 33.9308 39.4879 34.091 39.774C34.248 40.0571 34.4651 40.3415 34.7423 40.6274C34.8868 40.4871 35.0356 40.3357 35.1889 40.1731C35.3421 40.0104 35.5015 39.8413 35.6671 39.6657Z" fill="white"/>
<path d="M43.7511 31.5792C43.385 31.1166 43.0231 30.8501 42.6653 30.7798C42.3076 30.7095 41.9728 30.7978 41.6609 31.0446C41.5487 31.1334 41.442 31.2577 41.3406 31.4178C41.2365 31.5743 41.1427 31.7511 41.0593 31.9482C40.9731 32.1417 40.898 32.3494 40.834 32.571C40.77 32.7926 40.7203 33.0143 40.685 33.2361L41.2194 33.9331L42.2262 35.2053C42.462 35.5033 42.6721 35.7616 42.8566 35.9803C43.0384 36.1956 43.2 36.3783 43.3416 36.5284C43.4832 36.6785 43.6058 36.801 43.7093 36.8958C43.8128 36.9906 43.9042 37.0664 43.9834 37.1234L44.0001 37.1444L42.7857 38.1054L42.769 38.0844C42.7318 37.9942 42.679 37.8878 42.6105 37.7653C42.5456 37.64 42.4546 37.4926 42.3375 37.323C42.2239 37.1507 42.0833 36.9514 41.9156 36.725C41.7486 36.4924 41.5472 36.2271 41.3115 35.9292L40.3047 34.657C40.069 34.3591 39.8585 34.1039 39.6732 33.8914C39.4887 33.6727 39.3256 33.4882 39.184 33.3381C39.0459 33.1852 38.9234 33.0627 38.8164 32.9707C38.7129 32.8759 38.6215 32.8001 38.5422 32.7431L38.5256 32.7221L39.74 31.7611L39.7566 31.7821C39.7979 31.8919 39.8639 32.0221 39.9545 32.1726C40.0459 32.3169 40.1688 32.5046 40.3233 32.7358C40.3727 32.5029 40.4326 32.2617 40.503 32.0122C40.5769 31.7599 40.6672 31.5175 40.7738 31.2849C40.8777 31.0488 41.0003 30.8293 41.1417 30.6262C41.2803 30.4196 41.439 30.2456 41.6177 30.1042C41.8911 29.8878 42.1598 29.7521 42.424 29.697C42.6916 29.639 42.9461 29.64 43.1873 29.6999C43.432 29.7571 43.6596 29.8647 43.8703 30.0229C44.0817 30.1748 44.2678 30.3524 44.4287 30.5557L45.8432 32.3431C46.0789 32.641 46.289 32.8993 46.4736 33.1181C46.6553 33.3334 46.817 33.516 46.9586 33.6662C47.1002 33.8163 47.2227 33.9388 47.3262 34.0335C47.4297 34.1283 47.5211 34.2042 47.6004 34.2611L47.617 34.2822L46.4026 35.2432L46.386 35.2222C46.3488 35.1319 46.2959 35.0255 46.2275 34.903C46.1625 34.7777 46.0715 34.6303 45.9544 34.4608C45.8409 34.2885 45.7002 34.0891 45.5325 33.8628C45.3655 33.6302 45.1642 33.3649 44.9284 33.067L43.7511 31.5792Z" fill="white"/>
<path d="M53.7562 28.8764L53.9248 30.1577C53.8472 30.2646 53.752 30.3766 53.639 30.4936C53.526 30.6107 53.4038 30.7253 53.2725 30.8375C53.1451 30.9474 53.0113 31.0507 52.871 31.1474C52.733 31.248 52.5982 31.3364 52.4667 31.4125C51.9987 31.6835 51.5263 31.8666 51.0495 31.9619C50.5744 32.0511 50.1156 32.0482 49.6732 31.9531C49.2347 31.8558 48.8234 31.6627 48.4392 31.3739C48.0551 31.085 47.7208 30.695 47.4364 30.2037C47.1833 29.7667 47.0325 29.3143 46.9838 28.8467C46.9367 28.373 46.9826 27.9126 47.1215 27.4655C47.2642 27.0162 47.4938 26.5967 47.8103 26.2068C48.1269 25.8169 48.523 25.4843 48.9988 25.2088C49.2154 25.0834 49.4586 24.9684 49.7286 24.8637C49.9963 24.7552 50.2436 24.674 50.4706 24.62L51.4536 25.3678L51.4075 25.4488C51.2414 25.3848 51.0626 25.3437 50.8713 25.3254C50.6815 25.301 50.4853 25.301 50.2825 25.3254C50.0836 25.3476 49.884 25.3909 49.6837 25.4552C49.4834 25.5196 49.2904 25.6055 49.1047 25.713C48.8031 25.8877 48.5598 26.1008 48.3749 26.3524C48.1879 26.6002 48.0636 26.8762 48.0021 27.1803C47.9407 27.4844 47.9447 27.8126 48.0144 28.1648C48.0856 28.5109 48.2288 28.8696 48.4438 29.2409C48.6856 29.6586 48.9571 30.0205 49.2582 30.3264C49.5632 30.6302 49.8857 30.8617 50.2259 31.0211C50.5677 31.1744 50.9235 31.2447 51.2932 31.2321C51.6645 31.2133 52.0416 31.0931 52.4245 30.8714C52.6025 30.7684 52.7661 30.6452 52.9156 30.5019C53.0666 30.3525 53.196 30.1923 53.3037 30.0215C53.413 29.8446 53.4998 29.6601 53.5641 29.4679C53.6284 29.2757 53.6625 29.0804 53.6664 28.8819L53.7562 28.8764Z" fill="white"/>
<path d="M59.6352 27.9539C59.1745 28.1379 58.7138 28.2377 58.2532 28.2533C57.7925 28.2688 57.3573 28.1972 56.9473 28.0385C56.5358 27.8756 56.1608 27.6236 55.8223 27.2823C55.4863 26.9352 55.2123 26.496 55 25.9647C54.8127 25.4957 54.7183 25.0305 54.7169 24.569C54.7138 24.1034 54.7924 23.6677 54.9528 23.262C55.1132 22.8562 55.3449 22.4965 55.648 22.183C55.9553 21.8677 56.3247 21.6239 56.7564 21.4515C57.1839 21.2807 57.6101 21.1971 58.035 21.2006C58.4583 21.2 58.8591 21.2878 59.2375 21.4639C59.6184 21.6342 59.9685 21.8963 60.2878 22.25C60.6097 22.5979 60.8821 23.0329 61.1051 23.5551C60.6328 23.7341 60.1613 23.9152 59.6906 24.0984C59.2199 24.2816 58.7314 24.4743 58.225 24.6766C57.8639 24.8208 57.512 24.9638 57.1691 25.1056C56.8304 25.2457 56.5258 25.3746 56.2552 25.4923C56.4525 25.914 56.6747 26.2776 56.9219 26.5832C57.1732 26.887 57.4441 27.1254 57.7345 27.2982C58.0274 27.4651 58.3373 27.5603 58.6643 27.5837C58.9955 27.6054 59.3354 27.5467 59.684 27.4074C59.9247 27.3113 60.1402 27.1939 60.3303 27.0554C60.5229 26.9111 60.6865 26.7543 60.821 26.5851C60.9556 26.4158 61.0648 26.2374 61.1487 26.0499C61.231 25.8582 61.2883 25.6645 61.3208 25.4686L61.4104 25.4761L61.3924 26.7684C61.2146 26.9741 60.9867 27.1806 60.7086 27.388C60.4288 27.5912 60.071 27.7798 59.6352 27.9539ZM57.2902 24.4869C57.7052 24.3211 58.1203 24.1553 58.5354 23.9895C58.9529 23.8179 59.3294 23.6579 59.6647 23.5095C59.4832 23.1634 59.2833 22.8678 59.0651 22.6229C58.847 22.3779 58.6172 22.1882 58.3757 22.0536C58.1343 21.919 57.882 21.8417 57.6189 21.8217C57.3558 21.8016 57.0915 21.8446 56.8258 21.9507C56.5851 22.0469 56.3846 22.1896 56.2243 22.3787C56.0665 22.562 55.9527 22.7832 55.8829 23.0421C55.813 23.301 55.7905 23.594 55.8152 23.921C55.8383 24.2438 55.9153 24.5933 56.0463 24.9693C56.2364 24.903 56.4352 24.8284 56.6427 24.7455C56.8502 24.6626 57.0661 24.5764 57.2902 24.4869Z" fill="white"/>
<path d="M68.9864 17.2855L70.7301 17.838L70.5402 18.3476L68.8475 17.6977L69.2188 19.4704L68.6773 19.5651L68.4159 17.7596L67.0467 18.9587L66.6951 18.5438L68.1345 17.4345L66.4028 16.873L66.5927 16.3634L68.2877 17.0266L67.9207 15.2395L68.4622 15.1448L68.717 16.9515L70.0862 15.7523L70.4378 16.1672L68.9864 17.2855Z" fill="white"/>
<defs>
<clipPath id="clip0_142_500">
<rect width="40" height="40" fill="white" transform="translate(60.7717 60.9714)"/>
</clipPath>
</defs>
</svg>
