<svg width="172" height="171" viewBox="0 0 172 171" fill="none" xmlns="http://www.w3.org/2000/svg">
<path d="M89.2228 9.17734C89.1934 9.63016 89.173 10.0274 89.1615 10.369C89.1557 10.7057 89.1529 10.9971 89.153 11.2432C89.1584 11.4896 89.1691 11.6963 89.185 11.8631C89.2062 12.0304 89.2292 12.1709 89.2539 12.2849L89.2518 12.3169L87.334 12.1924L87.3361 12.1605C87.3753 12.0507 87.4136 11.9141 87.4509 11.7506C87.4936 11.5876 87.5335 11.3842 87.5708 11.1405C87.608 10.8968 87.6428 10.6075 87.6752 10.2726C87.708 9.93235 87.7391 9.53581 87.7684 9.08299L88.1059 3.88084C88.1353 3.42801 88.1555 3.03344 88.1667 2.69713C88.1781 2.35549 88.1812 2.06145 88.1757 1.81501C88.1707 1.56324 88.1575 1.35375 88.1363 1.18652C88.1203 1.01965 88.1 0.879237 88.0753 0.765289L88.0774 0.733325C88.5196 0.762011 88.9671 0.791042 89.4199 0.820419C89.8731 0.844468 90.3127 0.870317 90.7389 0.897966C91.1655 0.920287 91.5707 0.941226 91.9546 0.960783C92.3389 0.975012 92.6857 0.989486 92.995 1.0042C93.3047 1.01359 93.5664 1.01987 93.7802 1.02304C93.9943 1.02089 94.1472 1.01475 94.2388 1.00465L93.7783 2.04205C93.6056 1.9827 93.4032 1.92677 93.1713 1.87428C92.9709 1.82918 92.7251 1.78381 92.4338 1.73816C92.1482 1.68754 91.8163 1.64995 91.438 1.62541C91.3102 1.61712 91.15 1.61208 90.9575 1.61029C90.7654 1.60318 90.5758 1.5989 90.3886 1.59746C90.1748 1.59429 89.9504 1.59043 89.7153 1.58587L89.4535 5.62134C90.0026 5.65161 90.507 5.66829 90.9669 5.67137C91.4268 5.67446 91.8227 5.6734 92.1548 5.66819C92.5404 5.66111 92.8891 5.64628 93.2008 5.62371L92.8859 6.76685C92.4895 6.69298 92.0876 6.62144 91.6801 6.5522C91.3309 6.4921 90.9548 6.4356 90.5516 6.3827C90.1488 6.32447 89.7689 6.28377 89.412 6.26062L89.2228 9.17734Z" fill="#481E0B"/>
<path d="M97.6826 8.04282C97.7597 7.59564 97.8189 7.20498 97.8603 6.87082C97.9078 6.5323 97.9419 6.24023 97.9626 5.9946C97.9885 5.74988 97.9998 5.54325 97.9963 5.37472C97.9982 5.2071 97.9928 5.06532 97.9803 4.9494L97.9857 4.91784L99.8086 5.23214L99.8032 5.26371C99.7402 5.37745 99.678 5.51841 99.6165 5.68657C99.5603 5.85565 99.5007 6.07561 99.4377 6.34646C99.6605 6.21693 99.8907 6.09139 100.128 5.96985C100.366 5.84831 100.606 5.74608 100.848 5.66318C101.089 5.58028 101.33 5.5215 101.569 5.48685C101.813 5.45311 102.051 5.45619 102.282 5.49611C102.424 5.5206 102.546 5.54981 102.649 5.58373C102.752 5.61239 102.844 5.64713 102.924 5.68795C103.004 5.72351 103.076 5.76297 103.139 5.80632C103.203 5.84442 103.264 5.88206 103.322 5.91925L102.676 7.35983L102.547 7.30514C102.524 7.06277 102.437 6.85823 102.287 6.69151C102.138 6.51954 101.914 6.40769 101.614 6.35599C101.451 6.32787 101.275 6.32733 101.086 6.35436C100.897 6.38139 100.702 6.43163 100.499 6.50511C100.298 6.57332 100.093 6.65994 99.8856 6.76497C99.6788 6.86475 99.4759 6.97332 99.2769 7.09069C99.2401 7.24145 99.2062 7.40626 99.1754 7.58513C99.1446 7.764 99.1119 7.95339 99.0774 8.15331L98.7264 10.1893C98.6493 10.6365 98.587 11.0293 98.5395 11.3678C98.4928 11.7011 98.4592 11.9905 98.4385 12.2361C98.4178 12.4818 98.4066 12.6884 98.4047 12.856C98.4029 13.0236 98.4083 13.1654 98.4208 13.2813L98.4154 13.3129L96.5925 12.9986L96.5979 12.967C96.6485 12.862 96.701 12.7302 96.7554 12.5717C96.8151 12.414 96.8737 12.2155 96.9312 11.9763C96.994 11.7379 97.0592 11.4539 97.1269 11.1243C97.2007 10.7903 97.2762 10.3997 97.3533 9.95253L97.6826 8.04282Z" fill="#481E0B"/>
<path d="M106.323 15.2721C105.754 15.108 105.246 14.8645 104.8 14.5415C104.354 14.2186 103.996 13.832 103.726 13.3819C103.457 12.9266 103.288 12.414 103.219 11.8441C103.157 11.2705 103.22 10.6554 103.409 9.99878C103.576 9.41912 103.828 8.91116 104.165 8.47488C104.504 8.03348 104.897 7.68021 105.346 7.41505C105.794 7.1499 106.277 6.98052 106.792 6.90692C107.313 6.83479 107.84 6.87561 108.374 7.02937C108.902 7.18165 109.365 7.41518 109.764 7.72996C110.163 8.0396 110.477 8.41615 110.705 8.85959C110.939 9.29939 111.077 9.80312 111.119 10.3708C111.168 10.9348 111.106 11.5448 110.934 12.2007C110.357 12.0234 109.779 11.8486 109.201 11.6764C108.623 11.5042 108.021 11.3279 107.395 11.1476C106.949 11.0189 106.512 10.8958 106.085 10.7782C105.663 10.6621 105.281 10.5604 104.939 10.4731C104.816 11.0155 104.76 11.5213 104.769 11.9907C104.783 12.4615 104.864 12.8848 105.011 13.2606C105.165 13.6327 105.387 13.9496 105.679 14.2114C105.975 14.4746 106.339 14.6683 106.77 14.7925C107.067 14.8782 107.356 14.9255 107.637 14.9342C107.925 14.9392 108.194 14.9113 108.445 14.8503C108.696 14.7892 108.929 14.701 109.146 14.5857C109.364 14.4652 109.56 14.3245 109.734 14.1636L109.813 14.2363L108.849 15.4419C108.531 15.5057 108.165 15.5334 107.75 15.5251C107.337 15.5117 106.862 15.4274 106.323 15.2721ZM106.652 10.2835C107.165 10.4313 107.678 10.5792 108.191 10.727C108.711 10.8712 109.183 10.9962 109.608 11.1021C109.691 10.6425 109.719 10.2172 109.693 9.82632C109.667 9.43541 109.589 9.088 109.46 8.78412C109.331 8.48023 109.149 8.22242 108.916 8.01069C108.683 7.79896 108.402 7.64578 108.073 7.55116C107.776 7.4654 107.482 7.45299 107.192 7.51392C106.909 7.5712 106.64 7.69633 106.384 7.88934C106.129 8.08234 105.893 8.34212 105.676 8.66867C105.461 8.9901 105.278 9.37613 105.126 9.82676C105.354 9.90355 105.596 9.97891 105.852 10.0528C106.109 10.1268 106.375 10.2036 106.652 10.2835Z" fill="#481E0B"/>
<path d="M117.646 19.2455C117.497 19.2258 117.341 19.2004 117.18 19.1693C117.018 19.1382 116.855 19.0976 116.691 19.0476C116.529 19.0045 116.37 18.9542 116.214 18.8965C116.057 18.8438 115.912 18.788 115.78 18.7293C115.19 18.4662 114.682 18.1374 114.256 17.7428C113.837 17.3455 113.519 16.8995 113.301 16.4049C113.088 15.9125 112.987 15.3792 112.997 14.8052C113.008 14.2312 113.151 13.6346 113.427 13.0154C113.673 12.4644 114.005 12.0016 114.423 11.6271C114.849 11.2498 115.326 10.9718 115.856 10.793C116.391 10.6164 116.958 10.5448 117.557 10.5781C118.155 10.6113 118.755 10.7617 119.354 11.0291C119.613 11.1444 119.878 11.2832 120.151 11.4456C120.428 11.6102 120.673 11.775 120.886 11.9401C121.091 12.0959 121.302 12.2598 121.517 12.4319C121.735 12.5992 121.932 12.7721 122.11 12.9506C122.058 13.015 121.985 13.1318 121.892 13.3008C121.807 13.4671 121.714 13.648 121.615 13.8436C121.516 14.0391 121.421 14.2333 121.329 14.4262C121.24 14.6141 121.169 14.7666 121.116 14.8837L118.465 20.8296C118.28 21.244 118.124 21.607 117.997 21.9185C117.872 22.2371 117.767 22.5118 117.682 22.7426C117.601 22.9756 117.54 23.1731 117.497 23.3351C117.459 23.4993 117.431 23.6391 117.415 23.7545L117.402 23.7838L115.712 23.0304L115.725 23.0011C115.8 22.9118 115.884 22.797 115.975 22.6567C116.067 22.5164 116.173 22.3385 116.292 22.1229C116.412 21.9073 116.546 21.6457 116.695 21.338C116.842 21.0352 117.008 20.6765 117.192 20.2621L117.646 19.2455ZM119.792 14.4332C119.972 14.0285 120.115 13.6948 120.221 13.432C120.331 13.1714 120.416 12.955 120.475 12.7827C120.296 12.5158 120.076 12.2686 119.815 12.0412C119.554 11.8137 119.263 11.6282 118.941 11.4847C118.561 11.3152 118.184 11.229 117.811 11.2264C117.44 11.2189 117.086 11.2919 116.749 11.4454C116.412 11.5989 116.097 11.8327 115.805 12.1467C115.52 12.458 115.273 12.8477 115.064 13.3158C114.829 13.8424 114.669 14.3585 114.584 14.8641C114.504 15.3719 114.506 15.8462 114.59 16.287C114.681 16.7251 114.862 17.1186 115.133 17.4674C115.411 17.8136 115.792 18.0943 116.274 18.3096C116.538 18.427 116.812 18.5057 117.099 18.5456C117.392 18.5828 117.68 18.5797 117.962 18.5361L119.792 14.4332Z" fill="#481E0B"/>
<path d="M124.404 19.8133C124.03 20.4107 123.873 20.9233 123.933 21.3511C123.997 21.7818 124.231 22.1232 124.634 22.3752C124.779 22.4658 124.96 22.5384 125.178 22.5928C125.398 22.6427 125.635 22.6774 125.887 22.6968C126.147 22.7145 126.414 22.7149 126.689 22.6981C126.969 22.6841 127.238 22.6511 127.498 22.5992C127.589 22.4736 127.68 22.3384 127.77 22.1936C127.864 22.0443 127.963 21.8859 128.068 21.7185L129.096 20.0757C129.336 19.691 129.539 19.3519 129.704 19.0583C129.876 18.763 130.018 18.5056 130.13 18.2861C130.247 18.0694 130.336 17.8825 130.396 17.7252C130.462 17.5707 130.51 17.4375 130.543 17.3255L130.56 17.2983L132.128 18.2796L132.111 18.3067C132.024 18.3848 131.926 18.4869 131.815 18.613C131.705 18.7391 131.575 18.9006 131.427 19.0975C131.279 19.2943 131.109 19.5347 130.919 19.8187C130.732 20.0981 130.517 20.4302 130.277 20.8148L129.249 22.4576C129.008 22.8423 128.802 23.1822 128.629 23.4775C128.46 23.7683 128.319 24.0234 128.207 24.2429C128.095 24.4624 128.006 24.6494 127.941 24.8039C127.876 24.9583 127.827 25.0916 127.795 25.2036L127.778 25.2307L126.21 24.2495L126.227 24.2223C126.325 24.1262 126.443 23.9983 126.58 23.8388C126.722 23.6822 126.889 23.4655 127.081 23.1889C126.797 23.2312 126.498 23.2613 126.184 23.2792C125.875 23.3 125.565 23.2978 125.253 23.2728C124.946 23.2505 124.649 23.2006 124.364 23.1229C124.081 23.0526 123.824 22.9452 123.593 22.8007C123.24 22.5799 122.977 22.3304 122.805 22.0525C122.637 21.7774 122.536 21.4907 122.502 21.1925C122.473 20.8971 122.501 20.6 122.588 20.3012C122.678 20.0053 122.807 19.7239 122.974 19.4569L124.419 17.1489C124.659 16.7642 124.864 16.4265 125.034 16.1357C125.206 15.8404 125.348 15.583 125.46 15.3635C125.572 15.144 125.661 14.9571 125.726 14.8026C125.791 14.6482 125.84 14.5149 125.872 14.4029L125.889 14.3757L127.457 15.357L127.44 15.3842C127.354 15.4622 127.255 15.5643 127.145 15.6904C127.035 15.8165 126.905 15.978 126.757 16.1749C126.608 16.3717 126.439 16.6121 126.249 16.8961C126.061 17.1755 125.847 17.5076 125.606 17.8923L124.404 19.8133Z" fill="#481E0B"/>
<path d="M132.849 29.3741C132.393 28.9948 132.027 28.5676 131.748 28.0926C131.47 27.6176 131.298 27.1197 131.231 26.5989C131.168 26.0739 131.22 25.5367 131.386 24.9871C131.559 24.4368 131.865 23.8992 132.302 23.3741C132.688 22.9106 133.123 22.5469 133.607 22.283C134.094 22.0149 134.597 21.8498 135.114 21.7875C135.632 21.7252 136.141 21.764 136.643 21.9041C137.149 22.0475 137.615 22.2969 138.042 22.6523C138.464 23.0042 138.794 23.4044 139.032 23.8527C139.274 24.297 139.409 24.7679 139.44 25.2655C139.477 25.7624 139.401 26.2792 139.211 26.8158C139.029 27.3517 138.727 27.8853 138.305 28.4164C137.848 28.0221 137.39 27.6299 136.93 27.2397C136.47 26.8494 135.99 26.4459 135.489 26.0291C135.132 25.7318 134.782 25.4434 134.438 25.1639C134.098 24.8878 133.79 24.6411 133.512 24.4238C133.181 24.8709 132.926 25.3111 132.745 25.7445C132.569 26.1813 132.473 26.6014 132.457 27.0047C132.448 27.4073 132.524 27.787 132.685 28.1437C132.851 28.5039 133.106 28.8275 133.45 29.1145C133.688 29.3127 133.934 29.4723 134.188 29.5932C134.449 29.7135 134.707 29.7961 134.961 29.8412C135.215 29.8863 135.465 29.8995 135.709 29.881C135.957 29.8584 136.194 29.8085 136.418 29.7312L136.461 29.8296L135.093 30.5455C134.776 30.4759 134.43 30.3539 134.054 30.1797C133.681 30.0014 133.279 29.7328 132.849 29.3741ZM135.157 24.9392C135.567 25.2809 135.977 25.6226 136.387 25.9643C136.805 26.3053 137.187 26.6097 137.534 26.8776C137.794 26.49 137.991 26.112 138.124 25.7435C138.257 25.3751 138.326 25.0258 138.33 24.6956C138.334 24.3655 138.272 24.0566 138.143 23.7688C138.015 23.4811 137.819 23.2279 137.557 23.0092C137.319 22.811 137.055 22.6815 136.765 22.6207C136.483 22.5593 136.186 22.5655 135.874 22.6394C135.562 22.7132 135.242 22.8561 134.912 23.0681C134.586 23.276 134.263 23.5556 133.943 23.907C134.12 24.0689 134.312 24.2353 134.517 24.4062C134.722 24.577 134.935 24.7547 135.157 24.9392Z" fill="#481E0B"/>
<path d="M145.37 33.8607C145.89 33.3849 146.176 32.9308 146.229 32.4986C146.282 32.0664 146.148 31.6751 145.828 31.3247C145.712 31.1987 145.555 31.0822 145.355 30.9752C145.16 30.8645 144.941 30.768 144.699 30.6855C144.461 30.5995 144.208 30.5278 143.938 30.4706C143.669 30.4134 143.4 30.3733 143.133 30.3502L142.348 31.0468L140.919 32.3554C140.584 32.6619 140.295 32.9344 140.05 33.173C139.809 33.408 139.605 33.6163 139.439 33.7979C139.272 33.9795 139.137 34.136 139.033 34.2674C138.928 34.3989 138.846 34.5143 138.785 34.6136L138.761 34.6352L137.512 33.2709L137.536 33.2493C137.64 33.1972 137.762 33.1251 137.902 33.0331C138.046 32.9449 138.214 32.8238 138.406 32.6698C138.601 32.5197 138.827 32.3351 139.082 32.1158C139.345 31.8969 139.643 31.6342 139.978 31.3278L141.407 30.0191C141.742 29.7127 142.028 29.44 142.265 29.201C142.51 28.9624 142.716 28.7523 142.883 28.5707C143.053 28.3931 143.188 28.2366 143.289 28.1012C143.393 27.9698 143.475 27.8544 143.536 27.755L143.56 27.7334L144.809 29.0977L144.785 29.1193C144.658 29.178 144.509 29.2677 144.337 29.3886C144.173 29.5099 143.96 29.6724 143.698 29.8763C143.98 29.9151 144.272 29.9658 144.575 30.0283C144.882 30.0947 145.179 30.1814 145.465 30.2885C145.755 30.392 146.027 30.5192 146.281 30.6702C146.539 30.8176 146.76 30.9917 146.944 31.1925C147.225 31.4996 147.41 31.8081 147.499 32.1181C147.591 32.432 147.611 32.7352 147.561 33.0277C147.514 33.3241 147.405 33.6046 147.234 33.8692C147.072 34.1341 146.876 34.3711 146.648 34.5802L144.64 36.4188C144.305 36.7252 144.015 36.9977 143.77 37.2364C143.53 37.4714 143.326 37.6796 143.159 37.8612C142.992 38.0428 142.857 38.1993 142.753 38.3308C142.649 38.4622 142.566 38.5776 142.505 38.677L142.482 38.6986L141.233 37.3343L141.256 37.3127C141.361 37.2606 141.483 37.1885 141.623 37.0964C141.766 37.0083 141.934 36.8872 142.126 36.7332C142.322 36.5831 142.547 36.3984 142.802 36.1792C143.065 35.9603 143.364 35.6976 143.699 35.3911L145.37 33.8607Z" fill="#481E0B"/>
<path d="M146.299 43.0063C146.394 43.1352 146.511 43.2444 146.65 43.3342C146.792 43.4282 146.947 43.503 147.114 43.5588C147.285 43.6188 147.461 43.6645 147.643 43.6958C147.833 43.7283 148.021 43.749 148.207 43.7579L148.222 43.8461L146.875 44.1928C146.812 44.1602 146.732 44.1196 146.636 44.0708C146.548 44.0231 146.449 43.9567 146.34 43.8715C146.229 43.7937 146.111 43.6919 145.985 43.566C145.855 43.4433 145.718 43.2853 145.576 43.092C145.151 42.5163 144.974 41.9533 145.046 41.4029C145.125 40.8537 145.495 40.335 146.157 39.8468L150.454 36.6754L149.617 35.6215L150.184 35.203C150.274 35.3425 150.384 35.5062 150.516 35.6941C150.648 35.882 150.795 36.0855 150.957 36.3046C151.259 36.0752 151.521 35.8685 151.743 35.6845C151.973 35.5015 152.168 35.3381 152.327 35.1941C152.494 35.0512 152.629 34.9247 152.733 34.8145C152.838 34.7042 152.923 34.6083 152.989 34.5266L153.015 34.5076L154.113 35.996L154.087 36.015C153.986 36.0495 153.868 36.1003 153.732 36.1676C153.596 36.2349 153.436 36.3233 153.251 36.4329C153.07 36.5468 152.856 36.6845 152.61 36.846C152.372 37.0085 152.097 37.2018 151.784 37.4257C151.988 37.6932 152.187 37.9542 152.382 38.2088C152.584 38.4644 152.767 38.6944 152.931 38.8985C153.102 39.1038 153.246 39.2763 153.362 39.416C153.486 39.5568 153.57 39.6477 153.613 39.6886L152.87 40.0576C152.713 39.8354 152.55 39.6008 152.381 39.3539C152.237 39.1414 152.07 38.9004 151.877 38.6309C151.685 38.3614 151.487 38.0833 151.282 37.7966L146.849 41.0678C146.582 41.2643 146.386 41.4523 146.26 41.6318C146.141 41.8124 146.067 41.9827 146.039 42.1426C146.015 42.3068 146.028 42.4596 146.079 42.601C146.133 42.7466 146.207 42.8817 146.299 43.0063Z" fill="#481E0B"/>
<path d="M154.864 40.7414C155.246 40.4968 155.574 40.277 155.849 40.0822C156.131 39.889 156.37 39.7172 156.565 39.5668C156.763 39.4209 156.923 39.2898 157.045 39.1736C157.17 39.0619 157.271 38.9624 157.349 38.8749L157.375 38.8577L158.373 40.4156L158.346 40.4328C158.234 40.4663 158.101 40.5164 157.948 40.5832C157.794 40.6499 157.608 40.7405 157.39 40.8549C157.171 40.9693 156.915 41.1142 156.622 41.2894C156.333 41.4617 155.997 41.6702 155.615 41.9149L150.806 44.9934C150.424 45.238 150.092 45.457 149.81 45.6502C149.533 45.8405 149.296 46.0109 149.101 46.1613C148.906 46.3117 148.746 46.4427 148.621 46.5544C148.496 46.6661 148.395 46.7657 148.317 46.8531L148.29 46.8704L147.293 45.3125L147.32 45.2952C147.432 45.2618 147.564 45.2116 147.718 45.1449C147.875 45.0826 148.061 44.9921 148.276 44.8731C148.495 44.7587 148.748 44.6153 149.037 44.443C149.334 44.2723 149.673 44.0646 150.055 43.8199L154.864 40.7414Z" fill="#481E0B"/>
<path d="M150.96 51.3184L155.15 45.9882C155.312 45.7904 155.462 45.5904 155.598 45.3882C155.738 45.1835 155.86 44.9946 155.963 44.8214C156.069 44.653 156.153 44.5075 156.216 44.385C156.283 44.26 156.325 44.1783 156.342 44.1399L156.37 44.1252L157.331 45.9902L157.303 46.0049C157.274 46.0076 157.235 46.0188 157.185 46.0385C157.135 46.0583 157.091 46.0779 157.053 46.0975C156.906 46.1733 156.753 46.279 156.595 46.4146C156.444 46.5526 156.267 46.7517 156.065 47.0121L152.807 51.1777L157.945 50.7998C158.16 50.7852 158.391 50.7621 158.639 50.7304C158.889 50.7035 159.121 50.635 159.335 50.5249C159.397 50.4931 159.444 50.4627 159.477 50.4337C159.515 50.4022 159.538 50.378 159.548 50.3612L159.576 50.3465L160.237 51.6278L160.208 51.6424C160.074 51.6035 159.856 51.5775 159.555 51.5644C159.262 51.5537 158.904 51.5641 158.481 51.5955L148.645 52.3674C148.431 52.382 148.198 52.4027 147.948 52.4297C147.7 52.4614 147.469 52.5322 147.255 52.6423C147.194 52.6741 147.146 52.7045 147.113 52.7335C147.075 52.765 147.052 52.7892 147.043 52.806L147.014 52.8207L146.328 51.4896L146.357 51.4749C146.493 51.5186 146.708 51.5459 147.002 51.5566C147.294 51.5745 147.648 51.569 148.066 51.54L150.96 51.3184Z" fill="#481E0B"/>
<path d="M157.678 60.849C158.083 60.7326 158.459 60.7137 158.803 60.7924C159.15 60.8762 159.468 61.0265 159.758 61.2431C160.048 61.4598 160.308 61.7267 160.538 62.0439C160.773 62.3596 160.981 62.697 161.162 63.0561C161.348 63.4137 161.506 63.7735 161.638 64.1356C161.775 64.4962 161.89 64.8297 161.984 65.1361L162.376 65.0233C162.715 64.926 162.995 64.7984 163.216 64.6404C163.437 64.4825 163.605 64.3011 163.718 64.0963C163.837 63.8901 163.902 63.6631 163.914 63.4152C163.933 63.171 163.904 62.9155 163.827 62.6486C163.774 62.4639 163.706 62.2862 163.624 62.1154C163.542 61.9447 163.437 61.7722 163.309 61.5978C163.182 61.4286 163.027 61.2539 162.842 61.0738C162.658 60.8988 162.436 60.7154 162.175 60.5237L162.199 60.4334L163.435 60.6451C163.561 60.7923 163.67 60.9414 163.763 61.0923C163.862 61.2417 163.951 61.3967 164.03 61.5572C164.11 61.7177 164.18 61.8837 164.24 62.0552C164.307 62.2303 164.368 62.4154 164.424 62.6104C164.579 63.1492 164.644 63.6276 164.62 64.0456C164.602 64.4672 164.513 64.8318 164.351 65.1393C164.196 65.4505 163.981 65.7067 163.705 65.908C163.435 66.1078 163.125 66.2579 162.777 66.3581L160.267 67.0788C159.831 67.2041 159.45 67.319 159.125 67.4236C158.806 67.5318 158.531 67.6276 158.299 67.7108C158.069 67.7991 157.878 67.8789 157.727 67.9502C157.576 68.0267 157.452 68.0958 157.353 68.1576L157.322 68.1664L156.834 66.4655L156.864 66.4566C156.954 66.4587 157.051 66.4501 157.157 66.4309C157.264 66.4168 157.391 66.3943 157.537 66.3633C157.414 66.2821 157.282 66.181 157.142 66.0602C157.003 65.9446 156.866 65.8036 156.729 65.6373C156.599 65.4747 156.478 65.2846 156.365 65.067C156.249 64.856 156.152 64.6145 156.074 64.3425C155.817 63.4497 155.827 62.6999 156.103 62.0931C156.383 61.4848 156.908 61.0701 157.678 60.849ZM161.384 65.3085C161.244 64.843 161.087 64.4022 160.912 63.9859C160.742 63.5682 160.532 63.2146 160.282 62.9253C160.034 62.6412 159.738 62.4403 159.393 62.3227C159.055 62.2088 158.649 62.2196 158.177 62.3552C157.572 62.5291 157.154 62.8132 156.922 63.2073C156.691 63.6014 156.652 64.0652 156.806 64.5989C156.876 64.8452 156.974 65.0588 157.098 65.2397C157.229 65.4243 157.368 65.5789 157.514 65.7033C157.668 65.8314 157.822 65.9317 157.976 66.0041C158.135 66.075 158.282 66.1217 158.416 66.1442C158.614 66.0985 158.831 66.0417 159.067 65.9739C159.308 65.9047 159.58 65.8265 159.883 65.7396L161.384 65.3085Z" fill="#481E0B"/>
<path d="M165.092 73.8934L165.059 73.785C165.174 73.7294 165.294 73.6487 165.418 73.5432C165.543 73.4429 165.654 73.3178 165.749 73.168C165.846 73.0235 165.917 72.8532 165.962 72.6571C166.014 72.4655 166.021 72.251 165.985 72.0136C165.959 71.85 165.912 71.698 165.841 71.5576C165.772 71.4225 165.681 71.3069 165.569 71.2107C165.463 71.119 165.337 71.0521 165.19 71.0099C165.043 70.9678 164.877 70.961 164.692 70.9894C164.434 71.0293 164.198 71.1467 163.985 71.3416C163.778 71.541 163.577 71.7799 163.382 72.0585C163.193 72.3362 163.004 72.6327 162.815 72.9482C162.627 73.2689 162.425 73.5701 162.209 73.8519C161.993 74.1337 161.752 74.3761 161.486 74.5791C161.227 74.7867 160.931 74.916 160.598 74.9673C160.329 75.0088 160.058 75.002 159.785 74.9469C159.517 74.891 159.267 74.7783 159.036 74.6087C158.805 74.4445 158.603 74.2164 158.428 73.9247C158.259 73.6374 158.142 73.28 158.076 72.8527C158.037 72.5994 158.024 72.3583 158.038 72.1294C158.052 71.9058 158.079 71.6963 158.119 71.5011C158.165 71.3103 158.219 71.1345 158.281 70.9738C158.348 70.8175 158.413 70.6778 158.475 70.5548L159.991 70.402L160.011 70.5286C159.771 70.6196 159.556 70.7338 159.367 70.871C159.177 71.0083 159.02 71.1648 158.896 71.3406C158.778 71.5209 158.693 71.7178 158.639 71.9313C158.591 72.144 158.585 72.3691 158.622 72.6065C158.682 72.9969 158.838 73.2889 159.089 73.4824C159.341 73.6812 159.641 73.7537 159.99 73.7C160.269 73.6569 160.513 73.5382 160.721 73.3441C160.934 73.1545 161.131 72.9243 161.311 72.6535C161.491 72.3827 161.667 72.0934 161.841 71.7857C162.016 71.4833 162.207 71.1946 162.413 70.9197C162.624 70.6441 162.863 70.4047 163.128 70.2017C163.4 70.0031 163.724 69.8749 164.098 69.8171C164.404 69.7699 164.692 69.7821 164.963 69.8539C165.239 69.9301 165.482 70.0546 165.693 70.2274C165.909 70.4047 166.089 70.6254 166.232 70.8896C166.376 71.1538 166.473 71.452 166.524 71.7844C166.592 72.2224 166.601 72.5937 166.55 72.8986C166.506 73.2079 166.454 73.4455 166.393 73.6116L165.092 73.8934Z" fill="#481E0B"/>
<path d="M168.062 79.9407C168.515 79.9264 168.91 79.906 169.245 79.8793C169.587 79.8579 169.88 79.8326 170.124 79.8035C170.369 79.7798 170.574 79.7493 170.738 79.7121C170.903 79.6802 171.041 79.6464 171.152 79.6109L171.184 79.6099L171.242 81.4587L171.21 81.4598C171.097 81.4313 170.957 81.4063 170.791 81.3849C170.625 81.3634 170.419 81.3459 170.173 81.3323C169.927 81.3187 169.633 81.3119 169.291 81.312C168.954 81.312 168.559 81.3191 168.106 81.3334L164.12 81.4592L166.547 84.0024C166.962 84.4487 167.303 84.6676 167.57 84.6592L167.628 86.5161L167.596 86.5171C167.549 86.3797 167.489 86.2481 167.416 86.1222C167.348 86.0015 167.266 85.8786 167.172 85.7534C167.077 85.6335 166.969 85.5061 166.847 85.371C166.731 85.2412 166.598 85.0985 166.449 84.9429L164.238 82.6653L160.538 86.0028C160.423 86.1025 160.306 86.2104 160.187 86.3263C160.073 86.4421 159.968 86.5576 159.87 86.6728C159.772 86.7881 159.687 86.9002 159.616 87.0093C159.545 87.1184 159.5 87.2186 159.481 87.31L159.449 87.311L159.376 84.9899C159.515 84.9855 159.658 84.9436 159.805 84.8642C159.952 84.7901 160.137 84.6561 160.361 84.4621L163.696 81.4726L162.399 81.5135C161.945 81.5278 161.548 81.5457 161.207 81.5672C160.871 81.5885 160.581 81.6136 160.336 81.6427C160.091 81.6718 159.886 81.7023 159.722 81.7342C159.557 81.7661 159.42 81.7998 159.308 81.8354L159.276 81.8364L159.218 79.9875L159.25 79.9865C159.363 80.015 159.503 80.04 159.669 80.0614C159.836 80.0882 160.042 80.1057 160.288 80.114C160.534 80.1276 160.825 80.1344 161.162 80.1345C161.504 80.1397 161.901 80.1352 162.355 80.1209L168.062 79.9407Z" fill="#481E0B"/>
<path d="M158.868 92.8472C158.925 92.2573 159.071 91.7137 159.307 91.2163C159.543 90.7189 159.858 90.2962 160.251 89.9481C160.649 89.6005 161.122 89.3406 161.67 89.1684C162.222 89.002 162.838 88.9517 163.519 89.0176C164.119 89.0758 164.665 89.2305 165.155 89.4819C165.651 89.7337 166.07 90.0559 166.413 90.4485C166.756 90.841 167.011 91.2841 167.177 91.7776C167.344 92.2764 167.4 92.8021 167.346 93.3548C167.293 93.9021 167.149 94.4002 166.912 94.8493C166.681 95.2989 166.368 95.6762 165.974 95.9813C165.584 96.2922 165.114 96.5202 164.564 96.6654C164.018 96.8163 163.407 96.8671 162.731 96.8176C162.8 96.2182 162.866 95.6186 162.929 95.0186C162.993 94.4187 163.056 93.7946 163.119 93.1463C163.163 92.684 163.205 92.2321 163.242 91.7906C163.279 91.3543 163.309 90.9604 163.332 90.6086C162.777 90.587 162.269 90.6236 161.809 90.7185C161.349 90.8188 160.948 90.9756 160.605 91.1892C160.267 91.4086 159.996 91.6854 159.792 92.0196C159.588 92.3591 159.464 92.7521 159.421 93.1984C159.391 93.5066 159.397 93.7996 159.44 94.0772C159.488 94.3608 159.565 94.6203 159.671 94.8558C159.776 95.0913 159.906 95.305 160.059 95.4968C160.217 95.6892 160.392 95.8562 160.582 95.998L160.525 96.089L159.163 95.3618C159.042 95.0604 158.948 94.7053 158.88 94.2965C158.818 93.8882 158.814 93.4051 158.868 92.8472ZM163.832 92.2581C163.781 92.7894 163.729 93.3208 163.678 93.8522C163.631 94.3894 163.595 94.8766 163.568 95.3139C164.035 95.3108 164.459 95.2606 164.838 95.1633C165.218 95.066 165.545 94.9261 165.82 94.7435C166.095 94.561 166.315 94.3356 166.481 94.0674C166.646 93.7991 166.746 93.495 166.778 93.1549C166.808 92.8467 166.767 92.5558 166.654 92.282C166.546 92.0141 166.373 91.7721 166.137 91.5561C165.9 91.3401 165.602 91.1556 165.241 91.0027C164.886 90.8503 164.473 90.7406 164.002 90.6735C163.968 90.9116 163.938 91.1635 163.913 91.4291C163.887 91.6948 163.86 91.9711 163.832 92.2581Z" fill="#481E0B"/>
<path d="M165.499 104.588C165.449 104.8 165.38 105.009 165.292 105.213C165.205 105.417 165.104 105.613 164.988 105.799C164.872 105.985 164.743 106.158 164.601 106.316C164.459 106.474 164.308 106.611 164.149 106.726L165.426 107.032C165.867 107.137 166.253 107.224 166.582 107.292C166.917 107.361 167.206 107.413 167.45 107.45C167.694 107.486 167.899 107.51 168.067 107.523C168.234 107.535 168.376 107.539 168.492 107.534L168.523 107.541L168.093 109.34L168.062 109.333C167.961 109.276 167.833 109.212 167.679 109.143C167.525 109.078 167.33 109.007 167.097 108.929C166.861 108.857 166.58 108.773 166.251 108.678C165.926 108.589 165.543 108.492 165.102 108.387L159.549 107.06C159.107 106.954 158.719 106.867 158.385 106.798C158.054 106.735 157.767 106.683 157.524 106.642C157.281 106.606 157.075 106.581 156.908 106.569C156.74 106.561 156.597 106.56 156.481 106.565L156.449 106.558L156.861 104.837L156.892 104.844C156.93 104.87 156.986 104.897 157.062 104.926C157.142 104.956 157.241 104.993 157.356 105.037C157.253 104.733 157.182 104.365 157.143 103.932C157.103 103.5 157.147 103.02 157.273 102.49C157.421 101.872 157.651 101.334 157.964 100.877C158.276 100.419 158.654 100.054 159.098 99.7809C159.541 99.5135 160.04 99.3445 160.594 99.2739C161.154 99.2047 161.754 99.2463 162.392 99.399C162.979 99.5392 163.497 99.7727 163.946 100.1C164.4 100.428 164.766 100.823 165.046 101.285C165.325 101.746 165.507 102.259 165.592 102.823C165.677 103.387 165.646 103.975 165.499 104.588ZM162.778 106.399C163.373 106.321 163.846 106.119 164.199 105.792C164.55 105.469 164.784 105.067 164.899 104.584C164.996 104.179 165.013 103.788 164.949 103.41C164.891 103.034 164.756 102.692 164.544 102.383C164.333 102.075 164.046 101.803 163.685 101.569C163.328 101.341 162.9 101.167 162.402 101.048C161.841 100.914 161.304 100.851 160.791 100.861C160.279 100.87 159.815 100.951 159.399 101.104C158.988 101.264 158.638 101.499 158.35 101.809C158.067 102.12 157.87 102.509 157.758 102.976C157.7 103.22 157.674 103.456 157.68 103.682C157.686 103.909 157.713 104.121 157.759 104.318C157.805 104.516 157.864 104.695 157.935 104.855C158.012 105.016 158.092 105.153 158.174 105.266C158.395 105.33 158.648 105.398 158.932 105.472C159.216 105.545 159.53 105.623 159.873 105.705L162.778 106.399Z" fill="#481E0B"/>
<path d="M151.622 118.874C151.646 118.725 151.675 118.57 151.709 118.41C151.744 118.249 151.789 118.087 151.843 117.923C151.889 117.762 151.943 117.605 152.005 117.451C152.061 117.294 152.12 117.151 152.182 117.021C152.459 116.437 152.799 115.937 153.204 115.52C153.611 115.11 154.064 114.802 154.563 114.596C155.061 114.395 155.596 114.306 156.17 114.33C156.743 114.354 157.336 114.511 157.949 114.801C158.494 115.06 158.949 115.402 159.314 115.829C159.681 116.263 159.948 116.747 160.114 117.281C160.278 117.82 160.337 118.388 160.29 118.986C160.242 119.584 160.078 120.18 159.797 120.773C159.676 121.029 159.531 121.291 159.362 121.559C159.191 121.833 159.021 122.074 158.851 122.283C158.69 122.485 158.521 122.691 158.344 122.903C158.172 123.116 157.994 123.31 157.812 123.483C157.749 123.43 157.634 123.354 157.467 123.258C157.303 123.168 157.124 123.071 156.931 122.968C156.737 122.864 156.546 122.765 156.355 122.668C156.169 122.574 156.018 122.5 155.902 122.445L150.02 119.656C149.61 119.461 149.251 119.297 148.942 119.163C148.626 119.031 148.354 118.919 148.126 118.829C147.894 118.743 147.698 118.676 147.537 118.63C147.374 118.588 147.235 118.557 147.12 118.538L147.091 118.524L147.884 116.853L147.913 116.867C148 116.943 148.113 117.029 148.251 117.124C148.389 117.22 148.565 117.329 148.777 117.454C148.99 117.578 149.249 117.719 149.553 117.875C149.852 118.028 150.207 118.202 150.617 118.397L151.622 118.874ZM156.384 121.131C156.784 121.321 157.114 121.472 157.375 121.583C157.632 121.7 157.847 121.789 158.018 121.853C158.289 121.68 158.541 121.466 158.774 121.21C159.008 120.954 159.2 120.667 159.351 120.349C159.529 119.973 159.624 119.598 159.636 119.225C159.652 118.855 159.587 118.499 159.441 118.159C159.296 117.818 159.069 117.498 158.762 117.198C158.458 116.906 158.074 116.65 157.611 116.431C157.09 116.184 156.577 116.012 156.074 115.915C155.568 115.823 155.094 115.814 154.651 115.887C154.211 115.968 153.814 116.14 153.459 116.403C153.106 116.673 152.816 117.047 152.59 117.524C152.467 117.785 152.382 118.058 152.335 118.343C152.291 118.635 152.287 118.923 152.324 119.206L156.384 121.131Z" fill="#481E0B"/>
<path d="M150.906 125.604C150.317 125.217 149.808 125.048 149.379 125.098C148.947 125.153 148.601 125.378 148.34 125.775C148.246 125.918 148.169 126.097 148.109 126.314C148.055 126.533 148.014 126.769 147.989 127.021C147.966 127.28 147.959 127.548 147.97 127.823C147.977 128.103 148.004 128.373 148.05 128.633C148.173 128.727 148.306 128.821 148.449 128.915C148.596 129.012 148.752 129.115 148.917 129.223L150.536 130.289C150.915 130.538 151.25 130.749 151.539 130.92C151.831 131.099 152.085 131.247 152.302 131.364C152.515 131.486 152.7 131.579 152.856 131.643C153.009 131.712 153.141 131.763 153.252 131.798L153.279 131.816L152.262 133.361L152.235 133.343C152.159 133.255 152.06 133.154 151.936 133.041C151.813 132.928 151.654 132.795 151.461 132.642C151.267 132.489 151.031 132.314 150.751 132.117C150.476 131.924 150.149 131.702 149.77 131.452L148.151 130.387C147.772 130.138 147.437 129.923 147.146 129.744C146.859 129.568 146.607 129.422 146.39 129.305C146.173 129.188 145.989 129.095 145.836 129.026C145.683 128.957 145.551 128.905 145.439 128.871L145.413 128.853L146.43 127.308L146.456 127.325C146.55 127.426 146.675 127.546 146.832 127.687C146.985 127.833 147.198 128.005 147.47 128.203C147.434 127.918 147.411 127.618 147.4 127.304C147.387 126.995 147.396 126.685 147.428 126.374C147.457 126.067 147.514 125.772 147.598 125.489C147.675 125.207 147.788 124.952 147.938 124.725C148.167 124.377 148.422 124.12 148.704 123.954C148.983 123.792 149.272 123.698 149.571 123.671C149.867 123.649 150.163 123.684 150.46 123.777C150.754 123.874 151.032 124.01 151.295 124.183L153.569 125.68C153.948 125.929 154.281 126.142 154.568 126.318C154.859 126.497 155.114 126.645 155.33 126.762C155.547 126.879 155.732 126.972 155.885 127.041C156.038 127.11 156.17 127.161 156.281 127.196L156.308 127.214L155.291 128.759L155.264 128.741C155.188 128.653 155.089 128.552 154.965 128.439C154.841 128.326 154.683 128.193 154.49 128.04C154.296 127.887 154.06 127.712 153.78 127.515C153.505 127.321 153.178 127.1 152.799 126.85L150.906 125.604Z" fill="#481E0B"/>
<path d="M141.151 133.832C141.54 133.386 141.976 133.029 142.457 132.761C142.938 132.494 143.44 132.333 143.962 132.279C144.488 132.228 145.024 132.292 145.57 132.47C146.116 132.656 146.647 132.974 147.162 133.423C147.616 133.82 147.97 134.263 148.223 134.753C148.479 135.246 148.633 135.752 148.683 136.271C148.734 136.79 148.683 137.298 148.532 137.797C148.377 138.299 148.117 138.759 147.752 139.178C147.39 139.592 146.983 139.913 146.529 140.141C146.079 140.372 145.605 140.497 145.107 140.515C144.61 140.542 144.095 140.454 143.563 140.252C143.031 140.057 142.504 139.743 141.983 139.309C142.388 138.862 142.79 138.412 143.191 137.961C143.592 137.51 144.006 137.039 144.434 136.549C144.74 136.199 145.036 135.855 145.323 135.518C145.607 135.184 145.861 134.881 146.084 134.609C145.645 134.268 145.211 134.002 144.782 133.812C144.349 133.626 143.931 133.52 143.528 133.494C143.126 133.476 142.745 133.544 142.384 133.697C142.021 133.854 141.691 134.102 141.396 134.44C141.193 134.673 141.028 134.915 140.901 135.166C140.775 135.424 140.686 135.68 140.635 135.933C140.584 136.186 140.565 136.435 140.578 136.681C140.595 136.929 140.64 137.166 140.712 137.392L140.613 137.433L139.928 136.049C140.005 135.734 140.135 135.39 140.318 135.018C140.505 134.65 140.782 134.255 141.151 133.832ZM145.532 136.241C145.181 136.644 144.83 137.046 144.479 137.448C144.128 137.858 143.815 138.233 143.539 138.573C143.921 138.842 144.294 139.048 144.659 139.189C145.025 139.331 145.372 139.408 145.702 139.419C146.032 139.431 146.343 139.376 146.633 139.254C146.924 139.132 147.181 138.942 147.406 138.685C147.61 138.451 147.745 138.191 147.813 137.902C147.88 137.621 147.881 137.324 147.814 137.011C147.748 136.698 147.612 136.374 147.408 136.04C147.207 135.709 146.935 135.38 146.591 135.051C146.425 135.225 146.255 135.413 146.079 135.614C145.904 135.815 145.721 136.024 145.532 136.241Z" fill="#481E0B"/>
<path d="M138.638 145.859L138.711 145.773C138.82 145.84 138.953 145.897 139.109 145.944C139.261 145.995 139.426 146.02 139.604 146.019C139.777 146.022 139.959 145.989 140.148 145.921C140.337 145.861 140.522 145.751 140.701 145.591C140.825 145.482 140.927 145.359 141.007 145.224C141.083 145.092 141.131 144.953 141.151 144.807C141.171 144.668 141.158 144.526 141.114 144.379C141.07 144.233 140.986 144.09 140.862 143.95C140.688 143.755 140.462 143.62 140.183 143.547C139.903 143.481 139.593 143.441 139.254 143.429C138.918 143.42 138.566 143.422 138.198 143.434C137.827 143.449 137.464 143.443 137.11 143.414C136.757 143.385 136.422 143.314 136.108 143.201C135.793 143.095 135.523 142.917 135.3 142.665C135.119 142.461 134.978 142.23 134.876 141.97C134.778 141.715 134.738 141.444 134.755 141.158C134.768 140.875 134.85 140.581 135 140.276C135.151 139.979 135.387 139.686 135.711 139.399C135.902 139.229 136.098 139.088 136.298 138.975C136.493 138.866 136.684 138.775 136.87 138.703C137.055 138.638 137.232 138.588 137.401 138.553C137.569 138.525 137.721 138.504 137.858 138.49L138.808 139.681L138.712 139.766C138.506 139.614 138.294 139.495 138.076 139.41C137.858 139.325 137.641 139.278 137.426 139.269C137.211 139.268 136.999 139.302 136.79 139.373C136.585 139.448 136.393 139.565 136.213 139.724C135.918 139.987 135.757 140.276 135.73 140.592C135.7 140.911 135.802 141.203 136.035 141.467C136.223 141.678 136.455 141.819 136.731 141.888C137.006 141.965 137.306 142.006 137.631 142.01C137.956 142.014 138.295 142.006 138.648 141.986C138.997 141.969 139.342 141.972 139.685 141.997C140.031 142.025 140.362 142.096 140.677 142.209C140.991 142.33 141.274 142.532 141.525 142.816C141.731 143.047 141.877 143.296 141.963 143.562C142.048 143.836 142.076 144.108 142.044 144.378C142.013 144.656 141.925 144.927 141.78 145.191C141.636 145.454 141.438 145.698 141.186 145.921C140.855 146.215 140.548 146.424 140.264 146.547C139.98 146.677 139.752 146.762 139.58 146.801L138.638 145.859Z" fill="#481E0B"/>
<path d="M128.099 146.36C127.97 146.454 127.859 146.57 127.768 146.708C127.673 146.85 127.597 147.004 127.54 147.171C127.478 147.341 127.431 147.517 127.398 147.699C127.364 147.888 127.342 148.076 127.332 148.261L127.243 148.276L126.908 146.927C126.941 146.863 126.982 146.784 127.032 146.688C127.08 146.601 127.148 146.502 127.234 146.394C127.312 146.284 127.415 146.167 127.542 146.042C127.666 145.912 127.825 145.777 128.02 145.636C128.599 145.216 129.163 145.044 129.713 145.121C130.262 145.204 130.777 145.579 131.26 146.245L134.395 150.569L135.456 149.741L135.869 150.311C135.729 150.4 135.564 150.509 135.375 150.64C135.186 150.77 134.982 150.915 134.761 151.075C134.988 151.379 135.193 151.643 135.375 151.867C135.556 152.098 135.717 152.294 135.86 152.454C136.002 152.622 136.127 152.759 136.236 152.864C136.346 152.969 136.441 153.055 136.522 153.122L136.541 153.148L135.043 154.233L135.024 154.207C134.991 154.107 134.941 153.988 134.875 153.851C134.809 153.714 134.722 153.553 134.613 153.368C134.501 153.186 134.365 152.971 134.206 152.724C134.045 152.484 133.854 152.207 133.633 151.893C133.364 152.094 133.101 152.291 132.845 152.484C132.588 152.684 132.356 152.864 132.151 153.027C131.944 153.196 131.77 153.339 131.63 153.454C131.488 153.576 131.396 153.659 131.355 153.702L130.992 152.957C131.216 152.801 131.452 152.64 131.7 152.473C131.914 152.331 132.156 152.166 132.427 151.976C132.698 151.786 132.978 151.589 133.267 151.387L130.033 146.926C129.839 146.658 129.652 146.46 129.474 146.333C129.295 146.212 129.125 146.137 128.965 146.108C128.801 146.082 128.648 146.094 128.506 146.144C128.36 146.197 128.225 146.269 128.099 146.36Z" fill="#481E0B"/>
<path d="M128.291 151.746C128.532 152.13 128.75 152.46 128.942 152.736C129.133 153.02 129.303 153.26 129.452 153.456C129.596 153.656 129.726 153.817 129.841 153.94C129.952 154.066 130.051 154.168 130.138 154.245L130.155 154.273L128.589 155.258L128.572 155.23C128.539 155.119 128.49 154.985 128.425 154.831C128.359 154.677 128.27 154.49 128.157 154.271C128.045 154.052 127.902 153.795 127.729 153.5C127.559 153.209 127.353 152.872 127.111 152.488L126.079 150.848C125.838 150.464 125.622 150.13 125.431 149.846C125.242 149.567 125.074 149.33 124.925 149.133C124.776 148.937 124.646 148.776 124.536 148.65C124.425 148.524 124.326 148.422 124.239 148.344L124.222 148.317L125.788 147.332L125.805 147.359C125.838 147.471 125.887 147.604 125.952 147.758C126.013 147.916 126.102 148.102 126.22 148.319C126.332 148.538 126.474 148.793 126.644 149.083C126.812 149.381 127.017 149.722 127.259 150.106L128.291 151.746ZM131.393 156.36C131.455 156.46 131.495 156.564 131.513 156.672C131.529 156.788 131.526 156.898 131.502 157.001C131.482 157.109 131.44 157.207 131.377 157.298C131.312 157.395 131.228 157.477 131.124 157.542C131.02 157.607 130.912 157.647 130.801 157.66C130.687 157.681 130.578 157.677 130.472 157.649C130.364 157.628 130.264 157.584 130.171 157.517C130.076 157.456 129.998 157.377 129.935 157.277C129.805 157.069 129.765 156.851 129.817 156.623C129.869 156.395 129.999 156.215 130.207 156.085C130.311 156.019 130.419 155.976 130.532 155.956C130.644 155.942 130.751 155.947 130.854 155.971C130.96 155.999 131.06 156.043 131.155 156.103C131.248 156.171 131.327 156.256 131.393 156.36Z" fill="#481E0B"/>
<path d="M124.514 153.063C124.784 153.603 124.934 154.152 124.963 154.711C124.994 155.274 124.92 155.812 124.741 156.326C124.558 156.842 124.275 157.314 123.893 157.744C123.512 158.174 123.046 158.527 122.497 158.802C121.958 159.072 121.406 159.234 120.843 159.289C120.277 159.352 119.735 159.307 119.217 159.154C118.699 159.002 118.221 158.739 117.784 158.367C117.342 157.997 116.974 157.519 116.68 156.932C116.434 156.44 116.284 155.924 116.228 155.385C116.173 154.845 116.226 154.318 116.385 153.802C116.545 153.286 116.816 152.801 117.197 152.347C117.577 151.901 118.082 151.52 118.712 151.204C119.246 150.937 119.794 150.773 120.355 150.713C120.916 150.653 121.456 150.699 121.974 150.852C122.492 151.004 122.971 151.263 123.41 151.628C123.852 151.998 124.22 152.476 124.514 153.063ZM118.809 151.809C118.47 151.979 118.193 152.201 117.978 152.476C117.759 152.753 117.61 153.069 117.531 153.425C117.452 153.781 117.447 154.169 117.514 154.589C117.581 155.009 117.729 155.448 117.958 155.907C118.217 156.422 118.51 156.872 118.84 157.256C119.172 157.645 119.528 157.945 119.908 158.155C120.285 158.372 120.684 158.489 121.104 158.505C121.524 158.522 121.954 158.42 122.393 158.2C122.732 158.03 123.009 157.808 123.224 157.533C123.441 157.264 123.592 156.952 123.678 156.599C123.759 156.248 123.766 155.862 123.699 155.442C123.634 155.026 123.487 154.59 123.258 154.131C123 153.616 122.705 153.163 122.372 152.774C122.036 152.388 121.675 152.085 121.29 151.865C120.908 151.651 120.508 151.532 120.091 151.508C119.67 151.491 119.243 151.592 118.809 151.809Z" fill="#481E0B"/>
<path d="M109.401 160.934C109.626 161.602 109.926 162.047 110.3 162.27C110.674 162.493 111.086 162.528 111.536 162.376C111.698 162.322 111.868 162.225 112.047 162.086C112.227 161.951 112.403 161.79 112.576 161.602C112.751 161.419 112.919 161.216 113.08 160.992C113.241 160.769 113.387 160.54 113.516 160.304L113.195 159.305L112.575 157.47C112.429 157.04 112.297 156.665 112.177 156.344C112.06 156.029 111.951 155.759 111.853 155.533C111.754 155.307 111.665 155.12 111.587 154.972C111.509 154.823 111.436 154.701 111.37 154.605L111.36 154.575L113.112 153.983L113.123 154.013C113.128 154.13 113.145 154.271 113.172 154.436C113.195 154.603 113.238 154.805 113.302 155.043C113.36 155.283 113.438 155.563 113.535 155.885C113.63 156.214 113.749 156.594 113.895 157.023L114.515 158.859C114.66 159.289 114.794 159.661 114.917 159.974C115.037 160.295 115.146 160.568 115.245 160.794C115.338 161.021 115.427 161.208 115.51 161.355C115.589 161.503 115.661 161.625 115.727 161.721L115.737 161.751L113.985 162.344L113.975 162.313C113.972 162.173 113.951 162 113.909 161.794C113.864 161.595 113.802 161.335 113.721 161.013C113.572 161.255 113.407 161.502 113.228 161.754C113.043 162.008 112.844 162.244 112.631 162.463C112.419 162.687 112.192 162.884 111.952 163.056C111.713 163.232 111.464 163.364 111.206 163.451C110.812 163.585 110.455 163.629 110.136 163.585C109.811 163.542 109.526 163.439 109.279 163.274C109.026 163.112 108.814 162.899 108.64 162.636C108.464 162.381 108.326 162.106 108.227 161.813L107.355 159.233C107.21 158.803 107.078 158.428 106.958 158.108C106.84 157.793 106.732 157.522 106.633 157.296C106.534 157.071 106.446 156.884 106.367 156.735C106.289 156.587 106.217 156.465 106.151 156.369L106.14 156.339L107.893 155.746L107.903 155.777C107.909 155.893 107.925 156.034 107.953 156.2C107.976 156.367 108.019 156.569 108.082 156.807C108.14 157.046 108.218 157.327 108.316 157.649C108.41 157.978 108.53 158.357 108.675 158.787L109.401 160.934Z" fill="#481E0B"/>
<path d="M97.6918 167.282L95.6367 166.54L95.8875 165.941L97.877 166.796L97.5175 164.663L98.1683 164.576L98.395 166.743L100.086 165.377L100.486 165.888L98.7156 167.144L100.756 167.896L100.505 168.496L98.5134 167.624L98.8671 169.774L98.2163 169.862L97.9975 167.693L96.3067 169.06L95.9066 168.548L97.6918 167.282Z" fill="#481E0B"/>
<path d="M83.5399 162.174C83.5644 161.721 83.5805 161.323 83.5882 160.981C83.5903 160.645 83.59 160.353 83.5872 160.107C83.5791 159.861 83.5662 159.654 83.5485 159.488C83.5254 159.321 83.5009 159.18 83.4749 159.067L83.4766 159.035L85.3957 159.138L85.394 159.17C85.356 159.28 85.3192 159.417 85.2836 159.581C85.2427 159.745 85.205 159.949 85.1705 160.193C85.1359 160.437 85.1043 160.726 85.0755 161.062C85.0464 161.402 85.0197 161.799 84.9952 162.252L84.7145 167.458C84.6901 167.911 84.6742 168.306 84.6667 168.642C84.659 168.984 84.6592 169.278 84.6673 169.524C84.6751 169.776 84.6905 169.985 84.7136 170.152C84.7313 170.319 84.7532 170.459 84.7791 170.573L84.7774 170.605C84.335 170.581 83.8872 170.557 83.434 170.532C82.9806 170.513 82.5407 170.492 82.1142 170.469C81.6875 170.451 81.2821 170.435 80.898 170.42C80.5136 170.41 80.1666 170.399 79.8572 170.388C79.5474 170.382 79.2856 170.378 79.0718 170.377C78.8577 170.382 78.7049 170.39 78.6134 170.401L79.0626 169.358C79.2359 169.416 79.4389 169.469 79.6714 169.519C79.8723 169.562 80.1186 169.605 80.4103 169.647C80.6964 169.695 81.0288 169.729 81.4072 169.749C81.5352 169.756 81.6954 169.76 81.8879 169.759C82.0801 169.764 82.2698 169.766 82.4569 169.766C82.6707 169.767 82.8952 169.768 83.1303 169.77L83.3481 165.732C82.7987 165.708 82.2941 165.697 81.8342 165.699C81.3743 165.7 80.9784 165.706 80.6464 165.715C80.2609 165.726 79.9124 165.745 79.6009 165.771L79.9033 164.624C80.3005 164.694 80.7032 164.761 81.1114 164.826C81.4612 164.882 81.838 164.934 82.2417 164.983C82.6451 165.037 83.0254 165.073 83.3826 165.092L83.5399 162.174Z" fill="#481E0B"/>
<path d="M75.0772 163.399C75.005 163.847 74.95 164.238 74.9122 164.572C74.8684 164.911 74.8375 165.204 74.8194 165.45C74.7961 165.695 74.7871 165.901 74.7924 166.07C74.7924 166.238 74.7993 166.379 74.8131 166.495L74.808 166.527L72.9818 166.232L72.9869 166.201C73.0486 166.086 73.1093 165.945 73.1689 165.776C73.2233 165.606 73.2806 165.385 73.3406 165.114C73.1192 165.246 72.8904 165.374 72.6541 165.498C72.4177 165.622 72.1791 165.727 71.9382 165.812C71.6973 165.898 71.4576 165.959 71.2191 165.997C70.9753 166.033 70.7374 166.032 70.5055 165.995C70.3632 165.972 70.2406 165.944 70.1378 165.911C70.0341 165.884 69.9422 165.85 69.8621 165.81C69.7812 165.775 69.709 165.737 69.6456 165.694C69.5813 165.657 69.5197 165.62 69.4607 165.583L70.0916 164.136L70.2209 164.189C70.2467 164.431 70.3356 164.635 70.4874 164.8C70.6384 164.97 70.8641 165.08 71.1645 165.128C71.3279 165.154 71.5038 165.153 71.6924 165.124C71.8809 165.095 72.0759 165.042 72.2774 164.967C72.478 164.896 72.6816 164.808 72.8882 164.7C73.0939 164.598 73.2956 164.487 73.4933 164.368C73.5285 164.217 73.5605 164.052 73.5894 163.872C73.6183 163.693 73.6489 163.504 73.6812 163.303L74.0102 161.264C74.0825 160.816 74.1405 160.422 74.1844 160.083C74.2274 159.749 74.2579 159.46 74.2759 159.214C74.2939 158.968 74.3029 158.761 74.3029 158.594C74.3029 158.426 74.296 158.284 74.2823 158.168L74.2874 158.137L76.1136 158.431L76.1085 158.463C76.059 158.569 76.0079 158.701 75.9552 158.86C75.8972 159.018 75.8408 159.217 75.7859 159.457C75.7257 159.696 75.6636 159.981 75.5995 160.311C75.5293 160.646 75.458 161.037 75.3858 161.485L75.0772 163.399Z" fill="#481E0B"/>
<path d="M66.3702 156.267C66.9414 156.425 67.4517 156.662 67.9011 156.98C68.3505 157.298 68.7128 157.681 68.988 158.128C69.2618 158.58 69.4364 159.091 69.5118 159.66C69.5806 160.233 69.524 160.849 69.342 161.508C69.1814 162.089 68.9351 162.6 68.603 163.04C68.2696 163.485 67.88 163.842 67.4343 164.113C66.9886 164.383 66.5083 164.557 65.9935 164.637C65.4735 164.715 64.9459 164.68 64.4108 164.532C63.8808 164.385 63.4149 164.157 63.0133 163.846C62.6102 163.541 62.2924 163.168 62.0597 162.727C61.8205 162.29 61.6768 161.788 61.6285 161.221C61.5737 160.657 61.6289 160.047 61.794 159.389C62.3727 159.56 62.952 159.728 63.532 159.894C64.1121 160.06 64.716 160.229 65.3438 160.403C65.7915 160.527 66.2296 160.645 66.6581 160.758C67.0815 160.869 67.4644 160.967 67.8068 161.05C67.9238 160.506 67.9751 160 67.9608 159.531C67.9413 159.06 67.8558 158.638 67.7044 158.264C67.5464 157.893 67.3204 157.579 67.0262 157.32C66.727 157.06 66.3612 156.871 65.929 156.751C65.6305 156.669 65.3408 156.625 65.0599 156.619C64.7724 156.617 64.5036 156.648 64.2533 156.712C64.0031 156.776 63.7703 156.867 63.555 156.984C63.3383 157.107 63.1437 157.25 62.9714 157.413L62.8915 157.341L63.8423 156.125C64.16 156.058 64.526 156.026 64.9404 156.03C65.3533 156.038 65.8299 156.117 66.3702 156.267ZM66.096 161.259C65.5814 161.117 65.0668 160.974 64.5522 160.832C64.0311 160.694 63.5574 160.574 63.1312 160.473C63.0538 160.933 63.0304 161.359 63.061 161.749C63.0915 162.14 63.173 162.487 63.3054 162.789C63.4379 163.091 63.622 163.347 63.8578 163.556C64.0935 163.766 64.3761 163.916 64.7054 164.007C65.0038 164.089 65.2976 164.098 65.5867 164.034C65.8693 163.974 66.1373 163.846 66.3908 163.65C66.6443 163.454 66.8774 163.192 67.0901 162.863C67.3014 162.539 67.4806 162.151 67.6277 161.699C67.399 161.624 67.156 161.552 66.8987 161.481C66.6414 161.409 66.3738 161.336 66.096 161.259Z" fill="#481E0B"/>
<path d="M55.0063 152.42C55.1555 152.438 55.3111 152.462 55.4729 152.491C55.6347 152.52 55.7983 152.559 55.9635 152.607C56.126 152.649 56.2853 152.697 56.4415 152.753C56.5997 152.804 56.745 152.858 56.8772 152.915C57.4701 153.172 57.9817 153.495 58.4121 153.885C58.8356 154.278 59.1589 154.72 59.3822 155.212C59.6006 155.702 59.7077 156.234 59.7036 156.809C59.6995 157.383 59.5628 157.981 59.2935 158.603C59.0539 159.157 58.727 159.623 58.3128 160.002C57.8915 160.384 57.417 160.667 56.8892 160.852C56.3565 161.035 55.7906 161.112 55.1913 161.086C54.5921 161.059 53.9911 160.915 53.3885 160.655C53.1288 160.542 52.8619 160.406 52.5876 160.247C52.3085 160.086 52.0616 159.923 51.847 159.761C51.6401 159.607 51.4279 159.446 51.2105 159.276C50.9909 159.111 50.7914 158.94 50.6119 158.764C50.6633 158.699 50.7345 158.581 50.8255 158.411C50.9095 158.244 50.9999 158.062 51.0966 157.865C51.1933 157.669 51.2866 157.474 51.3763 157.28C51.4639 157.091 51.5331 156.937 51.584 156.82L54.1696 150.845C54.3498 150.429 54.5018 150.064 54.6256 149.751C54.7466 149.431 54.8485 149.155 54.9314 148.923C55.0093 148.69 55.0689 148.491 55.1101 148.329C55.1464 148.164 55.1722 148.024 55.1873 147.909L55.2 147.879L56.8977 148.614L56.8849 148.643C56.811 148.733 56.729 148.849 56.6387 148.99C56.5485 149.132 56.4448 149.311 56.3277 149.528C56.2106 149.745 56.0793 150.008 55.9338 150.317C55.7904 150.621 55.6286 150.982 55.4484 151.398L55.0063 152.42ZM52.9136 157.256C52.7376 157.662 52.5984 157.998 52.4958 158.262C52.3883 158.523 52.3059 158.741 52.2485 158.914C52.4305 159.179 52.6533 159.423 52.9168 159.648C53.1802 159.872 53.4737 160.055 53.797 160.195C54.1792 160.36 54.5567 160.442 54.9297 160.44C55.3005 160.444 55.6537 160.367 55.9893 160.21C56.3249 160.052 56.637 159.815 56.9255 159.498C57.207 159.183 57.4496 158.791 57.6531 158.321C57.8821 157.792 58.0364 157.274 58.116 156.767C58.1907 156.259 58.1836 155.784 58.0947 155.344C57.9988 154.907 57.8134 154.516 57.5384 154.17C57.2564 153.827 56.8729 153.551 56.3879 153.341C56.1233 153.226 55.8477 153.151 55.5611 153.114C55.2675 153.08 54.9798 153.086 54.6978 153.133L52.9136 157.256Z" fill="#481E0B"/>
<path d="M48.2353 151.923C48.6026 151.321 48.754 150.807 48.6896 150.38C48.6207 149.95 48.3835 149.611 47.978 149.364C47.8322 149.274 47.6501 149.204 47.4317 149.152C47.2105 149.104 46.9736 149.072 46.721 149.056C46.4611 149.041 46.1937 149.043 45.9189 149.063C45.6395 149.08 45.3705 149.116 45.1119 149.171C45.0221 149.297 44.9327 149.433 44.8436 149.579C44.7518 149.73 44.6544 149.889 44.5515 150.058L43.5414 151.712C43.3049 152.099 43.1058 152.44 42.9442 152.736C42.7752 153.033 42.6359 153.292 42.5261 153.512C42.4118 153.73 42.3252 153.918 42.2662 154.076C42.2028 154.231 42.1555 154.365 42.1244 154.477L42.1077 154.505L40.529 153.541L40.5457 153.513C40.6315 153.434 40.7289 153.331 40.8379 153.204C40.9469 153.076 41.0746 152.914 41.2208 152.715C41.367 152.517 41.5337 152.274 41.7209 151.988C41.9053 151.707 42.1158 151.373 42.3523 150.985L43.3623 149.331C43.5988 148.944 43.8016 148.602 43.9705 148.305C44.1367 148.012 44.2747 147.756 44.3845 147.535C44.4942 147.314 44.5809 147.126 44.6443 146.971C44.7078 146.816 44.7551 146.682 44.7862 146.57L44.8029 146.542L46.3816 147.507L46.3649 147.534C46.268 147.631 46.1516 147.76 46.0157 147.921C45.8753 148.079 45.7106 148.298 45.5217 148.577C45.8059 148.531 46.1046 148.498 46.4179 148.476C46.7266 148.452 47.037 148.451 47.3491 148.473C47.6566 148.492 47.9533 148.538 48.2393 148.613C48.5235 148.68 48.7818 148.785 49.0142 148.927C49.3695 149.144 49.635 149.39 49.8104 149.666C49.9813 149.94 50.0853 150.225 50.1223 150.523C50.1548 150.818 50.1296 151.115 50.0467 151.415C49.9592 151.712 49.8334 151.995 49.6692 152.264L48.2501 154.587C48.0136 154.974 47.8123 155.314 47.6461 155.607C47.4771 155.904 47.3378 156.163 47.228 156.384C47.1182 156.605 47.0316 156.792 46.9681 156.948C46.9046 157.103 46.8574 157.237 46.8263 157.349L46.8096 157.376L45.2309 156.412L45.2476 156.385C45.3334 156.306 45.4308 156.203 45.5398 156.075C45.6488 155.948 45.7765 155.785 45.9227 155.587C46.0689 155.388 46.2356 155.146 46.4228 154.86C46.6072 154.578 46.8177 154.244 47.0542 153.857L48.2353 151.923Z" fill="#481E0B"/>
<path d="M39.689 142.456C40.1484 142.83 40.5198 143.253 40.8033 143.725C41.0867 144.197 41.2644 144.693 41.3365 145.213C41.4052 145.737 41.3595 146.275 41.1995 146.827C41.032 147.379 40.7324 147.92 40.3008 148.449C39.9198 148.917 39.4887 149.286 39.0078 149.555C38.5234 149.828 38.0229 149.999 37.5061 150.067C36.9894 150.134 36.4795 150.101 35.9762 149.967C35.4689 149.829 35 149.584 34.5695 149.234C34.1432 148.886 33.8087 148.49 33.5659 148.044C33.3197 147.602 33.1788 147.133 33.1432 146.636C33.1001 146.139 33.1706 145.622 33.3547 145.083C33.5313 144.545 33.8275 144.008 34.2433 143.473C34.7042 143.862 35.1669 144.249 35.6312 144.634C36.0955 145.02 36.5801 145.418 37.085 145.829C37.4451 146.123 37.7986 146.407 38.1454 146.683C38.4882 146.955 38.7995 147.199 39.0794 147.413C39.4053 146.962 39.656 146.519 39.8317 146.084C40.0032 145.645 40.0949 145.224 40.1069 144.821C40.1113 144.418 40.0309 144.039 39.8656 143.684C39.6962 143.326 39.4377 143.005 39.0901 142.722C38.85 142.526 38.6025 142.369 38.3476 142.251C38.0852 142.134 37.8266 142.054 37.5719 142.012C37.3171 141.969 37.0675 141.959 36.823 141.98C36.5751 142.005 36.3395 142.058 36.1162 142.137L36.0721 142.04L37.4318 141.309C37.7497 141.375 38.0976 141.493 38.4754 141.663C38.8499 141.838 39.2544 142.102 39.689 142.456ZM37.4292 146.915C37.0154 146.578 36.6015 146.241 36.1876 145.904C35.7662 145.567 35.3808 145.267 35.0313 145.003C34.7752 145.393 34.5825 145.774 34.4533 146.143C34.3241 146.513 34.2593 146.863 34.2588 147.194C34.2584 147.524 34.324 147.832 34.4557 148.118C34.5874 148.405 34.7856 148.656 35.0505 148.872C35.2906 149.067 35.5558 149.194 35.8463 149.251C36.1293 149.31 36.4262 149.3 36.737 149.223C37.0479 149.146 37.3668 148.999 37.6939 148.784C38.0177 148.572 38.3379 148.289 38.6545 147.934C38.475 147.774 38.2818 147.61 38.0749 147.442C37.8679 147.273 37.6527 147.098 37.4292 146.915Z" fill="#481E0B"/>
<path d="M27.1194 138.105C26.6049 138.587 26.3234 139.044 26.2751 139.476C26.2268 139.909 26.3649 140.299 26.6896 140.646C26.8063 140.771 26.9649 140.885 27.1654 140.99C27.3619 141.099 27.5817 141.193 27.8245 141.273C28.0635 141.356 28.318 141.425 28.5882 141.479C28.8583 141.534 29.1271 141.571 29.3946 141.591L30.1715 140.886L31.5865 139.562C31.9178 139.252 32.2046 138.976 32.4468 138.735C32.685 138.497 32.8865 138.287 33.0512 138.103C33.216 137.92 33.3496 137.762 33.4522 137.63C33.5548 137.497 33.6361 137.381 33.6961 137.281L33.7195 137.259L34.9834 138.609L34.96 138.631C34.8563 138.685 34.7348 138.758 34.5958 138.852C34.453 138.941 34.2866 139.064 34.0963 139.22C33.9024 139.372 33.679 139.56 33.4262 139.782C33.1657 140.003 32.8699 140.269 32.5385 140.579L31.1236 141.903C30.7923 142.213 30.5093 142.489 30.2746 142.731C30.0325 142.972 29.829 143.184 29.6643 143.368C29.4959 143.547 29.3623 143.705 29.2633 143.842C29.1607 143.974 29.0794 144.09 29.0195 144.19L28.9961 144.212L27.7322 142.862L27.7555 142.84C27.8822 142.78 28.0306 142.688 28.2009 142.566C28.3636 142.443 28.5749 142.278 28.8348 142.071C28.5527 142.035 28.2597 141.988 27.9557 141.929C27.6481 141.866 27.3506 141.782 27.0632 141.678C26.772 141.578 26.4985 141.454 26.2428 141.305C25.9832 141.161 25.7604 140.989 25.5743 140.79C25.2898 140.486 25.1017 140.18 25.01 139.871C24.9146 139.558 24.8906 139.255 24.9381 138.962C24.982 138.665 25.0876 138.383 25.2551 138.117C25.415 137.85 25.608 137.611 25.8341 137.4L27.8221 135.539C28.1534 135.229 28.4401 134.953 28.6823 134.712C28.9206 134.475 29.1221 134.264 29.2868 134.081C29.4515 133.897 29.5852 133.739 29.6878 133.607C29.7904 133.474 29.8717 133.358 29.9316 133.258L29.955 133.236L31.219 134.587L31.1956 134.609C31.0918 134.662 30.9704 134.735 30.8313 134.829C30.6886 134.919 30.5221 135.041 30.3319 135.198C30.138 135.35 29.9146 135.537 29.6617 135.759C29.4013 135.981 29.1054 136.247 28.7741 136.557L27.1194 138.105Z" fill="#481E0B"/>
<path d="M26.0925 128.971C25.9961 128.843 25.8777 128.735 25.7376 128.647C25.5942 128.555 25.4386 128.482 25.2708 128.428C25.0998 128.37 24.923 128.326 24.7403 128.296C24.5502 128.266 24.3622 128.247 24.1764 128.241L24.1601 128.153L25.5027 127.791C25.5669 127.823 25.6471 127.863 25.7433 127.911C25.8321 127.957 25.9316 128.023 26.0418 128.107C26.1531 128.183 26.2724 128.284 26.3999 128.408C26.5316 128.529 26.6698 128.686 26.8146 128.878C27.2456 129.449 27.4283 130.01 27.3627 130.561C27.2897 131.111 26.9251 131.634 26.269 132.129L22.006 135.347L22.8549 136.392L22.2925 136.816C22.2013 136.678 22.0887 136.515 21.9546 136.329C21.8206 136.143 21.6715 135.941 21.5075 135.723C21.2082 135.956 20.9483 136.166 20.7279 136.352C20.5 136.537 20.3072 136.703 20.1497 136.849C19.9846 136.993 19.8505 137.121 19.7473 137.233C19.6441 137.344 19.56 137.441 19.4951 137.523L19.4696 137.543L18.3551 136.066L18.3806 136.047C18.4809 136.012 18.5987 135.959 18.7341 135.891C18.8695 135.822 19.0288 135.732 19.2121 135.62C19.3922 135.504 19.6042 135.364 19.8482 135.2C20.0848 135.035 20.358 134.839 20.668 134.611C20.4611 134.346 20.259 134.087 20.0618 133.835C19.8571 133.581 19.6716 133.353 19.5055 133.151C19.3319 132.948 19.1862 132.777 19.0683 132.638C18.9429 132.499 18.8583 132.409 18.8144 132.368L19.5531 131.991C19.7129 132.212 19.8786 132.445 20.0502 132.69C20.1961 132.901 20.3666 133.14 20.5618 133.407C20.7569 133.675 20.9585 133.951 21.1665 134.235L25.5637 130.916C25.8279 130.716 26.0221 130.526 26.1465 130.345C26.2634 130.163 26.3349 129.992 26.3611 129.832C26.3841 129.668 26.3692 129.515 26.3164 129.374C26.2604 129.229 26.1858 129.095 26.0925 128.971Z" fill="#481E0B"/>
<path d="M17.5502 131.326C17.1707 131.575 16.8447 131.798 16.5722 131.996C16.2924 132.192 16.0556 132.367 15.8619 132.519C15.6654 132.667 15.5066 132.8 15.3858 132.918C15.262 133.031 15.1621 133.131 15.0859 133.219L15.0591 133.237L14.0448 131.69L14.0716 131.673C14.1829 131.638 14.3151 131.586 14.4681 131.518C14.6212 131.449 14.8062 131.357 15.0233 131.24C15.2404 131.123 15.4947 130.976 15.7863 130.797C16.0734 130.622 16.4067 130.41 16.7862 130.161L21.561 127.03C21.9405 126.781 22.2701 126.559 22.55 126.363C22.8254 126.169 23.06 125.996 23.2536 125.844C23.4473 125.691 23.606 125.559 23.7297 125.446C23.8535 125.332 23.9535 125.232 24.0297 125.144L24.0565 125.126L25.0707 126.673L25.0439 126.69C24.9326 126.725 24.8004 126.777 24.6474 126.845C24.4915 126.909 24.3064 127.002 24.0922 127.123C23.8752 127.24 23.6231 127.386 23.336 127.561C23.0414 127.735 22.7045 127.947 22.325 128.195L17.5502 131.326Z" fill="#481E0B"/>
<path d="M21.3399 120.711L17.209 126.087C17.0489 126.286 16.9019 126.488 16.7681 126.692C16.6296 126.898 16.5098 127.088 16.4088 127.262C16.3053 127.432 16.2227 127.578 16.1611 127.701C16.0947 127.827 16.0537 127.909 16.0378 127.948L16.0095 127.963L15.028 126.109L15.0563 126.094C15.0849 126.091 15.124 126.079 15.1737 126.059C15.2234 126.038 15.2671 126.018 15.3048 125.998C15.4511 125.921 15.6026 125.813 15.7595 125.676C15.9091 125.537 16.0835 125.335 16.2828 125.073L19.4953 120.872L14.3614 121.306C14.1468 121.323 13.9158 121.349 13.6682 121.383C13.4181 121.413 13.187 121.484 12.9746 121.596C12.9133 121.629 12.8662 121.66 12.8335 121.689C12.796 121.721 12.7727 121.745 12.7636 121.762L12.7352 121.777L12.0609 120.503L12.0892 120.488C12.2238 120.526 12.4417 120.549 12.7428 120.559C13.0367 120.567 13.3946 120.552 13.8165 120.516L23.6434 119.636C23.858 119.619 24.0903 119.596 24.3403 119.567C24.5879 119.532 24.8178 119.459 25.0302 119.346C25.0915 119.314 25.1386 119.283 25.1713 119.254C25.2088 119.222 25.2321 119.197 25.2412 119.18L25.2696 119.165L25.9701 120.489L25.9418 120.504C25.8047 120.462 25.5892 120.437 25.2953 120.429C25.0036 120.414 24.6492 120.424 24.232 120.457L21.3399 120.711Z" fill="#481E0B"/>
<path d="M14.5181 111.255C14.114 111.376 13.7392 111.399 13.3936 111.324C13.0465 111.244 12.7267 111.098 12.4344 110.884C12.1421 110.671 11.8792 110.407 11.6457 110.092C11.4071 109.779 11.1954 109.444 11.0106 109.087C10.8206 108.731 10.6577 108.373 10.522 108.013C10.3811 107.654 10.2622 107.322 10.1652 107.016L9.77399 107.133C9.43644 107.234 9.15792 107.365 8.93844 107.525C8.71896 107.686 8.55367 107.869 8.44256 108.075C8.32634 108.282 8.26354 108.51 8.25416 108.758C8.23814 109.003 8.26991 109.258 8.3495 109.524C8.40459 109.708 8.47426 109.885 8.55851 110.055C8.64276 110.225 8.74977 110.396 8.87952 110.569C9.00775 110.737 9.16538 110.91 9.3524 111.088C9.5379 111.261 9.76199 111.442 10.0247 111.63L10.0016 111.721L8.7638 111.523C8.63658 111.377 8.52547 111.229 8.43046 111.079C8.33035 110.931 8.23969 110.777 8.1585 110.617C8.07731 110.458 8.00559 110.293 7.94332 110.122C7.87442 109.947 7.81088 109.763 7.75273 109.569C7.59204 109.032 7.52156 108.554 7.54128 108.136C7.55437 107.714 7.64002 107.348 7.79824 107.039C7.94982 106.726 8.16221 106.468 8.43541 106.263C8.7035 106.06 9.01143 105.907 9.35922 105.803L11.8602 105.055C12.2949 104.925 12.6744 104.805 12.9987 104.697C13.3163 104.585 13.5905 104.487 13.8211 104.401C14.0503 104.31 14.2403 104.228 14.3912 104.155C14.5406 104.077 14.6644 104.007 14.7626 103.944L14.7933 103.935L15.3006 105.63L15.2699 105.639C15.1804 105.638 15.083 105.648 14.9777 105.668C14.8708 105.683 14.7442 105.707 14.5979 105.74C14.7221 105.82 14.855 105.919 14.9966 106.039C15.1366 106.153 15.2758 106.292 15.4143 106.457C15.5461 106.618 15.6695 106.807 15.7844 107.023C15.9028 107.233 16.0026 107.473 16.0837 107.744C16.35 108.634 16.3487 109.384 16.0799 109.994C15.8059 110.605 15.2853 111.026 14.5181 111.255ZM10.7636 106.837C10.908 107.301 11.0701 107.74 11.2498 108.154C11.4243 108.57 11.6381 108.921 11.891 109.208C12.1424 109.489 12.4411 109.687 12.7872 109.801C13.1267 109.911 13.5317 109.896 14.0022 109.755C14.6057 109.574 15.0209 109.286 15.2477 108.889C15.4745 108.492 15.5083 108.028 15.3491 107.496C15.2757 107.251 15.1759 107.038 15.0497 106.859C14.9169 106.675 14.7763 106.522 14.6281 106.4C14.4733 106.273 14.3184 106.175 14.1635 106.104C14.0035 106.035 13.8563 105.99 13.7218 105.969C13.5244 106.017 13.3081 106.076 13.0728 106.146C12.8325 106.218 12.5614 106.299 12.2596 106.389L10.7636 106.837Z" fill="#481E0B"/>
<path d="M6.95944 98.2829L6.99354 98.3909C6.87849 98.4478 6.75947 98.5297 6.63647 98.6366C6.51259 98.7383 6.4036 98.8645 6.30951 99.0154C6.21454 99.1609 6.14543 99.332 6.10218 99.5285C6.05279 99.7207 6.0477 99.9352 6.0869 100.172C6.1139 100.336 6.1633 100.487 6.23509 100.627C6.30601 100.761 6.39802 100.876 6.51112 100.971C6.61808 101.061 6.74526 101.127 6.89265 101.167C7.04005 101.208 7.20592 101.213 7.39026 101.182C7.64835 101.14 7.88283 101.02 8.09371 100.822C8.29846 100.621 8.49667 100.38 8.68835 100.099C8.87476 99.8194 9.06075 99.5208 9.24633 99.2033C9.43104 98.8806 9.62977 98.5772 9.84252 98.2931C10.0553 98.009 10.2934 97.764 10.557 97.5581C10.8144 97.3477 11.109 97.2151 11.4408 97.1603C11.7094 97.1158 11.9806 97.1197 12.2544 97.1718C12.5229 97.2248 12.7738 97.3348 13.007 97.5019C13.2394 97.6636 13.4445 97.8895 13.6223 98.1793C13.7939 98.4648 13.915 98.8208 13.9856 99.2474C14.0274 99.5002 14.0429 99.7412 14.0321 99.9702C14.0204 100.194 13.9956 100.404 13.9576 100.599C13.9135 100.791 13.8615 100.967 13.8016 101.128C13.7356 101.285 13.6722 101.426 13.6115 101.549L12.0973 101.719L12.0764 101.592C12.3152 101.499 12.5287 101.382 12.7167 101.243C12.9046 101.104 13.0597 100.945 13.182 100.768C13.298 100.587 13.3817 100.389 13.4328 100.175C13.4787 99.9616 13.4821 99.7365 13.4429 99.4995C13.3784 99.1097 13.2195 98.8195 12.9661 98.6287C12.7118 98.4327 12.4109 98.3634 12.0633 98.4209C11.7841 98.4671 11.5417 98.5883 11.3361 98.7847C11.1244 98.9766 10.9301 99.2089 10.7534 99.4817C10.5766 99.7544 10.4029 100.046 10.2323 100.355C10.0607 100.659 9.87343 100.95 9.67035 101.227C9.462 101.505 9.22604 101.747 8.96249 101.953C8.6928 102.155 8.37098 102.286 7.99702 102.348C7.69154 102.399 7.40324 102.39 7.13213 102.321C6.85488 102.248 6.61017 102.126 6.39799 101.955C6.17968 101.78 5.9974 101.561 5.85116 101.299C5.70492 101.036 5.60436 100.739 5.54948 100.407C5.47718 99.9701 5.46448 99.5988 5.51137 99.2935C5.55213 98.9837 5.60202 98.7455 5.66103 98.5788L6.95944 98.2829Z" fill="#481E0B"/>
<path d="M3.9255 92.2867C3.47213 92.3059 3.07778 92.3307 2.74243 92.361C2.40153 92.3862 2.10885 92.4146 1.86441 92.4464C1.61974 92.4728 1.41541 92.5055 1.25142 92.5446C1.08721 92.5783 0.94978 92.6135 0.839131 92.6503L0.807129 92.6516L0.728589 90.8035L0.760592 90.8021C0.87396 90.8294 1.01388 90.8528 1.18036 90.8724C1.34684 90.8921 1.55321 90.9074 1.79947 90.9183C2.04573 90.9292 2.33976 90.9327 2.68157 90.9289C3.01805 90.9253 3.41297 90.9138 3.86634 90.8946L7.85063 90.7252L5.39528 88.2087C4.97576 87.767 4.63266 87.5518 4.36597 87.5631L4.28709 85.707L4.31909 85.7056C4.36765 85.8425 4.42933 85.9734 4.5041 86.0985C4.57332 86.2185 4.65599 86.3405 4.7521 86.4647C4.84799 86.5835 4.95755 86.7097 5.08078 86.8434C5.19846 86.972 5.3327 87.1133 5.48351 87.2672L7.71929 89.5205L11.3829 86.1428C11.4962 86.0418 11.6117 85.9327 11.7297 85.8155C11.8422 85.6985 11.9468 85.5818 12.0434 85.4655C12.14 85.3492 12.2233 85.2361 12.2935 85.1263C12.3636 85.0164 12.4074 84.9157 12.4249 84.8241L12.4569 84.8228L12.5555 87.1429C12.4168 87.1488 12.2744 87.1923 12.1282 87.2733C11.9818 87.349 11.7979 87.4851 11.5765 87.6815L8.27467 90.7072L9.57076 90.6521C10.0241 90.6329 10.4213 90.6106 10.7622 90.5855C11.0977 90.5605 11.3878 90.5322 11.6322 90.5004C11.8766 90.4686 12.081 90.4359 12.2452 90.4022C12.4094 90.3685 12.5468 90.3333 12.6575 90.2965L12.6895 90.2952L12.768 92.1433L12.736 92.1447C12.6226 92.1174 12.4827 92.094 12.3162 92.0743C12.1495 92.0494 11.9432 92.0341 11.6971 92.0285C11.4509 92.0176 11.1595 92.014 10.823 92.0176C10.481 92.0161 10.0833 92.025 9.62992 92.0442L3.9255 92.2867Z" fill="#481E0B"/>
<path d="M12.9789 79.2719C12.9282 79.8623 12.7876 80.4074 12.5571 80.9074C12.3267 81.4073 12.0168 81.8335 11.6275 82.1859C11.233 82.5378 10.7628 82.8028 10.217 82.981C9.6664 83.1534 9.05067 83.2103 8.36984 83.1518C7.7688 83.1002 7.22165 82.9514 6.72839 82.7054C6.22981 82.459 5.807 82.1414 5.45996 81.7526C5.11292 81.3638 4.85335 80.9236 4.68125 80.4319C4.50961 79.9349 4.44754 79.4098 4.49505 78.8567C4.5421 78.3088 4.68147 77.8091 4.91315 77.3575C5.13952 76.9054 5.44816 76.5247 5.83909 76.2153C6.22515 75.9002 6.69258 75.6671 7.24138 75.5159C7.78532 75.3591 8.39573 75.3016 9.0726 75.3437C9.01035 75.9438 8.95075 76.5442 8.89381 77.1448C8.83687 77.7454 8.78053 78.3701 8.7248 79.019C8.68505 79.4818 8.64888 79.9341 8.61628 80.376C8.58414 80.8126 8.55832 81.2069 8.5388 81.5589C9.09472 81.5745 9.60201 81.5323 10.0607 81.4324C10.5198 81.3272 10.9194 81.1659 11.2596 80.9487C11.5949 80.7256 11.8627 80.4459 12.0631 80.1095C12.2639 79.7677 12.3835 79.3734 12.4218 78.9266C12.4483 78.6181 12.4387 78.3253 12.3928 78.0481C12.3421 77.7651 12.2625 77.5064 12.154 77.2721C12.0456 77.0377 11.9138 76.8255 11.7586 76.6353C11.5982 76.4447 11.4222 76.2796 11.2306 76.1399L11.2866 76.0482L12.6561 76.7606C12.7804 77.0606 12.8786 77.4147 12.9507 77.8227C13.0175 78.2303 13.0269 78.7134 12.9789 79.2719ZM8.02094 79.915C8.06662 79.3831 8.1123 78.8512 8.15798 78.3193C8.1988 77.7816 8.22996 77.294 8.25147 76.8565C7.78461 76.8646 7.36196 76.9194 6.98353 77.0209C6.6051 77.1223 6.27933 77.2658 6.0062 77.4513C5.73307 77.6368 5.51526 77.8646 5.35275 78.1346C5.19025 78.4047 5.09438 78.7099 5.06514 79.0503C5.03864 79.3588 5.08335 79.6493 5.19926 79.9218C5.31031 80.1885 5.48526 80.4286 5.72413 80.642C5.96299 80.8554 6.26356 81.0366 6.62584 81.1856C6.9828 81.3342 7.39706 81.4394 7.86862 81.5013C7.89981 81.2629 7.92683 81.0107 7.94967 80.7448C7.97251 80.4788 7.99627 80.2022 8.02094 79.915Z" fill="#481E0B"/>
<path d="M6.21731 67.6121C6.26582 67.3987 6.33254 67.1894 6.41749 66.9842C6.50244 66.7791 6.60182 66.5827 6.71563 66.395C6.82945 66.2074 6.95651 66.0337 7.09683 65.8739C7.23715 65.7142 7.38634 65.5757 7.54441 65.4583L6.26378 65.1673C5.82129 65.0667 5.43487 64.9844 5.10454 64.9202C4.769 64.8549 4.47914 64.8055 4.23494 64.7719C3.99074 64.7383 3.78499 64.7162 3.6177 64.7055C3.4504 64.6949 3.30854 64.6928 3.19212 64.6991L3.16089 64.692L3.57082 62.8882L3.60206 62.8953C3.70428 62.9514 3.83253 63.0134 3.98681 63.0813C4.14228 63.144 4.33738 63.213 4.57211 63.2882C4.80803 63.3583 5.0908 63.439 5.42042 63.5303C5.74602 63.6152 6.13007 63.708 6.57256 63.8086L12.1402 65.0739C12.5827 65.1744 12.9717 65.2573 13.3072 65.3227C13.6387 65.3816 13.926 65.4304 14.169 65.4692C14.4132 65.5028 14.619 65.525 14.7862 65.5356C14.9547 65.541 15.0972 65.5406 15.2136 65.5342L15.2448 65.5413L14.8526 67.267L14.8214 67.2599C14.7833 67.2348 14.7264 67.2082 14.6507 67.18C14.5698 67.1507 14.4712 67.1146 14.355 67.0718C14.4613 67.3751 14.5365 67.7426 14.5808 68.1742C14.625 68.6058 14.5868 69.0871 14.4661 69.6181C14.3254 70.2376 14.1013 70.778 13.7939 71.2391C13.4865 71.7003 13.1124 72.0697 12.6716 72.3473C12.2319 72.6196 11.7352 72.7942 11.1812 72.8708C10.6221 72.9463 10.0223 72.9113 9.38202 72.7658C8.79376 72.6321 8.27342 72.4044 7.82098 72.0826C7.36334 71.7596 6.99231 71.3687 6.70788 70.9098C6.42345 70.451 6.23568 69.9403 6.14457 69.3776C6.05346 68.8149 6.07771 68.2264 6.21731 67.6121ZM8.91874 65.7706C8.32481 65.8546 7.85333 66.0623 7.50431 66.3936C7.15647 66.7197 6.92754 67.1248 6.81751 67.6089C6.72523 68.015 6.71293 68.4063 6.78061 68.783C6.84309 69.1586 6.98187 69.4994 7.19697 69.8056C7.41207 70.1118 7.70147 70.3801 8.06516 70.6106C8.42484 70.8347 8.85456 71.0035 9.35431 71.1171C9.91654 71.2449 10.4539 71.3013 10.9665 71.2864C11.479 71.2715 11.9421 71.1851 12.3557 71.0273C12.7653 70.863 13.1124 70.6244 13.3971 70.3113C13.6765 69.9971 13.8695 69.6057 13.976 69.1372C14.0316 68.8925 14.055 68.657 14.0462 68.4305C14.0375 68.204 14.009 67.9923 13.9607 67.7952C13.9124 67.598 13.8516 67.42 13.7782 67.261C13.6997 67.1008 13.6184 66.9646 13.5344 66.8524C13.3129 66.7912 13.0596 66.7254 12.7745 66.6551C12.4893 66.5848 12.175 66.5107 11.8314 66.4326L8.91874 65.7706Z" fill="#481E0B"/>
<path d="M19.9362 53.1691C19.9147 53.3179 19.8874 53.4728 19.8543 53.6339C19.8212 53.795 19.7786 53.9576 19.7266 54.1217C19.6816 54.2832 19.6293 54.4413 19.5697 54.5961C19.515 54.7531 19.4575 54.8971 19.3972 55.028C19.1269 55.6147 18.7919 56.1187 18.3921 56.5399C17.9897 56.9541 17.5399 57.267 17.0426 57.4788C16.5476 57.6857 16.0132 57.7804 15.4394 57.7629C14.8655 57.7454 14.2707 57.5948 13.6549 57.3111C13.107 57.0587 12.6483 56.721 12.2789 56.2981C11.9069 55.8681 11.6347 55.3871 11.4624 54.8551C11.2924 54.3183 11.2277 53.7507 11.2683 53.1522C11.3089 52.5538 11.4666 51.9563 11.7413 51.3599C11.8597 51.103 12.0018 50.8393 12.1675 50.5688C12.3355 50.2935 12.5033 50.0505 12.6709 49.8397C12.8292 49.6364 12.9957 49.428 13.1705 49.2146C13.3403 48.999 13.5156 48.8035 13.6963 48.6281C13.7601 48.681 13.876 48.755 14.0438 48.8499C14.2091 48.9378 14.3888 49.0324 14.5832 49.1337C14.7775 49.2349 14.9705 49.3327 15.1623 49.4269C15.3491 49.5188 15.5007 49.5916 15.6171 49.6452L21.5302 52.3693C21.9423 52.5592 22.3033 52.7196 22.6133 52.8507C22.9303 52.9791 23.2037 53.0874 23.4334 53.1756C23.6654 53.2589 23.8621 53.3231 24.0236 53.3681C24.1873 53.4083 24.3268 53.4373 24.442 53.4551L24.4711 53.4685L23.6971 55.1486L23.668 55.1352C23.5796 55.0592 23.4658 54.9744 23.3267 54.8809C23.1875 54.7874 23.0109 54.6796 22.7968 54.5575C22.5827 54.4353 22.3227 54.2979 22.0169 54.1453C21.7159 53.9948 21.3593 53.8247 20.9471 53.6348L19.9362 53.1691ZM15.1505 50.9644C14.748 50.779 14.4161 50.6319 14.1546 50.5232C13.8954 50.4097 13.68 50.3222 13.5085 50.2608C13.2394 50.4366 12.9895 50.6536 12.7589 50.9118C12.5283 51.17 12.3393 51.4591 12.1918 51.7791C12.0176 52.1573 11.9269 52.5328 11.9197 52.9057C11.9076 53.2763 11.9763 53.6312 12.1257 53.9704C12.2751 54.3096 12.505 54.6272 12.8154 54.923C13.1232 55.2117 13.5099 55.4633 13.9754 55.6778C14.499 55.919 15.0131 56.0853 15.5177 56.1767C16.0244 56.2632 16.4987 56.2672 16.9405 56.1886C17.3797 56.1029 17.7753 55.9266 18.1275 55.6598C18.4771 55.3858 18.7624 55.0089 18.9835 54.5288C19.1042 54.267 19.1862 53.9933 19.2296 53.7076C19.2704 53.4149 19.2708 53.1271 19.2307 52.8441L15.1505 50.9644Z" fill="#481E0B"/>
<path d="M20.5824 46.4248C21.1752 46.8058 21.6859 46.969 22.1144 46.9144C22.5458 46.8553 22.89 46.626 23.1469 46.2263C23.2392 46.0825 23.3139 45.9021 23.371 45.6849C23.4236 45.4649 23.4611 45.2288 23.4835 44.9767C23.5043 44.7172 23.508 44.4498 23.4945 44.1746C23.4838 43.8949 23.4541 43.6252 23.4054 43.3653C23.2809 43.2727 23.1468 43.1801 23.0031 43.0878C22.8549 42.9925 22.6977 42.8915 22.5315 42.7847L20.9013 41.737C20.5196 41.4917 20.1829 41.2848 19.8913 41.1164C19.5981 40.9407 19.3424 40.7954 19.1243 40.6806C18.9091 40.5613 18.7232 40.4704 18.5666 40.4079C18.413 40.3409 18.2803 40.2905 18.1687 40.2568L18.1417 40.2395L19.1419 38.6834L19.1688 38.7007C19.2458 38.7883 19.3467 38.888 19.4715 38.9999C19.5963 39.1119 19.7562 39.2432 19.9512 39.3939C20.1463 39.5447 20.3846 39.7169 20.6663 39.9106C20.9434 40.1014 21.2729 40.3195 21.6546 40.5648L23.2849 41.6126C23.6666 41.8579 24.0041 42.0684 24.2973 42.2442C24.586 42.417 24.8394 42.5609 25.0575 42.6757C25.2756 42.7905 25.4615 42.8814 25.6152 42.9484C25.7688 43.0154 25.9015 43.0658 26.0131 43.0994L26.0401 43.1167L25.04 44.6729L25.013 44.6556C24.9181 44.5565 24.7917 44.4372 24.6338 44.2976C24.4789 44.1536 24.2643 43.984 23.99 43.7887C24.0288 44.0738 24.0553 44.3733 24.0695 44.687C24.0865 44.9962 24.0806 45.3065 24.0518 45.618C24.0259 45.9249 23.9723 46.2205 23.8912 46.5047C23.8175 46.7873 23.707 47.0432 23.5598 47.2722C23.3347 47.6225 23.0821 47.8822 22.8021 48.0513C22.525 48.2159 22.2371 48.3132 21.9385 48.3434C21.6427 48.3691 21.346 48.3371 21.0484 48.2473C20.7536 48.153 20.4737 48.0208 20.2087 47.8505L17.9183 46.3785C17.5366 46.1331 17.2013 45.924 16.9126 45.7512C16.6194 45.5754 16.3638 45.4302 16.1456 45.3154C15.9275 45.2005 15.7416 45.1096 15.588 45.0426C15.4343 44.9756 15.3017 44.9253 15.19 44.8916L15.1631 44.8743L16.1632 43.3181L16.1901 43.3354C16.2671 43.423 16.368 43.5227 16.4928 43.6347C16.6176 43.7466 16.7775 43.8779 16.9726 44.0287C17.1676 44.1794 17.4059 44.3516 17.6876 44.5453C17.9648 44.7362 18.2942 44.9542 18.676 45.1996L20.5824 46.4248Z" fill="#481E0B"/>
<path d="M30.2458 38.094C29.8611 38.5447 29.4296 38.9064 28.9512 39.1789C28.4729 39.4515 27.973 39.6178 27.4514 39.6779C26.9257 39.7346 26.3891 39.6766 25.8416 39.504C25.2934 39.3239 24.7595 39.012 24.2397 38.5683C23.7809 38.1767 23.4225 37.7373 23.1644 37.2503C22.9022 36.7598 22.7431 36.2555 22.6871 35.7373C22.631 35.2192 22.676 34.7101 22.8221 34.2101C22.9716 33.706 23.2266 33.2429 23.5871 32.8206C23.9441 32.4024 24.3481 32.077 24.7993 31.8445C25.2465 31.6085 25.719 31.4784 26.2169 31.4542C26.7143 31.4225 27.2301 31.5048 27.7643 31.7012C28.298 31.89 28.8279 32.1985 29.354 32.6265C28.9542 33.0784 28.5564 33.532 28.1607 33.9873C27.765 34.4427 27.3557 34.9181 26.9329 35.4134C26.6313 35.7667 26.3387 36.1135 26.0551 36.454C25.7749 36.7904 25.5246 37.0961 25.3039 37.371C25.747 37.7071 26.1841 37.968 26.6153 38.1535C27.05 38.3351 27.4688 38.4364 27.8719 38.4576C28.2744 38.4713 28.6549 38.3995 29.0136 38.2425C29.3758 38.0813 29.7024 37.8302 29.9936 37.4892C30.1946 37.2537 30.3571 37.0098 30.4811 36.7577C30.6045 36.498 30.6902 36.2413 30.7384 35.9876C30.7865 35.7339 30.8028 35.4846 30.7872 35.2397C30.7676 34.9913 30.7205 34.7546 30.6459 34.5295L30.7449 34.4876L31.4443 35.8637C31.3708 36.18 31.2447 36.5251 31.0659 36.899C30.8831 37.2693 30.6098 37.6677 30.2458 38.094ZM25.8391 35.7327C26.1857 35.3266 26.5323 34.9206 26.8789 34.5146C27.2249 34.101 27.5339 33.7225 27.806 33.3792C27.4215 33.1142 27.0459 32.9129 26.6791 32.7752C26.3123 32.6376 25.9638 32.5647 25.6337 32.5567C25.3037 32.5487 24.994 32.6072 24.7047 32.7323C24.4155 32.8574 24.1599 33.0499 23.9381 33.3098C23.7371 33.5453 23.6044 33.8075 23.5401 34.0966C23.4753 34.3782 23.4779 34.6752 23.548 34.9878C23.6182 35.3003 23.7572 35.6225 23.9652 35.9545C24.1691 36.283 24.4448 36.6096 24.7923 36.9343C24.9564 36.7585 25.1251 36.5691 25.2984 36.3661C25.4717 36.1631 25.6519 35.9519 25.8391 35.7327Z" fill="#481E0B"/>
<path d="M32.6285 26.0399L32.5562 26.1271C32.446 26.0612 32.3127 26.0056 32.1562 25.9601C32.0036 25.9111 31.8384 25.8879 31.6607 25.8906C31.4869 25.8896 31.3057 25.9242 31.117 25.9944C30.9288 26.057 30.7457 26.169 30.5677 26.3304C30.4451 26.4416 30.3446 26.5651 30.2662 26.7011C30.1917 26.8336 30.1452 26.973 30.1267 27.1195C30.1085 27.2585 30.1224 27.4009 30.1682 27.5467C30.2139 27.6926 30.2996 27.8347 30.4251 27.9731C30.6008 28.1669 30.8287 28.299 31.1087 28.3694C31.3891 28.4322 31.6992 28.4681 32.0389 28.4772C32.375 28.4822 32.7267 28.4768 33.0941 28.4607C33.4655 28.441 33.8282 28.4436 34.1822 28.4685C34.5363 28.4934 34.8712 28.5607 35.1871 28.6707C35.5034 28.773 35.7745 28.9488 36.0004 29.1979C36.1833 29.3996 36.327 29.6296 36.4315 29.888C36.5325 30.1423 36.576 30.4128 36.562 30.6994C36.5519 30.9823 36.4733 31.2771 36.326 31.5836C36.1791 31.8825 35.9455 32.1772 35.6252 32.4677C35.4354 32.6398 35.2413 32.7834 35.0429 32.8985C34.8485 33.0099 34.6588 33.1027 34.4737 33.1768C34.2891 33.2434 34.1127 33.2952 33.9446 33.3323C33.7768 33.3619 33.6245 33.3847 33.4877 33.4007L32.525 32.2199L32.6199 32.1338C32.828 32.2838 33.0415 32.4001 33.2604 32.4826C33.4794 32.5651 33.6964 32.6097 33.9115 32.6164C34.127 32.6156 34.3386 32.5787 34.5462 32.5057C34.7503 32.4287 34.9413 32.3096 35.1193 32.1482C35.4119 31.8828 35.5697 31.592 35.5927 31.2756C35.6197 30.9557 35.5148 30.6652 35.2782 30.4042C35.0881 30.1946 34.8548 30.0566 34.5784 29.9902C34.3023 29.9162 34.0018 29.8789 33.6768 29.8781C33.3518 29.8773 33.013 29.8891 32.6603 29.9135C32.3116 29.9342 31.9658 29.9343 31.6229 29.9138C31.2763 29.8893 30.9451 29.8221 30.6293 29.7122C30.3138 29.5947 30.0287 29.3956 29.7741 29.1148C29.5661 28.8855 29.4175 28.6382 29.3284 28.3731C29.2397 28.1004 29.2095 27.8287 29.2379 27.558C29.2666 27.2797 29.3517 27.008 29.4931 26.7427C29.6346 26.4775 29.8299 26.232 30.079 26.006C30.4073 25.7084 30.7124 25.4965 30.9945 25.3705C31.2769 25.2369 31.5041 25.1497 31.6762 25.109L32.6285 26.0399Z" fill="#481E0B"/>
<path d="M43.1594 25.426C43.288 25.3306 43.397 25.2132 43.4864 25.0738C43.58 24.9312 43.6545 24.7762 43.7099 24.6089C43.7695 24.4384 43.8148 24.2619 43.8457 24.0795C43.8776 23.8896 43.8979 23.7018 43.9063 23.5161L43.9945 23.5005L44.3445 24.8461C44.3121 24.91 44.2716 24.9899 44.223 25.0857C44.1756 25.1741 44.1094 25.273 44.0245 25.3825C43.947 25.4932 43.8455 25.6117 43.7199 25.7381C43.5974 25.8687 43.4398 26.0056 43.2468 26.1487C42.6722 26.5749 42.1096 26.7529 41.5591 26.6826C41.0096 26.605 40.49 26.236 40.0002 25.5756L36.8184 21.2856L35.7665 22.1256L35.3467 21.5596C35.486 21.4695 35.6494 21.3583 35.837 21.2258C36.0246 21.0934 36.2277 20.9461 36.4464 20.7839C36.2163 20.4826 36.0089 20.221 35.8243 19.999C35.6409 19.7695 35.4769 19.5753 35.3326 19.4166C35.1893 19.2503 35.0625 19.1151 34.952 19.0109C34.8415 18.9068 34.7453 18.8219 34.6634 18.7563L34.6444 18.7306L36.1301 17.6286L36.1492 17.6544C36.1839 17.7549 36.2351 17.8732 36.3027 18.0091C36.3703 18.1451 36.4591 18.3052 36.5692 18.4894C36.6835 18.6705 36.8217 18.8837 36.9837 19.1291C37.1469 19.367 37.3408 19.6419 37.5655 19.9538C37.8325 19.7492 38.093 19.5493 38.3471 19.3542C38.6023 19.1516 38.8318 18.9682 39.0355 18.8038C39.2404 18.6319 39.4125 18.4876 39.5519 18.3709C39.6925 18.2467 39.7832 18.1629 39.824 18.1193L40.1948 18.8612C39.9729 19.0191 39.7387 19.1828 39.4922 19.3523C39.2801 19.4964 39.0394 19.6649 38.7704 19.8578C38.5014 20.0507 38.2238 20.2499 37.9376 20.4555L41.2196 24.8807C41.4167 25.1465 41.6052 25.3424 41.785 25.4683C41.9659 25.5867 42.1363 25.6597 42.2963 25.6872C42.4606 25.7116 42.6134 25.698 42.7546 25.6464C42.9001 25.5917 43.035 25.5182 43.1594 25.426Z" fill="#481E0B"/>
<path d="M42.9122 20.04C42.6664 19.6586 42.4457 19.3308 42.2501 19.0568C42.056 18.7754 41.8835 18.5373 41.7325 18.3424C41.586 18.1447 41.4545 17.9849 41.3379 17.8632C41.2258 17.7385 41.126 17.6377 41.0383 17.5609L41.0209 17.5339L42.5758 16.5319L42.5932 16.5588C42.627 16.6704 42.6775 16.803 42.7447 16.9566C42.8119 17.1101 42.9031 17.2959 43.0181 17.5139C43.1332 17.7319 43.2788 17.9874 43.4549 18.2803C43.6281 18.5688 43.8377 18.9038 44.0835 19.2852L45.1332 20.9142C45.379 21.2956 45.599 21.627 45.793 21.9084C45.9842 22.1853 46.1553 22.4212 46.3062 22.6161C46.4572 22.8109 46.5887 22.9707 46.7008 23.0953C46.8129 23.22 46.9128 23.3208 47.0004 23.3977L47.0178 23.4246L45.4629 24.4266L45.4455 24.3997C45.4117 24.2881 45.3612 24.1555 45.294 24.002C45.2313 23.8455 45.1402 23.6597 45.0206 23.4446C44.9055 23.2266 44.7614 22.9734 44.5881 22.6849C44.4165 22.389 44.2078 22.0504 43.962 21.6689L42.9122 20.04ZM39.7604 15.4597C39.6968 15.361 39.6555 15.2574 39.6364 15.149C39.619 15.0332 39.6214 14.9237 39.6438 14.8204C39.6632 14.7126 39.704 14.6133 39.7661 14.5224C39.8298 14.4242 39.9133 14.3418 40.0165 14.2753C40.1197 14.2088 40.227 14.1683 40.3383 14.1537C40.4511 14.1318 40.5607 14.1342 40.6669 14.161C40.7747 14.1805 40.8755 14.2235 40.9692 14.2901C41.0645 14.3494 41.144 14.4283 41.2076 14.5271C41.3407 14.7335 41.3824 14.9511 41.333 15.1798C41.2835 15.4086 41.1556 15.5895 40.9491 15.7225C40.8459 15.789 40.7379 15.8333 40.625 15.8552C40.5137 15.8697 40.4064 15.8659 40.3031 15.8435C40.1969 15.8167 40.0961 15.7737 40.0008 15.7144C39.9071 15.6478 39.8269 15.5629 39.7604 15.4597Z" fill="#481E0B"/>
<path d="M46.6703 18.6838C46.3944 18.1474 46.2388 17.6 46.2038 17.0417C46.1663 16.4787 46.2341 15.9395 46.4072 15.4242C46.5851 14.9064 46.8626 14.4304 47.2396 13.9963C47.6166 13.5622 48.0781 13.2047 48.624 12.9239C49.1604 12.6479 49.71 12.4792 50.2728 12.4178C50.8379 12.3493 51.3803 12.3884 51.9001 12.5352C52.4199 12.682 52.9004 12.9391 53.3416 13.3065C53.7875 13.6715 54.1606 14.1459 54.461 14.7298C54.7126 15.2188 54.8689 15.7327 54.93 16.2716C54.9912 16.8105 54.9447 17.3387 54.7907 17.8562C54.6367 18.3737 54.3713 18.8614 53.9945 19.3194C53.6201 19.7702 53.1195 20.1568 52.4929 20.4792C51.9612 20.7527 51.4152 20.9225 50.8549 20.9887C50.2946 21.0548 49.7545 21.0145 49.2347 20.8676C48.7149 20.7208 48.2333 20.4673 47.7898 20.1071C47.3439 19.7421 46.9707 19.2677 46.6703 18.6838ZM52.3893 19.8751C52.7263 19.7017 53.0007 19.4765 53.2124 19.1995C53.4288 18.92 53.5744 18.602 53.6491 18.2454C53.7238 17.8888 53.7253 17.5008 53.6536 17.0814C53.5819 16.662 53.4289 16.2244 53.1944 15.7687C52.9307 15.256 52.6318 14.8094 52.298 14.4288C51.9617 14.0435 51.6025 13.748 51.2205 13.5422C50.8408 13.3293 50.4408 13.2169 50.0204 13.2051C49.6001 13.1932 49.1715 13.2996 48.7348 13.5243C48.3977 13.6977 48.1234 13.9229 47.9117 14.1999C47.6975 14.4722 47.5495 14.7855 47.4676 15.1398C47.3905 15.4916 47.3878 15.8773 47.4594 16.2967C47.5287 16.7113 47.6805 17.1465 47.915 17.6022C48.1787 18.1149 48.4788 18.5639 48.8151 18.9492C49.1562 19.3321 49.5201 19.6312 49.907 19.8464C50.2914 20.0568 50.6927 20.1716 51.1108 20.1907C51.5311 20.2025 51.9573 20.0974 52.3893 19.8751Z" fill="#481E0B"/>
<path d="M61.7002 10.6461C61.4673 9.98102 61.1626 9.53904 60.7862 9.32016C60.4098 9.10128 59.9973 9.07036 59.5489 9.22739C59.3877 9.28385 59.2186 9.38264 59.0418 9.52375C58.8632 9.65983 58.6884 9.82286 58.5173 10.0129C58.3445 10.1978 58.1788 10.4029 58.0201 10.6282C57.8614 10.8534 57.7188 11.0844 57.5924 11.321L57.924 12.3163L58.5645 14.1453C58.7144 14.5736 58.8509 14.9472 58.9739 15.2661C59.0951 15.58 59.2064 15.8493 59.3077 16.0741C59.4091 16.2988 59.4997 16.4848 59.5795 16.6322C59.6594 16.7796 59.733 16.9009 59.8003 16.9961L59.8109 17.0263L58.065 17.6377L58.0544 17.6074C58.0476 17.4911 58.0295 17.3503 58 17.1853C57.9755 17.0185 57.9302 16.8166 57.8642 16.5796C57.8032 16.3407 57.7221 16.0608 57.6211 15.7399C57.5233 15.4121 57.3994 15.0341 57.2494 14.6058L56.6089 12.7768C56.459 12.3486 56.3208 11.9783 56.1946 11.6662C56.0716 11.3473 55.9594 11.0754 55.8581 10.8507C55.7618 10.6242 55.6712 10.4382 55.5863 10.2926C55.5064 10.1452 55.4328 10.0239 55.3655 9.9287L55.3549 9.89847L57.1008 9.28711L57.1114 9.31734C57.1152 9.45742 57.1389 9.63012 57.1825 9.83545C57.2294 10.034 57.2949 10.2938 57.3791 10.615C57.5257 10.3714 57.6874 10.1225 57.8643 9.86822C58.0461 9.61222 58.2426 9.37372 58.4537 9.15274C58.663 8.92671 58.8871 8.72664 59.1259 8.55251C59.363 8.37334 59.61 8.23876 59.8669 8.14878C60.2599 8.01116 60.6163 7.96273 60.936 8.00349C61.2608 8.04249 61.5476 8.14285 61.7966 8.30455C62.0506 8.4645 62.2656 8.67483 62.4418 8.93556C62.6212 9.18949 62.7621 9.46257 62.8644 9.75481L63.7642 12.3245C63.9142 12.7527 64.0507 13.1264 64.1737 13.4453C64.2949 13.7592 64.4062 14.0285 64.5075 14.2532C64.6088 14.4779 64.6994 14.664 64.7793 14.8113C64.8592 14.9587 64.9328 15.08 65.0001 15.1752L65.0107 15.2055L63.2648 15.8168L63.2542 15.7866C63.2474 15.6702 63.2292 15.5295 63.1997 15.3645C63.1753 15.1977 63.13 14.9958 63.064 14.7587C63.003 14.5199 62.9219 14.24 62.8208 13.919C62.723 13.5913 62.5991 13.2133 62.4492 12.785L61.7002 10.6461Z" fill="#481E0B"/>
<path d="M73.3428 4.16961L75.4058 4.88908L75.1616 5.49105L73.1628 4.65704L73.5455 6.78625L72.8957 6.88079L72.6455 4.71614L70.9696 6.10095L70.564 5.59352L72.3205 4.31834L70.2723 3.58865L70.5165 2.98667L72.5175 3.83653L72.1405 1.69032L72.7903 1.59578L73.0326 3.76159L74.7085 2.37677L75.1141 2.88421L73.3428 4.16961Z" fill="#481E0B"/>
<rect x="51.7988" y="50.6689" width="68.3135" height="70" rx="34.1567" fill="#481E0B"/>
<path d="M92.6029 81.2591L78.3369 95.8774L75.9932 93.4758L90.2576 78.8575H77.6855V75.4607H95.9179V94.1433H92.6029V81.2591Z" fill="white"/>
</svg>
