<svg width="1864" height="816" viewBox="0 0 1864 816" fill="none" xmlns="http://www.w3.org/2000/svg">
<path d="M109.063 146.46C109.711 151.27 109.526 156.913 105.733 160.151C101.941 163.296 95.3728 161.908 93.1527 157.561C93.5227 162.834 89.36 168.014 84.1798 168.754C78.9995 169.494 73.5418 165.516 72.5242 160.336C71.4142 164.036 66.7889 165.794 63.1813 164.591C59.5736 163.389 56.9835 159.966 56.0584 156.266C55.0409 152.565 55.4109 148.68 55.9659 144.888C58.2785 129.532 64.1988 114.824 73.1718 102.151C75.0218 99.4679 77.1495 94.7502 80.4796 96.1378C83.4398 97.3403 86.6774 101.503 88.805 103.816C93.8928 109.273 98.2405 115.471 101.571 122.132C105.456 129.624 108.046 137.95 109.063 146.46Z" stroke="white" stroke-opacity="0.1" stroke-miterlimit="10"/>
<path d="M87.4191 102.151C93.2469 115.286 97.132 129.347 98.9821 143.593C94.4494 133.51 89.9167 123.427 85.384 113.251C84.0889 126.665 83.9964 140.263 85.014 153.768C78.9087 142.113 76.041 128.792 76.8736 115.656C71.6008 125.832 67.6231 136.747 65.1255 147.941C63.8304 136.007 65.403 123.797 69.5657 112.604C70.8608 109.089 72.4333 105.573 73.3584 101.966" stroke="white" stroke-opacity="0.1" stroke-miterlimit="10"/>
<path d="M90.4733 15.1961C92.7859 10.9409 96.3011 6.40821 101.111 6.1307C106.014 5.76068 110.547 10.7559 109.714 15.6586C112.489 11.1259 118.965 9.46085 123.59 11.9585C128.215 14.4561 130.343 20.8389 128.03 25.5566C131.083 23.244 135.893 24.5391 138.113 27.5917C140.333 30.6444 140.426 34.9921 139.038 38.5073C137.651 42.1149 135.06 45.0751 132.378 47.7577C121.555 58.7657 108.049 67.2762 93.3409 72.2714C90.2883 73.2889 85.7555 75.8791 83.8129 72.8264C82.1479 70.1438 81.9629 64.8711 81.5928 61.7259C80.6678 54.3255 80.8528 46.8327 82.0554 39.4323C83.6279 30.9219 86.4031 22.689 90.4733 15.1961Z" stroke="white" stroke-opacity="0.1" stroke-miterlimit="10"/>
<path d="M81.9609 63.8539C85.0136 49.7932 90.1013 36.1025 96.9467 23.4294C94.6341 34.2524 92.4139 45.0754 90.1013 55.8985C99.0743 45.723 107.122 34.9 114.153 23.3369C112.21 36.38 106.752 48.8682 98.3342 59.0436C108.602 53.8634 118.223 47.4806 126.826 39.8952C120.813 50.2557 112.395 59.2287 102.497 65.889C99.3518 68.0166 96.0216 69.8667 93.154 72.2718" stroke="white" stroke-opacity="0.1" stroke-miterlimit="10"/>
<path d="M16.4692 51.088C13.1391 47.4804 9.90141 42.8551 11.104 38.1374C12.3065 33.3272 18.4118 30.552 22.7595 32.8646C19.3369 28.8869 19.7069 22.1341 23.4996 18.5264C27.2922 14.9188 34.0451 14.9188 37.8378 18.5264C36.6352 14.9188 39.2253 10.7561 42.9255 9.55353C46.5332 8.35097 50.6959 9.64601 53.656 12.0511C56.6162 14.4562 58.6513 17.7864 60.4089 21.2091C67.5317 34.9922 71.4169 50.348 71.6019 65.8887C71.6019 69.1264 72.7119 74.2141 69.1968 75.1392C66.0516 75.9717 61.0564 74.3992 57.9112 73.8441C50.6034 72.4566 43.4805 69.9589 36.8202 66.5363C29.3273 62.5586 22.297 57.2858 16.4692 51.088Z" stroke="white" stroke-opacity="0.1" stroke-miterlimit="10"/>
<path d="M60.0376 74.2143C47.642 66.999 36.1714 57.9335 26.2734 47.388C35.8939 52.9383 45.5144 58.3961 55.1348 63.9463C48.2895 52.2908 40.4266 41.2827 31.6387 30.9222C43.4793 36.75 53.5623 45.9079 60.6851 57.0085C58.9275 45.6304 55.7824 34.5299 51.2496 23.9844C59.205 32.9573 65.1253 43.6878 68.4555 55.2509C69.473 58.8586 70.2131 62.6512 71.6006 66.0739" stroke="white" stroke-opacity="0.1" stroke-miterlimit="10"/>
<path d="M143.383 72.549C148.193 73.474 153.466 75.3241 155.316 79.8568C157.166 84.3896 153.836 90.3099 148.933 90.9574C154.021 92.1599 157.721 97.8027 156.704 102.983C155.779 108.163 150.321 112.141 145.141 111.401C148.286 113.621 148.563 118.524 146.343 121.669C144.123 124.722 140.053 126.109 136.168 125.924C132.375 125.739 128.767 124.166 125.345 122.501C111.469 115.564 99.2583 105.388 90.0079 92.9925C88.0653 90.4023 84.2726 86.8872 86.4927 84.112C88.5278 81.6144 93.523 79.8568 96.3907 78.5618C103.143 75.4166 110.359 73.1965 117.759 72.0864C126.27 70.8839 134.965 70.9764 143.383 72.549Z" stroke="white" stroke-opacity="0.1" stroke-miterlimit="10"/>
<path d="M94.5393 79.4871C108.877 78.007 123.401 78.6545 137.646 81.3372C126.638 82.5397 115.63 83.7423 104.622 84.9449C117.018 90.3101 129.876 94.6578 143.012 97.803C130.061 100.023 116.463 98.6355 104.16 93.7328C112.208 101.873 121.273 108.996 131.171 114.916C119.423 112.419 108.322 107.238 98.887 99.8381C95.9269 97.5255 93.1517 94.9353 89.9141 92.9002" stroke="white" stroke-opacity="0.1" stroke-miterlimit="10"/>
<path d="M32.5634 130.087C28.1232 132.122 22.7579 133.787 18.5952 131.197C14.4325 128.607 13.6925 121.854 17.2076 118.431C12.3049 120.466 6.10711 118.061 3.7945 113.343C1.48188 108.626 3.60949 102.243 8.23471 99.6526C4.44203 99.7451 1.29688 95.8599 1.29688 92.0672C1.29688 88.2746 3.7945 84.7594 7.03215 82.6318C10.2698 80.5967 14.0625 79.6716 17.8552 79.0241C33.1184 76.434 49.0292 77.544 63.8299 82.1693C66.9751 83.0943 72.0628 83.7418 71.8778 87.257C71.6928 90.4947 68.7326 94.7499 67.1601 97.525C63.5524 104.093 59.0197 110.013 53.7469 115.286C47.4566 121.391 40.3338 126.386 32.5634 130.087Z" stroke="white" stroke-opacity="0.1" stroke-miterlimit="10"/>
<path d="M68.0843 95.7671C57.3538 105.388 45.1432 113.436 32.1001 119.633C40.333 112.233 48.4734 104.74 56.7063 97.3397C43.4781 100.3 30.5275 104.37 18.0394 109.55C27.1973 100.115 39.0379 93.2695 51.8035 90.0319C40.518 88.1818 28.9549 87.7192 17.4844 88.8293C28.3999 83.9266 40.518 81.614 52.4511 82.0765C56.2438 82.2615 60.0364 82.6315 63.7366 82.4465" stroke="white" stroke-opacity="0.1" stroke-miterlimit="10"/>
<path d="M82.1471 65.5186C80.5745 65.1486 78.9094 65.0561 77.1518 65.1486C75.2092 65.2411 73.3591 65.7036 71.6016 66.3512" stroke="white" stroke-opacity="0.1" stroke-miterlimit="10"/>
<path d="M66.0508 99.1904C67.9934 100.763 70.2135 102.058 72.7111 102.798" stroke="white" stroke-opacity="0.1" stroke-miterlimit="10"/>
<path d="M86.957 101.595C89.3621 100.393 91.3972 98.7278 93.0623 96.7852" stroke="white" stroke-opacity="0.1" stroke-miterlimit="10"/>
<path d="M59.3906 81.0596C59.7606 78.7469 60.5932 76.6194 61.7957 74.6768" stroke="white" stroke-opacity="0.1" stroke-miterlimit="10"/>
<path d="M93.2461 72.2715C94.7262 74.1216 95.9287 76.2492 96.6688 78.5618" stroke="white" stroke-opacity="0.1" stroke-miterlimit="10"/>
<path d="M1800.6 688.984C1813.5 677.809 1824.12 663.98 1831.67 648.627C1828.14 640.995 1823.43 633.948 1817.68 627.823C1815.23 638.074 1811.59 648.054 1806.77 657.49C1802.1 666.56 1795.43 675.83 1785.44 677.992C1795.43 658.541 1801.1 636.91 1801.97 615.095C1795.9 611.26 1789.37 608.249 1782.6 605.963C1782.69 623.321 1779.79 640.705 1773.94 657.096C1773.21 659.116 1772.4 661.144 1770.91 662.616C1769.39 664.131 1766.96 664.839 1765.11 663.816C1762.1 662.13 1762.71 657.669 1763.63 654.385C1768.45 637.511 1770.59 619.853 1770.01 602.309C1764.1 600.872 1757.96 599.809 1751.87 599.285C1754.12 610.472 1754.72 622.016 1753.63 633.378C1753.27 637.191 1751.86 641.848 1748.11 642.455C1745.08 642.951 1742.36 640.224 1741.63 637.22C1740.87 634.258 1741.57 631.151 1742.05 628.144C1743.62 618.448 1743.17 608.446 1740.7 598.917C1737.16 598.997 1733.69 599.342 1730.29 599.953C1732.7 606.528 1734 613.407 1734.15 620.402C1734.2 622.422 1734.09 624.458 1733.17 626.185C1732.22 627.954 1730.17 629.248 1728.28 628.696C1726.44 628.179 1725.35 626.223 1725.2 624.33C1725.05 622.437 1725.53 620.559 1725.8 618.662C1726.63 612.895 1725.14 606.852 1721.85 602.039C1716.47 603.86 1711.43 606.464 1706.95 610.024C1703.82 612.556 1701.16 615.624 1698.97 618.996C1703.3 626.081 1709.2 632.191 1716.25 636.552C1717.83 637.563 1719.56 638.481 1720.61 640.051C1721.66 641.621 1721.86 643.977 1720.42 645.21C1718.85 646.613 1716.4 645.883 1714.52 644.979C1706.47 641.147 1699.49 635.221 1694.36 627.904C1693.27 630.622 1692.31 633.444 1691.5 636.25C1691.35 636.771 1691.18 637.334 1691.07 637.889C1700.82 650.899 1714.84 660.68 1730.53 664.96C1732.97 665.612 1735.97 666.794 1735.94 669.25C1735.91 670.927 1734.37 672.287 1732.73 672.568C1731.08 672.849 1729.4 672.393 1727.79 671.852C1713.06 667.087 1699.61 658.34 1689.21 646.914C1687.95 655.022 1687.64 663.269 1688.42 671.486C1704.04 683.639 1723.77 690.592 1743.57 690.726C1742.98 693.432 1740.62 695.536 1738.02 696.456C1735.39 697.419 1732.55 697.429 1729.81 697.235C1715.39 696.333 1701.29 690.882 1689.97 681.962C1691.61 690.249 1694.32 698.274 1698.03 705.848C1714.68 711.551 1732.74 713.376 1750.2 710.821C1743.22 718.563 1731.6 719.525 1721.17 719.979C1716.43 720.139 1711.74 720.333 1706.97 720.535C1711.33 726.448 1716.36 731.906 1721.93 736.686C1725.47 735.828 1729 734.97 1732.54 734.112C1740.03 732.315 1747.68 730.503 1755.29 731.42C1752.92 738.12 1748.16 743.928 1741.97 747.503C1741.16 747.973 1740.31 748.408 1739.42 748.809C1742.79 750.654 1746.34 752.286 1749.91 753.722C1755.06 755.741 1760.55 757.337 1765.97 756.603C1775.03 755.312 1785.93 740.442 1785.92 731.293L1779.86 718.111C1784.86 723.415 1789.98 725.126 1796.36 728.58C1802.74 732.034 1810.74 733.418 1817.28 730.275C1822.52 727.767 1826.23 722.803 1829.07 717.692C1830.95 714.273 1832.62 710.68 1833.97 707.041C1827.7 708.561 1821.23 708.932 1814.84 708.088C1813.86 707.991 1812.74 707.713 1812.3 706.784C1811.56 705.26 1813.44 703.827 1815.06 703.238C1820.1 701.413 1825.39 700.575 1830.47 698.862C1832.81 698.084 1835.16 697.033 1837.25 695.773C1839.01 687.226 1839.3 678.396 1838.13 669.79C1837.99 668.753 1837.81 667.681 1837.62 666.609C1827.34 677.172 1814.53 685.027 1800.6 688.984Z" stroke="white" stroke-opacity="0.1" stroke-miterlimit="10"/>
<path d="M1731.39 638.044C1759.17 671.768 1800.79 759.057 1809.87 778.675" stroke="white" stroke-opacity="0.1" stroke-miterlimit="10"/>
<path d="M1705.53 645.758C1715.84 655.051 1730.72 659.022 1744.28 656.037" stroke="white" stroke-opacity="0.1" stroke-miterlimit="10"/>
<path d="M1700.64 668.673C1716.85 680.884 1738.83 685.005 1758.3 679.486" stroke="white" stroke-opacity="0.1" stroke-miterlimit="10"/>
<path d="M1706.01 699.913C1725.88 707.904 1749.6 705.583 1767.52 693.91" stroke="white" stroke-opacity="0.1" stroke-miterlimit="10"/>
<path d="M1724.34 728.035C1742.73 726.517 1760.45 717.939 1773 704.424" stroke="white" stroke-opacity="0.1" stroke-miterlimit="10"/>
<path d="M1761.12 750.504C1769.85 739.666 1775.5 726.371 1777.29 712.604" stroke="white" stroke-opacity="0.1" stroke-miterlimit="10"/>
<path d="M1751.29 666.593C1760.05 650.184 1763.27 630.861 1760.32 612.503" stroke="white" stroke-opacity="0.1" stroke-miterlimit="10"/>
<path d="M1764.63 689.136C1771.39 678.806 1778.1 668.365 1783.01 657.012C1787.96 645.694 1791.05 633.354 1790.25 621.012" stroke="white" stroke-opacity="0.1" stroke-miterlimit="10"/>
<path d="M1769.87 699.947C1779.6 698.278 1787.42 691.23 1794.06 683.912C1803.8 673.051 1812.14 660.968 1818.75 647.966" stroke="white" stroke-opacity="0.1" stroke-miterlimit="10"/>
<path d="M1774.3 707.683C1792.45 707.668 1810.46 699.257 1822.08 685.328" stroke="white" stroke-opacity="0.1" stroke-miterlimit="10"/>
<path d="M1776.95 712.326C1788.33 718.747 1801.73 721.503 1814.72 720.171" stroke="white" stroke-opacity="0.1" stroke-miterlimit="10"/>
<path d="M1758.16 690.637C1758.65 692.808 1756.24 694.8 1753.98 694.792C1751.72 694.783 1749.71 693.425 1747.84 692.171C1746.93 691.715 1747.27 690.786 1747.9 690.023C1748.48 689.225 1749.54 688.886 1750.51 688.555C1751.95 688.101 1753.43 687.759 1754.89 687.964C1756.4 688.203 1757.86 689.187 1758.16 690.637Z" stroke="white" stroke-opacity="0.1" stroke-miterlimit="10"/>
<path d="M1781.79 686.261C1782.39 688.031 1781.32 690.201 1779.6 690.84C1777.34 691.688 1774.46 689.677 1774.72 687.275C1775.22 685.201 1775.27 684.885 1777.25 684.103C1778.97 683.387 1781.18 684.491 1781.79 686.261Z" stroke="white" stroke-opacity="0.1" stroke-miterlimit="10"/>
<path d="M1768.73 673.152C1768.03 673.572 1767.22 673.691 1766.43 673.614C1765.92 673.548 1765.44 673.362 1764.99 673.135C1762.77 672.031 1763.07 668.731 1765.5 668.099C1766.06 667.926 1766.65 667.907 1767.24 667.965C1769.53 668.283 1771.22 671.58 1768.73 673.152Z" stroke="white" stroke-opacity="0.1" stroke-miterlimit="10"/>
<path d="M1765.55 728.842C1765.14 729.077 1764.69 729.2 1764.22 729.246C1761.98 729.392 1761.19 726.978 1761.8 725.281C1762.43 722.61 1765.28 719.561 1768.37 718.048C1770.15 717.169 1772.06 719.16 1771.02 720.86L1768.12 725.782C1767.47 727.015 1766.77 728.214 1765.55 728.842Z" stroke="white" stroke-opacity="0.1" stroke-miterlimit="10"/>
<path d="M87.1928 660.34C84.0336 661.283 78.0482 657.876 71.7613 654.251C68.3427 652.286 64.7968 650.31 62.1332 649.245C57.4199 647.424 46.2179 642.088 43.3572 631.517C41.2704 623.835 44.1464 615.111 51.836 605.588C51.9051 605.53 51.9743 605.472 52.0435 605.414C52.3091 605.309 79.714 593.916 90.5872 610.377C97.4949 620.852 94.4165 631.161 91.7617 640.289C90.2086 645.602 88.6833 650.598 89.3185 655.077C89.6803 657.544 89.2816 659.176 88.0588 659.967C87.7877 660.136 87.522 660.241 87.1928 660.34ZM52.5965 606.424C45.1892 615.651 42.4736 624.004 44.4084 631.224C47.117 641.333 57.954 646.444 62.5456 648.191C65.3365 649.268 68.7551 651.233 72.3591 653.278C78.3445 656.684 85.1181 660.608 87.4366 659.015C88.25 658.509 88.4937 657.184 88.2203 655.173C87.5436 650.435 89.0745 645.375 90.7023 639.94C93.335 631.067 96.3276 621.006 89.6991 611.005C79.6057 595.893 54.5939 605.572 52.5965 606.424Z" fill="white" fill-opacity="0.1"/>
<path d="M88.2037 659.787C88.0073 659.834 87.7583 659.748 87.5786 659.604C87.526 659.472 79.003 648.407 69.4052 631.288C59.8655 614.237 51.8866 606.49 51.8285 606.421C51.5907 606.208 51.624 605.826 51.8315 605.652C52.0445 605.414 52.4262 605.447 52.6005 605.655C52.6585 605.724 60.7536 613.61 70.3459 630.793C79.8856 647.843 88.345 658.902 88.4031 658.971C88.5718 659.242 88.544 659.56 88.2729 659.729C88.3365 659.735 88.2673 659.793 88.2037 659.787Z" fill="white" fill-opacity="0.1"/>
<path d="M84.1908 660.206C83.9943 660.253 83.7398 660.231 83.6292 660.029C83.5075 659.954 74.6412 649.886 59.6277 630.179C51.5167 619.535 47.7839 612.35 48.8772 609.369C49.2149 608.437 49.937 608.243 50.0006 608.249C50.3242 608.213 50.6312 608.368 50.6671 608.691C50.7086 608.951 50.5536 609.258 50.288 609.363C50.288 609.363 50.0224 609.468 49.9255 609.845C49.5601 611.095 49.8247 615.413 60.5214 629.487C75.5405 649.131 84.4123 659.136 84.5285 659.274C84.7663 659.487 84.733 659.869 84.4619 660.038C84.3291 660.09 84.2599 660.148 84.1908 660.206Z" fill="white" fill-opacity="0.1"/>
<path d="M68.7251 652.319C68.5286 652.366 68.2742 652.344 68.0999 652.137C68.0419 652.067 63.9352 646.965 57.2065 639.584C50.4199 632.133 43.8195 620.339 43.767 620.206C43.5983 619.935 43.6896 619.622 43.9607 619.453C44.2319 619.285 44.5445 619.376 44.7132 619.647C44.7657 619.78 51.3771 631.447 58.0421 638.823C64.7707 646.205 68.9356 651.376 68.93 651.44C69.1042 651.647 69.071 652.029 68.8634 652.203C68.8579 652.267 68.7887 652.325 68.7251 652.319Z" fill="white" fill-opacity="0.1"/>
<path d="M89.8694 645.829C89.673 645.876 89.424 645.79 89.2498 645.582C89.1917 645.513 85.8429 640.542 77.7215 627.076C69.6582 613.681 58.8166 604.209 58.6949 604.135C58.457 603.921 58.4212 603.598 58.6342 603.36C58.8473 603.122 59.1709 603.086 59.4088 603.299C59.5304 603.374 70.4881 612.984 78.6676 626.518C86.7891 639.983 90.1434 644.891 90.2015 644.96C90.3702 645.231 90.3424 645.55 90.0713 645.718C90.0022 645.776 89.9386 645.771 89.8694 645.829Z" fill="white" fill-opacity="0.1"/>
<path d="M93.322 633.436C93.0564 633.542 92.8131 633.392 92.6444 633.121C92.6499 633.057 90.0342 627.765 85.9781 619.142C81.9689 610.715 70.1202 602.502 69.9985 602.427C69.7551 602.278 69.6611 601.885 69.8742 601.647C70.0236 601.404 70.4165 601.31 70.6543 601.523C71.1356 601.885 82.8681 609.96 86.9768 618.716C91.0385 627.276 93.6486 632.632 93.6431 632.695C93.8118 632.966 93.6512 633.337 93.3856 633.442L93.322 633.436Z" fill="white" fill-opacity="0.1"/>
<path d="M66.5756 716.686C61.181 718.267 54.257 719.01 47.9949 715.836C40.939 712.208 36.3765 704.245 34.4816 692.156C34.4871 692.093 34.4982 691.965 34.5037 691.902C34.5951 691.589 44.5931 663.677 64.1359 666.727C76.5338 668.642 82.1417 677.849 87.0748 685.972C89.9313 690.708 92.6191 695.174 96.3751 697.681C98.4328 699.078 99.3343 700.503 99.1487 701.897C98.6583 705.316 91.5319 707.644 84.0127 710.065C80.2531 711.276 76.4243 712.545 73.8099 713.855C72.1998 714.677 69.6657 715.802 66.5756 716.686ZM35.6434 692.065C37.5136 703.703 41.8437 711.389 48.5345 714.793C57.8612 719.581 68.9687 714.972 73.3261 712.787C76.0096 711.419 79.7056 710.202 83.6616 708.945C90.1932 706.822 97.6488 704.395 98.0781 701.675C98.225 700.727 97.4174 699.695 95.7884 698.527C91.8526 695.876 89.1123 691.278 86.1342 686.467C81.3116 678.546 75.8724 669.61 63.9835 667.74C46.0146 665.019 36.3935 690.079 35.6434 692.065Z" fill="white" fill-opacity="0.1"/>
<path d="M108.81 705.752C108.613 705.799 108.359 705.777 108.248 705.575C106.564 703.569 100.65 702.284 98.5618 701.974C98.4346 701.963 84.5593 700.817 65.393 696.39C46.354 691.973 35.2667 692.673 35.1395 692.662C34.8158 692.698 34.5835 692.422 34.5421 692.162C34.5062 691.838 34.7829 691.606 35.0429 691.564C35.1701 691.575 46.4482 690.892 65.6145 695.319C84.7172 699.741 98.5289 700.881 98.6561 700.892C99.0378 700.926 106.755 702.111 109.078 704.878C109.253 705.086 109.219 705.467 109.012 705.642C108.943 705.7 108.879 705.694 108.81 705.752Z" fill="white" fill-opacity="0.1"/>
<path d="M96.3615 705.179C96.2979 705.174 96.2343 705.168 96.2288 705.232C96.1015 705.221 82.6521 705.074 57.9666 702.922C44.6059 701.757 36.7751 699.664 35.3483 696.911C34.9114 696.04 35.227 695.362 35.2962 695.304C35.4456 695.061 35.7748 694.961 36.0818 695.116C36.3252 695.265 36.4247 695.595 36.2753 695.838C36.2753 695.838 36.1895 696.087 36.4163 696.427C37.091 697.512 40.5067 700.246 58.0664 701.777C82.6883 703.923 96.0741 704.064 96.2013 704.076C96.5194 704.103 96.7573 704.316 96.7296 704.634C96.771 704.894 96.6271 705.074 96.3615 705.179Z" fill="white" fill-opacity="0.1"/>
<path d="M80.1829 711.334C80.1193 711.329 80.0502 711.387 79.9866 711.381C79.9229 711.375 73.3532 710.995 63.356 710.957C53.2896 710.977 40.0898 707.967 39.9681 707.892C39.6555 707.801 39.4868 707.53 39.5782 707.217C39.6695 706.905 39.9406 706.736 40.2532 706.827C40.3804 706.838 53.453 709.837 63.3866 709.87C73.3838 709.908 80.0172 710.294 80.0809 710.299C80.399 710.327 80.6312 710.604 80.6035 710.922C80.5924 711.049 80.3793 711.287 80.1829 711.334Z" fill="white" fill-opacity="0.1"/>
<path d="M89.5617 691.253C89.4981 691.248 89.4289 691.306 89.3016 691.295C89.238 691.289 83.2852 690.45 67.842 687.436C52.526 684.434 38.2158 686.072 38.025 686.055C37.7013 686.091 37.4635 685.878 37.4276 685.554C37.3917 685.23 37.6047 684.993 37.9284 684.957C38.0556 684.968 52.5622 683.284 68.0691 686.302C83.4487 689.31 89.4014 690.149 89.4651 690.155C89.7832 690.183 90.0155 690.459 89.9242 690.772C89.9656 691.032 89.7581 691.206 89.5617 691.253Z" fill="white" fill-opacity="0.1"/>
<path d="M82.7442 680.465C82.675 680.524 82.5478 680.512 82.4261 680.438C82.3624 680.432 76.6726 678.782 67.5557 676C58.6241 673.298 44.6206 676.565 44.4298 676.548C44.1006 676.648 43.7991 676.429 43.7632 676.105C43.6637 675.776 43.8187 675.469 44.206 675.439C44.7952 675.298 58.6659 672.084 67.91 674.877C76.9633 677.654 82.6531 679.304 82.7167 679.309C83.0293 679.401 83.1925 679.735 83.1067 679.984C83.0208 680.233 82.877 680.413 82.7442 680.465Z" fill="white" fill-opacity="0.1"/>
<path d="M79.4576 773.326C76.6967 774.111 73.651 774.486 70.4865 774.018C62.6417 772.821 55.8022 766.712 50.2113 755.839C50.1532 755.77 50.1643 755.643 50.1699 755.579C50.1976 755.261 50.7934 725.632 70.2492 722.328C82.6147 720.201 90.8511 727.201 98.0723 733.344C102.312 736.919 106.251 740.275 110.626 741.554C113.069 742.216 114.322 743.287 114.587 744.656C115.189 748.042 109.158 752.516 102.786 757.218C99.6321 759.571 96.3453 761.977 94.3062 764.043C91.7828 766.515 86.2962 771.358 79.4576 773.326ZM51.2736 755.419C56.7069 765.893 63.245 771.784 70.7136 772.884C81.023 774.488 90.17 766.631 93.5511 763.144C95.6595 761.02 98.8135 758.666 102.17 756.202C107.722 752.071 114.025 747.428 113.489 744.753C113.312 743.84 112.228 743.04 110.289 742.486C105.722 741.191 101.662 737.76 97.3004 734.11C90.2589 728.111 82.2604 721.324 70.4149 723.368C52.5194 726.424 51.3349 753.245 51.2736 755.419Z" fill="white" fill-opacity="0.1"/>
<path d="M120.682 747.558C120.417 747.663 120.173 747.514 120.005 747.243C119.195 745.505 115.463 744.924 113.994 744.86C112.816 745.142 99.5924 748.284 80.7843 750.042C61.3289 751.871 51.0292 756.038 50.8964 756.09C50.6308 756.195 50.2547 756.098 50.1552 755.769C50.0501 755.504 50.147 755.127 50.4762 755.028C50.609 754.975 61.0414 750.756 80.6933 748.88C100.154 746.987 113.643 743.739 113.776 743.687C113.84 743.692 113.903 743.698 113.967 743.703C114.221 743.726 119.709 744.012 121.015 746.69C121.12 746.955 121.023 747.331 120.757 747.437C120.752 747.5 120.688 747.495 120.682 747.558Z" fill="white" fill-opacity="0.1"/>
<path d="M106.573 750.56C100.52 752.34 90.2098 755.16 75.866 758.653C62.8335 761.812 54.7753 762.327 52.5296 760.144C51.8216 759.441 51.9462 758.747 51.9518 758.683C52.0432 758.371 52.3143 758.202 52.6324 758.23C52.945 758.321 53.1137 758.592 53.0915 758.847C53.0915 758.847 53.0693 759.101 53.4288 759.389C54.3802 760.241 58.4795 761.753 75.7003 757.613C99.7319 751.823 112.46 747.74 112.593 747.687C112.917 747.652 113.229 747.743 113.265 748.067C113.37 748.332 113.21 748.703 112.886 748.739C112.764 748.664 110.651 749.377 106.573 750.56Z" fill="white" fill-opacity="0.1"/>
<path d="M81.3833 765.224C72.1075 767.941 60.536 769.047 60.4032 769.1C60.0796 769.136 59.8417 768.923 59.8058 768.599C59.7699 768.275 59.983 768.038 60.3067 768.002C60.4339 768.013 73.7565 766.674 83.1984 763.523C92.7039 760.377 99.0749 758.625 99.1385 758.63C99.4677 758.531 99.7692 758.749 99.8106 759.009C99.9157 759.275 99.6971 759.576 99.4315 759.681C99.3679 759.676 92.9968 761.428 83.5549 764.58C82.8329 764.773 82.1109 764.966 81.3833 765.224Z" fill="white" fill-opacity="0.1"/>
<path d="M101.993 737.66C101.929 737.654 101.929 737.654 101.993 737.66C101.86 737.712 95.9954 738.803 80.3739 740.775C64.8798 742.758 51.8466 748.865 51.7138 748.918C51.4483 749.023 51.072 748.926 50.967 748.66C50.8619 748.395 50.9588 748.019 51.2244 747.914C51.3572 747.861 64.5923 741.643 80.2773 739.677C95.8351 737.7 101.7 736.608 101.769 736.55C102.093 736.514 102.4 736.669 102.436 736.993C102.408 737.311 102.258 737.554 101.993 737.66Z" fill="white" fill-opacity="0.1"/>
<path d="M91.9918 729.544C91.9282 729.539 91.9282 729.539 91.8591 729.597C91.7954 729.591 85.8756 729.845 76.3652 730.105C67.0512 730.319 54.7868 737.904 54.654 737.956C54.3828 738.125 54.0702 738.034 53.9015 737.763C53.7329 737.491 53.8243 737.179 54.0954 737.01C54.6377 736.673 66.7637 729.204 76.3959 729.018C85.9063 728.757 91.8261 728.504 91.8897 728.51C92.2133 728.474 92.4456 728.751 92.4815 729.074C92.4649 729.265 92.2574 729.439 91.9918 729.544Z" fill="white" fill-opacity="0.1"/>
<path d="M118.94 694.711C118.414 694.858 117.9 694.877 117.396 694.769C114.074 693.903 112.601 686.53 111.035 678.765C110.28 674.917 109.473 670.936 108.492 668.222C106.792 663.459 103.411 651.497 109.524 642.414C113.946 635.812 122.398 632.253 134.619 631.78C134.683 631.786 134.81 631.797 134.868 631.866C135.111 632.015 161.722 645.169 156.41 664.194C153.049 676.274 143.236 680.739 134.624 684.668C129.614 686.988 124.811 689.133 121.886 692.532C120.89 693.664 119.864 694.407 118.94 694.711ZM123.031 634.552C117.307 636.233 113.154 639.012 110.503 642.948C104.684 651.607 107.907 663.171 109.554 667.802C110.594 670.585 111.348 674.433 112.144 678.541C113.476 685.324 115.053 692.962 117.681 693.704C118.619 693.978 119.767 693.309 121.057 691.755C124.189 688.182 129.061 685.978 134.204 683.606C142.614 679.787 152.161 675.427 155.414 663.851C160.275 646.325 136.552 633.872 134.588 632.867C130.218 632.999 126.386 633.563 123.031 634.552Z" fill="white" fill-opacity="0.1"/>
<path d="M111.401 711.363C111.337 711.358 111.268 711.416 111.14 711.405C110.822 711.377 110.654 711.106 110.681 710.788C111.557 705.159 116.856 695.107 117.46 694.07C117.692 692.872 120.517 679.592 126.875 661.812C133.474 643.476 134.126 632.315 134.137 632.187C134.165 631.869 134.442 631.637 134.696 631.659C135.014 631.687 135.247 631.964 135.225 632.218C135.213 632.345 134.555 643.571 127.934 662.161C121.33 680.561 118.541 694.164 118.53 694.292C118.525 694.355 118.519 694.419 118.455 694.413C118.381 694.535 112.644 705.189 111.769 710.818C111.741 711.137 111.597 711.316 111.401 711.363Z" fill="white" fill-opacity="0.1"/>
<path d="M115.203 692.014C115.139 692.008 115.07 692.066 114.942 692.055C114.624 692.028 114.392 691.751 114.483 691.438C114.495 691.311 116.232 678 121.231 653.755C123.911 640.655 126.942 633.098 129.858 632.006C130.787 631.639 131.39 632.076 131.448 632.145C131.686 632.358 131.722 632.682 131.573 632.925C131.423 633.168 131.036 633.199 130.793 633.049C130.793 633.049 130.544 632.964 130.145 633.121C128.945 633.657 125.857 636.722 122.295 654.04C117.297 678.285 115.565 691.533 115.554 691.66C115.543 691.787 115.399 691.967 115.203 692.014Z" fill="white" fill-opacity="0.1"/>
<path d="M110.961 675.233C110.897 675.227 110.764 675.28 110.701 675.274C110.383 675.247 110.219 674.912 110.247 674.594C110.253 674.53 111.397 668.027 112.58 658.129C113.769 648.169 118.278 635.42 118.353 635.298C118.444 634.986 118.773 634.886 119.086 634.977C119.398 635.069 119.498 635.398 119.407 635.711C119.332 635.832 114.898 648.459 113.714 658.357C112.525 668.318 111.381 674.821 111.376 674.884C111.301 675.006 111.163 675.122 110.961 675.233Z" fill="white" fill-opacity="0.1"/>
<path d="M129.755 686.872C129.686 686.93 129.559 686.919 129.437 686.845C129.125 686.753 128.956 686.482 129.047 686.17C129.053 686.106 130.587 680.278 135.417 665.314C140.236 650.476 140.281 635.992 140.229 635.86C140.256 635.542 140.469 635.304 140.793 635.268C141.111 635.296 141.349 635.509 141.385 635.832C141.374 635.959 141.382 650.576 136.482 665.599C131.651 680.563 130.123 686.327 130.118 686.391C130.09 686.709 129.952 686.825 129.755 686.872Z" fill="white" fill-opacity="0.1"/>
<path d="M141.325 681.342C141.192 681.394 141.065 681.383 140.943 681.309C140.631 681.217 140.531 680.888 140.622 680.575C140.628 680.512 142.961 675.074 146.797 666.369C150.558 657.787 148.985 643.482 148.932 643.349C148.896 643.026 149.109 642.788 149.433 642.752C149.757 642.716 149.995 642.929 150.03 643.253C150.108 643.836 151.692 658.014 147.782 666.84C143.946 675.544 141.676 680.988 141.671 681.051C141.66 681.179 141.521 681.295 141.325 681.342Z" fill="white" fill-opacity="0.1"/>
<path d="M168.533 736.217C162.878 737.839 156.934 737.642 151.44 737.419C145.946 737.197 140.707 736.996 136.521 738.683C134.195 739.634 132.53 739.617 131.456 738.69C128.898 736.415 130.878 729.152 133.018 721.517C134.05 717.761 135.163 713.819 135.546 710.904C136.175 705.894 138.587 693.668 148.154 688.348C155.095 684.466 164.204 685.132 175.365 690.207C175.428 690.213 175.55 690.288 175.608 690.357C175.782 690.564 193.517 714.355 180.192 728.964C176.581 732.88 172.674 735.039 168.533 736.217ZM137.689 737.054C141.767 735.871 146.492 736.09 151.476 736.268C160.74 736.627 171.213 737.092 179.298 728.181C191.558 714.762 176.028 692.894 174.709 691.112C163.983 686.202 155.192 685.564 148.654 689.225C139.555 694.329 137.182 706.11 136.569 710.929C136.181 713.908 135.149 717.665 134.03 721.67C132.17 728.303 130.041 735.81 132.123 737.658C132.837 738.297 134.126 738.217 135.985 737.482C136.632 737.41 137.164 737.2 137.689 737.054Z" fill="white" fill-opacity="0.1"/>
<path d="M121.243 751.39C121.174 751.448 121.047 751.437 120.925 751.362C120.612 751.27 120.444 750.999 120.535 750.687C121.698 746.172 131.417 738.366 131.832 738.017C131.832 738.017 140.482 727.04 154.801 713.544C168.981 700.164 174.629 690.528 174.64 690.4C174.789 690.157 175.118 690.057 175.425 690.212C175.669 690.362 175.768 690.691 175.613 690.998C175.538 691.12 169.885 700.82 155.561 714.379C141.312 727.817 132.737 738.673 132.598 738.789C132.391 738.963 122.666 746.834 121.6 750.972C121.583 751.163 121.439 751.343 121.243 751.39Z" fill="white" fill-opacity="0.1"/>
<path d="M130.989 735.188C130.856 735.24 130.665 735.224 130.549 735.085C130.306 734.936 130.212 734.543 130.425 734.305C130.5 734.184 138.068 723.112 153.48 703.685C161.831 693.195 167.876 687.824 170.988 688.16C172.006 688.248 172.333 688.918 172.327 688.981C172.496 689.253 172.335 689.623 172.07 689.728C171.804 689.833 171.491 689.742 171.323 689.471C171.323 689.471 171.149 689.263 170.767 689.23C169.489 689.183 165.336 690.487 154.321 704.336C138.914 723.699 131.346 734.77 131.277 734.828C131.191 735.077 131.122 735.135 130.989 735.188Z" fill="white" fill-opacity="0.1"/>
<path d="M134.835 718.278C134.639 718.325 134.512 718.314 134.332 718.17C134.094 717.957 134.058 717.633 134.208 717.39C134.277 717.332 138.195 712.096 143.726 703.796C149.327 695.438 159.116 686.098 159.191 685.977C159.404 685.739 159.786 685.772 159.96 685.98C160.198 686.193 160.165 686.574 159.957 686.749C159.882 686.87 150.168 696.088 144.642 704.325C139.105 712.688 135.123 717.919 135.054 717.977C135.037 718.167 134.899 718.284 134.835 718.278Z" fill="white" fill-opacity="0.1"/>
<path d="M146.327 737.229C146.131 737.276 145.94 737.259 145.824 737.121C145.586 736.908 145.55 736.584 145.763 736.346C145.833 736.288 149.811 731.827 160.854 720.61C171.885 709.52 178.389 696.689 178.464 696.567C178.619 696.26 178.948 696.16 179.191 696.31C179.435 696.459 179.598 696.794 179.448 697.037C179.374 697.159 172.79 710.176 161.62 721.382C150.583 732.536 146.604 736.997 146.535 737.055C146.529 737.118 146.397 737.171 146.327 737.229Z" fill="white" fill-opacity="0.1"/>
<path d="M159.123 737.512C158.926 737.559 158.672 737.537 158.561 737.335C158.387 737.127 158.42 736.746 158.628 736.571C158.697 736.513 163.198 732.675 170.519 726.646C177.765 720.739 182.792 707.202 182.866 707.08C182.958 706.768 183.287 706.668 183.6 706.76C183.912 706.851 184.012 707.18 183.92 707.493C183.743 708.054 178.733 721.4 171.274 727.545C163.953 733.574 159.388 737.407 159.388 737.407C159.255 737.46 159.186 737.518 159.123 737.512Z" fill="white" fill-opacity="0.1"/>
<path d="M104.872 815.671C104.675 815.718 104.421 815.696 104.31 815.494C104.072 815.281 104.105 814.899 104.313 814.725C151.628 771.283 87.5452 661.46 86.876 660.312C86.7073 660.041 86.7987 659.728 87.0699 659.56C87.341 659.391 87.6535 659.482 87.8222 659.753C87.9909 660.025 104.347 687.862 114.616 720.81C128.244 764.501 124.936 797.291 105.073 815.56C105.068 815.624 104.999 815.682 104.872 815.671Z" fill="white" fill-opacity="0.1"/>
<path d="M1837.05 26.7559C1837.11 26.7559 1837.11 26.8111 1837.16 26.8111C1845.16 35.9715 1870.66 67.4259 1862.16 89.3337L1852.39 114.663C1852.34 114.883 1852.12 114.994 1851.89 114.994C1851.67 114.994 1851.51 114.828 1851.45 114.608C1851.34 114.221 1842.24 77.6348 1833.85 76.1449C1833.19 76.0345 1832.86 76.2552 1832.69 76.4208C1830.92 78.297 1833.24 87.2367 1835.67 96.7282C1838.82 109.089 1842.4 123.106 1839.59 129.617C1834.13 142.31 1818.56 152.96 1818.45 153.07C1818.29 153.181 1818.12 153.181 1817.96 153.07C1817.79 152.96 1817.68 152.794 1817.74 152.629C1818.18 141.703 1818.07 113.394 1811.94 113.062C1811.45 113.062 1811.06 113.173 1810.73 113.504C1808.85 115.38 1809.24 122.333 1809.57 129.728C1810.12 140.764 1810.73 153.236 1805.71 159.196C1796.32 170.398 1789.98 168.632 1789.7 168.522C1789.48 168.466 1789.37 168.246 1789.37 168.025C1789.7 157.375 1789.48 136.295 1786.34 133.039C1786.12 132.818 1785.9 132.708 1785.67 132.708C1783.8 132.652 1783.41 139.826 1783.03 146.724C1782.47 156.492 1781.81 168.687 1776.96 172.771C1768.51 179.944 1726.79 182.814 1725.03 182.98C1724.86 182.98 1724.7 182.924 1724.59 182.759C1724.48 182.593 1724.48 182.428 1724.59 182.262C1725.25 181.214 1792.41 77.7452 1836.39 26.7007C1836.5 26.5903 1836.61 26.5352 1836.77 26.5352C1836.88 26.6455 1836.99 26.7007 1837.05 26.7559ZM1852.06 112.897L1861.33 88.9474C1869.39 67.9226 1845.05 37.4062 1836.77 27.8596C1794.89 76.5863 1732.37 172.219 1725.91 182.097C1732.37 181.6 1768.79 178.565 1776.29 172.219C1780.82 168.411 1781.48 156.436 1781.98 146.835C1782.47 138.116 1782.8 131.825 1785.62 131.88C1786.12 131.88 1786.56 132.101 1786.94 132.542C1790.92 136.681 1790.37 163.941 1790.25 167.804C1791.69 167.97 1797.15 167.859 1804.88 158.699C1809.68 153.015 1809.02 140.157 1808.52 129.893C1808.13 121.616 1807.8 115.104 1809.96 112.897C1810.51 112.345 1811.17 112.124 1811.94 112.124C1819.61 112.455 1818.89 144.627 1818.67 151.691C1821.87 149.373 1834.07 139.992 1838.71 129.231C1841.41 122.995 1837.88 109.144 1834.73 96.9489C1831.75 85.1949 1829.99 77.9107 1832.03 75.7586C1832.53 75.2067 1833.19 75.0412 1834.07 75.2067C1842.13 76.6415 1850.18 105.889 1852.06 112.897Z" fill="white" fill-opacity="0.1"/>
<path d="M1831.75 23.5009C1831.86 23.5561 1831.92 23.6664 1831.92 23.7768C1831.97 23.9424 1831.92 24.1079 1831.86 24.2183C1798.37 69.1374 1728.06 173.103 1725.47 182.76C1725.41 182.98 1725.25 183.091 1725.03 183.091C1724.81 183.091 1724.64 182.925 1724.59 182.76C1724.09 181.049 1713.05 141.372 1716.86 130.998C1719.01 125.038 1730.22 120.237 1739.21 116.319C1745.56 113.56 1752.12 110.746 1751.46 108.98C1751.41 108.759 1751.19 108.649 1750.91 108.483C1746.6 106.607 1724.97 114.553 1717.03 117.754C1716.81 117.864 1716.59 117.754 1716.47 117.588C1716.31 117.368 1712.45 112.07 1719.73 99.3778C1723.59 92.5903 1735.51 88.8378 1746.05 85.5268C1753.12 83.3195 1759.79 81.2225 1760.9 78.8497C1761.12 78.4082 1761.12 77.9667 1760.9 77.5253C1758.52 71.9518 1731.87 81.6088 1721.77 85.8027C1721.61 85.8579 1721.39 85.8579 1721.28 85.7476C1721.11 85.6372 1721.06 85.4165 1721.11 85.2509C1721.17 85.0854 1725.8 66.7645 1735.79 57.273C1740.98 52.3617 1755.32 50.8718 1768.02 49.5474C1777.73 48.5541 1786.94 47.5608 1788.1 45.2983C1788.21 45.0775 1788.32 44.7464 1787.99 44.1394C1784.63 38.4555 1759.9 39.4488 1745.89 40.9388C1745.67 40.9388 1745.45 40.8284 1745.39 40.6629C1745.28 40.4973 1745.34 40.2766 1745.5 40.111C1745.67 40.0007 1746.94 38.8418 1759.3 27.9707L1765.92 22.1765C1782.64 7.49775 1817.57 18.2033 1831.81 23.5009C1831.7 23.4457 1831.75 23.5009 1831.75 23.5009ZM1725.08 181.104C1732.15 165.267 1797.43 68.8615 1830.7 24.1079C1819.01 19.8036 1782.92 8.3255 1766.42 22.7835L1759.79 28.5777C1752.07 35.3653 1748.65 38.4004 1747.16 39.7248C1755.93 38.8418 1784.68 36.6345 1788.76 43.5876C1789.21 44.305 1789.26 45.0223 1788.93 45.6845C1787.61 48.3333 1780.16 49.2163 1768.07 50.4855C1755.54 51.8099 1741.36 53.2446 1736.4 57.9352C1727.9 65.992 1723.32 80.6707 1722.21 84.4783C1728.28 81.9951 1754.55 71.6207 1760.68 75.8698C1761.12 76.2009 1761.5 76.5871 1761.67 77.0838C1761.95 77.8012 1761.95 78.5186 1761.67 79.1808C1760.4 81.9399 1754.17 83.9265 1746.22 86.4098C1736.4 89.5 1724.15 93.3628 1720.45 99.8193C1714.54 110.194 1716.31 115.381 1716.97 116.65C1720.56 115.215 1745.89 105.227 1751.19 107.545C1751.74 107.766 1752.07 108.097 1752.23 108.593C1753.23 111.187 1747.49 113.725 1739.49 117.147C1730.66 120.954 1719.68 125.7 1717.69 131.274C1714.38 140.379 1723.1 173.765 1725.08 181.104Z" fill="white" fill-opacity="0.1"/>
<path d="M1851.12 0.268325C1851.18 0.323508 1851.12 0.323508 1851.12 0.268325C1853.39 2.3101 1855.48 4.02078 1857.47 5.6211C1857.58 5.73146 1857.64 5.84183 1857.64 6.00738C1857.64 6.17293 1857.58 6.28329 1857.47 6.39366C1851.9 11.1394 1845.05 18.2029 1837.11 27.4736C1793.18 78.4078 1726.08 181.876 1725.42 182.925C1725.31 183.145 1725.03 183.201 1724.81 183.09C1724.59 182.98 1724.48 182.759 1724.53 182.538C1727.24 172.55 1796.71 69.7992 1831.09 23.666C1840.58 10.8635 1846.76 3.35858 1849.36 1.26162L1849.47 1.15126C1849.85 0.87534 1850.19 0.599424 1850.57 0.323508C1850.74 0.157958 1850.96 0.157959 1851.12 0.268325ZM1856.42 6.00738C1854.6 4.57262 1852.78 3.02749 1850.79 1.31681C1850.57 1.48236 1850.3 1.70309 1850.02 1.92382L1849.91 2.03419C1847.43 4.02078 1841.19 11.6913 1831.86 24.2178C1802.62 63.5083 1745.17 147.883 1729.44 174.978C1745.72 150.201 1799.25 69.9095 1836.39 26.8666C1844.17 17.8166 1850.9 10.8083 1856.42 6.00738Z" fill="white" fill-opacity="0.1"/>
<path d="M1822.04 36.1927C1822.26 36.3582 1822.32 36.6341 1822.21 36.7997C1822.1 37.0204 1821.77 37.1308 1821.55 36.9652C1821.38 36.9101 1806.81 28.7981 1793.13 29.074C1779.22 29.35 1765.98 22.9487 1765.87 22.8383C1765.64 22.728 1765.53 22.4521 1765.64 22.1761C1765.76 21.9554 1766.03 21.845 1766.31 21.9554C1766.42 22.0106 1779.44 28.3567 1793.13 28.0807C1807.03 27.86 1821.88 36.0823 1822.04 36.1927C1822.04 36.1375 1822.04 36.1375 1822.04 36.1927Z" fill="white" fill-opacity="0.1"/>
<path d="M1800.85 66.5982C1800.96 66.7086 1801.07 66.8741 1801.07 67.0397C1801.07 67.3156 1800.79 67.4811 1800.57 67.4811C1800.3 67.4811 1774.31 65.4393 1760.84 62.4594C1747.6 59.5347 1728.89 68.2537 1728.67 68.3089C1728.45 68.4192 1728.12 68.3089 1728.01 68.0881C1727.9 67.8674 1728.01 67.5363 1728.23 67.4259C1729 67.0397 1747.43 58.4863 1761.01 61.5213C1774.36 64.5012 1800.3 66.4878 1800.57 66.543C1800.68 66.543 1800.79 66.543 1800.85 66.5982Z" fill="white" fill-opacity="0.1"/>
<path d="M1780.21 96.5081C1780.32 96.5632 1780.43 96.7288 1780.43 96.8943C1780.43 97.1703 1780.27 97.391 1779.99 97.391C1779.77 97.391 1759.52 98.8809 1746.66 97.8876C1734.02 96.8943 1716.47 110.58 1716.31 110.745C1716.09 110.911 1715.81 110.856 1715.65 110.69C1715.48 110.469 1715.54 110.193 1715.7 110.028C1716.42 109.476 1733.69 95.9562 1746.71 97.0047C1759.52 97.998 1779.71 96.5632 1779.94 96.5081C1779.99 96.3977 1780.1 96.4529 1780.21 96.5081Z" fill="white" fill-opacity="0.1"/>
<path d="M1754.66 134.474C1754.77 134.53 1754.83 134.64 1754.83 134.75C1754.88 135.026 1754.77 135.247 1754.5 135.357C1754.44 135.357 1750.25 136.571 1737.45 141.924C1724.7 147.222 1718.52 152.961 1718.46 153.016C1718.24 153.181 1717.97 153.181 1717.8 153.016C1717.63 152.795 1717.63 152.519 1717.8 152.354C1717.86 152.299 1724.15 146.394 1737.06 141.041C1749.92 135.688 1754.06 134.53 1754.22 134.474C1754.39 134.364 1754.5 134.364 1754.66 134.474Z" fill="white" fill-opacity="0.1"/>
<path d="M1826.57 39.3375C1826.68 39.4478 1834.84 47.0079 1844.17 64.0595C1853.44 81.0008 1860.94 91.596 1861.05 91.7063C1861.22 91.9271 1861.17 92.203 1860.94 92.3685C1860.72 92.5341 1860.45 92.4789 1860.28 92.2582C1860.23 92.1478 1852.67 81.4974 1843.34 64.501C1834.07 47.615 1826.07 40.1652 1825.96 40.11C1825.74 39.9445 1825.74 39.6134 1825.9 39.4478C1826.12 39.2271 1826.4 39.1719 1826.57 39.3375Z" fill="white" fill-opacity="0.1"/>
<path d="M1803.89 68.6958C1803.94 68.751 1804 68.8062 1804.05 68.9166C1804.16 69.1373 1813.21 89.1688 1816.08 93.5283C1816.58 94.2457 1817.07 94.9078 1817.57 95.6252C1820.28 99.3225 1823.37 103.461 1825.74 117.533C1828.5 133.978 1831.53 141.096 1831.53 141.207C1831.64 141.427 1831.53 141.758 1831.26 141.814C1831.04 141.924 1830.7 141.814 1830.59 141.538C1830.54 141.482 1827.5 134.253 1824.74 117.643C1822.43 103.792 1819.39 99.7088 1816.74 96.1219C1816.25 95.4045 1815.69 94.7423 1815.25 93.9697C1812.33 89.5551 1803.55 70.0202 1803.17 69.1925C1803.06 68.9717 1803.17 68.6406 1803.39 68.5303C1803.55 68.5855 1803.72 68.5855 1803.89 68.6958Z" fill="white" fill-opacity="0.1"/>
<path d="M1783.08 98.4949C1783.14 98.4949 1783.14 98.5501 1783.19 98.5501C1783.36 98.7156 1786.89 102.689 1788.82 109.476C1790.7 115.933 1792.74 122.058 1797.59 133.978C1802.34 145.732 1798.97 164.77 1798.81 165.598C1798.75 165.874 1798.53 166.039 1798.26 165.984C1797.98 165.929 1797.81 165.708 1797.87 165.432C1797.93 165.211 1801.35 145.842 1796.71 134.364C1791.86 122.389 1789.81 116.264 1787.88 109.752C1786.01 103.241 1782.47 99.2675 1782.42 99.2123C1782.25 98.9915 1782.25 98.7156 1782.47 98.5501C1782.64 98.3845 1782.92 98.3845 1783.08 98.4949Z" fill="white" fill-opacity="0.1"/>
<path d="M1756.87 134.694C1756.98 134.805 1757.09 134.915 1757.09 135.081C1757.09 135.136 1756.92 141.592 1757.48 144.572C1757.75 146.007 1757.48 148.38 1757.09 151.691C1756.65 155.609 1756.04 160.52 1756.15 166.038C1756.32 175.64 1758.8 177.848 1758.8 177.903C1759.02 178.068 1759.02 178.399 1758.85 178.565C1758.69 178.786 1758.36 178.786 1758.19 178.62C1758.08 178.51 1755.38 176.192 1755.16 166.038C1755.05 160.465 1755.65 155.554 1756.1 151.58C1756.48 148.49 1756.76 146.117 1756.48 144.793C1755.93 141.703 1756.1 135.357 1756.1 135.081C1756.1 134.805 1756.32 134.584 1756.59 134.584C1756.7 134.639 1756.76 134.639 1756.87 134.694Z" fill="white" fill-opacity="0.1"/>
</svg>
