<svg width="159" height="51" viewBox="0 0 159 51" fill="none" xmlns="http://www.w3.org/2000/svg">
<path d="M85.209 32.8159C85.209 32.9162 85.1953 33.021 85.168 33.1304C85.1497 33.2397 85.0996 33.3309 85.0176 33.4038C84.6074 33.7137 84.1608 34.0008 83.6777 34.2651C83.2038 34.5203 82.6888 34.7437 82.1328 34.9351C81.5768 35.1265 80.9753 35.2723 80.3281 35.3726C79.6901 35.4819 79.002 35.5366 78.2637 35.5366C76.6048 35.5366 75.0918 35.2951 73.7246 34.812C72.3574 34.3198 71.1816 33.6271 70.1973 32.7339C69.222 31.8407 68.4655 30.7697 67.9277 29.521C67.39 28.2632 67.1211 26.8687 67.1211 25.3374C67.1211 24.4715 67.2305 23.6193 67.4492 22.7808C67.6771 21.9422 68.0052 21.1447 68.4336 20.3882C68.862 19.6317 69.3906 18.939 70.0195 18.3101C70.6484 17.672 71.3639 17.1206 72.166 16.6558C72.9772 16.1909 73.8659 15.8309 74.832 15.5757C75.8073 15.3114 76.86 15.1792 77.9902 15.1792C78.4277 15.1792 78.8743 15.202 79.3301 15.2476C79.7858 15.284 80.237 15.3433 80.6836 15.4253C81.1302 15.4982 81.5586 15.5894 81.9688 15.6987C82.388 15.8081 82.7845 15.9312 83.1582 16.0679L84.0879 18.5972L83.9785 18.6519C83.623 18.3328 83.2129 18.0366 82.748 17.7632C82.2832 17.4897 81.7865 17.2528 81.2578 17.0522C80.7292 16.8517 80.1732 16.6968 79.5898 16.5874C79.0156 16.4689 78.4323 16.4097 77.8398 16.4097C76.6914 16.4097 75.6387 16.592 74.6816 16.9565C73.7246 17.312 72.8997 17.8315 72.207 18.5151C71.5234 19.1987 70.9902 20.0373 70.6074 21.0308C70.2246 22.0243 70.0332 23.1545 70.0332 24.4214C70.0332 25.8159 70.2155 27.1102 70.5801 28.3042C70.9447 29.4982 71.487 30.5327 72.207 31.4077C72.9271 32.2827 73.8249 32.9709 74.9004 33.4722C75.985 33.9644 77.2474 34.2104 78.6875 34.2104C79.3255 34.2104 79.8952 34.1603 80.3965 34.0601C80.8978 33.9598 81.3216 33.8368 81.668 33.6909C82.0143 33.536 82.2741 33.3719 82.4473 33.1987C82.6296 33.0164 82.7207 32.8524 82.7207 32.7065V32.1733C82.7207 31.5353 82.7116 30.9839 82.6934 30.519C82.6751 30.0542 82.6478 29.6532 82.6113 29.3159C82.5749 28.9696 82.5339 28.6733 82.4883 28.4272C82.4427 28.1812 82.388 27.9533 82.3242 27.7437V27.689H85.6055V27.7437C85.5508 27.9351 85.4961 28.1629 85.4414 28.4272C85.3958 28.6825 85.3548 28.9878 85.3184 29.3433C85.2819 29.6987 85.2546 30.118 85.2363 30.6011C85.2181 31.075 85.209 31.6265 85.209 32.2554V32.8159ZM88.9688 20.019C88.9688 19.2443 88.9551 18.5698 88.9277 17.9956C88.9095 17.4123 88.8822 16.911 88.8457 16.4917C88.8184 16.0724 88.7773 15.7215 88.7227 15.439C88.6771 15.1564 88.627 14.9194 88.5723 14.728V14.6733H91.7305V14.728C91.6758 14.9194 91.6257 15.1564 91.5801 15.439C91.5345 15.7215 91.4935 16.0724 91.457 16.4917C91.4206 16.911 91.3932 17.4123 91.375 17.9956C91.3568 18.5698 91.3477 19.2443 91.3477 20.019V29.7671C91.3477 30.5418 91.3568 31.2209 91.375 31.8042C91.3932 32.3784 91.4206 32.8752 91.457 33.2944C91.4935 33.7137 91.5345 34.0646 91.5801 34.3472C91.6257 34.6297 91.6758 34.8667 91.7305 35.0581V35.1128H88.5723V35.0581C88.627 34.8667 88.6771 34.6297 88.7227 34.3472C88.7773 34.0646 88.8184 33.7137 88.8457 33.2944C88.8822 32.8752 88.9095 32.3784 88.9277 31.8042C88.9551 31.2209 88.9688 30.5418 88.9688 29.7671V20.019ZM94.4922 28.0854C94.4922 27.0555 94.6836 26.103 95.0664 25.228C95.4492 24.3439 95.9733 23.5783 96.6387 22.9312C97.3132 22.284 98.1061 21.7782 99.0176 21.4136C99.929 21.049 100.909 20.8667 101.957 20.8667C102.987 20.8667 103.953 21.0399 104.855 21.3862C105.767 21.7235 106.56 22.2065 107.234 22.8354C107.909 23.4644 108.438 24.23 108.82 25.1323C109.212 26.0347 109.408 27.0464 109.408 28.1675C109.408 29.1063 109.244 30.0086 108.916 30.8745C108.588 31.7404 108.105 32.506 107.467 33.1714C106.829 33.8368 106.045 34.37 105.115 34.771C104.195 35.1629 103.133 35.3589 101.93 35.3589C100.909 35.3589 99.9473 35.1903 99.0449 34.853C98.1426 34.5158 97.3542 34.0327 96.6797 33.4038C96.0052 32.7749 95.472 32.0138 95.0801 31.1206C94.6882 30.2183 94.4922 29.2065 94.4922 28.0854ZM102.244 34.3608C102.891 34.3608 103.484 34.2332 104.021 33.978C104.568 33.7228 105.038 33.3537 105.43 32.8706C105.822 32.3875 106.127 31.7996 106.346 31.1069C106.564 30.4142 106.674 29.6304 106.674 28.7554C106.674 27.771 106.569 26.8595 106.359 26.021C106.15 25.1733 105.835 24.4442 105.416 23.8335C105.006 23.2137 104.486 22.7306 103.857 22.3843C103.229 22.0379 102.495 21.8647 101.656 21.8647C101.009 21.8647 100.417 21.9924 99.8789 22.2476C99.3411 22.4937 98.8717 22.8537 98.4707 23.3276C98.0788 23.8016 97.7734 24.3849 97.5547 25.0776C97.3359 25.7612 97.2266 26.5405 97.2266 27.4155C97.2266 28.3999 97.3314 29.3159 97.541 30.1636C97.7598 31.0112 98.0788 31.7495 98.498 32.3784C98.9173 32.9982 99.4368 33.4858 100.057 33.8413C100.686 34.1877 101.415 34.3608 102.244 34.3608ZM121.713 22.3706L125.363 31.5581L128.412 23.9429C128.476 23.7788 128.549 23.5965 128.631 23.396C128.713 23.1864 128.786 22.9767 128.85 22.7671C128.913 22.5483 128.968 22.3433 129.014 22.1519C129.059 21.9513 129.082 21.7736 129.082 21.6187C129.082 21.5002 129.073 21.4045 129.055 21.3315C129.036 21.2495 129.018 21.1948 129 21.1675V21.1128H131.461V21.1675C131.297 21.3407 131.096 21.6278 130.859 22.0288C130.632 22.4207 130.358 22.995 130.039 23.7515L125.186 35.3042H124.406L120.879 26.7456L117.352 35.3042H116.572L112.088 24.4214C111.924 24.0203 111.746 23.6375 111.555 23.2729C111.372 22.8993 111.195 22.5666 111.021 22.2749C110.857 21.9832 110.712 21.7417 110.584 21.5503C110.456 21.3498 110.37 21.2222 110.324 21.1675V21.1128H113.961V21.1675C113.943 21.2131 113.929 21.2814 113.92 21.3726C113.911 21.4637 113.906 21.5457 113.906 21.6187C113.906 21.9012 113.947 22.2157 114.029 22.562C114.12 22.8993 114.266 23.3231 114.467 23.8335L117.516 31.5581L121.193 22.3706H121.713ZM133.594 26.4585C133.594 25.6838 133.58 25.0093 133.553 24.4351C133.535 23.8517 133.507 23.3504 133.471 22.9312C133.443 22.5119 133.402 22.161 133.348 21.8784C133.302 21.5959 133.252 21.3589 133.197 21.1675V21.1128H136.355V21.1675C136.301 21.3589 136.251 21.5959 136.205 21.8784C136.16 22.161 136.118 22.5119 136.082 22.9312C136.046 23.3504 136.018 23.8517 136 24.4351C135.982 25.0093 135.973 25.6838 135.973 26.4585V29.7671C135.973 30.5418 135.982 31.2209 136 31.8042C136.018 32.3784 136.046 32.8752 136.082 33.2944C136.118 33.7137 136.16 34.0646 136.205 34.3472C136.251 34.6297 136.301 34.8667 136.355 35.0581V35.1128H133.197V35.0581C133.252 34.8667 133.302 34.6297 133.348 34.3472C133.402 34.0646 133.443 33.7137 133.471 33.2944C133.507 32.8752 133.535 32.3784 133.553 31.8042C133.58 31.2209 133.594 30.5418 133.594 29.7671V26.4585ZM133.307 16.9702C133.307 16.7697 133.343 16.5828 133.416 16.4097C133.498 16.2274 133.603 16.0724 133.73 15.9448C133.858 15.8081 134.008 15.7033 134.182 15.6304C134.364 15.5483 134.56 15.5073 134.77 15.5073C134.979 15.5073 135.171 15.5483 135.344 15.6304C135.526 15.7033 135.681 15.8081 135.809 15.9448C135.945 16.0724 136.05 16.2274 136.123 16.4097C136.205 16.5828 136.246 16.7697 136.246 16.9702C136.246 17.3895 136.105 17.7404 135.822 18.0229C135.54 18.3055 135.189 18.4468 134.77 18.4468C134.56 18.4468 134.364 18.4103 134.182 18.3374C134.008 18.2554 133.858 18.1506 133.73 18.0229C133.603 17.8862 133.498 17.7313 133.416 17.5581C133.343 17.3758 133.307 17.1799 133.307 16.9702ZM145.023 29.2339L141.742 33.3765C141.624 33.5314 141.501 33.6909 141.373 33.855C141.255 34.019 141.145 34.1785 141.045 34.3335C140.954 34.4884 140.876 34.6343 140.812 34.771C140.758 34.9077 140.73 35.0216 140.73 35.1128H138.434V35.0581C138.579 34.9305 138.78 34.7391 139.035 34.4839C139.299 34.2287 139.577 33.9142 139.869 33.5405L144.176 28.0854L139.951 22.3706C139.714 22.0607 139.482 21.7964 139.254 21.5776C139.026 21.3589 138.857 21.2222 138.748 21.1675V21.1128H142.494C142.494 21.2677 142.549 21.5138 142.658 21.8511C142.777 22.1792 143.005 22.5757 143.342 23.0405L145.666 26.2124L148.318 22.8491C148.428 22.7033 148.537 22.5483 148.646 22.3843C148.765 22.2202 148.865 22.0607 148.947 21.9058C149.038 21.7417 149.111 21.5913 149.166 21.4546C149.221 21.3179 149.248 21.2039 149.248 21.1128H151.545V21.1675C151.417 21.2677 151.258 21.4136 151.066 21.605C150.875 21.7964 150.624 22.0881 150.314 22.48L146.5 27.3335L151.094 33.5405C151.404 33.9507 151.691 34.2879 151.955 34.5522C152.219 34.8166 152.411 34.9852 152.529 35.0581V35.1128H148.797C148.797 34.9578 148.738 34.7118 148.619 34.3745C148.501 34.0282 148.282 33.6317 147.963 33.1851L145.023 29.2339Z" fill="white"/>
<path d="M154.211 33.9097C154.211 33.7091 154.247 33.5223 154.32 33.3491C154.402 33.1668 154.507 33.0119 154.635 32.8843C154.771 32.7476 154.926 32.6427 155.1 32.5698C155.282 32.4878 155.473 32.4468 155.674 32.4468C155.883 32.4468 156.075 32.4878 156.248 32.5698C156.43 32.6427 156.585 32.7476 156.713 32.8843C156.85 33.0119 156.954 33.1668 157.027 33.3491C157.109 33.5223 157.15 33.7091 157.15 33.9097C157.15 34.3289 157.009 34.6799 156.727 34.9624C156.444 35.245 156.093 35.3862 155.674 35.3862C155.473 35.3862 155.282 35.3452 155.1 35.2632C154.926 35.1903 154.771 35.09 154.635 34.9624C154.507 34.8257 154.402 34.6707 154.32 34.4976C154.247 34.3153 154.211 34.1193 154.211 33.9097Z" fill="#CD5F37"/>
<circle cx="25" cy="25.1128" r="25" fill="#CD5F37"/>
<g clip-path="url(#clip0_120_9427)">
<path d="M25.5706 23.1388C25.2414 23.4179 24.7587 23.4179 24.4295 23.1388C21.3099 20.4943 19.7059 17.9279 19.7059 15.4069C19.7059 12.483 22.0762 10.1128 25 10.1128C27.9238 10.1128 30.2941 12.483 30.2941 15.4069C30.2941 17.9279 28.6901 20.4943 25.5706 23.1388ZM25.5706 27.0868C28.6901 29.7313 30.2941 32.2977 30.2941 34.8187C30.2941 37.7426 27.9239 40.1128 25 40.1128C22.0761 40.1128 19.7059 37.7426 19.7059 34.8187C19.7059 32.2977 21.3099 29.7313 24.4294 27.0868C24.7587 26.8077 25.2413 26.8077 25.5706 27.0868ZM26.974 25.6834C26.6949 25.3542 26.6949 24.8714 26.974 24.5423C29.6185 21.4227 32.1849 19.8187 34.7059 19.8187C37.6298 19.8187 40 22.1889 40 25.1128C40 28.0367 37.6298 30.4069 34.7059 30.4069C32.1849 30.4069 29.6185 28.8029 26.974 25.6834ZM23.026 25.6834C20.3815 28.8029 17.8151 30.4069 15.2941 30.4069C12.3702 30.4069 10 28.0367 10 25.1128C10 22.1889 12.3702 19.8187 15.2941 19.8187C17.8151 19.8187 20.3815 21.4227 23.026 24.5422C23.3051 24.8714 23.3051 25.3541 23.026 25.6834Z" fill="white"/>
</g>
<defs>
<clipPath id="clip0_120_9427">
<rect width="30" height="30" fill="white" transform="translate(10 10.1128)"/>
</clipPath>
</defs>
</svg>
