<svg xmlns="http://www.w3.org/2000/svg" width="64" height="64" viewBox="0 0 64 64" fill="none"><g clip-path="url(#clip0_198_339)"><path d="M62.125 36.5H32.5864C31.9918 36.5 31.6357 37.1582 31.9585 37.6582C33.0615 39.3667 33.7144 41.3935 33.7485 43.5708C33.8458 49.7613 28.8496 54.9136 22.6588 54.999C16.373 55.0855 11.25 50.0163 11.25 43.75C11.25 41.5039 11.9088 39.4121 13.043 37.6562C13.3653 37.1572 13.0074 36.5 12.4136 36.5H1.875C0.839375 36.5 0 37.3394 0 38.375V62.125C0 63.1606 0.839375 64 1.875 64H62.125C63.1606 64 64 63.1606 64 62.125V38.375C64 37.3394 63.1606 36.5 62.125 36.5Z" fill="black"></path><path d="M17.2722 38.375C15.8283 39.7793 14.9474 41.7592 15.0027 43.9449C15.1042 47.9429 18.3918 51.1924 22.3908 51.2495C26.5833 51.3091 30.0002 47.9287 30.0002 43.75C30.0002 41.6416 29.1291 39.7378 27.7282 38.375C26.2577 25.022 17.1267 12.669 4.29707 8.75288C3.67457 8.56288 3.20957 9.33788 3.67357 9.79438C11.2561 17.2519 16.3614 27.814 17.2722 38.375ZM22.5002 41.875C23.5358 41.875 24.3752 42.7144 24.3752 43.75C24.3752 44.7856 23.5358 45.625 22.5002 45.625C21.4646 45.625 20.6252 44.7856 20.6252 43.75C20.6252 42.7144 21.4646 41.875 22.5002 41.875ZM55.3889 16.352L56.3802 17.3433C57.1121 18.0753 58.2996 18.0753 59.0314 17.3433C59.7639 16.6108 59.7639 15.4239 59.0314 14.6914L55.4963 11.1558L58.1476 8.5045L60.7996 11.1558C60.9734 11.3301 61.1801 11.4684 61.4076 11.5627C61.6351 11.657 61.8789 11.7054 62.1252 11.7051C62.6052 11.7051 63.0852 11.522 63.4508 11.1558C64.1833 10.4233 64.1833 9.23638 63.4508 8.5045L55.4958 0.549375C54.7638 -0.183125 53.5763 -0.183125 52.8444 0.549375C52.1119 1.28125 52.1119 2.46875 52.8444 3.20062L55.4963 5.8525L52.8444 8.50438L49.3088 4.96875C48.5763 4.23625 47.3893 4.23625 46.6569 4.96875C45.9249 5.70125 45.9249 6.88812 46.6569 7.62L47.5412 8.50438L39.6936 16.352H55.3889ZM33.7023 32.1729C34.1823 32.1729 34.6623 31.9902 35.0281 31.6241L38.7023 27.9498L40.0281 29.2754C40.7604 30.0079 41.9474 30.0079 42.6793 29.2754L51.8532 20.102H35.9436L34.7248 21.3207C33.9923 22.0527 33.9923 23.2397 34.7248 23.9721L36.0504 25.2979L32.3767 28.9721C31.6442 29.7046 31.6442 30.8916 32.3767 31.624C32.5506 31.7983 32.7573 31.9364 32.9848 32.0306C33.2123 32.1248 33.4561 32.1731 33.7023 32.1727V32.1729Z" fill="black"></path></g><defs><clipPath id="clip0_198_339"><rect width="64" height="64" fill="white"></rect></clipPath></defs></svg>