<svg xmlns="http://www.w3.org/2000/svg" width="64" height="64" viewBox="0 0 64 64" fill="none"><g clip-path="url(#clip0_198_290)"><path d="M33.3333 30.6667C32.6971 30.6677 32.0818 30.4395 31.6 30.024L25.3253 24.648C24.0071 23.512 23.0937 21.9783 22.7229 20.2781C22.3521 18.5778 22.5438 16.8031 23.2693 15.2214L29.5787 1.54937C29.7254 1.23139 29.9333 0.945433 30.1906 0.707815C30.4478 0.470196 30.7493 0.285572 31.0779 0.164485C31.4065 0.0433973 31.7558 -0.0117829 32.1057 0.00209484C32.4556 0.0159726 32.7994 0.0986365 33.1173 0.245367C33.4353 0.392097 33.7213 0.60002 33.9589 0.857265C34.1965 1.11451 34.3811 1.41604 34.5022 1.74463C34.6233 2.07323 34.6785 2.42246 34.6646 2.77238C34.6507 3.1223 34.5681 3.46606 34.4213 3.78403L28.112 17.456C27.6133 18.5334 27.896 19.8267 28.7973 20.5974L35.0693 25.9734C35.4853 26.3271 35.7825 26.8002 35.9207 27.3285C36.0589 27.8568 36.0315 28.4147 35.842 28.9269C35.6526 29.4391 35.3103 29.8806 34.8616 30.1918C34.4129 30.503 33.8794 30.6688 33.3333 30.6667ZM32.0507 63.976C28.5062 63.9905 25.0456 62.8979 22.152 60.8507C15.7707 56.2827 13.7973 48.2 17.3653 41.5654L18.2053 40H2.66667C1.95942 40 1.28115 39.7191 0.781049 39.219C0.280952 38.7189 0 38.0406 0 37.3334C0 36.6261 0.280952 35.9478 0.781049 35.4478C1.28115 34.9477 1.95942 34.6667 2.66667 34.6667H22.6667C23.1278 34.6664 23.5812 34.7859 23.9823 35.0133C24.3835 35.2408 24.7187 35.5685 24.9553 35.9644C25.1918 36.3603 25.3215 36.8108 25.3316 37.2719C25.3418 37.7329 25.2321 38.1887 25.0133 38.5947L22.0613 44.0907C19.7813 48.3334 21.0827 53.5307 25.16 56.448C29.2373 59.36 34.8027 59.3734 38.792 56.5494C42.8933 53.648 44.2267 48.4507 41.96 44.192L38.976 38.584C38.7601 38.1775 38.6532 37.7221 38.6655 37.262C38.6778 36.8019 38.809 36.3528 39.0463 35.9584C39.2837 35.564 39.619 35.2378 40.0198 35.0115C40.4205 34.7851 40.8731 34.6663 41.3333 34.6667H61.3333C62.0406 34.6667 62.7189 34.9477 63.219 35.4478C63.7191 35.9478 64 36.6261 64 37.3334C64 38.0406 63.7191 38.7189 63.219 39.219C62.7189 39.7191 62.0406 40 61.3333 40H45.7733L46.672 41.688C50.216 48.352 48.1973 56.432 41.872 60.9067C38.9927 62.9174 35.5625 63.9894 32.0507 63.976Z" fill="black"></path><path d="M32.0007 56C28.3233 56 25.334 52.4107 25.334 48C25.334 43.5893 28.3233 40 32.0007 40C35.678 40 38.6673 43.5893 38.6673 48C38.6673 52.4107 35.678 56 32.0007 56Z" fill="black"></path><path d="M31.9997 43.9997C31.2924 43.9997 30.6142 43.7187 30.1141 43.2186C29.614 42.7185 29.333 42.0403 29.333 41.333V40.6477C29.333 32.6397 32.453 25.1117 38.1143 19.4477C38.3619 19.2001 38.6559 19.0037 38.9793 18.8697C39.3028 18.7357 39.6495 18.6667 39.9997 18.6667C40.3498 18.6667 40.6965 18.7357 41.02 18.8697C41.3435 19.0037 41.6374 19.2001 41.885 19.4477C42.1326 19.6953 42.329 19.9892 42.463 20.3127C42.597 20.6362 42.6659 20.9829 42.6659 21.333C42.6659 21.6832 42.597 22.0299 42.463 22.3533C42.329 22.6768 42.1326 22.9708 41.885 23.2183C39.589 25.5019 37.7688 28.2181 36.5297 31.2099C35.2906 34.2017 34.6573 37.4095 34.6663 40.6477V41.333C34.6663 42.0403 34.3854 42.7185 33.8853 43.2186C33.3852 43.7187 32.7069 43.9997 31.9997 43.9997Z" fill="black"></path><path d="M42.0024 27.3331C41.6072 27.3342 41.2167 27.2468 40.8596 27.0775C40.5025 26.9082 40.1877 26.6611 39.9384 26.3544L36.7011 22.3997C35.5368 20.9685 34.9009 19.1799 34.9004 17.3349C34.8999 15.4899 35.5348 13.701 36.6984 12.2691L45.9357 0.978417C46.3834 0.430657 47.0304 0.0831736 47.7343 0.0124099C48.4382 -0.0583538 49.1413 0.153399 49.6891 0.601084C50.2368 1.04877 50.5843 1.69572 50.6551 2.3996C50.7259 3.10349 50.5141 3.80666 50.0664 4.35442L40.8291 15.6424C40.0264 16.6211 40.0264 18.0424 40.8291 19.0211L44.0637 22.9758C44.286 23.2465 44.4527 23.5585 44.5541 23.8939C44.6556 24.2292 44.6898 24.5812 44.6549 24.9298C44.62 25.2784 44.5165 25.6167 44.3506 25.9252C44.1846 26.2337 43.9594 26.5065 43.6877 26.7278C43.2136 27.1197 42.6176 27.3338 42.0024 27.3331Z" fill="black"></path></g><defs><clipPath id="clip0_198_290"><rect width="64" height="64" fill="white"></rect></clipPath></defs></svg>