<svg xmlns="http://www.w3.org/2000/svg" width="64" height="64" viewBox="0 0 64 64" fill="none"><path d="M2.14002 34.79C3.54002 50.03 16.4 62 32 62C48.55 62 62 48.54 62 32C62 15.46 48.55 2 32 2C23.52 2 15.85 5.54 10.39 11.22C10.18 11.08 9.98002 10.95 9.77002 10.82C9.34002 10.55 8.77002 10.64 8.46002 11.04C8.14002 11.44 8.17002 12.01 8.53002 12.37C8.54002 12.38 8.69002 12.54 8.93002 12.85C4.44538 18.2229 1.99237 25.0014 2.00002 32C2.00002 32.65 2.02002 33.29 2.07002 33.93C2.01423 34.069 1.99152 34.219 2.00367 34.3683C2.01581 34.5175 2.06249 34.6619 2.14002 34.79ZM32 60C17.67 60 5.83002 49.19 4.20002 35.29H14.14C14.1 36.04 14.04 36.76 13.98 37.51C13.98 37.62 13.96 37.73 13.95 37.84L13.92 38.15C13.92 40.92 16.18 43.18 18.95 43.18C21.72 43.18 23.98 40.92 23.98 38.15C23.98 37.99 23.98 37.83 23.97 37.67C23.96 36.78 23.92 36 23.86 35.29H29.4C29.35 36.04 29.3 36.76 29.23 37.51C29.23 37.62 29.22 37.73 29.21 37.84L29.18 38.15C29.18 40.92 31.43 43.18 34.2 43.18C36.97 43.18 39.24 40.92 39.24 38.15C39.24 37.99 39.24 37.83 39.22 37.68C39.21 36.78 39.17 36 39.11 35.29H44.66C44.61 36.04 44.55 36.76 44.49 37.51C44.49 37.62 44.47 37.73 44.46 37.84L44.43 38.15C44.43 40.92 46.69 43.18 49.46 43.18C52.23 43.18 54.5 40.92 54.5 38.15C54.5 37.99 54.49 37.83 54.48 37.67C54.47 36.78 54.43 36 54.37 35.29H59.8C58.17 49.19 46.33 60 32 60ZM32 4C47.44 4 60 16.56 60 32C60 32.43 59.99 32.86 59.96 33.29H54.15C52.91 23.75 47.89 15.6 40.28 10.82C39.85 10.55 39.28 10.64 38.97 11.04C38.65 11.44 38.68 12.01 39.04 12.37C39.1 12.43 45.07 18.59 44.74 33.29H38.9C37.66 23.75 32.64 15.6 25.03 10.82C24.59 10.55 24.03 10.64 23.71 11.04C23.39 11.44 23.43 12.01 23.79 12.37C23.85 12.43 29.82 18.59 29.49 33.29H23.64C22.53 24.73 18.37 17.29 12.03 12.4C17.11 7.22 24.19 4 32 4ZM10.12 14.56C11.87 17.48 14.45 23.48 14.23 33.29H4.04002C4.01002 32.86 4.00002 32.43 4.00002 32C4.00002 25.41 6.29002 19.35 10.12 14.56Z" fill="black"></path><path d="M15.006 45.8707H14.996C14.444 45.8707 14.001 46.3187 14.001 46.8707C14.001 47.4227 14.454 47.8707 15.006 47.8707C15.2712 47.8707 15.5255 47.7653 15.7131 47.5778C15.9006 47.3903 16.006 47.1359 16.006 46.8707C16.006 46.6054 15.9006 46.3511 15.7131 46.1636C15.5255 45.9761 15.2712 45.8707 15.006 45.8707ZM28.176 47.8387C28.176 47.5734 28.0706 47.3191 27.8831 47.1316C27.6955 46.9441 27.4412 46.8387 27.176 46.8387H27.166C26.614 46.8387 26.171 47.2867 26.171 47.8387C26.171 48.3907 26.624 48.8387 27.176 48.8387C27.728 48.8387 28.176 48.3907 28.176 47.8387ZM28.052 53.8067H28.042C27.49 53.8067 27.047 54.2547 27.047 54.8067C27.047 55.3587 27.5 55.8067 28.052 55.8067C28.3172 55.8067 28.5715 55.7013 28.7591 55.5138C28.9466 55.3263 29.052 55.0719 29.052 54.8067C29.052 54.5414 28.9466 54.2871 28.7591 54.0996C28.5715 53.9121 28.3172 53.8067 28.052 53.8067ZM41.02 45.0967H41.01C40.458 45.0967 40.015 45.5447 40.015 46.0967C40.015 46.6487 40.468 47.0967 41.02 47.0967C41.2852 47.0967 41.5395 46.9913 41.7271 46.8038C41.9146 46.6163 42.02 46.3619 42.02 46.0967C42.02 45.8314 41.9146 45.5771 41.7271 45.3896C41.5395 45.2021 41.2852 45.0967 41.02 45.0967ZM41.02 52.0637H41.01C40.458 52.0637 40.015 52.5117 40.015 53.0637C40.015 53.6157 40.468 54.0637 41.02 54.0637C41.2852 54.0637 41.5395 53.9583 41.7271 53.7708C41.9146 53.5833 42.02 53.3289 42.02 53.0637C42.02 52.7984 41.9146 52.5441 41.7271 52.3566C41.5395 52.1691 41.2852 52.0637 41.02 52.0637ZM50.776 45.8707H50.766C50.214 45.8707 49.771 46.3187 49.771 46.8707C49.771 47.4227 50.224 47.8707 50.776 47.8707C51.0412 47.8707 51.2955 47.7653 51.4831 47.5778C51.6706 47.3903 51.776 47.1359 51.776 46.8707C51.776 46.6054 51.6706 46.3511 51.4831 46.1636C51.2955 45.9761 51.0412 45.8707 50.776 45.8707Z" fill="black"></path></svg>