<svg xmlns="http://www.w3.org/2000/svg" width="64" height="64" viewBox="0 0 64 64" fill="none"><g clip-path="url(#clip0_198_349)"><path d="M61.9356 48.6161C60.9316 44.6001 59.9832 40.8068 59.9832 36.0168C59.9832 25.183 58.8481 20.6744 57.7505 16.3141C56.8332 12.6701 55.9666 9.22825 55.9666 1.875C55.9666 0.8395 55.1271 0 54.0916 0H9.90837C8.87288 0 8.03337 0.8395 8.03337 1.875C8.03337 9.22825 7.16687 12.6701 6.2495 16.3141C5.15175 20.6744 4.01675 25.183 4.01675 36.0168C4.01675 40.8068 3.06837 44.6001 2.06437 48.6161C1.0495 52.6756 0 56.8734 0 62.125C0 63.1605 0.8395 64 1.875 64H30.125V53.6506C27.7931 52.8655 26.1084 50.6597 26.1084 48.0666V38.8016L24.6493 37.3425C23.917 36.6104 23.917 35.4233 24.6493 34.6909C25.3815 33.9588 26.5686 33.9585 27.3009 34.6909L29.3092 36.6991C29.4834 36.8732 29.6215 37.0799 29.7157 37.3074C29.81 37.5348 29.8585 37.7787 29.8585 38.0249V48.0665C29.8585 49.2474 30.8193 50.2082 32.0001 50.2082C33.181 50.2082 34.1418 49.2474 34.1418 48.0665V38.025C34.1418 37.5276 34.3394 37.0508 34.691 36.6992L36.6994 34.691C37.4316 33.9589 38.6189 33.9586 39.351 34.691C40.0831 35.4233 40.0831 36.6104 39.351 37.3426L37.8919 38.8018V48.0667C37.8919 50.6599 36.2071 52.8656 33.8753 53.6507V64H62.1253C63.1608 64 64.0003 63.1605 64.0003 62.125C64 56.8734 62.9505 52.6756 61.9356 48.6161ZM33.0041 5.75838H30.9959C29.9604 5.75838 29.1209 4.91887 29.1209 3.88337C29.1209 2.84787 29.9604 2.00837 30.9959 2.00837H33.0041C34.0396 2.00837 34.8791 2.84787 34.8791 3.88337C34.8791 4.91887 34.0396 5.75838 33.0041 5.75838Z" fill="black"></path></g><defs><clipPath id="clip0_198_349"><rect width="64" height="64" fill="white"></rect></clipPath></defs></svg>