<svg xmlns="http://www.w3.org/2000/svg" width="64" height="64" viewBox="0 0 64 64" fill="none"><g clip-path="url(#clip0_46_1838)"><mask id="mask0_46_1838" style="mask-type:luminance" maskUnits="userSpaceOnUse" x="0" y="0" width="64" height="64"><path d="M64 0H0V64H64V0Z" fill="white"></path></mask><g mask="url(#mask0_46_1838)"><path d="M40.41 23.0664L39.11 13.697L46.046 20.1303L40.41 23.0664ZM63.8375 53.5715L47.1603 21.5764L40.9603 24.8076L57.6375 56.8064C57.8156 57.1453 58.1205 57.3998 58.4857 57.5145C58.8509 57.6293 59.2466 57.5949 59.5865 57.4189L63.2215 55.5246C63.5616 55.3468 63.8174 55.0414 63.9329 54.6753C64.0484 54.3093 64.014 53.9124 63.8375 53.5715ZM37.8419 17.6458L36.636 8.94663L48.1948 19.6716L48.4535 20.167C52.2274 21.1943 55.6152 22.2434 58.362 23.1433L55.0434 13.1834C43.827 8.70988 9.56975 -2.62299 0 20.356C9.19088 14.0211 24.3815 14.9538 37.8419 17.6458ZM49.3824 45.6483C48.3457 44.8588 47.3836 43.9759 46.5081 43.0108C45.9781 42.4226 45.4865 41.801 45.0365 41.1496C45.7577 41.0039 46.4827 40.8533 47.2115 40.6979L46.3481 39.0441C43.5833 39.6269 40.8548 40.1406 38.1772 40.534H38.1625C36.8438 40.7271 35.5396 40.891 34.2537 41.0149C34.2246 41.0185 34.1912 41.0221 34.1628 41.0258H34.159C31.6058 41.2871 29.0375 41.3711 26.4726 41.2771H26.4071C26.3915 41.274 26.3756 41.2728 26.3598 41.2735C25.0011 41.2148 23.6466 41.0846 22.3016 40.8838L22.2798 40.8801C15.7991 39.8926 10.0106 37.1206 5.30775 31.4301C5.2326 31.3393 5.14029 31.264 5.03608 31.2088C4.93185 31.1536 4.81779 31.1194 4.70038 31.1083C4.58296 31.0971 4.4645 31.1093 4.35176 31.1439C4.23902 31.1785 4.13421 31.235 4.04331 31.3101C3.95241 31.3854 3.8772 31.4776 3.82199 31.5819C3.76676 31.6861 3.73261 31.8001 3.72147 31.9176C3.71034 32.035 3.72242 32.1534 3.75708 32.2661C3.79171 32.3789 3.84822 32.4838 3.92337 32.5746C7.44963 36.8404 11.5333 39.5689 16.0359 41.1754C15.16 41.9873 14.21 42.7155 13.1984 43.3504C11.6241 44.3259 9.94204 45.1156 8.18587 45.7038C7.96233 45.7816 7.77855 45.9445 7.67455 46.1573C7.57054 46.3699 7.55471 46.615 7.63051 46.8393C7.70631 47.0635 7.8676 47.2488 8.0793 47.3546C8.29099 47.4606 8.53594 47.4786 8.76087 47.4049C10.6503 46.7719 12.4596 45.921 14.1523 44.8695C15.544 44.0004 16.8269 42.968 17.9736 41.7945C18.8736 42.0459 19.7903 42.2596 20.7236 42.4358C20.1325 43.3689 19.4596 44.2478 18.7132 45.0621C17.5757 46.2913 16.3079 47.393 14.932 48.348C14.74 48.4858 14.6101 48.6938 14.5706 48.9268C14.5311 49.1596 14.5851 49.3989 14.7209 49.5923C14.8567 49.7856 15.0632 49.9176 15.2959 49.9595C15.5284 50.0015 15.7681 49.9499 15.9629 49.8161C17.4445 48.7865 18.8089 47.598 20.032 46.2716C21.0243 45.1931 21.8975 44.0109 22.6366 42.7454C23.4854 42.8583 24.3475 42.9444 25.223 43.004C24.9364 44.0538 24.5585 45.0764 24.0938 46.0604C23.4224 47.4713 22.6054 48.8081 21.6562 50.0493C21.584 50.1431 21.5311 50.2504 21.5006 50.3649C21.47 50.4794 21.4625 50.5988 21.4784 50.7161C21.4941 50.8335 21.5331 50.9466 21.5929 51.0489C21.6526 51.1511 21.732 51.2406 21.8266 51.312C21.9211 51.3835 22.0287 51.4355 22.1435 51.465C22.2582 51.4946 22.3776 51.5011 22.4949 51.4844C22.6121 51.4675 22.725 51.4276 22.8267 51.367C22.9285 51.3064 23.0173 51.2263 23.0879 51.1311C24.1133 49.7908 24.9948 48.3464 25.718 46.8216C26.2811 45.6251 26.7276 44.3771 27.0513 43.095C27.8526 43.1169 28.6614 43.1194 29.4774 43.1024C29.6012 44.2176 29.6244 45.3416 29.5466 46.461C29.4375 47.9554 29.1764 49.4348 28.767 50.8761C28.7049 51.1053 28.736 51.3496 28.8536 51.5558C28.9712 51.7619 29.1658 51.9131 29.3946 51.9763C29.6234 52.0394 29.8679 52.0093 30.0746 51.8925C30.2812 51.7758 30.4333 51.5819 30.4974 51.3534C30.9373 49.7949 31.2192 48.1961 31.3389 46.5813C31.4186 45.4014 31.3976 44.2168 31.2764 43.0404C32.0264 43.0004 32.7881 42.9494 33.5495 42.8838C33.7912 44.1025 34.1449 45.2964 34.6059 46.4501C35.2107 47.9611 35.9689 49.4061 36.8684 50.7626C36.9987 50.9611 37.2028 51.0998 37.4354 51.1479C37.668 51.196 37.9102 51.1498 38.1087 51.0194C38.3073 50.8889 38.4459 50.685 38.494 50.4524C38.5421 50.2198 38.496 49.9775 38.3655 49.779C37.5353 48.5241 36.8358 47.1876 36.278 45.7901C35.8789 44.7908 35.5681 43.7583 35.349 42.7046C36.1504 42.6173 36.9579 42.5164 37.7715 42.4023C38.3715 43.6115 39.0916 44.7575 39.9207 45.8229C40.9585 47.154 42.1331 48.3726 43.4253 49.4585C43.6069 49.6126 43.8424 49.6884 44.0798 49.6689C44.3172 49.6495 44.5373 49.5365 44.6914 49.3549C44.8455 49.1733 44.9212 48.9378 44.9017 48.7004C44.8824 48.4629 44.7694 48.2429 44.5877 48.0888C43.39 47.0858 42.3021 45.9586 41.342 44.7263C40.7061 43.9078 40.1395 43.0378 39.6481 42.1253C40.7992 41.9431 41.9576 41.7391 43.127 41.5206C43.7314 42.4738 44.415 43.3744 45.1706 44.2126C46.1219 45.2591 47.1667 46.2163 48.2925 47.0723C48.4816 47.2134 48.7188 47.2744 48.9525 47.2418C49.1862 47.2093 49.3978 47.0859 49.5411 46.8984C49.6844 46.7109 49.7481 46.4745 49.7183 46.2404C49.6885 46.0063 49.5675 45.7934 49.3817 45.6479L49.3824 45.6483Z" fill="black"></path></g></g><defs><clipPath id="clip0_46_1838"><rect width="64" height="64" fill="white"></rect></clipPath></defs></svg>