<svg xmlns="http://www.w3.org/2000/svg" width="64" height="64" viewBox="0 0 64 64" fill="none"><g clip-path="url(#clip0_46_1845)"><path d="M61.3959 41.5391C61.0479 37.0349 65.0092 35.5604 63.7528 24.6817C62.6314 14.9751 52.2344 11.0118 43.6697 14.5118C40.6471 15.7469 36.8946 18.5139 36.1823 24.6817C35.4049 31.4123 36.6253 34.5516 37.6059 37.0739C38.6336 39.7178 39.3654 41.4426 36.8844 48.0314C35.9156 50.6041 34.8263 53.1803 39.1506 54.2696L39.1302 54.5394C39.0863 55.1192 39.5454 55.6149 40.1276 55.6149H59.8081C60.3893 55.6149 60.8492 55.1199 60.8053 54.5394L60.7849 54.2696C62.0384 53.9538 62.9068 53.4827 63.4253 52.8391C65.1988 50.6368 61.8464 47.3724 61.3959 41.5391ZM47.7466 41.6021C43.3529 38.0012 41.4149 31.5777 41.8703 26.8364C42.8046 26.4537 44.5459 25.5484 45.7431 23.7738C47.3229 26.2703 49.7166 27.8914 52.6023 27.1254C54.1826 26.7059 56.5144 26.2923 58.0592 26.7817C58.4561 30.6926 57.1257 36.8353 53.1231 40.7631C52.6491 41.2282 52.3058 41.5008 52.1872 41.6027C50.9121 42.6479 49.0419 42.6639 47.7466 41.6021ZM51.4514 44.1937V46.1929C51.4514 47.0109 50.7857 47.6764 49.9673 47.6764C49.1491 47.6764 48.4834 47.0109 48.4834 46.1929V44.1937C49.4539 44.4664 50.4809 44.4664 51.4514 44.1937ZM41.2058 53.6148L41.4318 50.6314C41.5894 48.5503 43.3506 46.9333 45.4214 46.9333H46.5626C47.3631 50.6229 52.5942 50.5198 53.3724 46.9333H54.5136C56.5936 46.9333 58.3461 48.5578 58.5031 50.6314L58.7291 53.6149H41.2058V53.6148ZM25.9848 21.7276C22.5939 11.7593 4.00329 11.7584 0.612094 21.7276C-1.16989 26.9661 1.61528 33.4598 0.535589 36.3129C-0.739111 39.6809 0.455209 42.3532 3.31113 43.7284C5.44413 44.7559 8.02528 43.3902 8.89345 42.8594H9.46749C9.60675 42.9803 9.706 43.0636 9.81439 43.1524V44.9329H8.75258C5.63264 44.9329 3.00411 47.3696 2.76846 50.4802L2.46108 54.5393C2.41708 55.1189 2.8761 55.6148 3.45826 55.6148C23.7968 55.4981 23.3137 55.8968 23.8721 55.2947C23.9657 55.1937 24.0374 55.0746 24.0828 54.9446C24.1282 54.8146 24.1463 54.6766 24.1358 54.5393C23.7797 49.8362 23.8284 50.5466 23.8284 50.4802C23.5928 47.3696 20.9643 44.9329 17.8443 44.9329H16.7826V43.1527C16.8911 43.0637 16.9903 42.9804 17.1294 42.8597H17.7034C19.3424 43.8617 21.5452 44.5672 23.2858 43.7288C26.1389 42.3547 27.3371 39.6839 26.0613 36.3132C24.9762 33.4456 27.7746 26.9891 25.9848 21.7276ZM17.8443 46.9333C19.9244 46.9333 21.6769 48.5578 21.8341 50.6314L22.0599 53.6149H4.53683L4.76271 50.6314C4.91973 48.5578 6.6722 46.9333 8.75245 46.9333H9.89339C10.5467 49.9467 14.5979 50.7218 16.2676 48.0136C16.4721 47.6803 16.6194 47.3152 16.7034 46.9333H17.8443ZM11.8144 46.1929V44.1937C12.7849 44.4664 13.8119 44.4664 14.7826 44.1937V46.1929C14.7826 47.0109 14.1168 47.6764 13.2984 47.6764C12.48 47.6764 11.8144 47.0109 11.8144 46.1929ZM15.5193 41.6021C14.4816 42.4528 13.0467 42.6251 11.8488 42.0812C11.3169 41.8403 10.9571 41.5151 10.5244 41.1211C5.78128 36.7901 4.90371 30.0111 5.20186 26.8362C6.71358 26.2167 8.14141 25.1561 9.07384 23.7739C10.4987 26.0252 12.5619 27.6167 15.2048 27.2709C16.2472 27.1299 19.2373 26.0997 21.3894 26.7817C21.8887 31.7982 19.6923 38.1821 15.5193 41.6021ZM38.2088 16.0534C38.4143 16.0533 38.6149 15.9899 38.7831 15.8718C38.9513 15.7537 39.0791 15.5867 39.1489 15.3933L40.4611 11.7638C40.5512 11.5143 40.5386 11.2393 40.4259 10.9992C40.3133 10.759 40.1099 10.5735 39.8606 10.4833C39.6111 10.3932 39.3361 10.4058 39.0959 10.5184C38.8558 10.6311 38.6703 10.8344 38.5801 11.0838L37.9981 12.6939C36.7866 11.0828 34.1509 8.3623 30.1677 8.3623C24.7807 8.3623 21.7124 13.6039 21.5844 13.8271C21.5191 13.9411 21.4768 14.0667 21.4601 14.1969C21.4433 14.3273 21.4524 14.4596 21.4867 14.5863C21.5211 14.7131 21.5801 14.8318 21.6603 14.9358C21.7406 15.0397 21.8406 15.1268 21.9544 15.1922C22.0684 15.2576 22.1941 15.2998 22.3243 15.3166C22.4546 15.3333 22.5869 15.3243 22.7137 15.2899C22.8404 15.2556 22.9592 15.1966 23.0631 15.1163C23.1671 15.0361 23.2542 14.9361 23.3196 14.8222C23.3452 14.7776 25.9263 10.3624 30.1677 10.3624C33.3292 10.3624 35.5006 12.6977 36.4556 13.9814L34.3921 13.8977C33.8398 13.8759 33.3746 14.3046 33.3524 14.8563C33.3471 14.9876 33.3676 15.1186 33.4129 15.2418C33.4582 15.3651 33.5273 15.4782 33.6163 15.5748C33.7053 15.6713 33.8126 15.7494 33.9317 15.8046C34.0509 15.8597 34.1798 15.8908 34.3111 15.8961C38.2683 16.0567 38.1757 16.0534 38.2088 16.0534Z" fill="black"></path></g><defs><clipPath id="clip0_46_1845"><rect width="64" height="64" fill="white"></rect></clipPath></defs></svg>