<svg xmlns="http://www.w3.org/2000/svg" width="64" height="64" viewBox="0 0 64 64" fill="none"><path d="M58.0002 22.9998C58.0002 22.9998 47.0002 39.8928 47.0002 51.2848C47.0002 54.8698 48.3422 55.9998 49.8152 55.9998C51.0432 55.9998 51.7132 55.2138 51.7132 53.6428C51.7132 51.4498 50.1412 52.0388 50.1412 48.1428C50.1422 37.0928 58.0002 22.9998 58.0002 22.9998ZM34.4102 26.4198C34.5592 25.7788 34.7402 25.1488 34.9302 24.5198C35.0602 24.0898 35.1912 23.6498 35.3302 23.2298C37.4902 16.5098 40.5302 10.8698 40.9502 10.0898" fill="black"></path><path d="M32.59 26.58C32.79 26.029 33.01 25.479 33.231 24.939C33.411 24.49 33.6 24.039 33.791 23.599C36.761 16.699 40.451 10.859 40.951 10.089C40.971 10.048 40.991 10.019 40.991 10.009L41 10M31.36 30.26C30.53 33.039 30 35.799 30 38.289C30 41.869 31.34 43 32.82 43C34.04 43 34.71 42.209 34.71 40.64C34.71 38.45 33.14 39.039 33.14 35.14C33.14 33.619 33.29 32.03 33.55 30.43M24 23C24 23 13 39.893 13 51.285C13 54.87 14.342 56 15.815 56C17.043 56 17.713 55.214 17.713 53.643C17.713 51.45 16.141 52.039 16.141 48.143C16.142 37.093 24 23 24 23Z" fill="black"></path><path d="M60 48C58.062 48 56.816 47.207 55.704 47.055C55.455 47.0214 55.2043 47.003 54.953 47C54.789 47 54.608 47.055 54.421 47.135C54.0641 47.2965 53.7754 47.5783 53.6051 47.931C53.435 48.2837 53.3943 48.6852 53.49 49.065C53.568 49.36 53.67 49.52 53.803 49.719C54.234 50.375 54.953 51.464 54.953 53.401C54.953 57.272 52.432 59.001 49.929 59.001C48.944 59.001 43.997 58.616 43.997 51.001C43.997 49.521 44.481 48.536 43.989 47.792C43.825 47.553 43.559 47.337 43.127 47.136C42.9611 47.055 42.7804 47.0086 42.596 47C42.472 47 42.325 47.01 42.169 47.028C40.895 47.1744 39.6085 47.1766 38.334 47.035C38.1351 47.0126 37.9351 47.0009 37.735 47C37.571 47 37.391 47.055 37.204 47.135C36.847 47.2964 36.558 47.5781 36.3875 47.9308C36.217 48.2835 36.1758 48.685 36.271 49.065C36.35 49.36 36.452 49.52 36.585 49.719C37.015 50.375 37.734 51.464 37.734 53.401C37.734 57.272 35.214 59.001 32.711 59.001C31.725 59.001 26.777 58.616 26.777 51.001C26.777 49.521 27.263 48.536 26.771 47.792C26.605 47.553 26.339 47.337 25.909 47.136C25.7432 47.0548 25.5625 47.0085 25.378 47C25.19 47 24.932 47.023 24.65 47.064C23.53 47.207 22.38 47.207 21.269 47.054C21.0202 47.0211 20.7699 47.0031 20.519 47C20.355 47 20.174 47.055 19.987 47.135C19.6304 47.2967 19.3416 47.5785 19.1714 47.9311C19.001 48.2839 18.9599 48.6851 19.055 49.065C19.134 49.36 19.236 49.52 19.368 49.719C19.799 50.375 20.518 51.464 20.518 53.401C20.518 57.272 17.998 59.001 15.494 59.001C14.508 59.001 9.561 58.616 9.561 51.001C9.561 49.032 10.415 47.937 8.693 47.136C8.52681 47.0549 8.34576 47.0085 8.161 47C6.65 47 5.26 48 4 48M55.084 5L39 26L28 27V30L41 31L59 12" fill="black"></path><path d="M28 27.9996V24.9996L31.256 24.2106" fill="black"></path><path d="M30 52.5L32 55.5L34 52.5" fill="black"></path></svg>