<svg xmlns="http://www.w3.org/2000/svg" width="64" height="64" viewBox="0 0 64 64" fill="none"><path d="M27.1648 31.8551C26.9037 31.5011 26.57 31.2069 26.186 30.9923C25.802 30.7777 25.3766 30.6476 24.9382 30.6106C24.4999 30.5737 24.0587 30.6308 23.6442 30.7782C23.2297 30.9255 22.8515 31.1597 22.5348 31.4651L4.87683 49.1131C4.31467 49.6774 3.99902 50.4415 3.99902 51.2381C3.99902 52.0346 4.31467 52.7987 4.87683 53.3631L10.6368 59.1231C11.2022 59.6834 11.966 59.9977 12.762 59.9975C13.558 59.9973 14.3217 59.6827 14.8868 59.1221L32.5338 41.4641C33.0956 40.9016 33.4112 40.1391 33.4112 39.3441C33.4112 38.5491 33.0956 37.7866 32.5338 37.2241L27.1648 31.8551ZM23.8548 42.2741C23.5724 42.5565 23.1893 42.7152 22.7898 42.7152C22.3904 42.7152 22.0073 42.5565 21.7248 42.2741C21.4424 41.9916 21.2837 41.6085 21.2837 41.2091C21.2837 40.8096 21.4424 40.4265 21.7248 40.1441C22.0073 39.8616 22.3904 39.7029 22.7898 39.7029C23.1893 39.7029 23.5724 39.8616 23.8548 40.1441C24.1373 40.4265 24.296 40.8096 24.296 41.2091C24.296 41.6085 24.1373 41.9916 23.8548 42.2741ZM29.2448 29.7651L28.5748 30.4451L33.5648 35.4351C34.0656 35.0651 34.4785 34.5891 34.7741 34.0412C35.0697 33.4932 35.2407 32.8867 35.2748 32.2651C35.3848 29.2071 31.3268 27.5881 29.2448 29.7651ZM58.2848 4.30107L35.6778 26.9071C35.5413 27.0482 35.4491 27.2261 35.4124 27.4189C35.3757 27.6118 35.3961 27.8112 35.4713 27.9925C35.5464 28.1739 35.6729 28.3294 35.8352 28.4398C35.9975 28.5502 36.1885 28.6108 36.3848 28.6141C36.5162 28.6142 36.6462 28.5884 36.7676 28.5381C36.8889 28.4878 36.9991 28.4141 37.0918 28.3211L59.6978 5.71507C59.8756 5.52574 59.9728 5.27467 59.9688 5.01499C59.9647 4.7553 59.8598 4.50737 59.6762 4.32366C59.4926 4.13995 59.2448 4.03487 58.9851 4.03065C58.7254 4.02643 58.4743 4.12341 58.2848 4.30107ZM42.6398 28.7741L39.0508 29.4991C38.9206 29.5235 38.7966 29.5737 38.6859 29.6465C38.5752 29.7193 38.4801 29.8134 38.4061 29.9234C38.332 30.0333 38.2806 30.1568 38.2548 30.2868C38.2289 30.4167 38.2291 30.5505 38.2555 30.6804C38.2818 30.8102 38.3336 30.9336 38.408 31.0432C38.4824 31.1529 38.5778 31.2467 38.6888 31.3191C38.7997 31.3916 38.9239 31.4413 39.0543 31.4653C39.1846 31.4893 39.3184 31.4872 39.4478 31.4591L43.0378 30.7341C43.1681 30.7096 43.2921 30.6595 43.4028 30.5866C43.5135 30.5138 43.6086 30.4197 43.6826 30.3098C43.7566 30.1999 43.808 30.0763 43.8339 29.9464C43.8598 29.8164 43.8595 29.6826 43.8332 29.5528C43.8069 29.4229 43.7551 29.2995 43.6807 29.1899C43.6063 29.0802 43.5108 28.9865 43.3999 28.914C43.289 28.8415 43.1647 28.7919 43.0344 28.7678C42.9041 28.7438 42.7693 28.7459 42.6398 28.7741ZM41.1708 35.7141L38.1208 33.6881C37.8999 33.5469 37.6323 33.4981 37.3758 33.5522C37.1192 33.6064 36.8942 33.7591 36.7492 33.9776C36.6042 34.196 36.5507 34.4627 36.6004 34.7202C36.6501 34.9776 36.7989 35.2053 37.0148 35.3541C37.4518 35.5741 40.2628 37.6991 40.6168 37.5461C40.8294 37.5419 41.0351 37.4704 41.2045 37.342C41.3739 37.2137 41.4983 37.0349 41.5598 36.8315C41.6213 36.628 41.6168 36.4103 41.547 36.2095C41.4771 36.0088 41.3454 35.8353 41.1708 35.7141ZM33.5218 25.7501C33.7525 25.7498 33.9759 25.6698 34.1543 25.5236C34.3328 25.3775 34.4552 25.1741 34.5008 24.9481L35.2258 21.3581C35.2518 21.2293 35.2521 21.0967 35.2268 20.9678C35.2015 20.8389 35.151 20.7163 35.0783 20.6069C35.0056 20.4975 34.9121 20.4035 34.803 20.3303C34.694 20.257 34.5716 20.206 34.4428 20.1801C34.3141 20.1541 34.1815 20.1538 34.0526 20.1791C33.9237 20.2044 33.8011 20.2549 33.6917 20.3276C33.5823 20.4003 33.4883 20.4938 33.415 20.6029C33.3418 20.7119 33.2908 20.8343 33.2648 20.9631L32.5398 24.5531C32.5112 24.6983 32.5151 24.848 32.5511 24.9915C32.5872 25.135 32.6546 25.2688 32.7485 25.3832C32.8423 25.4976 32.9603 25.5899 33.094 25.6533C33.2278 25.7167 33.3738 25.7498 33.5218 25.7501ZM28.6448 26.9851C28.7175 27.0945 28.811 27.1885 28.9201 27.2617C29.0291 27.335 29.1514 27.386 29.2802 27.412C29.4089 27.4379 29.5415 27.4383 29.6704 27.413C29.7993 27.3877 29.9219 27.3373 30.0313 27.2646C30.1407 27.1919 30.2347 27.0984 30.308 26.9893C30.3812 26.8803 30.4323 26.758 30.4582 26.6292C30.4842 26.5005 30.4845 26.3679 30.4592 26.239C30.434 26.1101 30.3835 25.9875 30.3108 25.8781L28.2858 22.8281C28.137 22.6122 27.9094 22.4634 27.6519 22.4137C27.3945 22.364 27.1278 22.4174 26.9094 22.5624C26.6909 22.7074 26.5382 22.9325 26.484 23.189C26.4299 23.4456 26.4786 23.7131 26.6198 23.9341L28.6448 26.9851Z" fill="black"></path></svg>