<svg xmlns="http://www.w3.org/2000/svg" width="80" height="63" viewBox="0 0 80 63" fill="none"><g clip-path="url(#clip0_46_1698)"><path d="M20.8158 41.7041C22.9039 44.0959 24.0398 47.0959 24.0398 50.12C24.0398 50.792 23.9839 51.48 23.8639 52.152L22.1598 62.088C22.11 62.4009 21.949 62.6855 21.7067 62.8897C21.4644 63.0938 21.1567 63.2039 20.8398 63.2C20.7598 63.2 20.6798 63.2 20.6078 63.1841C20.2478 63.12 19.9358 62.912 19.7358 62.632C19.5198 62.3359 19.4558 61.9759 19.5039 61.6241L21.2158 51.7041C21.3119 51.168 21.3519 50.632 21.3519 50.12C21.3519 47.728 20.4398 45.3759 18.7839 43.4641C14.0878 38.0559 13.1118 30.88 13.1118 25.808C13.1118 24.648 13.1678 23.432 13.2718 22.208C13.6238 18.08 14.3838 15.08 15.7678 12.448C16.1039 11.8159 16.9519 11.5441 17.5839 11.88C18.2398 12.2159 18.4958 13.04 18.1519 13.6959C16.9519 15.9841 16.2719 18.68 15.9439 22.432C15.8478 23.56 15.7998 24.688 15.7998 25.808C15.7998 30.44 16.6558 36.9441 20.8158 41.7041ZM20.1439 10.112C20.5039 10.112 20.8558 9.96797 21.1119 9.71203C21.6239 9.17594 21.6078 8.32797 21.0878 7.8C20.5758 7.30406 19.6878 7.31203 19.1919 7.82406C18.6719 8.36 18.6798 9.20797 19.2078 9.72C19.4558 9.97594 19.7919 10.112 20.1439 10.112ZM66.6158 36.0959L63.0639 26.552C63.0878 25.688 63.1039 23.3359 63.1039 23.0159C63.1039 20.552 62.7919 18.12 62.1519 15.8C59.5039 5.904 51.0398 0 39.5119 0H39.3519C38.7358 0 38.1519 0.0160001 37.5598 0.0400001C32.7998 0.28 27.7358 1.824 23.6558 4.288C23.3439 4.48 23.1278 4.776 23.0398 5.12C22.9598 5.472 23.0158 5.816 23.1998 6.128C23.5598 6.744 24.4239 6.96 25.0398 6.6C28.6798 4.384 33.4158 2.944 37.7039 2.728C38.2158 2.704 38.7358 2.688 39.3439 2.688C49.9358 2.744 57.1198 7.64797 59.5678 16.4959C60.1425 18.6216 60.4331 20.8141 60.4319 23.0159C60.4319 23.312 60.3919 26.488 60.3758 26.7441L60.4558 27.2559L64.1278 37.12L64.1919 37.2559H58.9598C58.5598 37.2559 58.1519 37.448 57.8958 37.768C57.6558 38.088 57.5598 38.52 57.6558 38.928L59.0239 44.4159L57.4478 47.872C57.3519 48.0641 57.3119 48.272 57.3278 48.5041L57.6078 53.1041C57.5919 53.8 57.0158 54.3841 56.3198 54.392C56.2158 54.392 56.1198 54.3759 56.0078 54.352L48.1119 53.808L40.9598 52.48C40.7859 52.4477 40.6073 52.45 40.4344 52.4867C40.2614 52.5236 40.0973 52.5941 39.9515 52.6945C39.8059 52.7948 39.6816 52.923 39.5855 53.0714C39.4894 53.22 39.4236 53.3859 39.3919 53.56C39.2558 54.288 39.7358 54.992 40.4719 55.128L46.5039 56.248L45.9439 61.7359C45.9198 62.0959 46.0078 62.448 46.2398 62.72C46.4719 63 46.7919 63.1759 47.1439 63.2C47.1998 63.2159 47.2398 63.2159 47.2958 63.2159C47.9839 63.2159 48.5598 62.688 48.6239 62.008V61.992L49.1758 56.5759L55.5358 57.008C55.7919 57.0641 56.0558 57.088 56.3278 57.088C58.5198 57.088 60.3039 55.288 60.3039 53.08L60.0319 48.68L61.6558 45.1041C61.7919 44.8241 61.8158 44.512 61.7358 44.2159L60.6719 39.952H64.1919C65.6719 39.9359 66.8798 38.728 66.8798 37.2641C66.8878 36.8641 66.7919 36.4559 66.6158 36.0959ZM19.8319 20.1759C20.5678 20.1759 21.1758 19.568 21.1758 18.832C21.1758 18.088 20.5678 17.488 19.8319 17.488C19.0958 17.488 18.4878 18.0959 18.4878 18.832C18.4878 19.5759 19.0958 20.1759 19.8319 20.1759ZM46.7198 17.488C45.9839 17.488 45.3758 18.0959 45.3758 18.832C45.3758 19.568 45.9839 20.1759 46.7198 20.1759C47.4558 20.1759 48.0639 19.568 48.0639 18.832C48.0639 18.0959 47.4639 17.488 46.7198 17.488ZM41.3439 17.488C40.6078 17.488 39.9998 18.0959 39.9998 18.832C39.9998 19.568 40.6078 20.1759 41.3439 20.1759C42.0798 20.1759 42.6878 19.568 42.6878 18.832C42.6878 18.0959 42.0798 17.488 41.3439 17.488ZM25.2078 20.1759C25.9439 20.1759 26.5519 19.568 26.5519 18.832C26.5519 18.088 25.9439 17.488 25.2078 17.488C24.4719 17.488 23.8639 18.0959 23.8639 18.832C23.8639 19.5759 24.4719 20.1759 25.2078 20.1759ZM35.9678 17.488C35.2319 17.488 34.6239 18.0959 34.6239 18.832C34.6239 19.568 35.2319 20.1759 35.9678 20.1759C36.7039 20.1759 37.3119 19.568 37.3119 18.832C37.3119 18.0959 36.7039 17.488 35.9678 17.488ZM52.1039 20.1759C52.8398 20.1759 53.4478 19.568 53.4478 18.832C53.4478 18.088 52.8398 17.488 52.1039 17.488C51.3678 17.488 50.7598 18.0959 50.7598 18.832C50.7519 19.5759 51.3598 20.1759 52.1039 20.1759ZM30.5919 20.1759C31.3278 20.1759 31.9358 19.568 31.9358 18.832C31.9358 18.088 31.3278 17.488 30.5919 17.488C29.8558 17.488 29.2478 18.0959 29.2478 18.832C29.2478 19.5759 29.8478 20.1759 30.5919 20.1759ZM27.9039 21.52C27.1678 21.52 26.5598 22.128 26.5598 22.8641C26.5598 23.6 27.1678 24.208 27.9039 24.208C28.6398 24.208 29.2478 23.6 29.2478 22.8641C29.2478 22.128 28.6398 21.52 27.9039 21.52ZM44.0319 24.2159C44.7678 24.2159 45.3758 23.608 45.3758 22.872C45.3758 22.1359 44.7678 21.528 44.0319 21.528C43.2958 21.528 42.6878 22.1359 42.6878 22.872C42.6878 23.608 43.2958 24.2159 44.0319 24.2159ZM22.5198 24.2159C23.2558 24.2159 23.8639 23.608 23.8639 22.872C23.8639 22.1359 23.2558 21.528 22.5198 21.528C21.7839 21.528 21.1758 22.1359 21.1758 22.872C21.1758 23.608 21.7839 24.2159 22.5198 24.2159ZM39.9998 22.8641C39.9998 22.128 39.3919 21.52 38.6558 21.52C37.9198 21.52 37.3119 22.128 37.3119 22.8641C37.3119 23.6 37.9198 24.208 38.6558 24.208C39.3919 24.208 39.9998 23.608 39.9998 22.8641ZM33.2798 21.52C32.5439 21.52 31.9358 22.128 31.9358 22.8641C31.9358 23.6 32.5439 24.208 33.2798 24.208C34.0158 24.208 34.6239 23.6 34.6239 22.8641C34.6239 22.128 34.0158 21.52 33.2798 21.52ZM25.2078 25.56C24.4719 25.56 23.8639 26.168 23.8639 26.9041C23.8639 27.64 24.4719 28.248 25.2078 28.248C25.9439 28.248 26.5519 27.64 26.5519 26.9041C26.5519 26.16 25.9519 25.56 25.2078 25.56ZM19.8319 28.248C20.5678 28.248 21.1758 27.64 21.1758 26.9041C21.1758 26.168 20.5678 25.56 19.8319 25.56C19.0958 25.56 18.4878 26.168 18.4878 26.9041C18.4878 27.64 19.0958 28.248 19.8319 28.248ZM30.5919 25.56C29.8558 25.56 29.2478 26.168 29.2478 26.9041C29.2478 27.64 29.8558 28.248 30.5919 28.248C31.3278 28.248 31.9358 27.64 31.9358 26.9041C31.9358 26.16 31.3278 25.56 30.5919 25.56ZM22.5198 29.592C21.7839 29.592 21.1758 30.2 21.1758 30.9359C21.1758 31.672 21.7839 32.28 22.5198 32.28C23.2558 32.28 23.8639 31.672 23.8639 30.9359C23.8639 30.192 23.2639 29.592 22.5198 29.592ZM27.9039 29.592C27.1678 29.592 26.5598 30.2 26.5598 30.9359C26.5598 31.672 27.1678 32.28 27.9039 32.28C28.6398 32.28 29.2478 31.672 29.2478 30.9359C29.2478 30.192 28.6398 29.592 27.9039 29.592ZM25.2078 36.312C25.9439 36.312 26.5519 35.7041 26.5519 34.968C26.5519 34.232 25.9439 33.6241 25.2078 33.6241C24.4719 33.6241 23.8639 34.232 23.8639 34.968C23.8639 35.7041 24.4719 36.312 25.2078 36.312ZM27.9039 37.6559C27.1678 37.6559 26.5598 38.2641 26.5598 39C26.5598 39.7359 27.1678 40.3441 27.9039 40.3441C28.6398 40.3441 29.2478 39.7359 29.2478 39C29.2478 38.2641 28.6398 37.6559 27.9039 37.6559ZM22.5198 37.6559C21.7839 37.6559 21.1758 38.2641 21.1758 39C21.1758 39.7359 21.7839 40.3441 22.5198 40.3441C23.2558 40.3441 23.8639 39.7359 23.8639 39C23.8639 38.2641 23.2639 37.6559 22.5198 37.6559ZM25.2078 41.688C24.4719 41.688 23.8639 42.2959 23.8639 43.032C23.8639 43.768 24.4719 44.3759 25.2078 44.3759C25.9439 44.3759 26.5519 43.768 26.5519 43.032C26.5519 42.2959 25.9519 41.688 25.2078 41.688ZM41.3439 25.56C40.6078 25.56 39.9998 26.168 39.9998 26.9041C39.9998 27.64 40.6078 28.248 41.3439 28.248C42.0798 28.248 42.6878 27.64 42.6878 26.9041C42.6878 26.16 42.0798 25.56 41.3439 25.56ZM19.8319 36.312C20.5678 36.312 21.1758 35.7041 21.1758 34.968C21.1758 34.232 20.5678 33.6241 19.8319 33.6241C19.0958 33.6241 18.4878 34.232 18.4878 34.968C18.4878 35.7041 19.0958 36.312 19.8319 36.312ZM33.2798 16.1441C34.0158 16.1441 34.6239 15.5359 34.6239 14.8C34.6239 14.0641 34.0158 13.4559 33.2798 13.4559C32.5439 13.4559 31.9358 14.0641 31.9358 14.8C31.9358 15.5441 32.5358 16.1441 33.2798 16.1441ZM27.9039 13.4559C27.1678 13.4559 26.5598 14.0641 26.5598 14.8C26.5598 15.5359 27.1678 16.1441 27.9039 16.1441C28.6398 16.1441 29.2478 15.5359 29.2478 14.8C29.2478 14.0641 28.6398 13.4559 27.9039 13.4559ZM22.5198 16.1441C23.2558 16.1441 23.8639 15.5359 23.8639 14.8C23.8639 14.0641 23.2558 13.4559 22.5198 13.4559C21.7839 13.4559 21.1758 14.0641 21.1758 14.8C21.1758 15.5441 21.7839 16.1441 22.5198 16.1441ZM44.0319 16.1441C44.7678 16.1441 45.3758 15.5359 45.3758 14.8C45.3758 14.0641 44.7678 13.4559 44.0319 13.4559C43.2958 13.4559 42.6878 14.0641 42.6878 14.8C42.6878 15.5441 43.2958 16.1441 44.0319 16.1441ZM49.4078 13.4559C48.6719 13.4559 48.0639 14.0641 48.0639 14.8C48.0639 15.5359 48.6719 16.1441 49.4078 16.1441C50.1439 16.1441 50.7519 15.5359 50.7519 14.8C50.7519 14.0641 50.1519 13.4559 49.4078 13.4559ZM38.6558 16.1441C39.3919 16.1441 39.9998 15.5359 39.9998 14.8C39.9998 14.0641 39.3919 13.4559 38.6558 13.4559C37.9198 13.4559 37.3119 14.0641 37.3119 14.8C37.3119 15.5441 37.9198 16.1441 38.6558 16.1441ZM54.7919 16.1441C55.5278 16.1441 56.1358 15.5359 56.1358 14.8C56.1358 14.0641 55.5278 13.4559 54.7919 13.4559C54.0558 13.4559 53.4478 14.0641 53.4478 14.8C53.4478 15.5441 54.0478 16.1441 54.7919 16.1441ZM52.1039 9.42406C51.3678 9.42406 50.7598 10.032 50.7598 10.768C50.7598 11.5041 51.3678 12.112 52.1039 12.112C52.8398 12.112 53.4478 11.5041 53.4478 10.768C53.4478 10.032 52.8398 9.42406 52.1039 9.42406ZM35.9678 9.42406C35.2319 9.42406 34.6239 10.032 34.6239 10.768C34.6239 11.5041 35.2319 12.112 35.9678 12.112C36.7039 12.112 37.3119 11.5041 37.3119 10.768C37.3119 10.032 36.7039 9.42406 35.9678 9.42406ZM41.3439 9.42406C40.6078 9.42406 39.9998 10.032 39.9998 10.768C39.9998 11.5041 40.6078 12.112 41.3439 12.112C42.0798 12.112 42.6878 11.5041 42.6878 10.768C42.6878 10.032 42.0798 9.42406 41.3439 9.42406ZM25.2078 9.42406C24.4719 9.42406 23.8639 10.032 23.8639 10.768C23.8639 11.5041 24.4719 12.112 25.2078 12.112C25.9439 12.112 26.5519 11.5041 26.5519 10.768C26.5519 10.032 25.9519 9.42406 25.2078 9.42406ZM30.5919 9.42406C29.8558 9.42406 29.2478 10.032 29.2478 10.768C29.2478 11.5041 29.8558 12.112 30.5919 12.112C31.3278 12.112 31.9358 11.5041 31.9358 10.768C31.9358 10.032 31.3278 9.42406 30.5919 9.42406ZM46.7198 9.42406C45.9839 9.42406 45.3758 10.032 45.3758 10.768C45.3758 11.5041 45.9839 12.112 46.7198 12.112C47.4558 12.112 48.0639 11.5041 48.0639 10.768C48.0639 10.032 47.4639 9.42406 46.7198 9.42406ZM38.6558 5.392C37.9198 5.392 37.3119 6 37.3119 6.736C37.3119 7.47203 37.9198 8.08 38.6558 8.08C39.3919 8.08 39.9998 7.47203 39.9998 6.736C39.9998 5.992 39.3919 5.392 38.6558 5.392ZM33.2798 5.392C32.5439 5.392 31.9358 6 31.9358 6.736C31.9358 7.47203 32.5439 8.08 33.2798 8.08C34.0158 8.08 34.6239 7.47203 34.6239 6.736C34.6239 5.992 34.0158 5.392 33.2798 5.392ZM44.0319 5.392C43.2958 5.392 42.6878 6 42.6878 6.736C42.6878 7.47203 43.2958 8.08 44.0319 8.08C44.7678 8.08 45.3758 7.47203 45.3758 6.736C45.3758 5.992 44.7758 5.392 44.0319 5.392Z" fill="black"></path></g><defs><clipPath id="clip0_46_1698"><rect width="80" height="63" fill="white"></rect></clipPath></defs></svg>