<svg xmlns="http://www.w3.org/2000/svg" width="64" height="64" viewBox="0 0 64 64" fill="none"><g clip-path="url(#clip0_198_370)"><path d="M13.0918 2.38159C9.83914 3.42529 6.94494 4.96721 6.7832 5.05427V15.252C6.95782 15.3402 9.83951 16.7788 13.0897 17.817C14.0637 15.3628 14.5579 12.7683 14.5579 10.0973C14.5581 7.42762 14.0649 4.83462 13.0918 2.38159ZM49.6392 34.2317V54.8266C49.6392 57.8157 47.2073 60.2476 44.2181 60.2476C41.2288 60.2476 38.797 57.8157 38.797 54.8266V50.506H35.0445V54.8266C35.0445 59.8848 39.1596 64.0001 44.2181 64.0001C49.2765 64.0001 53.3917 59.8848 53.3917 54.8266V34.2317C53.3917 32.123 55.1073 30.4075 57.2159 30.4075V26.6549C53.0381 26.6549 49.6392 30.0539 49.6392 34.2317Z" fill="black"></path><path d="M28.5375 0C23.9704 0 19.9666 0.605033 16.7239 1.37267C17.7763 4.1563 18.3109 7.08602 18.3109 10.0972C18.3109 13.1175 17.7728 16.0563 16.7139 18.8477C19.4542 19.5374 22.7688 20.1782 26.5791 20.5631L26.5814 20.5846C28.9037 20.777 32.0621 21.0067 33.9045 21.0067V24.7592C32.1115 24.7592 29.2688 24.5658 26.9774 24.3827L29.3106 46.7533H44.721L44.784 23.4732C44.789 21.6316 45.3464 19.8581 46.396 18.3449C47.8881 16.1933 48.6768 13.6721 48.6768 11.0536V5.17761C48.3977 4.98899 40.8679 0 28.5375 0ZM39.1008 12.6976H28.7086V8.94503H39.1008V12.6976Z" fill="black"></path></g><defs><clipPath id="clip0_198_370"><rect width="64" height="64" fill="white"></rect></clipPath></defs></svg>