<svg xmlns="http://www.w3.org/2000/svg" width="64" height="64" viewBox="0 0 64 64" fill="none"><path d="M59.3728 54.9361C57.1501 53.5263 55.161 52.6268 53.4745 52.255C50.655 51.6496 47.6798 50.1187 45.3101 48.0431C43.5112 46.4603 42.2138 44.6961 41.522 42.9317C42.0755 42.1447 42.8971 40.121 43.6842 34.9317C43.8485 34.8798 44.0215 34.7847 44.2031 34.6463C45.3447 33.7296 46.0885 31.308 46.2961 29.4312C46.5036 27.5891 46.2442 26.1015 45.5522 25.2452C45.3475 24.9795 45.0801 24.7685 44.7738 24.6312C45.1285 19.0355 43.9003 14.7026 41.1155 11.762C37.4398 7.87875 32.4322 7.87012 32.0171 7.87012H31.9826C31.775 7.87012 30.4171 7.87012 28.6528 8.36308C26.8971 8.8474 24.7177 9.81605 22.8842 11.762C20.0906 14.7026 18.8626 19.0528 19.2258 24.6312C19.2431 24.6226 19.269 24.6226 19.2863 24.6138C18.975 24.735 18.681 24.9426 18.4473 25.2452C17.7555 26.1015 17.4961 27.5891 17.695 29.4312C17.9112 31.308 18.655 33.7296 19.7966 34.6463C19.9782 34.7933 20.1598 34.8798 20.3155 34.9403C21.1026 40.121 21.9242 42.1447 22.4777 42.9317C21.7858 44.7047 20.4885 46.4517 18.7068 48.0258C18.6982 48.0345 18.6896 48.0345 18.681 48.0431C16.2938 50.1187 13.3273 51.6496 10.5252 52.255C8.82146 52.6268 6.83227 53.5263 4.62687 54.9361C4.38471 55.0917 4.27227 55.3858 4.35011 55.6626C4.42795 55.9393 4.68741 56.1296 4.97281 56.1296H59.0268C59.3122 56.1296 59.5717 55.9393 59.6496 55.6626C59.7275 55.3858 59.615 55.0831 59.3728 54.9361ZM44.1685 25.8075C44.3068 25.8333 44.428 25.9112 44.5403 26.0582C44.9987 26.6203 45.1717 27.8312 45.0075 29.2928C44.722 31.9047 43.6668 33.6171 43.1912 33.7122C43.0615 33.695 42.9317 33.7122 42.8106 33.7815C42.629 33.8766 42.4993 34.0496 42.4733 34.2571C41.7122 39.4896 40.9426 41.3663 40.588 41.989C40.1382 41.7987 39.3771 41.5393 38.2615 41.3145L38.4777 39.9998C38.7285 38.5036 39.1782 37.1717 39.8096 36.0301C40.3803 35.001 40.9166 33.401 41.401 31.282C42.3436 27.1306 43.762 26.041 44.1685 25.8075ZM32.6485 9.19336C34.0668 9.31444 37.5696 9.88524 40.1901 12.6701C42.7242 15.3512 43.8226 19.3987 43.4593 24.7177C42.681 25.1847 41.1242 26.6377 40.1382 30.988C39.5587 33.4875 39.0226 34.7675 38.6766 35.3987C37.9675 36.6701 37.4745 38.1491 37.1977 39.7836L36.9815 41.0896C35.8485 40.9338 34.4561 40.8215 32.761 40.8215H32.6485V9.19336ZM21.5263 34.2571C21.5117 34.1568 21.4736 34.0615 21.415 33.9787C21.3562 33.896 21.2788 33.8285 21.189 33.7815C21.0962 33.7306 20.9921 33.7038 20.8863 33.7036C20.8431 33.7036 20.7998 33.7122 20.7566 33.7122C20.3761 33.695 19.2863 31.9652 18.9836 29.2928C18.828 27.8312 19.001 26.6203 19.4593 26.0582C19.5803 25.9026 19.7101 25.8161 19.7966 25.7901C20.1858 26.015 21.6387 27.0961 22.5987 31.282C23.0831 33.401 23.6106 35.001 24.1815 36.0215C24.8215 37.1717 25.2626 38.5122 25.5133 39.9998L25.7296 41.3058C24.6052 41.5306 23.8615 41.7987 23.4117 41.989C23.0571 41.3577 22.2873 39.481 21.5263 34.2571ZM31.9998 46.0626C28.869 46.0626 24.735 46.175 21.535 46.9706C22.521 45.7858 23.2647 44.5317 23.7403 43.2603C23.948 41.9803 39.775 42.1361 40.2506 43.2603C40.7263 44.5231 41.4787 45.7771 42.4647 46.9793C39.2647 46.175 35.1306 46.0626 31.9998 46.0626Z" fill="black"></path><path d="M35.0703 13.1115C35.2447 13.1115 35.4118 13.0422 35.5351 12.919C35.6583 12.7957 35.7276 12.6285 35.7276 12.4542C35.7276 12.2798 35.6583 12.1127 35.5351 11.9894C35.4118 11.8661 35.2447 11.7969 35.0703 11.7969C34.896 11.7969 34.7288 11.8661 34.6056 11.9894C34.4823 12.1127 34.4131 12.2798 34.4131 12.4542C34.4131 12.6285 34.4823 12.7957 34.6056 12.919C34.7288 13.0422 34.896 13.1115 35.0703 13.1115ZM35.0703 16.3287C35.1567 16.3287 35.2421 16.3117 35.3218 16.2787C35.4016 16.2457 35.4741 16.1972 35.5351 16.1362C35.5962 16.0752 35.6446 16.0027 35.6776 15.923C35.7106 15.8432 35.7276 15.7577 35.7276 15.6715C35.7276 15.5851 35.7106 15.4996 35.6776 15.42C35.6446 15.3402 35.5962 15.2677 35.5351 15.2067C35.4741 15.1456 35.4016 15.0972 35.3218 15.0642C35.2421 15.0311 35.1567 15.0141 35.0703 15.0141C34.896 15.0141 34.7288 15.0834 34.6056 15.2067C34.4823 15.33 34.4131 15.4971 34.4131 15.6715C34.4131 15.8457 34.4823 16.013 34.6056 16.1362C34.7288 16.2595 34.896 16.3287 35.0703 16.3287ZM37.6563 14.7287C38.0108 14.7287 38.3136 14.4347 38.3136 14.0715C38.3136 13.7082 38.0196 13.4229 37.6563 13.4229C37.2931 13.4229 36.999 13.7169 36.999 14.0715C36.999 14.4261 37.2931 14.7287 37.6563 14.7287Z" fill="black"></path><path d="M39.5417 17.0812C39.9047 17.0812 40.1989 16.7869 40.1989 16.4239C40.1989 16.0609 39.9047 15.7666 39.5417 15.7666C39.1787 15.7666 38.8843 16.0609 38.8843 16.4239C38.8843 16.7869 39.1787 17.0812 39.5417 17.0812Z" fill="black"></path><path d="M37.1544 18.2139C37.5174 18.2139 37.8117 17.9197 37.8117 17.5567C37.8117 17.1937 37.5174 16.8994 37.1544 16.8994C36.7914 16.8994 36.4971 17.1937 36.4971 17.5567C36.4971 17.9197 36.7914 18.2139 37.1544 18.2139Z" fill="black"></path><path d="M37.4834 20.0645C37.4834 20.2389 37.5526 20.406 37.6759 20.5292C37.7991 20.6525 37.9664 20.7217 38.1406 20.7217C38.315 20.7217 38.4821 20.6525 38.6055 20.5292C38.7288 20.406 38.798 20.2389 38.798 20.0645C38.798 19.8901 38.7288 19.723 38.6055 19.5997C38.4821 19.4765 38.315 19.4072 38.1406 19.4072C37.9664 19.4072 37.7991 19.4765 37.6759 19.5997C37.5526 19.723 37.4834 19.8901 37.4834 20.0645Z" fill="black"></path><path d="M35.8399 22.6504C36.2029 22.6504 36.4971 22.3562 36.4971 21.9932C36.4971 21.6302 36.2029 21.3359 35.8399 21.3359C35.4769 21.3359 35.1826 21.6302 35.1826 21.9932C35.1826 22.3562 35.4769 22.6504 35.8399 22.6504Z" fill="black"></path><path d="M37.5094 24.7697C37.8724 24.7697 38.1667 24.4755 38.1667 24.1123C38.1667 23.7493 37.8724 23.4551 37.5094 23.4551C37.1463 23.4551 36.8521 23.7493 36.8521 24.1123C36.8521 24.4755 37.1463 24.7697 37.5094 24.7697Z" fill="black"></path><path d="M37.7512 27.1224C37.7512 27.2968 37.8204 27.4639 37.9437 27.5872C38.0669 27.7105 38.2341 27.7797 38.4084 27.7797C38.5828 27.7797 38.7499 27.7105 38.8732 27.5872C38.9964 27.4639 39.0657 27.2968 39.0657 27.1224C39.0657 26.9481 38.9964 26.7809 38.8732 26.6576C38.7499 26.5344 38.5828 26.4651 38.4084 26.4651C38.2341 26.4651 38.0669 26.5344 37.9437 26.6576C37.8204 26.7809 37.7512 26.9481 37.7512 27.1224ZM37.5177 30.7549C37.3433 30.7549 37.1762 30.8241 37.0528 30.9474C36.9296 31.0706 36.8603 31.2379 36.8603 31.4121C36.8603 31.5865 36.9296 31.7536 37.0528 31.8769C37.1762 32.0001 37.3433 32.0695 37.5177 32.0695C37.6919 32.0695 37.8592 32.0001 37.9824 31.8769C38.1057 31.7536 38.1749 31.5865 38.1749 31.4121C38.1749 31.2379 38.1057 31.0706 37.9824 30.9474C37.8592 30.8241 37.6919 30.7549 37.5177 30.7549ZM40.4496 24.0781C40.2752 24.0781 40.1081 24.1474 39.9848 24.2706C39.8614 24.3939 39.7922 24.561 39.7922 24.7354C39.7922 24.9097 39.8614 25.0769 39.9848 25.2001C40.1081 25.3234 40.2752 25.3926 40.4496 25.3926C40.6238 25.3926 40.7911 25.3234 40.9143 25.2001C41.0376 25.0769 41.1068 24.9097 41.1068 24.7354C41.1068 24.561 41.0376 24.3939 40.9143 24.2706C40.7911 24.1474 40.6238 24.0781 40.4496 24.0781ZM34.8106 25.9894C34.9849 25.9894 35.1521 25.9201 35.2754 25.7969C35.3987 25.6736 35.4679 25.5065 35.4679 25.3321C35.4679 25.1579 35.3987 24.9906 35.2754 24.8674C35.1521 24.7441 34.9849 24.6749 34.8106 24.6749C34.6363 24.6749 34.4691 24.7441 34.3458 24.8674C34.2226 24.9906 34.1533 25.1579 34.1533 25.3321C34.1533 25.5065 34.2226 25.6736 34.3458 25.7969C34.4691 25.9201 34.6363 25.9894 34.8106 25.9894ZM36.1252 28.2467C35.9509 28.2467 35.7837 28.316 35.6604 28.4392C35.5372 28.5625 35.4679 28.7297 35.4679 28.904C35.4679 29.0784 35.5372 29.2455 35.6604 29.3687C35.7837 29.4921 35.9509 29.5614 36.1252 29.5614C36.2996 29.5614 36.4667 29.4921 36.5899 29.3687C36.7133 29.2455 36.7826 29.0784 36.7826 28.904C36.7826 28.7297 36.7133 28.5625 36.5899 28.4392C36.4667 28.316 36.2996 28.2467 36.1252 28.2467ZM35.7447 33.1419C35.7447 32.7872 35.4506 32.4932 35.0873 32.4932C34.7242 32.4932 34.4301 32.7872 34.4301 33.1419C34.4301 33.4965 34.7242 33.7991 35.0873 33.7991C35.4506 33.7991 35.7447 33.4965 35.7447 33.1419ZM35.7447 35.7624C35.3901 35.7624 35.0873 36.0565 35.0873 36.411C35.0873 36.7656 35.3814 37.0684 35.7447 37.0684C36.1079 37.0684 36.4019 36.7743 36.4019 36.411C36.4019 36.0479 36.0993 35.7624 35.7447 35.7624Z" fill="black"></path><path d="M40.1642 22.9709C40.5272 22.9709 40.8215 22.6765 40.8215 22.3135C40.8215 21.9505 40.5272 21.6562 40.1642 21.6562C39.8011 21.6562 39.5068 21.9505 39.5068 22.3135C39.5068 22.6765 39.8011 22.9709 40.1642 22.9709Z" fill="black"></path><path d="M40.7956 20.1432C40.97 20.1432 41.1372 20.0739 41.2605 19.9505C41.3837 19.8273 41.453 19.6602 41.453 19.4858C41.453 19.3115 41.3837 19.1443 41.2605 19.021C41.1372 18.8978 40.97 18.8285 40.7956 18.8285C40.6214 18.8285 40.4541 18.8978 40.3309 19.021C40.2076 19.1443 40.1384 19.3115 40.1384 19.4858C40.1384 19.6602 40.2076 19.8273 40.3309 19.9505C40.4541 20.0739 40.6214 20.1432 40.7956 20.1432ZM34.8195 19.7453C34.9937 19.7453 35.161 19.676 35.2842 19.5528C35.4075 19.4295 35.4767 19.2623 35.4767 19.088C35.4767 18.9137 35.4075 18.7464 35.2842 18.6232C35.161 18.4999 34.9937 18.4307 34.8195 18.4307C34.6451 18.4307 34.478 18.4999 34.3547 18.6232C34.2314 18.7464 34.1621 18.9137 34.1621 19.088C34.1621 19.2623 34.2314 19.4295 34.3547 19.5528C34.478 19.676 34.6451 19.7453 34.8195 19.7453Z" fill="black"></path></svg>