<svg xmlns="http://www.w3.org/2000/svg" width="73" height="64" viewBox="0 0 73 64" fill="none"><g clip-path="url(#clip0_46_1920)"><path d="M72.8279 25.2598L71.1583 1.44751C71.0418 -0.256741 68.6578 -0.550999 68.1296 1.0756C65.5203 9.17046 62.4452 19.0471 58.6632 22.7886C58.1041 23.3462 57.2266 23.3695 56.6053 22.8892C44.5917 13.6324 28.2216 13.7796 16.3945 22.8892C15.7732 23.3695 14.8957 23.3462 14.3366 22.7886C10.5547 19.0473 7.47178 9.17074 4.86246 1.0756C4.34219 -0.551141 1.95814 -0.256741 1.83381 1.44751L0.171918 25.2598C-0.433896 31.0541 0.552459 36.9259 3.20057 42.1003C5.84867 47.2595 8.9238 52.0156 12.5039 56.3227C16.4877 61.0945 22.3742 63.8753 28.5944 63.8753H44.3977C50.6258 63.8753 56.5122 61.0943 60.4882 56.3227C64.0759 52.0156 67.1511 47.2595 69.7915 42.1003C72.4396 36.9259 73.4337 31.0541 72.8279 25.2598ZM45.314 33.9977C44.1802 33.9977 41.6177 32.7505 39.0705 31.5962C37.432 30.8526 35.5604 30.8526 33.9296 31.5962C31.3747 32.7504 28.8197 33.9977 27.6861 33.9977C25.3487 33.9977 23.4459 32.1077 23.4459 29.7682C23.4459 25.9493 28.5481 24.0902 33.0598 24.5394C35.3474 24.7718 37.6527 24.7718 39.9402 24.5394C44.4443 24.09 49.5464 25.9492 49.5464 29.7682C49.5463 32.1075 47.6514 33.9977 45.314 33.9977Z" fill="black"></path></g><defs><clipPath id="clip0_46_1920"><rect width="73" height="64" fill="white"></rect></clipPath></defs></svg>