<svg xmlns="http://www.w3.org/2000/svg" width="64" height="64" viewBox="0 0 64 64" fill="none"><path d="M24.17 40.6699C24.25 40.5199 24.37 40.2199 24.45 39.6099L24.66 38.0999H6C4.9 38.0999 4 38.9999 4 40.0999V44.0999H23.06C23.19 42.8999 23.57 41.7299 24.17 40.6699ZM58 38.0999H39.08C39.1 38.3899 39.12 38.6799 39.15 38.9599C39.19 39.4199 39.35 39.8799 39.65 40.3499C40.3556 41.4875 40.7964 42.7691 40.94 44.0999H60V40.0999C60 38.9999 59.1 38.0999 58 38.0999ZM32 37.9999C31.45 37.9999 31 38.4499 31 38.9999V43.5899L30.71 43.2999C30.523 43.1129 30.2694 43.0079 30.005 43.0079C29.7406 43.0079 29.487 43.1129 29.3 43.2999C29.113 43.4869 29.008 43.7405 29.008 44.0049C29.008 44.2693 29.113 44.5229 29.3 44.7099L31.3 46.7099C31.5 46.9099 31.75 46.9999 32.01 46.9999C32.27 46.9999 32.52 46.8999 32.72 46.7099L34.72 44.7099C34.8126 44.6173 34.886 44.5074 34.9361 44.3865C34.9862 44.2655 35.012 44.1359 35.012 44.0049C35.012 43.874 34.9862 43.7443 34.9361 43.6234C34.886 43.5024 34.8126 43.3925 34.72 43.2999C34.6274 43.2073 34.5175 43.1339 34.3965 43.0838C34.2756 43.0337 34.1459 43.0079 34.015 43.0079C33.8841 43.0079 33.7544 43.0337 33.6335 43.0838C33.5125 43.1339 33.4026 43.2073 33.31 43.2999L33.02 43.5899V38.9999C33.02 38.4499 32.57 37.9999 32.02 37.9999H32ZM37.89 5.91992C35.0856 9.6327 32.8821 13.7631 31.36 18.1599C31.24 18.5099 31.14 18.8499 31.03 19.1999L34.73 19.0699C35.18 13.4999 36.62 8.97992 37.88 5.91992H37.89ZM36.17 32.1099C36.41 30.9899 36.19 29.9199 35.65 29.0599C35.23 28.3899 34.95 27.6499 34.82 26.8799L29.32 26.7199C29.3 26.8599 29.27 27.0099 29.26 27.1399C29.17 27.8599 28.99 28.5699 28.63 29.1999C28.29 29.7899 28.1 30.4699 28.1 31.1999C28.1 33.7299 30.41 35.7299 33.04 35.1899C33.8022 35.0295 34.5019 34.6527 35.0553 34.1046C35.6087 33.5565 35.9922 32.8605 36.16 32.0999L36.17 32.1099Z" fill="black"></path><path d="M28.66 24.71L37.94 24.97C38.2665 24.9794 38.5904 24.9086 38.8832 24.7639C39.1761 24.6192 39.429 24.405 39.62 24.14L52.53 6.35L49.29 4L37.52 20.2C37.16 20.7 36.58 21.01 35.97 21.03L28.65 21.28C27.73 21.31 27 22.07 27 22.99C27 23.91 27.74 24.68 28.66 24.7V24.71ZM40.79 47.05C40.4233 48.7434 39.572 50.2936 38.3397 51.5116C37.1075 52.7297 35.5475 53.563 33.85 53.91C33.24 54.04 32.62 54.1 32 54.1C27.38 54.1 23.56 50.59 23.06 46.1H4V60.1H60V46.1H40.94C40.91 46.42 40.86 46.73 40.79 47.05Z" fill="black"></path></svg>