<svg xmlns="http://www.w3.org/2000/svg" width="64" height="64" viewBox="0 0 64 64" fill="none"><g clip-path="url(#clip0_198_358)"><path d="M32.7762 37.4152C34.8002 36.2779 36.3948 34.6632 37.5148 32.6153C37.9161 31.8779 38.9801 31.8753 39.3868 32.6153C40.3561 34.3912 41.7467 35.8939 43.4067 36.9872C43.9254 34.9166 44.1894 32.6766 44.1894 30.2966C44.1894 29.5313 44.012 28.814 43.6974 28.1807C43.4214 28.258 43.136 28.2967 42.8467 28.2967C42.4383 28.2967 42.4658 28.2832 39.9361 27.786L32.3989 34.2739C29.1937 37.0405 25.0134 32.185 28.2243 29.4246L32.6869 25.5834C27.2323 24.5407 24.2337 20.7688 19.5978 20.2515C20.4 21.034 21.3058 21.7029 22.2897 22.2394C22.9297 22.5901 23.1977 23.6221 22.1191 24.2207C20.0951 25.358 18.5004 26.9727 17.3805 29.0207C16.9778 29.7606 15.9125 29.758 15.5098 29.0207C14.4285 27.0434 12.8565 25.4527 11.0366 24.3621C10.5846 24.0901 10.3459 24.0247 10.1566 23.6514C9.07261 24.5541 8.43262 25.906 8.43262 27.3273V30.3366C8.43262 53.8656 34.1149 57.5775 41.9654 41.0431C40.9347 41.9618 40.0721 43.0524 39.3868 44.3057C38.9774 45.0484 37.9161 45.0404 37.5148 44.3057C36.3281 42.1511 34.6162 40.4951 32.6055 39.3965C31.9162 39.0178 31.7549 37.9832 32.7762 37.4152ZM25.5137 42.5258H24.8643V43.1737C24.8643 43.7631 24.387 44.2404 23.7977 44.2404C23.2084 44.2404 22.731 43.7631 22.731 43.1737V42.5258H22.0817C21.4924 42.5258 21.0151 42.0471 21.0151 41.4591C21.0151 40.8698 21.4924 40.3925 22.0817 40.3925H22.731V39.7431C22.731 39.1538 23.2084 38.6765 23.7977 38.6765C24.387 38.6765 24.8643 39.1538 24.8643 39.7431V40.3925H25.5137C26.103 40.3925 26.5803 40.8698 26.5803 41.4591C26.5803 42.0471 26.103 42.5258 25.5137 42.5258Z" fill="black"></path><path d="M41.7864 38.4631C40.5396 39.3452 39.4095 40.4428 38.4477 41.7897C37.5268 40.5038 36.4007 39.3782 35.1145 38.4577C36.4131 37.5391 37.5291 36.4271 38.4517 35.1311C39.3737 36.4166 40.5002 37.5421 41.7864 38.4631ZM62.0473 9.3422C61.6021 9.7254 60.9283 9.67846 60.5434 9.23021L59.5567 8.08356L54.6515 12.3062L56.8354 14.8434C57.4321 15.5369 56.9313 16.6061 56.0274 16.6061C55.4881 16.6061 55.2483 16.2705 55.0301 16.0168L43.5423 25.9059C43.3486 26.0722 43.1016 26.1635 42.8463 26.1633C42.6955 26.1633 42.9267 26.1998 39.3317 25.4926L31.0065 32.6578C29.9512 33.5663 28.5404 31.9668 29.6146 31.0405L37.9397 23.8753L37.7878 20.506C37.7731 20.1794 37.9091 19.8634 38.1571 19.65L49.6462 9.7622L49.4582 9.54353C49.0729 9.09688 49.1236 8.42355 49.5702 8.03823C49.7847 7.85386 50.0636 7.76222 50.3457 7.78347C50.6277 7.80473 50.8898 7.93713 51.0742 8.15156L53.2582 10.6888L58.1647 6.46759L57.1781 5.32094C56.7928 4.87428 56.8434 4.20096 57.2901 3.81563C57.5046 3.63126 57.7835 3.53963 58.0655 3.56088C58.3476 3.58213 58.6096 3.71453 58.7941 3.92896L62.1593 7.83823C62.2509 7.94427 62.3206 8.06733 62.3645 8.20035C62.4084 8.33337 62.4257 8.47375 62.4153 8.61345C62.4049 8.75314 62.367 8.88942 62.3039 9.01447C62.2408 9.13952 62.1536 9.25089 62.0473 9.3422Z" fill="black"></path><path d="M48.3182 24.6087V44.5643C48.3182 46.9883 46.4316 49.0776 43.9276 49.4229C42.0197 49.6856 39.6837 49.9002 37.0371 50.0562C43.5164 45.6619 46.3222 38.1943 46.3222 30.2966C46.3231 29.1576 46.0414 28.0361 45.5023 27.0328L48.3182 24.6087ZM45.8716 10.1956L36.7664 18.0341C36.3989 18.35 36.1081 18.7454 35.9159 19.1903C35.7237 19.6352 35.6352 20.1179 35.6571 20.6021L35.7611 22.9354L34.8744 23.6993C28.0487 23.3564 24.7531 17.6304 17.8321 18.0888C17.3337 17.3204 17.3525 17.1399 16.9881 16.9248C16.4734 16.6184 15.8005 16.798 15.5094 17.3301C15.2361 17.8288 14.9361 18.3021 14.6081 18.7488C12.8628 19.3448 11.0575 20.3381 9.12554 21.7514C7.33823 23.0595 6.29892 25.1561 6.29892 27.3273C6.29892 30.3848 6.26638 31.5337 6.43625 33.3312C7.0701 40.1192 9.99765 46.2675 15.5841 50.0562C12.9375 49.9002 10.6015 49.6856 8.69354 49.4229C6.19092 49.0776 4.30295 46.9883 4.30295 44.5643V19.9647C4.30295 -2.73581 36.5428 -6.19896 45.8716 10.1956ZM49.9729 64H2.64831C1.86112 64 1.34873 63.177 1.68699 62.472C5.2004 55.1419 14.1129 57.6836 17.8441 52.3082C18.0859 52.3189 20.0919 52.4053 20.3373 52.3895C20.4505 52.3895 22.8008 53.3322 26.3132 53.3322C29.8528 53.3322 32.0526 52.4087 32.3465 52.3909C32.5078 52.4049 34.6168 52.3153 34.7784 52.3082C38.4044 57.532 47.4605 55.2308 50.9355 62.472C51.2744 63.1783 50.7594 64 49.9729 64Z" fill="black"></path><path d="M19.7799 23.1781C18.4826 24.0968 17.3666 25.2088 16.4427 26.5047C15.5216 25.219 14.3955 24.0934 13.1094 23.1728C14.3612 22.288 15.4863 21.1922 16.4467 19.8462C17.3675 21.1321 18.4936 22.2578 19.7799 23.1781Z" fill="black"></path></g><defs><clipPath id="clip0_198_358"><rect width="64" height="64" fill="white"></rect></clipPath></defs></svg>