<svg width="673" height="362" viewBox="0 0 673 362" fill="none" xmlns="http://www.w3.org/2000/svg">
<path d="M84.8492 144.998C84.8492 148.398 82.0492 151.198 78.6492 151.198C75.2492 151.198 72.4492 148.398 72.4492 144.998C72.4492 141.598 75.2492 138.798 78.6492 138.798C82.0492 138.798 84.8492 141.498 84.8492 144.998Z" fill="white"/>
<path d="M56.1089 209.662C31.5613 211.734 29.9673 213.328 28.0545 237.716C25.9823 213.169 24.3882 211.575 0 209.662C24.5476 207.59 26.1417 205.996 28.0545 181.607C29.9673 205.996 31.5613 207.59 56.1089 209.662Z" fill="white"/>
<path d="M672.968 22.0326C653.689 23.6601 652.437 24.9119 650.935 44.0653C649.308 24.7867 648.056 23.5349 628.902 22.0326C648.181 20.4052 649.433 19.1534 650.935 0C652.437 19.1534 653.689 20.4052 672.968 22.0326Z" fill="white"/>
<path d="M234.361 346.909C221.35 348.007 220.505 348.852 219.491 361.779C218.393 348.768 217.548 347.923 204.621 346.909C217.632 345.811 218.477 344.966 219.491 332.039C220.505 344.966 221.35 345.811 234.361 346.909Z" fill="white"/>
</svg>
