<svg width="1800" height="801" viewBox="0 0 1800 801" fill="none" xmlns="http://www.w3.org/2000/svg">
<g clip-path="url(#clip0_157_317)">
<path d="M1798.29 767.604C1798.94 772.414 1798.76 778.057 1794.96 781.294C1791.17 784.44 1784.6 783.052 1782.38 778.704C1782.75 783.977 1778.59 789.157 1773.41 789.897C1768.23 790.637 1762.77 786.66 1761.75 781.479C1760.64 785.18 1756.02 786.937 1752.41 785.735C1748.8 784.532 1746.21 781.109 1745.29 777.409C1744.27 773.709 1744.64 769.824 1745.2 766.031C1747.51 750.675 1753.43 735.967 1762.4 723.294C1764.25 720.611 1766.38 715.894 1769.71 717.281C1772.67 718.484 1775.91 722.647 1778.04 724.959C1783.12 730.417 1787.47 736.615 1790.8 743.275C1794.69 750.768 1797.28 759.093 1798.29 767.604Z" stroke="white" stroke-opacity="0.1" stroke-miterlimit="10"/>
<path d="M1776.65 723.294C1782.48 736.43 1786.36 750.491 1788.21 764.736C1783.68 754.653 1779.15 744.57 1774.61 734.395C1773.32 747.808 1773.23 761.406 1774.24 774.912C1768.14 763.256 1765.27 749.936 1766.1 736.8C1760.83 746.976 1756.85 757.891 1754.36 769.084C1753.06 757.151 1754.63 744.94 1758.8 733.747C1760.09 730.232 1761.66 726.717 1762.59 723.109" stroke="white" stroke-opacity="0.1" stroke-miterlimit="10"/>
<path d="M1779.69 636.34C1782 632.084 1785.52 627.552 1790.33 627.274C1795.23 626.904 1799.77 631.899 1798.93 636.802C1801.71 632.269 1808.18 630.604 1812.81 633.102C1817.43 635.6 1819.56 641.982 1817.25 646.7C1820.3 644.388 1825.11 645.683 1827.33 648.735C1829.55 651.788 1829.64 656.136 1828.26 659.651C1826.87 663.258 1824.28 666.219 1821.6 668.901C1810.77 679.909 1797.27 688.42 1782.56 693.415C1779.51 694.433 1774.97 697.023 1773.03 693.97C1771.37 691.287 1771.18 686.015 1770.81 682.869C1769.89 675.469 1770.07 667.976 1771.27 660.576C1772.85 652.065 1775.62 643.833 1779.69 636.34Z" stroke="white" stroke-opacity="0.1" stroke-miterlimit="10"/>
<path d="M1771.18 684.997C1774.23 670.937 1779.32 657.246 1786.17 644.573C1783.85 655.396 1781.63 666.219 1779.32 677.042C1788.29 666.867 1796.34 656.044 1803.37 644.48C1801.43 657.524 1795.97 670.012 1787.55 680.187C1797.82 675.007 1807.44 668.624 1816.04 661.039C1810.03 671.399 1801.61 680.372 1791.72 687.033C1788.57 689.16 1785.24 691.01 1782.37 693.415" stroke="white" stroke-opacity="0.1" stroke-miterlimit="10"/>
<path d="M1705.69 672.232C1702.36 668.624 1699.12 663.999 1700.33 659.281C1701.53 654.471 1707.63 651.696 1711.98 654.008C1708.56 650.031 1708.93 643.278 1712.72 639.67C1716.51 636.062 1723.27 636.062 1727.06 639.67C1725.86 636.062 1728.45 631.9 1732.15 630.697C1735.76 629.495 1739.92 630.79 1742.88 633.195C1745.84 635.6 1747.87 638.93 1749.63 642.353C1756.75 656.136 1760.64 671.492 1760.82 687.032C1760.82 690.27 1761.93 695.358 1758.42 696.283C1755.27 697.115 1750.28 695.543 1747.13 694.988C1739.83 693.6 1732.7 691.102 1726.04 687.68C1718.55 683.702 1711.52 678.429 1705.69 672.232Z" stroke="white" stroke-opacity="0.1" stroke-miterlimit="10"/>
<path d="M1749.26 695.358C1736.87 688.143 1725.4 679.077 1715.5 668.532C1725.12 674.082 1734.74 679.54 1744.36 685.09C1737.52 673.434 1729.65 662.426 1720.87 652.066C1732.71 657.894 1742.79 667.052 1749.91 678.152C1748.15 666.774 1745.01 655.673 1740.48 645.128C1748.43 654.101 1754.35 664.831 1757.68 676.394C1758.7 680.002 1759.44 683.795 1760.83 687.217" stroke="white" stroke-opacity="0.1" stroke-miterlimit="10"/>
<path d="M1832.61 693.693C1837.42 694.618 1842.7 696.468 1844.55 701C1846.4 705.533 1843.07 711.453 1838.16 712.101C1843.25 713.303 1846.95 718.946 1845.93 724.127C1845.01 729.307 1839.55 733.284 1834.37 732.544C1837.52 734.765 1837.79 739.667 1835.57 742.812C1833.35 745.865 1829.28 747.253 1825.4 747.068C1821.61 746.883 1818 745.31 1814.58 743.645C1800.7 736.707 1788.49 726.532 1779.24 714.136C1777.3 711.546 1773.5 708.031 1775.72 705.256C1777.76 702.758 1782.75 701 1785.62 699.705C1792.37 696.56 1799.59 694.34 1806.99 693.23C1815.5 692.027 1824.2 692.12 1832.61 693.693Z" stroke="white" stroke-opacity="0.1" stroke-miterlimit="10"/>
<path d="M1783.77 700.631C1798.11 699.151 1812.64 699.798 1826.88 702.481C1815.87 703.683 1804.86 704.886 1793.86 706.088C1806.25 711.454 1819.11 715.801 1832.25 718.947C1819.3 721.167 1805.7 719.779 1793.39 714.876C1801.44 723.017 1810.51 730.14 1820.41 736.06C1808.66 733.562 1797.56 728.382 1788.12 720.982C1785.16 718.669 1782.39 716.079 1779.15 714.044" stroke="white" stroke-opacity="0.1" stroke-miterlimit="10"/>
<path d="M1721.79 751.23C1717.35 753.265 1711.98 754.93 1707.82 752.34C1703.66 749.75 1702.92 742.997 1706.43 739.575C1701.53 741.61 1695.33 739.205 1693.02 734.487C1690.71 729.769 1692.84 723.386 1697.46 720.796C1693.67 720.889 1690.52 717.003 1690.52 713.211C1690.52 709.418 1693.02 705.903 1696.26 703.775C1699.5 701.74 1703.29 700.815 1707.08 700.168C1722.34 697.578 1738.26 698.688 1753.06 703.313C1756.2 704.238 1761.29 704.885 1761.1 708.401C1760.92 711.638 1757.96 715.893 1756.39 718.669C1752.78 725.236 1748.25 731.157 1742.97 736.429C1736.68 742.535 1729.56 747.53 1721.79 751.23Z" stroke="white" stroke-opacity="0.1" stroke-miterlimit="10"/>
<path d="M1757.31 716.911C1746.58 726.531 1734.37 734.579 1721.33 740.777C1729.56 733.377 1737.7 725.884 1745.93 718.483C1732.7 721.443 1719.75 725.514 1707.27 730.694C1716.42 721.258 1728.26 714.413 1741.03 711.175C1729.74 709.325 1718.18 708.863 1706.71 709.973C1717.63 705.07 1729.74 702.758 1741.68 703.22C1745.47 703.405 1749.26 703.775 1752.96 703.59" stroke="white" stroke-opacity="0.1" stroke-miterlimit="10"/>
<path d="M1771.37 686.662C1769.8 686.292 1768.14 686.2 1766.38 686.292C1764.44 686.385 1762.59 686.847 1760.83 687.495" stroke="white" stroke-opacity="0.1" stroke-miterlimit="10"/>
<path d="M1755.27 720.334C1757.22 721.907 1759.44 723.202 1761.93 723.942" stroke="white" stroke-opacity="0.1" stroke-miterlimit="10"/>
<path d="M1776.18 722.739C1778.58 721.536 1780.62 719.871 1782.28 717.929" stroke="white" stroke-opacity="0.1" stroke-miterlimit="10"/>
<path d="M1748.62 702.203C1748.99 699.891 1749.82 697.763 1751.02 695.82" stroke="white" stroke-opacity="0.1" stroke-miterlimit="10"/>
<path d="M1782.48 693.415C1783.96 695.265 1785.16 697.393 1785.9 699.705" stroke="white" stroke-opacity="0.1" stroke-miterlimit="10"/>
<path d="M901.127 -26.9105C881.931 -34.0104 861.223 -37.2317 840.778 -36.3771C834.729 -28.291 830.062 -19.2188 826.972 -9.62072C839.2 -12.9735 851.822 -14.88 864.444 -15.2087C876.672 -15.5374 890.28 -13.8281 898.3 -4.5587C872.07 -3.83556 846.037 2.60702 822.502 14.3088C821.976 22.8551 822.567 31.5328 824.014 39.9476C842.224 29.8236 862.209 22.8551 882.786 19.6338C885.284 19.2394 887.914 18.9107 890.346 19.6338C892.778 20.3569 895.013 22.5264 894.948 25.0903C894.948 29.2319 889.886 31.1384 885.876 32.0588C865.364 36.7263 845.577 44.6152 827.432 55.3309C829.339 62.3651 831.705 69.3994 834.664 76.1707C845.116 67.3614 856.95 60.0642 869.506 54.6735C873.714 52.8985 879.433 51.6494 882.194 55.2652C884.429 58.1577 883.114 62.6281 880.419 65.0605C877.724 67.5586 874.108 68.6105 870.624 69.7938C859.514 73.6725 849.258 79.9836 840.646 88.0697C842.815 91.7511 845.182 95.1697 847.746 98.4567C853.268 92.1456 859.777 86.7549 867.074 82.6132C869.177 81.4299 871.347 80.3123 873.779 80.3123C876.146 80.3123 878.71 81.6928 879.301 83.9938C879.827 86.2289 878.381 88.4641 876.475 89.7789C874.568 91.0937 872.333 91.6197 870.164 92.4086C863.59 94.841 858.133 99.903 854.912 106.148C859.908 110.816 865.562 114.563 871.939 117.258C876.409 119.099 881.142 120.085 886.007 120.48C891.003 111.868 893.962 102.138 894.553 92.2113C894.685 89.9762 894.685 87.6095 895.737 85.5715C896.788 83.5336 899.155 82.0215 901.259 82.8104C903.625 83.6651 904.283 86.6891 904.414 89.1873C905.072 99.8372 902.837 110.684 898.038 120.217C901.588 119.822 905.072 119.231 908.49 118.376C909.148 118.245 909.805 118.047 910.462 117.916C918.549 100.166 920.784 79.7864 916.182 60.7874C915.59 57.829 915.064 54.0161 917.694 52.5698C919.469 51.5837 921.77 52.5041 923.085 54.0161C924.334 55.5939 924.86 57.6318 925.188 59.604C928.607 77.8799 927.226 97.0104 921.178 114.563C930.448 111.276 939.323 106.74 947.474 101.284C951.222 77.8142 947.211 53.0957 935.904 32.1902C939.125 31.2699 942.61 32.5189 945.173 34.6884C947.672 36.8578 949.315 39.8819 950.761 42.9059C958.124 58.6179 960.491 76.5651 957.664 93.6576C965.422 87.1493 972.324 79.6549 978.175 71.4373C974.559 50.5976 966.079 30.6125 953.391 13.7172C965.553 16.6097 973.245 28.3116 979.687 39.0273C982.58 43.8921 985.538 48.7569 988.431 53.6217C992.112 45.6013 994.939 37.1865 996.846 28.5745C993.887 25.3532 990.929 22.1319 988.036 18.8449C981.857 12.0079 975.48 4.97367 972.127 -3.57259C980.542 -4.95314 989.417 -3.24389 996.714 1.16073C997.7 1.75239 998.686 2.40979 999.607 3.0672C999.607 -1.60038 999.278 -6.20221 998.752 -10.804C997.897 -17.3781 996.451 -24.0836 992.507 -29.3429C985.933 -38.1521 963.975 -41.0447 954.377 -35.7197L944.056 -21.717C946.751 -30.0003 945.568 -36.3771 945.568 -45.1206C945.568 -53.8641 942.347 -63.002 935.312 -68.1298C929.659 -72.2057 922.296 -73.1918 915.327 -73.2575C910.66 -73.3233 905.926 -72.9288 901.325 -72.2714C906.518 -66.552 910.66 -59.9122 913.421 -52.7465C913.881 -51.6289 914.21 -50.3141 913.552 -49.328C912.369 -47.6845 909.805 -48.8021 908.227 -50.1826C903.428 -54.39 899.484 -59.5178 894.75 -63.8566C892.581 -65.8946 890.149 -67.7353 887.585 -69.1816C877.592 -66.0918 868.126 -61.3585 859.711 -55.1132C858.659 -54.3243 857.673 -53.5354 856.687 -52.7465C873.319 -48.2761 888.9 -39.2697 901.127 -26.9105Z" stroke="white" stroke-opacity="0.1" stroke-width="2" stroke-miterlimit="10"/>
<path d="M887.391 75.2502C906.916 26.6022 974.694 -67.4724 990.143 -88.3779" stroke="white" stroke-opacity="0.1" stroke-width="2" stroke-miterlimit="10"/>
<path d="M910.395 97.9961C914.274 81.8239 909.804 63.8767 898.891 51.3203" stroke="white" stroke-opacity="0.1" stroke-width="2" stroke-miterlimit="10"/>
<path d="M937.349 89.9756C940.899 65.9146 932.55 40.4073 915.523 23.0518" stroke="white" stroke-opacity="0.1" stroke-width="2" stroke-miterlimit="10"/>
<path d="M967.128 66.3092C964.104 40.8019 947.998 17.2011 925.383 5.03906" stroke="white" stroke-opacity="0.1" stroke-width="2" stroke-miterlimit="10"/>
<path d="M986.195 30.8096C974.033 12.3365 954.771 -1.33748 933.273 -6.79395" stroke="white" stroke-opacity="0.1" stroke-width="2" stroke-miterlimit="10"/>
<path d="M905.992 37.9092C883.706 38.1721 861.486 45.8638 843.867 59.6035" stroke="white" stroke-opacity="0.1" stroke-width="2" stroke-miterlimit="10"/>
<path d="M921.964 10.8242C907.173 9.6409 892.315 8.65479 877.59 9.9696C862.798 11.2844 848.072 15.1631 835.516 23.052" stroke="white" stroke-opacity="0.1" stroke-width="2" stroke-miterlimit="10"/>
<path d="M927.292 16.8068C929.33 15.0318 932.815 16.4124 934.064 18.779C935.378 21.1457 935.115 24.0383 934.852 26.7336C934.918 27.917 933.735 28.1142 932.552 27.917C931.368 27.7198 930.382 26.8651 929.527 26.0105C928.278 24.7614 926.964 23.3809 926.372 21.7374C925.78 20.0939 925.977 17.9902 927.292 16.8068Z" stroke="white" stroke-opacity="0.1" stroke-width="2" stroke-miterlimit="10"/>
<path d="M909.081 -5.54555C910.593 -7.18906 913.486 -7.32054 915.195 -5.87425C917.43 -4.03352 916.904 0.239615 914.209 1.29146C911.711 1.94887 911.382 2.14609 909.41 0.502577C907.7 -0.943714 907.569 -3.90204 909.081 -5.54555Z" stroke="white" stroke-opacity="0.1" stroke-width="2" stroke-miterlimit="10"/>
<path d="M902.84 15.7547C903.694 16.2149 904.286 17.0037 904.615 17.9241C904.812 18.5158 904.944 19.1074 904.944 19.7648C905.075 22.7889 901.394 24.3009 899.356 22.1315C898.895 21.6056 898.501 21.0139 898.238 20.4223C897.252 17.7269 899.816 14.0454 902.84 15.7547Z" stroke="white" stroke-opacity="0.1" stroke-width="2" stroke-miterlimit="10"/>
<path d="M197.381 729.911C210.288 718.736 220.905 704.907 228.451 689.554C224.926 681.922 220.214 674.875 214.465 668.749C212.019 679 208.378 688.981 203.554 698.417C198.888 707.487 192.217 716.757 182.23 718.919C192.21 699.468 197.885 677.837 198.752 656.022C192.685 652.186 186.155 649.176 179.385 646.89C179.477 664.248 176.573 681.632 170.727 698.023C169.994 700.043 169.183 702.071 167.694 703.543C166.17 705.057 163.749 705.766 161.895 704.743C158.884 703.057 159.492 698.596 160.411 695.311C165.235 678.437 167.372 660.78 166.795 643.236C160.889 641.799 154.747 640.736 148.659 640.212C150.902 651.398 151.505 662.943 150.416 674.305C150.055 678.118 148.65 682.775 144.894 683.382C141.867 683.878 139.142 681.151 138.415 678.147C137.653 675.185 138.357 672.078 138.836 669.071C140.402 659.374 139.952 649.373 137.486 639.844C133.95 639.923 130.48 640.269 127.075 640.88C129.481 647.455 130.789 654.334 130.94 661.328C130.985 663.349 130.876 665.385 129.958 667.111C129.004 668.881 126.953 670.175 125.067 669.623C123.225 669.105 122.134 667.15 121.985 665.257C121.836 663.364 122.311 661.486 122.589 659.589C123.417 653.822 121.92 647.779 118.638 642.966C113.251 644.787 108.214 647.391 103.739 650.951C100.604 653.483 97.9493 656.55 95.7538 659.923C100.08 667.008 105.984 673.118 113.038 677.479C114.618 678.49 116.345 679.408 117.397 680.978C118.449 682.548 118.644 684.904 117.209 686.137C115.635 687.539 113.187 686.809 111.306 685.906C103.254 682.074 96.2779 676.148 91.1496 668.831C90.0571 671.549 89.0918 674.371 88.2807 677.177C88.1378 677.698 87.9602 678.26 87.8597 678.816C97.6042 691.826 111.622 701.607 127.313 705.886C129.753 706.539 132.752 707.72 132.724 710.177C132.696 711.854 131.157 713.214 129.511 713.495C127.864 713.775 126.183 713.32 124.572 712.779C109.846 708.014 96.3975 699.266 85.9929 687.841C84.7358 695.949 84.4271 704.196 85.2058 712.412C100.823 724.565 120.556 731.519 140.351 731.652C139.764 734.359 137.403 736.463 134.808 737.383C132.178 738.346 129.336 738.356 126.591 738.162C112.171 737.26 98.0779 731.809 86.7544 722.889C88.3967 731.176 91.1032 739.201 94.8163 746.775C111.466 752.478 129.521 754.303 146.985 751.747C140.006 759.49 128.381 760.452 117.951 760.906C113.216 761.065 108.524 761.26 103.754 761.462C108.12 767.374 113.141 772.833 118.718 777.613C122.254 776.755 125.79 775.896 129.326 775.038C136.818 773.242 144.465 771.429 152.072 772.347C149.701 779.047 144.944 784.855 138.758 788.43C137.948 788.9 137.096 789.335 136.201 789.736C139.578 791.58 143.128 793.213 146.697 794.649C151.844 796.668 157.337 798.263 162.755 797.53C171.816 796.239 182.72 781.369 182.705 772.219L176.643 759.038C181.648 764.342 186.764 766.052 193.143 769.506C199.523 772.96 207.526 774.345 214.067 771.202C219.308 768.694 223.02 763.73 225.86 758.619C227.74 755.2 229.407 751.607 230.758 747.968C224.484 749.488 218.018 749.859 211.626 749.015C210.643 748.918 209.525 748.64 209.082 747.71C208.346 746.187 210.228 744.754 211.844 744.165C216.881 742.34 222.171 741.502 227.257 739.788C229.594 739.011 231.943 737.959 234.037 736.7C235.796 728.152 236.085 719.323 234.918 710.717C234.775 709.68 234.591 708.608 234.406 707.536C224.126 718.099 211.317 725.954 197.381 729.911Z" stroke="white" stroke-opacity="0.1" stroke-miterlimit="10"/>
<path d="M128.18 678.971C155.951 712.694 197.579 799.984 206.657 819.602" stroke="white" stroke-opacity="0.1" stroke-miterlimit="10"/>
<path d="M102.307 686.685C112.617 695.978 127.498 699.949 141.063 696.964" stroke="white" stroke-opacity="0.1" stroke-miterlimit="10"/>
<path d="M97.4264 709.6C113.633 721.811 135.616 725.932 155.082 720.412" stroke="white" stroke-opacity="0.1" stroke-miterlimit="10"/>
<path d="M102.791 740.84C122.667 748.831 146.384 746.51 164.303 734.836" stroke="white" stroke-opacity="0.1" stroke-miterlimit="10"/>
<path d="M121.131 768.961C139.516 767.444 157.237 758.866 169.794 745.35" stroke="white" stroke-opacity="0.1" stroke-miterlimit="10"/>
<path d="M157.904 791.431C166.639 780.593 172.286 767.298 174.07 753.53" stroke="white" stroke-opacity="0.1" stroke-miterlimit="10"/>
<path d="M148.076 707.52C156.84 691.111 160.057 671.788 157.102 653.43" stroke="white" stroke-opacity="0.1" stroke-miterlimit="10"/>
<path d="M161.411 730.063C168.172 719.733 174.882 709.291 179.788 697.939C184.737 686.621 187.831 674.281 187.031 661.938" stroke="white" stroke-opacity="0.1" stroke-miterlimit="10"/>
<path d="M166.654 740.874C176.379 739.205 184.206 732.157 190.837 724.839C200.582 713.978 208.92 701.895 215.531 688.893" stroke="white" stroke-opacity="0.1" stroke-miterlimit="10"/>
<path d="M171.088 748.609C189.233 748.595 207.243 740.183 218.863 726.255" stroke="white" stroke-opacity="0.1" stroke-miterlimit="10"/>
<path d="M173.728 753.252C185.114 759.674 198.511 762.43 211.501 761.098" stroke="white" stroke-opacity="0.1" stroke-miterlimit="10"/>
<path d="M154.948 731.564C155.437 733.735 153.026 735.727 150.767 735.718C148.507 735.709 146.503 734.351 144.626 733.097C143.724 732.642 144.06 731.713 144.685 730.95C145.268 730.152 146.324 729.813 147.304 729.482C148.738 729.028 150.223 728.685 151.684 728.89C153.188 729.13 154.648 730.114 154.948 731.564Z" stroke="white" stroke-opacity="0.1" stroke-miterlimit="10"/>
<path d="M178.577 727.188C179.182 728.958 178.113 731.128 176.385 731.767C174.133 732.614 171.246 730.604 171.513 728.202C172.008 726.128 172.054 725.812 174.04 725.03C175.76 724.314 177.973 725.418 178.577 727.188Z" stroke="white" stroke-opacity="0.1" stroke-miterlimit="10"/>
<path d="M165.51 714.079C164.812 714.499 164.006 714.618 163.22 714.54C162.707 714.474 162.221 714.289 161.77 714.061C159.558 712.958 159.852 709.657 162.282 709.026C162.849 708.853 163.431 708.834 164.021 708.892C166.311 709.209 168.002 712.507 165.51 714.079Z" stroke="white" stroke-opacity="0.1" stroke-miterlimit="10"/>
<path d="M162.327 769.769C161.922 770.004 161.467 770.127 161.004 770.173C158.76 770.318 157.975 767.904 158.585 766.208C159.215 763.536 162.066 760.488 165.147 758.974C166.929 758.096 168.84 760.087 167.802 761.786L164.904 766.709C164.248 767.942 163.55 769.141 162.327 769.769Z" stroke="white" stroke-opacity="0.1" stroke-miterlimit="10"/>
<path d="M65.0674 130.066C65.7149 134.876 65.5299 140.519 61.7372 143.756C57.9446 146.901 51.3767 145.514 49.1566 141.166C49.5266 146.439 45.3639 151.619 40.1837 152.359C35.0034 153.099 29.5457 149.122 28.5281 143.941C27.4181 147.642 22.7929 149.399 19.1852 148.197C15.5775 146.994 12.9874 143.571 12.0623 139.871C11.0448 136.171 11.4148 132.286 11.9698 128.493C14.2824 113.137 20.2027 98.4291 29.1757 85.756C31.0258 83.0734 33.1534 78.3557 36.4835 79.7432C39.4437 80.9458 42.6813 85.1085 44.8089 87.4211C49.8967 92.8789 54.2444 99.0767 57.5745 105.737C61.4597 113.23 64.0499 121.555 65.0674 130.066Z" stroke="white" stroke-opacity="0.1" stroke-width="1.3" stroke-miterlimit="10"/>
<path d="M43.423 85.7563C49.2508 98.8919 53.1359 112.953 54.986 127.198C50.4533 117.115 45.9206 107.032 41.3879 96.8568C40.0928 110.27 40.0003 123.868 41.0179 137.374C34.9126 125.718 32.0449 112.398 32.8775 99.2619C27.6047 109.437 23.627 120.353 21.1294 131.546C19.8343 119.613 21.4069 107.402 25.5696 96.2093C26.8647 92.6941 28.4373 89.179 29.3623 85.5713" stroke="white" stroke-opacity="0.1" stroke-width="1.3" stroke-miterlimit="10"/>
<path d="M46.4655 -1.19841C48.7781 -5.45361 52.2932 -9.98632 57.1035 -10.2638C62.0062 -10.6339 66.5389 -5.63862 65.7064 -0.735884C68.4815 -5.2686 74.9568 -6.93368 79.5821 -4.43606C84.2073 -1.93844 86.3349 4.44438 84.0223 9.16211C87.0749 6.8495 91.8852 8.14457 94.1053 11.1972C96.3254 14.2499 96.4179 18.5976 95.0303 22.1127C93.6427 25.7204 91.0526 28.6806 88.37 31.3632C77.547 42.3712 64.0413 50.8816 49.3331 55.8769C46.2804 56.8944 41.7477 59.4845 39.8051 56.4319C38.14 53.7493 37.955 48.4765 37.585 45.3314C36.66 37.931 36.845 30.4381 38.0475 23.0378C39.6201 14.5274 42.3953 6.29446 46.4655 -1.19841Z" stroke="white" stroke-opacity="0.1" stroke-width="1.3" stroke-miterlimit="10"/>
<path d="M37.9531 47.4593C41.0058 33.3987 46.0935 19.708 52.9389 7.03489C50.6262 17.8579 48.4061 28.6809 46.0935 39.5039C55.0665 29.3284 63.1143 18.5054 70.1447 6.94238C68.2021 19.9855 62.7443 32.4736 54.3264 42.6491C64.5944 37.4689 74.2149 31.086 82.8178 23.5007C76.805 33.8612 68.3871 42.8341 58.4891 49.4944C55.344 51.622 52.0138 53.4721 49.1462 55.8772" stroke="white" stroke-opacity="0.1" stroke-width="1.3" stroke-miterlimit="10"/>
<path d="M-27.5347 34.6935C-30.8648 31.0858 -34.1025 26.4606 -32.8999 21.7429C-31.6974 16.9326 -25.5921 14.1575 -21.2444 16.4701C-24.667 12.4924 -24.297 5.73959 -20.5043 2.13191C-16.7117 -1.47576 -9.95883 -1.47576 -6.16615 2.13191C-7.36871 -1.47576 -4.77858 -5.63845 -1.0784 -6.841C2.52927 -8.04356 6.69197 -6.74852 9.65212 -4.3434C12.6123 -1.93828 14.6474 1.39187 16.4049 4.81454C23.5278 18.5977 27.413 33.9535 27.598 49.4942C27.598 52.7319 28.708 57.8196 25.1929 58.7447C22.0477 59.5772 17.0525 58.0046 13.9073 57.4496C6.59947 56.062 -0.523374 53.5644 -7.1837 50.1417C-14.6766 46.164 -21.7069 40.8913 -27.5347 34.6935Z" stroke="white" stroke-opacity="0.1" stroke-width="1.3" stroke-miterlimit="10"/>
<path d="M16.0376 57.8198C3.64197 50.6044 -7.82858 41.539 -17.7266 30.9935C-8.1061 36.5438 1.51437 42.0015 11.1348 47.5518C4.2895 35.8962 -3.57338 24.8882 -12.3613 14.5277C-0.520729 20.3555 9.56226 29.5134 16.6851 40.614C14.9275 29.2359 11.7824 18.1354 7.24965 7.58984C15.205 16.5628 21.1253 27.2933 24.4555 38.8564C25.473 42.4641 26.2131 46.2567 27.6006 49.6794" stroke="white" stroke-opacity="0.1" stroke-width="1.3" stroke-miterlimit="10"/>
<path d="M99.3869 56.1544C104.197 57.0795 109.47 58.9296 111.32 63.4623C113.17 67.995 109.84 73.9153 104.937 74.5629C110.025 75.7654 113.725 81.4082 112.707 86.5884C111.782 91.7687 106.325 95.7464 101.144 95.0063C104.29 97.2264 104.567 102.129 102.347 105.274C100.127 108.327 96.0567 109.715 92.1715 109.53C88.3788 109.345 84.7712 107.772 81.3485 106.107C67.4728 99.169 55.2622 88.9935 46.0118 76.5979C44.0692 74.0078 40.2765 70.4926 42.4966 67.7175C44.5317 65.2199 49.5269 63.4623 52.3946 62.1672C59.1474 59.0221 66.3628 56.802 73.7631 55.6919C82.2735 54.4894 90.9689 54.5819 99.3869 56.1544Z" stroke="white" stroke-opacity="0.1" stroke-width="1.3" stroke-miterlimit="10"/>
<path d="M50.5471 63.0926C64.8853 61.6125 79.4085 62.26 93.6542 64.9426C82.6462 66.1452 71.6381 67.3478 60.6301 68.5503C73.0257 73.9156 85.8838 78.2633 99.0194 81.4085C86.0688 83.6286 72.4707 82.241 60.1676 77.3383C68.2155 85.4787 77.2809 92.6015 87.1789 98.5218C75.4308 96.0242 64.3303 90.8439 54.8948 83.4435C51.9347 81.1309 49.1595 78.5408 45.9219 76.5057" stroke="white" stroke-opacity="0.1" stroke-width="1.3" stroke-miterlimit="10"/>
<path d="M-11.4366 113.692C-15.8768 115.727 -21.2421 117.392 -25.4048 114.802C-29.5675 112.212 -30.3075 105.459 -26.7924 102.036C-31.6951 104.072 -37.8929 101.666 -40.2055 96.9487C-42.5181 92.231 -40.3905 85.8482 -35.7653 83.2581C-39.558 83.3506 -42.7031 79.4654 -42.7031 75.6727C-42.7031 71.88 -40.2055 68.3649 -36.9678 66.2373C-33.7302 64.2022 -29.9375 63.2771 -26.1448 62.6296C-10.8816 60.0394 5.02918 61.1495 19.8299 65.7747C22.9751 66.6998 28.0628 67.3473 27.8778 70.8625C27.6928 74.1001 24.7326 78.3553 23.1601 81.1305C19.5524 87.6983 15.0197 93.6186 9.74691 98.8913C3.45661 104.997 -3.66624 109.992 -11.4366 113.692Z" stroke="white" stroke-opacity="0.1" stroke-width="1.3" stroke-miterlimit="10"/>
<path d="M24.0843 79.3726C13.3538 88.9931 1.14322 97.041 -11.8999 103.239C-3.66702 95.8384 4.47338 88.3455 12.7063 80.9452C-0.521864 83.9053 -13.4725 87.9755 -25.9606 93.1558C-16.8027 83.7203 -4.96208 76.875 7.80354 73.6373C-3.48201 71.7872 -15.0451 71.3247 -26.5156 72.4348C-15.6001 67.532 -3.48201 65.2194 8.45107 65.6819C12.2438 65.867 16.0364 66.237 19.7366 66.052" stroke="white" stroke-opacity="0.1" stroke-width="1.3" stroke-miterlimit="10"/>
<path d="M38.1471 49.1241C36.5745 48.7541 34.9094 48.6616 33.1518 48.7541C31.2092 48.8466 29.3591 49.3091 27.6016 49.9566" stroke="white" stroke-opacity="0.1" stroke-width="1.3" stroke-miterlimit="10"/>
<path d="M22.0469 82.7959C23.9895 84.3685 26.2096 85.6635 28.7072 86.4036" stroke="white" stroke-opacity="0.1" stroke-width="1.3" stroke-miterlimit="10"/>
<path d="M42.9531 85.2009C45.3582 83.9983 47.3933 82.3332 49.0584 80.3906" stroke="white" stroke-opacity="0.1" stroke-width="1.3" stroke-miterlimit="10"/>
<path d="M15.3906 64.665C15.7606 62.3524 16.5932 60.2248 17.7957 58.2822" stroke="white" stroke-opacity="0.1" stroke-width="1.3" stroke-miterlimit="10"/>
<path d="M49.25 55.877C50.7301 57.727 51.9326 59.8546 52.6727 62.1672" stroke="white" stroke-opacity="0.1" stroke-width="1.3" stroke-miterlimit="10"/>
<path d="M1800.17 8.99784C1809.2 16.8305 1814.18 29.0862 1813.21 41.0195C1812.33 40.3745 1811.46 39.6833 1810.58 39.0383C1810.31 44.8437 1810.03 50.649 1809.75 56.4544C1808.42 55.4408 1807.03 54.4732 1805.7 53.4596C1804.59 57.7906 1803.44 62.1215 1802.33 66.4525C1801.69 65.6232 1801.04 64.7939 1800.4 64.0106C1798.28 68.8945 1796.16 73.7323 1793.99 78.6161C1792.98 77.5104 1791.97 76.4046 1790.95 75.3449C1788.01 80.1827 1785.06 84.9744 1782.15 89.8122C1780.77 88.6143 1779.34 87.4624 1777.96 86.2645C1774.55 89.8122 1771.14 93.3599 1767.73 96.9077C1766.95 95.9401 1766.21 94.9725 1765.43 94.051C1762.2 96.2165 1759.02 98.336 1755.8 100.501C1755.06 99.3957 1754.28 98.336 1753.54 97.2302C1750.96 98.7967 1748.34 100.317 1745.76 101.884C1745.06 100.916 1744.37 99.9486 1743.68 99.0271C1739.9 101.054 1735.66 101.93 1731.47 102.805C1726.4 103.865 1721.29 104.925 1716.22 105.938C1716.73 101.469 1717.56 96.6773 1718.06 92.2081C1718.29 87.3703 1718.57 82.5325 1718.8 77.6947C1717.7 77.0957 1716.59 76.4967 1715.48 75.8978C1718.89 73.3637 1718.99 67.5122 1715.62 64.8399C1718.34 57.422 1721.38 49.1286 1723.69 42.7703C1722.99 42.3096 1722.26 41.8488 1721.57 41.3881C1725.34 36.0435 1729.12 30.7449 1732.95 25.4003C1732.35 24.617 1731.79 23.8338 1731.2 23.0505C1736.31 19.9175 1741.42 16.7844 1746.49 13.6974C1745.66 12.7299 1744.83 11.7623 1744 10.7947C1749.35 8.53709 1754.69 6.27945 1760.04 4.02181C1758.98 3.28462 1759.25 1.48772 1760.27 0.704458C1761.28 -0.0788061 1762.71 -0.0327314 1763.95 0.335863C1765.2 0.658384 1766.35 1.30342 1767.59 1.57987C1770.5 2.22491 1773.77 0.842682 1775.33 -1.69141C1783.67 0.243716 1793.76 3.42284 1800.17 8.99784Z" stroke="white" stroke-opacity="0.1" stroke-miterlimit="10"/>
<path d="M1823.29 -23.3467C1794.04 27.3812 1761.37 68.6177 1716.17 105.892" stroke="white" stroke-opacity="0.1" stroke-miterlimit="10"/>
<path d="M1745.66 101.331C1749.53 92.761 1751.47 84.099 1750.18 74.792" stroke="white" stroke-opacity="0.1" stroke-miterlimit="10"/>
<path d="M1756.21 100.409C1760.77 87.9225 1763.03 75.3903 1762.06 62.167" stroke="white" stroke-opacity="0.1" stroke-miterlimit="10"/>
<path d="M1769.21 96.2159C1774.19 81.7946 1775.57 66.544 1771.01 51.9385" stroke="white" stroke-opacity="0.1" stroke-miterlimit="10"/>
<path d="M1782.06 89.4895C1785.14 73.8703 1783.95 57.3757 1778.65 42.3555" stroke="white" stroke-opacity="0.1" stroke-miterlimit="10"/>
<path d="M1793.26 77.4637C1798.6 61.9827 1796.76 44.2441 1788.38 30.1914" stroke="white" stroke-opacity="0.1" stroke-miterlimit="10"/>
<path d="M1804.59 56.961C1804.4 43.5994 1801.36 30.2378 1795.79 18.0742" stroke="white" stroke-opacity="0.1" stroke-miterlimit="10"/>
<path d="M1734.19 102.159C1736.68 97.1834 1738.75 92.0231 1738.2 86.4941" stroke="white" stroke-opacity="0.1" stroke-miterlimit="10"/>
<path d="M1738.24 86.4947C1732.11 85.7114 1724.28 85.8496 1718.43 87.7848" stroke="white" stroke-opacity="0.1" stroke-miterlimit="10"/>
<path d="M1750.18 74.7913C1739.81 73.3169 1727.88 75.0217 1718.94 80.4584" stroke="white" stroke-opacity="0.1" stroke-miterlimit="10"/>
<path d="M1761.83 62.0287C1747.27 60.0936 1731.19 62.7198 1718.06 69.2163" stroke="white" stroke-opacity="0.1" stroke-miterlimit="10"/>
<path d="M1771.01 51.9853C1762.48 49.359 1752.76 48.4836 1743.96 49.8659C1735.16 51.2481 1726.64 54.0586 1718.34 57.2838" stroke="white" stroke-opacity="0.1" stroke-miterlimit="10"/>
<path d="M1778.65 42.3556C1774.5 39.7294 1768.98 38.3011 1764.09 38.255C1750.22 38.0246 1736.35 39.8215 1723.04 43.5996" stroke="white" stroke-opacity="0.1" stroke-miterlimit="10"/>
<path d="M1788.38 30.1919C1768.47 26.1374 1747.42 26.0452 1728.16 32.3113" stroke="white" stroke-opacity="0.1" stroke-miterlimit="10"/>
<path d="M1796.53 18.857C1787.03 17.2444 1777.13 15.0329 1767.59 13.9732C1760.03 13.1438 1756.53 11.3469 1745.84 14.0192" stroke="white" stroke-opacity="0.1" stroke-miterlimit="10"/>
</g>
<defs>
<clipPath id="clip0_157_317">
<rect y="0.446289" width="1800" height="800" rx="40" fill="white"/>
</clipPath>
</defs>
</svg>
