<svg width="51" height="51" viewBox="0 0 51 51" fill="none" xmlns="http://www.w3.org/2000/svg">
<path d="M12.349 20.9173L21.4204 6.41734C21.772 5.84423 22.266 5.37194 22.8543 5.04648C23.4427 4.72102 24.1053 4.55349 24.7776 4.5602V4.5602C25.3071 4.54109 25.835 4.62831 26.3302 4.81672C26.8255 5.00513 27.2779 5.2909 27.6608 5.65714C28.0437 6.02339 28.3492 6.46267 28.5595 6.94902C28.7697 7.43538 28.8803 7.95894 28.8847 8.48877V18.8816H44.5633C45.1426 18.9004 45.7114 19.0416 46.2323 19.296C46.7531 19.5503 47.2143 19.912 47.5854 20.3573C47.9564 20.8026 48.229 21.3214 48.3853 21.8796C48.5415 22.4377 48.5778 23.0227 48.4919 23.5959L45.6347 42.0245C45.5128 43.0093 45.0355 43.9158 44.2923 44.5735C43.5491 45.2311 42.5914 45.5947 41.599 45.5959H18.1704C17.0551 45.6003 15.9543 45.3434 14.9561 44.8459L12.3847 43.5602" stroke="#CD5F37" stroke-width="2" stroke-linecap="round" stroke-linejoin="round"/>
<path d="M12.349 20.9175V43.4532" stroke="#CD5F37" stroke-width="2" stroke-linecap="round" stroke-linejoin="round"/>
<path d="M3.88471 20.9175H12.349V43.4532H3.88471C3.41111 43.4532 2.95691 43.2651 2.62202 42.9302C2.28714 42.5953 2.099 42.1411 2.099 41.6675V22.7032C2.099 22.2296 2.28714 21.7754 2.62202 21.4405C2.95691 21.1056 3.41111 20.9175 3.88471 20.9175V20.9175Z" stroke="#CD5F37" stroke-width="2" stroke-linecap="round" stroke-linejoin="round"/>
</svg>
