<svg width="34" height="35" viewBox="0 0 34 35" fill="none" xmlns="http://www.w3.org/2000/svg">
<g clip-path="url(#clip0_385_51)">
<path d="M18.1416 17.5133C17.7814 17.6697 17.3928 17.7505 17.0001 17.7505C16.6074 17.7505 16.2189 17.6697 15.8587 17.5133L2.01585 11.1019C1.79106 10.9885 1.60216 10.815 1.47018 10.6006C1.33819 10.3862 1.26831 10.1394 1.26831 9.88761C1.26831 9.63585 1.33819 9.38903 1.47018 9.17464C1.60216 8.96025 1.79106 8.7867 2.01585 8.67333L15.8587 2.21333C16.2189 2.05691 16.6074 1.9762 17.0001 1.9762C17.3928 1.9762 17.7814 2.05691 18.1416 2.21333L31.9844 8.62475C32.2092 8.73813 32.3981 8.91168 32.5301 9.12607C32.6621 9.34046 32.732 9.58728 32.732 9.83904C32.732 10.0908 32.6621 10.3376 32.5301 10.552C32.3981 10.7664 32.2092 10.9399 31.9844 11.0533L18.1416 17.5133Z" stroke="white" stroke-width="1.5" stroke-linecap="round" stroke-linejoin="round"/>
<path d="M32.7858 18.6062L17.9715 25.4305C17.6551 25.5748 17.3114 25.6495 16.9636 25.6495C16.6159 25.6495 16.2722 25.5748 15.9558 25.4305L1.21436 18.6062" stroke="white" stroke-width="1.5" stroke-linecap="round" stroke-linejoin="round"/>
<path d="M32.7858 26.499L17.9715 33.3233C17.6551 33.4676 17.3114 33.5423 16.9636 33.5423C16.6159 33.5423 16.2722 33.4676 15.9558 33.3233L1.21436 26.499" stroke="white" stroke-width="1.5" stroke-linecap="round" stroke-linejoin="round"/>
</g>
<defs>
<clipPath id="clip0_385_51">
<rect width="34" height="34" fill="white" transform="translate(0 0.759277)"/>
</clipPath>
</defs>
</svg>
