<svg width="50" height="51" viewBox="0 0 50 51" fill="none" xmlns="http://www.w3.org/2000/svg">
<path d="M16.0714 46.4528C23.9612 46.4528 30.3571 40.0568 30.3571 32.1671C30.3571 24.2773 23.9612 17.8813 16.0714 17.8813C8.18164 17.8813 1.78571 24.2773 1.78571 32.1671C1.78571 40.0568 8.18164 46.4528 16.0714 46.4528Z" stroke="#CD5F37" stroke-width="2" stroke-linecap="round" stroke-linejoin="round"/>
<path d="M33.9285 46.4528C41.8183 46.4528 48.2143 40.0568 48.2143 32.1671C48.2143 24.2773 41.8183 17.8813 33.9285 17.8813C26.0388 17.8813 19.6428 24.2773 19.6428 32.1671C19.6428 40.0568 26.0388 46.4528 33.9285 46.4528Z" stroke="#CD5F37" stroke-width="2" stroke-linecap="round" stroke-linejoin="round"/>
<path d="M25 32.1671C32.8898 32.1671 39.2857 25.7712 39.2857 17.8814C39.2857 9.99163 32.8898 3.5957 25 3.5957C17.1102 3.5957 10.7143 9.99163 10.7143 17.8814C10.7143 25.7712 17.1102 32.1671 25 32.1671Z" stroke="#CD5F37" stroke-width="2" stroke-linecap="round" stroke-linejoin="round"/>
</svg>
