<svg width="20" height="21" viewBox="0 0 20 21" fill="none" xmlns="http://www.w3.org/2000/svg">
<g clip-path="url(#clip0_120_113)">
<path d="M4.43242 12.4332L3.73625 15.0321L1.19176 15.0859C0.431328 13.6755 0 12.0618 0 10.347C0 8.68871 0.403281 7.12496 1.11812 5.74805H1.11867L3.38398 6.16336L4.37633 8.41508C4.16863 9.02059 4.05543 9.67059 4.05543 10.347C4.05551 11.081 4.18848 11.7843 4.43242 12.4332Z" fill="#FBBB00"/>
<path d="M19.8253 8.479C19.9401 9.08393 20 9.70865 20 10.3471C20 11.0631 19.9247 11.7614 19.7813 12.4351C19.2945 14.7274 18.0225 16.729 16.2605 18.1455L16.2599 18.1449L13.4066 17.9994L13.0028 15.4785C14.172 14.7928 15.0858 13.7197 15.5671 12.4351H10.2198V8.479H15.6451H19.8253Z" fill="#518EF8"/>
<path d="M16.2595 18.1451L16.2601 18.1457C14.5464 19.5231 12.3694 20.3473 9.99965 20.3473C6.19141 20.3473 2.88043 18.2188 1.19141 15.0863L4.43207 12.4336C5.27656 14.6874 7.45074 16.2918 9.99965 16.2918C11.0952 16.2918 12.1216 15.9957 13.0024 15.4786L16.2595 18.1451Z" fill="#28B446"/>
<path d="M16.3829 2.64936L13.1434 5.30154C12.2319 4.73178 11.1544 4.40264 9.99998 4.40264C7.39338 4.40264 5.17853 6.08064 4.37635 8.41529L1.11865 5.74826H1.1181C2.7824 2.53947 6.13513 0.347168 9.99998 0.347168C12.4263 0.347168 14.6511 1.21146 16.3829 2.64936Z" fill="#F14336"/>
</g>
<defs>
<clipPath id="clip0_120_113">
<rect width="20" height="20" fill="white" transform="translate(0 0.347168)"/>
</clipPath>
</defs>
</svg>
