<svg width="21" height="21" viewBox="0 0 21 21" fill="none" xmlns="http://www.w3.org/2000/svg">
<g clip-path="url(#clip0_162_172)">
<path d="M19.7808 15.1433L16.9898 12.3523C15.993 11.3554 14.2984 11.7542 13.8997 13.05C13.6006 13.9472 12.6038 14.4456 11.7067 14.2462C9.71309 13.7478 7.02171 11.1561 6.52331 9.06279C6.22427 8.16563 6.82235 7.16882 7.71948 6.86982C9.01533 6.47109 9.41405 4.77652 8.41724 3.77972L5.62619 0.988656C4.82874 0.290891 3.63257 0.290891 2.93481 0.988656L1.04087 2.88259C-0.85306 4.8762 1.24023 10.1593 5.92523 14.8443C10.6102 19.5293 15.8933 21.7223 17.8869 19.7286L19.7808 17.8347C20.4786 17.0372 20.4786 15.8411 19.7808 15.1433Z" fill="#CD5F37"/>
</g>
<defs>
<clipPath id="clip0_162_172">
<rect width="20" height="20" fill="white" transform="translate(0.325195 0.465332)"/>
</clipPath>
</defs>
</svg>
