<svg width="34" height="35" viewBox="0 0 34 35" fill="none" xmlns="http://www.w3.org/2000/svg">
<path d="M10.9286 32.3307C16.2937 32.3307 20.6429 27.9814 20.6429 22.6164C20.6429 17.2513 16.2937 12.9021 10.9286 12.9021C5.56359 12.9021 1.21436 17.2513 1.21436 22.6164C1.21436 27.9814 5.56359 32.3307 10.9286 32.3307Z" stroke="white" stroke-width="1.5" stroke-linecap="round" stroke-linejoin="round"/>
<path d="M23.0717 32.3307C28.4368 32.3307 32.786 27.9814 32.786 22.6164C32.786 17.2513 28.4368 12.9021 23.0717 12.9021C17.7067 12.9021 13.3574 17.2513 13.3574 22.6164C13.3574 27.9814 17.7067 32.3307 23.0717 32.3307Z" stroke="white" stroke-width="1.5" stroke-linecap="round" stroke-linejoin="round"/>
<path d="M16.9999 22.6164C22.365 22.6164 26.7142 18.2672 26.7142 12.9022C26.7142 7.5371 22.365 3.18787 16.9999 3.18787C11.6349 3.18787 7.28564 7.5371 7.28564 12.9022C7.28564 18.2672 11.6349 22.6164 16.9999 22.6164Z" stroke="white" stroke-width="1.5" stroke-linecap="round" stroke-linejoin="round"/>
</svg>
