<svg width="41" height="41" viewBox="0 0 41 41" fill="none" xmlns="http://www.w3.org/2000/svg">
<g clip-path="url(#clip0_403_743)">
<path d="M10.7253 28.9744L8.48532 29.473C7.29792 29.7307 6.23508 30.3884 5.47474 31.3361C4.7144 32.2839 4.30273 33.464 4.30866 34.679V35.7577C4.30968 36.4885 4.55023 37.1987 4.99346 37.7797C5.43669 38.3607 6.05815 38.7803 6.76266 38.9744C8.92599 39.5644 13.032 40.269 20.3087 40.269C27.5853 40.269 31.6913 39.5644 33.8547 38.9744C34.5592 38.7803 35.1806 38.3607 35.6239 37.7797C36.0671 37.1987 36.3076 36.4885 36.3087 35.7577V34.679C36.3146 33.464 35.9029 32.2839 35.1426 31.3361C34.3822 30.3884 33.3194 29.7307 32.132 29.473L29.892 28.9744L26.836 27.1417L25.6073 24.275L26.0073 23.8144L26.308 23.895C26.6226 23.9783 26.9466 24.0206 27.272 24.021C28.255 24.0189 29.1971 23.6269 29.8914 22.931C30.5857 22.235 30.9755 21.2921 30.9753 20.309V19.509C31.5463 19.3616 32.0523 19.0291 32.4142 18.5635C32.7761 18.0979 32.9734 17.5254 32.9753 16.9357V14.269C32.9731 13.6796 32.7757 13.1074 32.4138 12.6421C32.0519 12.1767 31.5461 11.8444 30.9753 11.697V10.9357C30.9753 8.10673 29.8515 5.39363 27.8511 3.39324C25.8507 1.39285 23.1376 0.269043 20.3087 0.269043C17.4797 0.269043 14.7666 1.39285 12.7662 3.39324C10.7658 5.39363 9.64199 8.10673 9.64199 10.9357V11.697C9.07123 11.8444 8.56538 12.1767 8.20352 12.6421C7.84167 13.1074 7.6442 13.6796 7.64199 14.269V16.9357C7.64199 17.643 7.92294 18.3212 8.42304 18.8213C8.92314 19.3214 9.60141 19.6024 10.3087 19.6024H11.642C11.8696 19.6002 12.0952 19.5587 12.3087 19.4797V19.7097C12.3083 20.6615 12.6537 21.581 13.2807 22.297L15.014 24.2737L13.7847 27.1404L10.7253 28.9744ZM14.1193 28.4937C15.3252 30.0826 16.9763 31.277 18.8627 31.925C18.2198 32.5546 17.6857 33.2863 17.282 34.0904C15.1833 33.1107 13.3534 31.6371 11.9487 29.7957L14.1193 28.4937ZM34.9753 34.679V35.7577C34.9756 36.1967 34.8317 36.6236 34.5658 36.9729C34.2998 37.3222 33.9266 37.5745 33.5033 37.691C31.4187 38.257 27.4373 38.9357 20.3087 38.9357C13.18 38.9357 9.19866 38.257 7.11399 37.6877C6.6913 37.5713 6.31843 37.3195 6.05255 36.9709C5.78667 36.6223 5.64245 36.1961 5.64199 35.7577V34.679C5.63742 33.7677 5.94624 32.8824 6.5167 32.1717C7.08715 31.4609 7.88457 30.9678 8.77532 30.775L10.6913 30.349C11.4427 31.3577 13.7207 34.1264 16.946 35.3917C17.2219 35.4978 17.5279 35.4953 17.802 35.3847C18.0762 35.274 18.2982 35.0636 18.4233 34.7957C18.8607 33.8704 19.5059 33.0586 20.3087 32.4237C21.1117 33.0584 21.7573 33.8699 22.1953 34.795C22.2898 34.9963 22.4396 35.1665 22.6271 35.2859C22.8147 35.4052 23.0323 35.4687 23.2547 35.469C23.398 35.4692 23.54 35.4423 23.6733 35.3897C26.898 34.123 29.176 31.3557 29.9273 30.347L31.8433 30.773C32.7342 30.9662 33.5315 31.4597 34.1018 32.1708C34.672 32.882 34.9804 33.7675 34.9753 34.679ZM23.3353 34.0904C22.932 33.2861 22.3978 32.5543 21.7547 31.925C23.6411 31.277 25.2922 30.0826 26.498 28.4937L28.6687 29.7957C27.2638 31.637 25.4339 33.1106 23.3353 34.0904ZM28.7153 22.1924C28.2317 22.5606 27.6246 22.7278 27.0207 22.659L27.3367 22.2977C27.9636 21.5813 28.309 20.6617 28.3087 19.7097V19.4797C28.5222 19.5587 28.7477 19.6002 28.9753 19.6024H29.642V20.309C29.6433 20.6732 29.5603 21.0327 29.3996 21.3594C29.2388 21.6861 29.0046 21.9712 28.7153 22.1924ZM26.9753 11.5924C20.8507 11.4084 19.6027 8.70771 19.5947 8.68838C19.5452 8.56456 19.4597 8.45843 19.3493 8.38367C19.2389 8.30892 19.1087 8.26899 18.9753 8.26904C17.0357 8.2721 15.1697 9.0123 13.7553 10.3397C14.352 7.03104 17.2073 4.26904 20.3087 4.26904C22.0762 4.27098 23.7707 4.97399 25.0206 6.22381C26.2704 7.47363 26.9734 9.1682 26.9753 10.9357V11.5924ZM31.642 14.269V16.9357C31.642 17.2893 31.5015 17.6285 31.2515 17.8785C31.0014 18.1286 30.6623 18.269 30.3087 18.269H28.9753C28.7985 18.269 28.6289 18.1988 28.5039 18.0738C28.3789 17.9488 28.3087 17.7792 28.3087 17.6024V13.6024C28.3087 13.4256 28.3789 13.256 28.5039 13.131C28.6289 13.0059 28.7985 12.9357 28.9753 12.9357H30.3087C30.6623 12.9357 31.0014 13.0762 31.2515 13.3262C31.5015 13.5763 31.642 13.9154 31.642 14.269ZM20.3087 1.60238C22.7832 1.60502 25.1556 2.5892 26.9054 4.33897C28.6552 6.08874 29.6393 8.46117 29.642 10.9357V11.6024H28.9753C28.7477 11.6046 28.5222 11.6461 28.3087 11.725V10.9357C28.3064 8.81468 27.4628 6.78118 25.963 5.28139C24.4632 3.7816 22.4297 2.938 20.3087 2.93571C16.0467 2.93571 12.3087 6.98571 12.3087 11.6024V11.725C12.0952 11.6461 11.8696 11.6046 11.642 11.6024H10.9753V10.9357C10.978 8.46117 11.9622 6.08874 13.7119 4.33897C15.4617 2.5892 17.8341 1.60502 20.3087 1.60238ZM11.642 18.269H10.3087C9.95504 18.269 9.6159 18.1286 9.36585 17.8785C9.1158 17.6285 8.97532 17.2893 8.97532 16.9357V14.269C8.97532 13.9154 9.1158 13.5763 9.36585 13.3262C9.6159 13.0762 9.95504 12.9357 10.3087 12.9357H11.642C11.8188 12.9357 11.9884 13.0059 12.1134 13.131C12.2384 13.256 12.3087 13.4256 12.3087 13.6024V17.6024C12.3087 17.7792 12.2384 17.9488 12.1134 18.0738C11.9884 18.1988 11.8188 18.269 11.642 18.269ZM13.642 19.7097V12.469C14.204 11.6557 14.9399 10.9777 15.7964 10.4841C16.6529 9.99043 17.6085 9.69359 18.594 9.61504C19.2233 10.5677 21.2953 12.7584 26.9753 12.921V19.7097C26.9754 20.3388 26.747 20.9464 26.3327 21.4197L25.5527 22.311L23.686 21.8124L23.706 21.7297C23.7468 21.5593 23.7536 21.3826 23.726 21.2096C23.6985 21.0366 23.6371 20.8707 23.5454 20.7214C23.4537 20.5722 23.3335 20.4424 23.1916 20.3396C23.0498 20.2369 22.8891 20.163 22.7187 20.1224L20.774 19.6557C20.2579 19.5321 19.7138 19.6186 19.2615 19.8962C18.8091 20.1737 18.4856 20.6196 18.362 21.1357C18.2384 21.6518 18.3249 22.1959 18.6025 22.6482C18.88 23.1006 19.3259 23.4241 19.842 23.5477L21.7867 24.0144C21.8893 24.039 21.9945 24.0515 22.1 24.0517C22.3845 24.0519 22.6614 23.9602 22.8896 23.7904C23.1178 23.6205 23.2851 23.3816 23.3667 23.109L24.5727 23.4317L23.5753 24.569C23.2915 24.8936 22.9416 25.1537 22.5491 25.3319C22.1565 25.5101 21.7304 25.6023 21.2993 25.6024H19.318C18.8869 25.6021 18.4609 25.5098 18.0684 25.3316C17.6759 25.1534 17.3259 24.8934 17.042 24.569L14.286 21.419C13.8711 20.9462 13.6423 20.3387 13.642 19.7097ZM22.4087 21.4197L22.0993 22.7157L20.154 22.249C20.0678 22.2297 19.9864 22.1934 19.9143 22.1423C19.8423 22.0912 19.7812 22.0263 19.7344 21.9513C19.6877 21.8764 19.6563 21.7929 19.6421 21.7058C19.6279 21.6186 19.6312 21.5295 19.6517 21.4436C19.6723 21.3577 19.7097 21.2767 19.7617 21.2054C19.8138 21.1341 19.8796 21.0738 19.9551 21.0281C20.0307 20.9824 20.1146 20.9522 20.202 20.9392C20.2893 20.9262 20.3784 20.9307 20.464 20.9524L22.4087 21.4197ZM16.0367 25.447C16.4458 25.9148 16.9503 26.2897 17.5162 26.5464C18.0822 26.8032 18.6965 26.9359 19.318 26.9357H21.2993C21.9208 26.9359 22.5351 26.8031 23.1011 26.5464C23.667 26.2896 24.1715 25.9148 24.5807 25.447L24.634 25.3864L25.552 27.5297C24.2872 29.2742 22.4178 30.4849 20.3087 30.9257C18.1995 30.4849 16.3302 29.2742 15.0653 27.5297L15.984 25.3864L16.0367 25.447Z" fill="#CD5F37"/>
</g>
<defs>
<clipPath id="clip0_403_743">
<rect width="40" height="40" fill="white" transform="translate(0.308594 0.269043)"/>
</clipPath>
</defs>
</svg>
