<svg width="40" height="41" viewBox="0 0 40 41" fill="none" xmlns="http://www.w3.org/2000/svg">
<g clip-path="url(#clip0_403_696)">
<path d="M20.1124 33.9566C19.5773 33.9383 19.1406 34.3638 19.1406 34.8936V36.8446C19.7619 36.8802 20.3948 36.8802 21.0156 36.8446V34.9307C21.0156 34.4111 20.6104 33.974 20.1124 33.9566Z" fill="#CD5F37"/>
<path d="M32.3683 25.4146C28.118 25.4146 24.6602 28.8725 24.6602 33.1229C24.6602 37.3733 28.118 40.8312 32.3683 40.8312C36.6185 40.8312 40.0764 37.3732 40.0764 33.1229C40.0764 28.8724 36.6185 25.4146 32.3683 25.4146ZM31.2318 36.8728H27.2549C27.0021 36.8728 26.7742 36.7206 26.6775 36.487C26.5807 36.2535 26.6342 35.9847 26.813 35.8058L29.7014 32.9173C30.0837 32.535 30.1095 31.9123 29.7601 31.4996C29.3148 30.9735 28.4916 31.0131 28.0991 31.5807L27.769 32.058C27.5727 32.3418 27.1835 32.4131 26.8995 32.2166C26.6156 32.0202 26.5446 31.6309 26.7409 31.347L27.0711 30.8695C27.9313 29.6258 29.7364 29.5371 30.7142 30.6918C31.4805 31.5969 31.4238 32.9626 30.5854 33.8012L28.7637 35.6228H31.2318C31.577 35.6228 31.8569 35.9026 31.8569 36.2478C31.8569 36.5931 31.577 36.8728 31.2318 36.8728ZM38.1067 34.3728C38.1067 34.718 37.8269 34.9978 37.4817 34.9978H36.8567V36.2479C36.8567 36.5931 36.5769 36.8729 36.2316 36.8729C35.8864 36.8729 35.6066 36.5931 35.6066 36.2479V34.9978H32.487C32.243 34.9978 32.0214 34.8558 31.9194 34.6342C31.8173 34.4126 31.8536 34.1518 32.0122 33.9664L35.7568 29.5914C35.927 29.3927 36.2029 29.321 36.4483 29.4116C36.6938 29.5022 36.8567 29.7362 36.8567 29.9978V33.7479H37.4817C37.8269 33.7479 38.1067 34.0277 38.1067 34.3728Z" fill="#CD5F37"/>
<path d="M9.47067 30.112L8.07031 31.5123C8.4856 31.9796 8.92817 32.4224 9.39601 32.8382L10.7963 31.4378C11.1629 31.071 11.1631 30.4788 10.7964 30.112C10.4297 29.7453 9.83741 29.7451 9.47067 30.112Z" fill="#CD5F37"/>
<path d="M26.9534 21.4561C27.3015 21.4561 27.5784 21.1715 27.5784 20.8311C27.5784 20.4864 27.2981 20.2061 26.9534 20.2061H23.1406C23.2244 20.6172 23.2245 21.044 23.1406 21.4561H26.9534Z" fill="#CD5F37"/>
<path d="M35.6097 33.7477V31.689L33.8477 33.7477H35.6097Z" fill="#CD5F37"/>
<path d="M20.0781 18.9561C19.0442 18.9561 18.2031 19.7972 18.2031 20.831C18.2031 21.8649 19.0443 22.706 20.0781 22.706C21.1119 22.706 21.953 21.8648 21.953 20.831C21.953 19.7972 21.1119 18.9561 20.0781 18.9561Z" fill="#CD5F37"/>
<path d="M6.01425 19.894H4.06323C4.04527 20.2044 4.03516 20.5168 4.03516 20.8315C4.03516 21.1463 4.04512 21.4587 4.06276 21.769H6.01433C6.53125 21.769 6.95179 21.3485 6.95179 20.8315C6.95171 20.3146 6.53118 19.894 6.01425 19.894Z" fill="#CD5F37"/>
<path d="M19.4531 12.0811V17.769C19.8643 17.6852 20.2911 17.685 20.7031 17.769V12.0811C20.7031 11.7329 20.4185 11.4561 20.0781 11.4561C19.7335 11.4561 19.4531 11.7364 19.4531 12.0811Z" fill="#CD5F37"/>
<path d="M10.7976 10.2243L9.42343 8.8501C8.9563 9.26602 8.51357 9.70876 8.09766 10.176L9.47174 11.55C9.8384 11.9167 10.4307 11.9168 10.7975 11.5501C11.1643 11.1834 11.1644 10.591 10.7976 10.2243Z" fill="#CD5F37"/>
<path d="M36.0917 21.769C36.1276 21.1475 36.1276 20.5162 36.0917 19.894H34.1778C33.6581 19.894 33.2211 20.2992 33.2037 20.7973C33.1851 21.3326 33.6114 21.769 34.1406 21.769H36.0917Z" fill="#CD5F37"/>
<path d="M30.6827 11.5503L32.0831 10.1499C31.6674 9.6821 31.2246 9.23951 30.7573 8.82422L29.3571 10.2245C28.9904 10.5911 28.9903 11.1834 29.357 11.5503C29.7237 11.917 30.316 11.9172 30.6827 11.5503Z" fill="#CD5F37"/>
<path d="M20.0777 0.831055C14.7492 0.831055 9.73052 2.91513 5.9463 6.69937C2.16215 10.4837 0.078125 15.5024 0.078125 20.8311C0.0782034 31.8591 9.04991 40.8311 20.0777 40.8311H20.0934C20.6015 40.8307 21.0151 40.4118 21.0151 39.8974V38.0969C11.1365 38.6409 2.78637 30.7612 2.78637 20.8311C2.78637 11.3115 10.5321 3.53937 20.0777 3.53937C29.9722 3.53937 37.8826 11.8467 37.3427 21.7685H39.1435C39.658 21.7685 40.0767 21.3549 40.0771 20.8463V20.8311C40.0772 9.80306 31.1055 0.831133 20.0777 0.831055Z" fill="#CD5F37"/>
<path d="M21.0156 6.76871V4.8171C20.3619 4.78008 19.782 4.78047 19.1406 4.81765V6.76871C19.1406 7.28565 19.5612 7.7062 20.0781 7.7062C20.595 7.7062 21.0156 7.28565 21.0156 6.76871Z" fill="#CD5F37"/>
</g>
<defs>
<clipPath id="clip0_403_696">
<rect width="40" height="40" fill="white" transform="translate(0 0.75293)"/>
</clipPath>
</defs>
</svg>
