<svg width="25" height="25" viewBox="0 0 25 25" fill="none" xmlns="http://www.w3.org/2000/svg">
<path d="M19.1694 2.32988C17.9591 1.36461 16.5439 0.672997 15.0259 0.304936C13.5079 -0.063125 11.925 -0.098465 10.3913 0.201465C8.41927 0.595261 6.60504 1.53289 5.1647 2.90266C3.72436 4.27243 2.71862 6.0166 2.2673 7.9274C1.81598 9.83821 1.9381 11.8351 2.6191 13.6802C3.3001 15.5253 4.51129 17.1409 6.10839 18.3344C7.93184 19.6344 9.48437 21.2607 10.683 23.1265L11.4996 24.4492C11.6034 24.6172 11.7499 24.7563 11.9252 24.8528C12.1004 24.9493 12.2982 25 12.4995 25C12.7008 25 12.8986 24.9493 13.0738 24.8528C13.249 24.7563 13.3956 24.6172 13.4993 24.4492L14.2822 23.1788C15.3259 21.3917 16.7491 19.8421 18.4566 18.6333C19.7955 17.7361 20.902 16.548 21.6888 15.163C22.4756 13.7779 22.9212 12.2337 22.9905 10.6522C23.0597 9.07073 22.7507 7.49519 22.0878 6.04992C21.4249 4.60465 20.4262 3.3292 19.1706 2.32419L19.1694 2.32988ZM12.4983 14.7742C11.5753 14.7742 10.6731 14.5076 9.90562 14.0082C9.13818 13.5087 8.54003 12.7988 8.18682 11.9682C7.8336 11.1376 7.74118 10.2237 7.92125 9.34198C8.10132 8.46024 8.54578 7.65032 9.19844 7.01462C9.85109 6.37893 10.6826 5.94602 11.5879 5.77063C12.4931 5.59524 13.4315 5.68526 14.2842 6.02929C15.1369 6.37333 15.8658 6.95593 16.3786 7.70343C16.8914 8.45092 17.1651 9.32974 17.1651 10.2288C17.1651 11.4343 16.6734 12.5904 15.7982 13.4429C14.923 14.2953 13.736 14.7742 12.4983 14.7742Z" fill="white"/>
</svg>
