<svg width="30" height="30" viewBox="0 0 30 30" fill="none" xmlns="http://www.w3.org/2000/svg">
<path d="M27.4798 19.7979L23.8226 17.6155C22.9694 17.1059 21.9532 16.9434 20.9838 17.1616C20.0144 17.3799 19.1659 17.9623 18.6134 18.7885L17.5585 20.3629C14.5463 18.8825 12.1114 16.4425 10.637 13.4266L12.2026 12.3838C13.0296 11.8341 13.6142 10.9877 13.8357 10.0195C14.0573 9.05109 13.8989 8.03467 13.3931 7.1798L11.2336 3.52396C10.9006 2.96647 10.4023 2.52645 9.80796 2.26493C9.21366 2.0034 8.55274 1.93332 7.91683 2.0644C6.92529 2.26427 5.98525 2.6654 5.15477 3.24298C4.32429 3.82056 3.62101 4.56234 3.08837 5.4225C2.56301 6.26146 2.21786 7.20058 2.07487 8.18016C1.93188 9.15975 1.99417 10.1584 2.25779 11.1126C3.42747 15.3243 5.66696 19.1615 8.75838 22.2508C11.8499 25.3402 15.6879 27.5765 19.8993 28.7423C20.8524 29.0059 21.8498 29.0681 22.8281 28.9251C23.8064 28.7821 24.7443 28.4368 25.582 27.9114C26.442 27.379 27.1838 26.6758 27.7614 25.8452C28.3391 25.0147 28.7403 24.0745 28.9403 23.0826C29.0656 22.4513 28.9926 21.7967 28.7311 21.2085C28.4696 20.6204 28.0325 20.1276 27.4798 19.7979ZM26.904 22.6783C26.7598 23.3897 26.4715 24.0641 26.0564 24.6595C25.6413 25.2551 25.1086 25.759 24.4911 26.1402C23.8951 26.5142 23.2278 26.7601 22.5316 26.8619C21.8354 26.9637 21.1257 26.9193 20.4475 26.7316C16.5852 25.6619 13.0652 23.6105 10.23 20.7769C7.39477 17.9434 5.34079 14.4242 4.2678 10.5614C4.07928 9.88264 4.03435 9.17188 4.13589 8.47469C4.23743 7.7775 4.48321 7.10915 4.85751 6.51233C5.24201 5.89101 5.7503 5.35556 6.3507 4.93935C6.95112 4.52314 7.63078 4.23507 8.34735 4.09311C8.41477 4.07935 8.48341 4.07239 8.55223 4.07234C8.73281 4.07248 8.91024 4.11967 9.06705 4.20928C9.22389 4.29888 9.35468 4.4278 9.44649 4.58332L11.6115 8.23777C11.8463 8.63483 11.9197 9.10688 11.8168 9.5565C11.7138 10.0062 11.442 10.3991 11.0578 10.6542L8.75987 12.1844C8.55921 12.3179 8.41123 12.5171 8.34126 12.7477C8.2713 12.9784 8.28373 13.2262 8.37642 13.4487C10.1131 17.5875 13.3991 20.8826 17.5322 22.6299C17.7542 22.7219 18.0013 22.7343 18.2314 22.6649C18.4615 22.5955 18.6605 22.4485 18.7946 22.249L20.3382 19.9447C20.5946 19.5603 20.9891 19.2892 21.4397 19.1876C21.8904 19.086 22.3629 19.1618 22.7593 19.3991L26.4181 21.5815C26.6022 21.692 26.7478 21.8566 26.8348 22.0529C26.9217 22.2492 26.9459 22.4677 26.904 22.6783ZM18.9234 12.0764C18.827 11.9801 18.7505 11.8657 18.6983 11.7397C18.6461 11.6138 18.6192 11.4788 18.6192 11.3424C18.6192 11.2062 18.6461 11.0711 18.6983 10.9452C18.7505 10.8193 18.827 10.7049 18.9234 10.6085L24.0716 5.45712H21.9647C21.6894 5.45712 21.4254 5.3477 21.2306 5.15292C21.0359 4.95816 20.9265 4.69398 20.9265 4.41853C20.9265 4.14308 21.0359 3.87891 21.2306 3.68414C21.4254 3.48936 21.6894 3.37994 21.9647 3.37994H26.5787C26.8536 3.38104 27.1171 3.49082 27.3116 3.68535C27.506 3.87989 27.6158 4.14343 27.6169 4.41853V9.03402C27.6169 9.30947 27.5075 9.57367 27.3128 9.76842C27.1181 9.96318 26.854 10.0726 26.5787 10.0726C26.3033 10.0726 26.0392 9.96318 25.8445 9.76842C25.6498 9.57367 25.5404 9.30947 25.5404 9.03402V6.92638L20.3908 12.0764C20.2946 12.1731 20.1803 12.2497 20.0544 12.302C19.9285 12.3543 19.7935 12.3812 19.6571 12.3812C19.5208 12.3812 19.3858 12.3543 19.2599 12.302C19.134 12.2497 19.0197 12.1731 18.9234 12.0764Z" fill="white"/>
</svg>
