<svg width="34" height="35" viewBox="0 0 34 35" fill="none" xmlns="http://www.w3.org/2000/svg">
<g clip-path="url(#clip0_419_103)">
<path d="M7.89244 15.0402C11.5809 15.0402 14.571 12.0501 14.571 8.36168C14.571 4.6732 11.5809 1.68311 7.89244 1.68311C4.20397 1.68311 1.21387 4.6732 1.21387 8.36168C1.21387 12.0501 4.20397 15.0402 7.89244 15.0402Z" stroke="white" stroke-width="1.5" stroke-linecap="round" stroke-linejoin="round"/>
<path d="M26.1063 15.0402C29.7948 15.0402 32.7849 12.0501 32.7849 8.36168C32.7849 4.6732 29.7948 1.68311 26.1063 1.68311C22.4178 1.68311 19.4277 4.6732 19.4277 8.36168C19.4277 12.0501 22.4178 15.0402 26.1063 15.0402Z" stroke="white" stroke-width="1.5" stroke-linecap="round" stroke-linejoin="round"/>
<path d="M7.89244 33.2545C11.5809 33.2545 14.571 30.2644 14.571 26.5759C14.571 22.8874 11.5809 19.8973 7.89244 19.8973C4.20397 19.8973 1.21387 22.8874 1.21387 26.5759C1.21387 30.2644 4.20397 33.2545 7.89244 33.2545Z" stroke="white" stroke-width="1.5" stroke-linecap="round" stroke-linejoin="round"/>
<path d="M26.1063 33.2546C29.7948 33.2546 32.7849 30.2645 32.7849 26.576C32.7849 22.8876 29.7948 19.8975 26.1063 19.8975C22.4178 19.8975 19.4277 22.8876 19.4277 26.576C19.4277 30.2645 22.4178 33.2546 26.1063 33.2546Z" stroke="white" stroke-width="1.5" stroke-linecap="round" stroke-linejoin="round"/>
</g>
<defs>
<clipPath id="clip0_419_103">
<rect width="34" height="34" fill="white" transform="translate(0 0.46875)"/>
</clipPath>
</defs>
</svg>
