<svg width="34" height="35" viewBox="0 0 34 35" fill="none" xmlns="http://www.w3.org/2000/svg">
<g clip-path="url(#clip0_174_67)">
<path d="M18.1416 17.5134C17.7814 17.6699 17.3928 17.7506 17.0001 17.7506C16.6074 17.7506 16.2189 17.6699 15.8587 17.5134L2.01585 11.102C1.79106 10.9886 1.60216 10.8151 1.47018 10.6007C1.33819 10.3863 1.26831 10.1395 1.26831 9.88773C1.26831 9.63597 1.33819 9.38915 1.47018 9.17476C1.60216 8.96037 1.79106 8.78682 2.01585 8.67345L15.8587 2.21345C16.2189 2.05703 16.6074 1.97632 17.0001 1.97632C17.3928 1.97632 17.7814 2.05703 18.1416 2.21345L31.9844 8.62488C32.2092 8.73825 32.3981 8.9118 32.5301 9.12619C32.6621 9.34058 32.732 9.5874 32.732 9.83916C32.732 10.0909 32.6621 10.3377 32.5301 10.5521C32.3981 10.7665 32.2092 10.9401 31.9844 11.0534L18.1416 17.5134Z" stroke="white" stroke-width="1.5" stroke-linecap="round" stroke-linejoin="round"/>
<path d="M32.7858 18.6062L17.9715 25.4305C17.6551 25.5748 17.3114 25.6495 16.9636 25.6495C16.6159 25.6495 16.2722 25.5748 15.9558 25.4305L1.21436 18.6062" stroke="white" stroke-width="1.5" stroke-linecap="round" stroke-linejoin="round"/>
<path d="M32.7858 26.4993L17.9715 33.3236C17.6551 33.4679 17.3114 33.5426 16.9636 33.5426C16.6159 33.5426 16.2722 33.4679 15.9558 33.3236L1.21436 26.4993" stroke="white" stroke-width="1.5" stroke-linecap="round" stroke-linejoin="round"/>
</g>
<defs>
<clipPath id="clip0_174_67">
<rect width="34" height="34" fill="white" transform="translate(0 0.759277)"/>
</clipPath>
</defs>
</svg>
