<svg width="34" height="35" viewBox="0 0 34 35" fill="none" xmlns="http://www.w3.org/2000/svg">
<path d="M10.9282 31.9521C16.2932 31.9521 20.6424 27.6029 20.6424 22.2378C20.6424 16.8728 16.2932 12.5236 10.9282 12.5236C5.5631 12.5236 1.21387 16.8728 1.21387 22.2378C1.21387 27.6029 5.5631 31.9521 10.9282 31.9521Z" stroke="white" stroke-width="1.5" stroke-linecap="round" stroke-linejoin="round"/>
<path d="M23.0707 31.9523C28.4358 31.9523 32.785 27.603 32.785 22.238C32.785 16.8729 28.4358 12.5237 23.0707 12.5237C17.7057 12.5237 13.3564 16.8729 13.3564 22.238C13.3564 27.603 17.7057 31.9523 23.0707 31.9523Z" stroke="white" stroke-width="1.5" stroke-linecap="round" stroke-linejoin="round"/>
<path d="M16.9996 22.2379C22.3646 22.2379 26.7139 17.8887 26.7139 12.5236C26.7139 7.15856 22.3646 2.80933 16.9996 2.80933C11.6345 2.80933 7.28528 7.15856 7.28528 12.5236C7.28528 17.8887 11.6345 22.2379 16.9996 22.2379Z" stroke="white" stroke-width="1.5" stroke-linecap="round" stroke-linejoin="round"/>
</svg>
