<svg width="34" height="35" viewBox="0 0 34 35" fill="none" xmlns="http://www.w3.org/2000/svg">
<g clip-path="url(#clip0_419_118)">
<path d="M3.64244 14.8644H6.07101C6.39306 14.8644 6.70192 14.9923 6.92964 15.22C7.15736 15.4478 7.2853 15.7566 7.2853 16.0787V22.1501C7.2853 22.4721 7.15736 22.781 6.92964 23.0087C6.70192 23.2364 6.39306 23.3644 6.07101 23.3644H3.64244C2.99834 23.3644 2.38062 23.1085 1.92518 22.6531C1.46973 22.1976 1.21387 21.5799 1.21387 20.9358V17.293C1.21387 16.6489 1.46973 16.0311 1.92518 15.5757C2.38062 15.1202 2.99834 14.8644 3.64244 14.8644V14.8644Z" stroke="white" stroke-width="1.5" stroke-linecap="round" stroke-linejoin="round"/>
<path d="M30.3567 23.3644H27.9281C27.6061 23.3644 27.2972 23.2364 27.0695 23.0087C26.8418 22.781 26.7138 22.4721 26.7138 22.1501V16.0787C26.7138 15.7566 26.8418 15.4478 27.0695 15.22C27.2972 14.9923 27.6061 14.8644 27.9281 14.8644H30.3567C31.0008 14.8644 31.6185 15.1202 32.074 15.5757C32.5294 16.0311 32.7853 16.6489 32.7853 17.293V20.9358C32.7853 21.5799 32.5294 22.1976 32.074 22.6531C31.6185 23.1085 31.0008 23.3644 30.3567 23.3644V23.3644Z" stroke="white" stroke-width="1.5" stroke-linecap="round" stroke-linejoin="round"/>
<path d="M23.0713 30.043C24.3595 30.043 25.5949 29.5312 26.5058 28.6203C27.4167 27.7094 27.9284 26.474 27.9284 25.1858V23.3644" stroke="white" stroke-width="1.5" stroke-linecap="round" stroke-linejoin="round"/>
<path d="M20.035 27.0073C20.8401 27.0073 21.6123 27.3272 22.1816 27.8965C22.7509 28.4658 23.0707 29.2379 23.0707 30.043C23.0707 30.8482 22.7509 31.6203 22.1816 32.1896C21.6123 32.7589 20.8401 33.0788 20.035 33.0788H16.3922C15.587 33.0788 14.8149 32.7589 14.2456 32.1896C13.6763 31.6203 13.3564 30.8482 13.3564 30.043C13.3564 29.2379 13.6763 28.4658 14.2456 27.8965C14.8149 27.3272 15.587 27.0073 16.3922 27.0073H20.035Z" stroke="white" stroke-width="1.5" stroke-linecap="round" stroke-linejoin="round"/>
<path d="M6.07129 14.8643V12.4358C6.07129 9.53734 7.22269 6.75761 9.27219 4.70811C11.3217 2.6586 14.1014 1.5072 16.9999 1.5072C19.8983 1.5072 22.678 2.6586 24.7275 4.70811C26.777 6.75761 27.9284 9.53734 27.9284 12.4358V14.8643" stroke="white" stroke-width="1.5" stroke-linecap="round" stroke-linejoin="round"/>
<path d="M13.3564 10.0072V13.6501" stroke="white" stroke-width="1.5" stroke-linecap="round" stroke-linejoin="round"/>
<path d="M20.6425 10.0072V13.6501" stroke="white" stroke-width="1.5" stroke-linecap="round" stroke-linejoin="round"/>
<path d="M13.3564 18.5072C13.3564 21.7372 20.6422 21.7372 20.6422 18.5072" stroke="white" stroke-width="1.5" stroke-linecap="round" stroke-linejoin="round"/>
</g>
<defs>
<clipPath id="clip0_419_118">
<rect width="34" height="34" fill="white" transform="translate(0 0.292969)"/>
</clipPath>
</defs>
</svg>
