<svg width="22" height="22" viewBox="0 0 22 22" fill="none" xmlns="http://www.w3.org/2000/svg">
<path d="M14.2316 14.024C14.6245 14.155 15.0493 13.9426 15.1803 13.5497C15.3112 13.1567 15.0989 12.732 14.7059 12.601L14.2316 14.024ZM11 12.1562H10.25C10.25 12.4791 10.4566 12.7657 10.7628 12.8678L11 12.1562ZM11.75 7.32145C11.75 6.90724 11.4142 6.57145 11 6.57145C10.5858 6.57145 10.25 6.90724 10.25 7.32145H11.75ZM14.7059 12.601L11.2372 11.4447L10.7628 12.8678L14.2316 14.024L14.7059 12.601ZM11.75 12.1562V7.32145H10.25V12.1562H11.75ZM19.5 11C19.5 15.6944 15.6944 19.5 11 19.5V21C16.5228 21 21 16.5228 21 11H19.5ZM11 19.5C6.30558 19.5 2.5 15.6944 2.5 11H1C1 16.5228 5.47715 21 11 21V19.5ZM2.5 11C2.5 6.30558 6.30558 2.5 11 2.5V1C5.47715 1 1 5.47715 1 11H2.5ZM11 2.5C15.6944 2.5 19.5 6.30558 19.5 11H21C21 5.47715 16.5228 1 11 1V2.5Z" fill="white"/>
</svg>
