<svg width="51" height="51" viewBox="0 0 51 51" fill="none" xmlns="http://www.w3.org/2000/svg">
<g clip-path="url(#clip0_142_127)">
<path d="M11.6696 21.4529C17.0938 21.4529 21.491 17.0557 21.491 11.6315C21.491 6.20726 17.0938 1.81006 11.6696 1.81006C6.24535 1.81006 1.84814 6.20726 1.84814 11.6315C1.84814 17.0557 6.24535 21.4529 11.6696 21.4529Z" stroke="#CD5F37" stroke-width="2" stroke-linecap="round" stroke-linejoin="round"/>
<path d="M38.4553 21.4529C43.8796 21.4529 48.2768 17.0557 48.2768 11.6315C48.2768 6.20726 43.8796 1.81006 38.4553 1.81006C33.0311 1.81006 28.6339 6.20726 28.6339 11.6315C28.6339 17.0557 33.0311 21.4529 38.4553 21.4529Z" stroke="#CD5F37" stroke-width="2" stroke-linecap="round" stroke-linejoin="round"/>
<path d="M11.6696 48.2386C17.0938 48.2386 21.491 43.8414 21.491 38.4171C21.491 32.9929 17.0938 28.5957 11.6696 28.5957C6.24535 28.5957 1.84814 32.9929 1.84814 38.4171C1.84814 43.8414 6.24535 48.2386 11.6696 48.2386Z" stroke="#CD5F37" stroke-width="2" stroke-linecap="round" stroke-linejoin="round"/>
<path d="M38.4553 48.2386C43.8796 48.2386 48.2768 43.8414 48.2768 38.4171C48.2768 32.9929 43.8796 28.5957 38.4553 28.5957C33.0311 28.5957 28.6339 32.9929 28.6339 38.4171C28.6339 43.8414 33.0311 48.2386 38.4553 48.2386Z" stroke="#CD5F37" stroke-width="2" stroke-linecap="round" stroke-linejoin="round"/>
</g>
<defs>
<clipPath id="clip0_142_127">
<rect width="50" height="50" fill="white" transform="translate(0.0623779 0.0244141)"/>
</clipPath>
</defs>
</svg>
