<svg width="34" height="35" viewBox="0 0 34 35" fill="none" xmlns="http://www.w3.org/2000/svg">
<g clip-path="url(#clip0_419_96)">
<path d="M18.1409 17.3108C17.7807 17.4672 17.3922 17.5479 16.9995 17.5479C16.6068 17.5479 16.2183 17.4672 15.8581 17.3108L2.01524 10.8994C1.79045 10.786 1.60155 10.6125 1.46957 10.3981C1.33758 10.1837 1.2677 9.93686 1.2677 9.6851C1.2677 9.43334 1.33758 9.18652 1.46957 8.97213C1.60155 8.75774 1.79045 8.58419 2.01524 8.47081L15.8581 2.01081C16.2183 1.85439 16.6068 1.77368 16.9995 1.77368C17.3922 1.77368 17.7807 1.85439 18.1409 2.01081L31.9838 8.42224C32.2086 8.53562 32.3975 8.70916 32.5295 8.92356C32.6615 9.13795 32.7313 9.38477 32.7313 9.63652C32.7313 9.88828 32.6615 10.1351 32.5295 10.3495C32.3975 10.5639 32.2086 10.7374 31.9838 10.8508L18.1409 17.3108Z" stroke="white" stroke-width="1.5" stroke-linecap="round" stroke-linejoin="round"/>
<path d="M32.7853 18.4037L17.971 25.228C17.6546 25.3723 17.3109 25.447 16.9632 25.447C16.6154 25.447 16.2717 25.3723 15.9553 25.228L1.21387 18.4037" stroke="white" stroke-width="1.5" stroke-linecap="round" stroke-linejoin="round"/>
<path d="M32.7853 26.2965L17.971 33.1208C17.6546 33.2651 17.3109 33.3398 16.9632 33.3398C16.6154 33.3398 16.2717 33.2651 15.9553 33.1208L1.21387 26.2965" stroke="white" stroke-width="1.5" stroke-linecap="round" stroke-linejoin="round"/>
</g>
<defs>
<clipPath id="clip0_419_96">
<rect width="34" height="34" fill="white" transform="translate(0 0.556641)"/>
</clipPath>
</defs>
</svg>
