<svg width="34" height="35" viewBox="0 0 34 35" fill="none" xmlns="http://www.w3.org/2000/svg">
  <path d="M10.2 4.7h13.6c1.5 0 2.7 1.2 2.7 2.7v20.2c0 1.5-1.2 2.7-2.7 2.7H10.2c-1.5 0-2.7-1.2-2.7-2.7V7.4c0-1.5 1.2-2.7 2.7-2.7Z" stroke="black" stroke-width="2.4" stroke-linecap="round" stroke-linejoin="round"/>
  <path d="M13.2 11.4h7.6M13.2 17.1h7.6M13.2 22.8h5.2" stroke="black" stroke-width="2.4" stroke-linecap="round"/>
  <path d="M22.9 20.1c1.4 0 2.5.8 2.5 2s-1 1.8-2.5 2c-1.5.2-2.5.8-2.5 2s1.1 2 2.5 2m0-8v-1.6m0 11.2v-1.6" stroke="black" stroke-width="2.2" stroke-linecap="round"/>
  <path d="M11.8 3.5h10.4" stroke="black" stroke-width="2.4" stroke-linecap="round"/>
</svg>