<svg width="34" height="35" viewBox="0 0 34 35" fill="none" xmlns="http://www.w3.org/2000/svg">
<path d="M10.9286 32.1549C16.2937 32.1549 20.6429 27.8057 20.6429 22.4406C20.6429 17.0756 16.2937 12.7263 10.9286 12.7263C5.56359 12.7263 1.21436 17.0756 1.21436 22.4406C1.21436 27.8057 5.56359 32.1549 10.9286 32.1549Z" stroke="white" stroke-width="1.5" stroke-linecap="round" stroke-linejoin="round"/>
<path d="M23.0715 32.1549C28.4365 32.1549 32.7857 27.8057 32.7857 22.4406C32.7857 17.0756 28.4365 12.7263 23.0715 12.7263C17.7064 12.7263 13.3572 17.0756 13.3572 22.4406C13.3572 27.8057 17.7064 32.1549 23.0715 32.1549Z" stroke="white" stroke-width="1.5" stroke-linecap="round" stroke-linejoin="round"/>
<path d="M17.0002 22.4405C22.3652 22.4405 26.7145 18.0913 26.7145 12.7262C26.7145 7.3612 22.3652 3.01196 17.0002 3.01196C11.6351 3.01196 7.28589 7.3612 7.28589 12.7262C7.28589 18.0913 11.6351 22.4405 17.0002 22.4405Z" stroke="white" stroke-width="1.5" stroke-linecap="round" stroke-linejoin="round"/>
</svg>
