<svg width="51" height="51" viewBox="0 0 51 51" fill="none" xmlns="http://www.w3.org/2000/svg">
<g clip-path="url(#clip0_142_119)">
<path d="M25.6799 28.5959C30.611 28.5959 34.6085 24.5985 34.6085 19.6673C34.6085 14.7362 30.611 10.7388 25.6799 10.7388C20.7488 10.7388 16.7513 14.7362 16.7513 19.6673C16.7513 24.5985 20.7488 28.5959 25.6799 28.5959Z" stroke="#CD5F37" stroke-width="2" stroke-linecap="round" stroke-linejoin="round"/>
<path d="M10.4298 42.5246C12.0235 39.9086 14.2634 37.7465 16.9341 36.2463C19.6048 34.746 22.6166 33.958 25.6798 33.958C28.743 33.958 31.7548 34.746 34.4255 36.2463C37.0962 37.7465 39.3361 39.9086 40.9298 42.5246" stroke="#CD5F37" stroke-width="2" stroke-linecap="round" stroke-linejoin="round"/>
<path d="M25.6799 48.2386C38.5008 48.2386 48.8941 37.8452 48.8941 25.0243C48.8941 12.2034 38.5008 1.81006 25.6799 1.81006C12.859 1.81006 2.46558 12.2034 2.46558 25.0243C2.46558 37.8452 12.859 48.2386 25.6799 48.2386Z" stroke="#CD5F37" stroke-width="2" stroke-linecap="round" stroke-linejoin="round"/>
</g>
<defs>
<clipPath id="clip0_142_119">
<rect width="50" height="50" fill="white" transform="translate(0.67981 0.0244141)"/>
</clipPath>
</defs>
</svg>
