<svg width="1800" height="844" viewBox="0 0 1800 844" fill="none" xmlns="http://www.w3.org/2000/svg">
<g clip-path="url(#clip0_155_169)">
<path d="M1730.21 757.808C1729.61 758.008 1729.01 757.708 1728.91 757.108C1728.91 757.008 1728.71 756.608 1728.41 755.808C1725.61 750.008 1712.21 738.208 1699.21 726.808C1675.11 705.708 1659.51 691.308 1662.01 684.008C1662.91 681.608 1665.51 680.308 1670.21 680.108C1702.01 678.908 1726.81 744.708 1730.51 755.108C1730.71 755.608 1730.91 756.008 1731.01 756.508C1731.11 757.008 1730.81 757.608 1730.41 757.808C1730.31 757.808 1730.31 757.808 1730.21 757.808ZM1664.11 684.808C1661.81 691.208 1683.31 710.008 1700.61 725.208C1710.71 734.008 1719.91 742.108 1725.51 748.308C1717.41 728.308 1695.71 681.508 1670.31 682.508C1668.81 682.608 1667.21 682.708 1665.91 683.308C1665.01 683.508 1664.41 684.008 1664.11 684.808Z" fill="white" fill-opacity="0.1"/>
<path d="M1754.61 742.608C1754.11 742.308 1753.91 741.708 1754.21 741.108C1754.21 741.008 1754.41 740.608 1754.81 739.908C1757.11 733.908 1756.31 716.008 1755.51 698.708C1754.11 666.708 1753.71 645.508 1760.71 642.308H1760.81C1763.11 641.308 1765.91 642.408 1769.21 645.608C1792.01 667.708 1761.61 731.208 1756.71 741.008C1756.51 741.508 1756.31 741.908 1756.01 742.308C1755.91 742.508 1755.71 742.608 1755.51 742.708C1755.31 742.808 1754.91 742.808 1754.61 742.608ZM1761.71 644.408C1755.51 647.208 1756.81 675.808 1757.81 698.708C1758.41 712.108 1758.91 724.308 1758.31 732.608C1767.21 712.908 1786.01 664.908 1767.71 647.208C1765.91 645.508 1763.51 643.608 1761.71 644.408C1761.71 644.308 1761.71 644.308 1761.71 644.408Z" fill="white" fill-opacity="0.1"/>
<path d="M1754.31 747.708C1753.71 747.808 1753.21 747.308 1753.11 746.808C1753.11 746.708 1753.01 746.308 1752.91 745.408C1751.31 739.208 1740.31 725.108 1729.61 711.408C1709.91 686.108 1697.31 669.108 1701.21 662.408C1702.51 660.208 1705.41 659.408 1710.01 660.108C1741.41 664.908 1753.41 734.208 1755.11 745.108C1755.21 745.608 1755.31 746.108 1755.31 746.508C1755.31 747.008 1755.01 747.408 1754.61 747.608C1754.51 747.708 1754.41 747.708 1754.31 747.708ZM1703.11 663.608C1699.71 669.508 1717.21 692.008 1731.41 710.108C1739.61 720.708 1747.21 730.308 1751.51 737.408C1747.31 716.208 1734.81 666.208 1709.71 662.308C1707.91 662.008 1705.81 661.908 1704.41 662.508C1703.81 662.808 1703.41 663.108 1703.11 663.608Z" fill="white" fill-opacity="0.1"/>
<path d="M1751.81 772.908C1751.51 772.408 1751.61 771.808 1752.11 771.408C1752.11 771.408 1752.61 771.108 1753.31 770.608C1758.21 766.408 1766.11 750.408 1773.81 734.908C1788.01 706.208 1797.91 687.408 1805.61 688.008C1808.21 688.208 1810.11 690.508 1811.51 694.908C1820.81 725.308 1763.51 766.208 1754.51 772.408C1754.11 772.708 1753.71 773.008 1753.31 773.208H1753.21C1752.61 773.508 1752.11 773.308 1751.81 772.908ZM1775.71 735.908C1769.81 747.908 1764.31 758.808 1759.81 765.808C1777.11 752.808 1816.71 719.808 1809.31 695.608C1808.61 693.208 1807.31 690.408 1805.41 690.208C1804.91 690.208 1804.31 690.308 1803.81 690.508C1796.71 693.508 1785.21 716.908 1775.71 735.908Z" fill="white" fill-opacity="0.1"/>
<path d="M1794.91 806.908C1794.31 806.708 1794.01 806.208 1794.11 805.608C1794.21 805.208 1794.41 804.708 1794.61 804.208C1798.31 793.908 1822.91 727.908 1854.71 729.008C1859.31 729.208 1862.01 730.408 1862.91 732.908C1865.51 740.208 1849.91 754.608 1825.91 775.808C1812.91 787.208 1799.51 799.108 1796.81 804.908C1796.51 805.708 1796.41 806.208 1796.31 806.208C1796.21 806.508 1796.01 806.708 1795.71 806.908C1795.41 806.908 1795.11 806.908 1794.91 806.908ZM1799.61 797.208C1805.21 791.008 1814.31 782.908 1824.41 774.108C1841.61 758.908 1863.11 740.008 1860.81 733.608C1860.11 731.808 1857.11 731.308 1854.61 731.208C1851.31 731.108 1848.11 731.808 1845.01 733.108C1823.91 742.008 1806.61 779.808 1799.61 797.208Z" fill="white" fill-opacity="0.1"/>
<path d="M1790.11 821.408C1789.61 821.108 1789.51 820.408 1789.81 819.908C1790.01 819.508 1790.31 819.208 1790.71 818.808C1797.81 810.408 1844.21 757.508 1873.51 769.808C1877.81 771.608 1879.81 773.708 1879.81 776.308C1879.71 784.008 1860.01 792.008 1830.01 803.308C1813.81 809.408 1797.11 815.708 1792.51 820.208C1791.91 820.808 1791.61 821.208 1791.61 821.308C1791.51 821.408 1791.31 821.508 1791.21 821.608C1790.91 821.708 1790.41 821.708 1790.11 821.408ZM1797.91 814.108C1805.31 810.308 1816.71 806.008 1829.31 801.208C1850.81 793.108 1877.51 783.008 1877.71 776.208C1877.71 774.308 1875.01 772.708 1872.81 771.808C1865.71 768.808 1857.51 770.108 1848.91 773.708C1829.11 782.008 1808.11 803.008 1797.91 814.108Z" fill="white" fill-opacity="0.1"/>
<path d="M1735.21 769.008C1735.21 769.008 1734.81 768.608 1734.21 768.008C1729.31 763.808 1712.21 758.608 1695.71 753.508C1665.11 744.108 1644.91 737.408 1644.31 729.708C1644.11 727.108 1646.01 724.908 1650.21 722.808C1678.71 708.608 1728.31 758.608 1735.91 766.508C1736.31 766.908 1736.61 767.208 1736.91 767.608C1737.31 768.108 1737.21 768.708 1736.71 769.108C1736.61 769.208 1736.51 769.208 1736.41 769.308C1736.01 769.508 1735.51 769.408 1735.21 769.008ZM1651.21 724.808C1649.01 725.908 1646.41 727.608 1646.51 729.508C1647.01 736.308 1674.41 744.608 1696.41 751.408C1709.21 755.308 1720.91 758.908 1728.51 762.208C1713.11 747.508 1675.21 714.608 1652.31 724.208C1651.91 724.508 1651.51 724.608 1651.21 724.808Z" fill="white" fill-opacity="0.1"/>
<path d="M1709.31 797.608C1709.31 797.608 1708.91 797.208 1708.31 796.608C1703.31 792.508 1686.11 787.708 1669.51 783.008C1638.71 774.308 1618.41 768.008 1617.61 760.308C1617.31 757.708 1619.21 755.408 1623.31 753.308C1651.41 738.608 1702.21 787.408 1709.91 795.208C1710.31 795.508 1710.61 795.908 1710.91 796.208C1711.31 796.708 1711.21 797.308 1710.81 797.708C1710.71 797.808 1710.61 797.808 1710.51 797.908C1710.11 798.008 1709.61 797.908 1709.31 797.608ZM1624.31 755.208C1622.11 756.308 1619.51 758.108 1619.71 760.008C1620.41 766.808 1647.91 774.508 1670.01 780.808C1682.91 784.408 1694.61 787.808 1702.31 791.008C1686.71 776.708 1648.41 744.908 1625.71 754.508C1625.31 754.708 1624.81 754.908 1624.31 755.208Z" fill="white" fill-opacity="0.1"/>
<path d="M1739.41 816.708C1739.31 816.708 1738.91 816.608 1738.01 816.408C1731.61 815.708 1714.61 821.108 1698.01 826.208C1667.41 835.808 1647.01 841.608 1642.11 835.608C1640.51 833.608 1640.81 830.608 1643.11 826.608C1658.71 798.908 1727.81 812.108 1738.51 814.308C1739.01 814.408 1739.51 814.508 1739.91 814.608C1740.51 814.808 1740.81 815.408 1740.61 815.908C1740.51 816.208 1740.31 816.508 1740.01 816.608C1739.91 816.708 1739.71 816.708 1739.41 816.708ZM1645.11 827.708C1643.91 829.908 1642.71 832.708 1643.91 834.208C1648.21 839.508 1675.51 831.008 1697.41 824.108C1710.21 820.108 1721.81 816.508 1730.01 814.908C1713.51 812.208 1678.91 808.008 1658.41 816.608C1652.61 819.208 1647.91 822.708 1645.11 827.708Z" fill="white" fill-opacity="0.1"/>
<path d="M1789.11 856.608C1789.01 856.608 1788.61 856.508 1787.71 856.308C1781.31 855.608 1764.31 861.008 1747.71 866.108C1717.11 875.708 1696.71 881.508 1691.81 875.508C1690.21 873.508 1690.51 870.508 1692.81 866.508C1708.41 838.808 1777.51 852.008 1788.21 854.208C1788.71 854.308 1789.21 854.408 1789.61 854.508C1790.21 854.708 1790.51 855.308 1790.31 855.808C1790.21 856.108 1790.01 856.408 1789.71 856.508C1789.61 856.608 1789.41 856.708 1789.11 856.608ZM1694.81 867.608C1693.61 869.808 1692.41 872.608 1693.61 874.108C1697.91 879.408 1725.21 870.908 1747.11 864.008C1759.91 860.008 1771.51 856.408 1779.71 854.808C1763.21 852.108 1728.61 847.908 1708.11 856.508C1702.31 859.108 1697.61 862.608 1694.81 867.608Z" fill="white" fill-opacity="0.1"/>
<path d="M1822.91 896.708C1823.01 896.708 1823.11 896.608 1823.21 896.508C1823.61 896.108 1823.71 895.408 1823.31 894.908C1772.61 840.208 1731.61 756.908 1731.21 756.108C1730.91 755.608 1730.31 755.308 1729.71 755.608C1729.21 755.908 1728.91 756.508 1729.21 757.108C1729.61 757.908 1770.71 841.508 1821.71 896.508C1822.01 896.808 1822.51 896.908 1822.91 896.708Z" fill="white" fill-opacity="0.1"/>
<path d="M1757.91 807.008C1758.41 806.808 1758.71 806.208 1758.51 805.708C1758.41 805.308 1747.31 763.408 1758.91 734.808C1759.11 734.208 1758.91 733.608 1758.31 733.408C1757.71 733.208 1757.11 733.408 1756.91 734.008C1745.01 763.308 1756.31 805.808 1756.41 806.308C1756.61 806.908 1757.21 807.208 1757.71 807.108C1757.81 807.008 1757.81 807.008 1757.91 807.008Z" fill="white" fill-opacity="0.1"/>
<path d="M1770.81 827.708C1771.11 827.608 1771.31 827.308 1771.41 827.008C1771.61 826.408 1771.21 825.808 1770.71 825.608C1770.31 825.508 1730.01 813.508 1709.61 795.008C1709.21 794.608 1708.51 794.608 1708.01 795.108C1707.61 795.508 1707.61 796.208 1708.11 796.708C1728.81 815.508 1769.61 827.608 1770.01 827.708C1770.31 827.908 1770.51 827.808 1770.81 827.708Z" fill="white" fill-opacity="0.1"/>
<path d="M1793.71 861.108C1794.21 860.908 1794.51 860.308 1794.31 859.808C1794.21 859.508 1785.41 827.608 1796.21 806.308C1796.51 805.808 1796.31 805.108 1795.71 804.808C1795.21 804.508 1794.51 804.708 1794.21 805.308C1783.01 827.408 1791.81 859.008 1792.21 860.408C1792.41 861.008 1793.01 861.308 1793.61 861.208C1793.61 861.108 1793.61 861.108 1793.71 861.108Z" fill="white" fill-opacity="0.1"/>
<path d="M-74.5477 872.973C-82.0695 867.332 -89.3126 860.785 -96.138 853.263C-129.359 816.839 -157.217 767.738 -170.52 721.841C-193.016 644.325 -147.606 555.318 -73.3637 531.36C-65.2151 528.713 -57.3451 527.459 -49.9627 527.529C-21.756 527.808 6.86846 541.319 37.5823 568.829C68.6444 596.688 68.9927 632.068 60.0083 676.572C56.8743 691.894 54.4367 711.603 62.6549 727.97C67.0426 736.676 74.1465 743.78 81.0414 750.675C89.8168 759.45 98.8708 768.504 102.492 780.971C108.203 800.541 103.607 824.012 90.374 843.792C71.291 872.207 39.6021 891.708 5.54518 895.956C-22.3132 899.369 -50.0323 891.36 -74.5477 872.973ZM-72.7369 533.519C-145.865 557.129 -190.578 644.883 -168.43 721.284C-155.198 766.833 -127.618 815.655 -94.5361 851.801C-65.7723 883.281 -30.3225 898.185 5.2666 893.728C38.627 889.549 69.7588 870.466 88.4936 842.538C101.378 823.316 105.835 800.541 100.333 781.598C96.8511 769.758 88.4239 761.261 79.4396 752.277C72.4053 745.242 65.1621 737.999 60.6352 729.015C52.0687 712.021 54.6456 691.824 57.7797 676.154C66.6247 632.416 66.3461 597.663 36.0501 570.501C5.75411 543.339 -22.3829 530.036 -50.0323 529.758C-57.2059 529.688 -64.7973 530.942 -72.7369 533.519Z" fill="white" fill-opacity="0.1"/>
<path d="M-66.4674 862.526C-73.432 857.373 -80.118 851.244 -86.3862 844.349C-118.354 809.387 -145.028 762.236 -157.773 718.22C-167.384 685.208 -163.415 647.181 -146.909 613.821C-129.915 579.485 -102.335 554.691 -69.3229 544.035C-62.5673 541.876 -56.0902 540.762 -50.1006 540.832C-29.9033 541.041 -9.35773 549.12 12.5808 565.486C17.8738 569.456 23.167 573.774 28.7386 578.789C55.2041 602.538 55.3434 632.834 47.0555 673.995C43.5036 691.406 40.7874 713.972 50.886 734.03C56.2488 744.616 64.1188 752.555 71.7102 760.147C79.9981 768.435 87.102 775.608 89.7485 784.732C94.2755 800.333 90.3057 820.112 79.3712 836.409C62.308 861.621 34.1014 878.963 3.875 882.724C-20.71 885.788 -44.32 879.033 -66.4674 862.526ZM11.1878 567.228C-10.4024 551.139 -30.4605 543.2 -50.1703 543.06C-55.8812 542.991 -62.1494 544.035 -68.6961 546.194C-101.151 556.641 -128.243 581.017 -144.958 614.865C-161.186 647.669 -165.156 685.138 -155.684 717.663C-143.008 761.331 -116.473 808.203 -84.7843 842.956C-78.5858 849.712 -71.9695 855.771 -65.1442 860.855C-43.5539 877.013 -20.4314 883.629 3.52677 880.634C33.1263 876.943 60.7758 859.95 77.3515 835.225C87.9377 819.485 91.8379 800.402 87.4502 785.359C84.9429 776.723 77.9783 769.758 69.969 761.749C62.2383 753.948 54.229 745.939 48.727 735.005C38.4194 714.32 41.2053 691.267 44.7572 673.507C52.9058 633.113 52.8361 603.443 27.1368 580.391C21.6347 575.446 16.4113 571.128 11.1878 567.228Z" fill="white" fill-opacity="0.1"/>
<path d="M-58.4583 851.871C-64.7265 847.205 -70.7857 841.633 -76.5663 835.365C-107.211 801.796 -132.771 756.665 -145.028 714.459C-153.664 684.581 -150.043 650.107 -134.999 619.671C-119.608 588.609 -94.8135 566.183 -65.2836 556.642C-59.8513 554.901 -54.8367 553.995 -50.3098 554.065C-28.5802 554.274 -5.52739 564.721 14.6003 583.455C33.8226 601.354 41.1354 622.039 37.6531 648.714C36.8174 655.051 35.5637 661.459 34.3101 667.657C32.2904 678.035 30.1313 688.76 29.9921 699.416C29.6438 724.837 39.8121 747.123 62.0989 769.41C69.0635 776.375 75.1227 782.434 76.7942 788.284C80.6943 801.587 78.1871 815.446 69.6903 828.4C54.5074 851.523 23.515 866.775 2.06402 869.491C-18.8298 872.208 -39.236 866.218 -58.4583 851.871ZM2.3426 576.073C-14.5814 563.467 -32.8983 556.502 -50.2401 556.363C-54.5582 556.293 -59.3637 557.129 -64.5175 558.801C-93.4903 568.133 -117.797 590.141 -132.98 620.716C-147.744 650.594 -151.366 684.581 -142.869 713.902C-130.751 755.76 -105.33 800.612 -74.8948 833.902C-69.2535 840.101 -63.2639 845.533 -57.1351 850.13C-38.3306 864.129 -18.4815 869.979 1.92473 867.402C22.8882 864.825 53.1145 849.851 67.9491 827.356C76.1673 814.819 78.4657 801.935 74.7744 789.12C73.2422 783.757 67.3919 777.907 60.6363 771.151C38.2103 748.725 27.4848 725.255 27.9027 699.555C28.042 688.69 30.201 677.826 32.2207 667.379C33.4047 661.25 34.6583 654.842 35.4941 648.574C38.9067 622.736 31.8029 602.608 13.1377 585.266C9.65543 581.854 6.03384 578.859 2.3426 576.073Z" fill="white" fill-opacity="0.1"/>
<path d="M-50.6575 840.588C-55.672 836.897 -60.5472 832.509 -65.2831 827.634C-95.1613 796.99 -119.537 754.366 -132.213 710.768C-139.944 684.093 -136.601 653.031 -123.02 625.591C-107.906 595.086 -70.5762 555.666 -29.6244 571.963C1.85558 584.5 20.0332 601.702 24.4209 623.153C27.4157 637.64 24.3512 652.056 21.3564 666.055C20.1028 671.905 18.8492 677.965 18.0134 683.954C15.0187 706.38 18.1527 728.388 26.9978 745.939C32.1516 756.177 39.743 765.022 47.1951 773.031C66.0692 793.368 67.7407 810.919 52.5579 828.33C39.3251 843.443 19.8939 853.96 0.601955 856.398C-16.3917 858.487 -33.4549 853.333 -50.2396 840.936C-50.4486 840.797 -50.5182 840.658 -50.6575 840.588ZM-1.20884 589.793C-9.07884 583.942 -18.8293 578.649 -30.5298 573.983C-70.0887 558.243 -106.374 596.827 -121.139 626.566C-134.511 653.519 -137.785 683.954 -130.193 710.141C-117.657 753.461 -93.4201 795.666 -63.8206 826.102C-59.015 831.046 -54.0005 835.364 -49.0556 839.125C-32.7585 851.174 -16.1827 856.258 0.184075 854.169C18.9885 851.801 37.9322 841.633 50.7471 826.868C65.0941 810.431 63.4226 793.855 45.454 774.494C38.0018 766.415 30.3408 757.431 25.0477 746.914C16.0634 729.015 12.79 706.519 15.8544 683.676C16.6902 677.686 17.9438 671.557 19.1974 665.637C22.1226 651.917 25.1173 637.709 22.2618 623.641C19.5457 610.756 11.7453 599.474 -1.20884 589.793Z" fill="white" fill-opacity="0.1"/>
<path d="M-42.7213 830.489C-47.5268 826.937 -52.1235 822.689 -56.929 817.396C-84.9267 786.682 -108.328 745.452 -119.471 707.007C-126.296 683.467 -123.232 655.957 -111.114 631.441C-98.9256 606.856 -79.7033 589.236 -57.0683 581.923C-53.5164 580.809 -51.427 580.6 -50.5216 580.669C-31.7172 580.878 -10.5448 592.231 2.2004 609.015C15.5724 626.636 11.6723 646.554 7.91137 665.777C7.28455 668.771 6.72739 671.836 6.17022 674.9C2.06111 698.441 4.0112 721.424 11.8115 741.551C15.851 751.859 21.4923 761.958 28.7355 771.569C30.8945 774.494 33.75 777.28 36.8145 780.275C45.5202 788.911 55.4099 798.661 48.8632 812.173C38.0681 834.39 9.30429 845.254 -12.2163 842.956C-23.0114 841.842 -32.9708 837.733 -42.582 830.559C-42.6516 830.559 -42.7213 830.559 -42.7213 830.489ZM-13.6789 596.549C-24.8919 588.191 -38.2639 583.107 -50.5913 582.968C-51.427 582.968 -53.2378 583.107 -56.4415 584.152C-78.5889 591.325 -97.3237 608.458 -109.233 632.556C-121.143 656.583 -124.068 683.536 -117.451 706.52C-106.378 744.616 -83.1856 785.568 -55.3968 816.003C-50.7305 821.157 -46.2036 825.336 -41.5373 828.748C-41.4676 828.748 -41.4676 828.818 -41.398 828.818C-32.0654 835.783 -22.5239 839.683 -12.077 840.727C8.67748 842.956 36.3966 832.509 46.8435 811.197C52.6937 799.149 43.8487 790.373 35.2126 781.877C32.1482 778.812 29.223 775.957 26.9247 772.892C19.6119 763.142 13.7616 752.834 9.72217 742.387C1.71288 721.911 -0.237209 698.441 3.94155 674.552C4.49872 671.488 5.05589 668.423 5.6827 665.428C9.51323 645.788 13.1348 627.262 0.3896 610.478C-3.51057 605.185 -8.31615 600.518 -13.6789 596.549Z" fill="white" fill-opacity="0.1"/>
<path d="M1879.03 135.271C1873.83 152.006 1842.77 150.041 1824.26 148.836C1820.96 148.646 1818.05 148.456 1815.89 148.393C1814.69 148.393 1813.42 148.329 1812.09 148.329C1795.35 147.949 1767.4 147.252 1756.24 160.056C1752.12 164.81 1750.66 171.086 1751.87 178.819C1753.58 189.342 1761.25 197.773 1768.73 205.887C1777.73 215.775 1787.11 225.981 1785.91 240.117C1784.77 253.746 1761.37 254.57 1747.43 255.077C1744.45 255.203 1741.91 255.267 1740.08 255.457C1712.88 258.31 1698.94 267.564 1697.35 283.729C1695.39 304.013 1713.26 316.881 1730.63 322.143L1732.28 322.65C1749.14 327.784 1765.11 332.665 1779.63 342.554C1821.28 370.952 1801.12 408.923 1800.87 409.24L1799.79 408.669C1799.98 408.289 1819.57 371.333 1778.93 343.568C1764.54 333.743 1748.7 328.925 1731.9 323.791L1730.25 323.284C1712.38 317.832 1694.06 304.584 1696.08 283.539C1697.73 266.677 1712.06 257.042 1739.95 254.126C1741.85 253.936 1744.39 253.809 1747.37 253.746C1760.93 253.238 1783.62 252.478 1784.7 239.927C1785.84 226.298 1777.1 216.79 1767.84 206.647C1760.3 198.407 1752.44 189.849 1750.73 178.946C1749.39 170.832 1750.98 164.24 1755.35 159.169C1766.89 145.984 1795.22 146.618 1812.15 147.061C1813.48 147.061 1814.75 147.125 1815.95 147.125C1818.17 147.188 1821.09 147.378 1824.38 147.568C1842.58 148.709 1873 150.675 1877.88 134.891L1879.03 135.271Z" fill="white" fill-opacity="0.1"/>
</g>
<defs>
<clipPath id="clip0_155_169">
<rect width="1800" height="844" rx="40" fill="white"/>
</clipPath>
</defs>
</svg>
