<svg width="50" height="51" viewBox="0 0 50 51" fill="none" xmlns="http://www.w3.org/2000/svg">
<circle cx="25" cy="25.4653" r="25" fill="#CD5F37"/>
<g clip-path="url(#clip0_120_9259)">
<path d="M25.5706 23.4913C25.2414 23.7704 24.7587 23.7704 24.4295 23.4913C21.3099 20.8469 19.7059 18.2804 19.7059 15.7595C19.7059 12.8356 22.0762 10.4653 25 10.4653C27.9238 10.4653 30.2941 12.8356 30.2941 15.7595C30.2941 18.2804 28.6901 20.8469 25.5706 23.4913ZM25.5706 27.4394C28.6901 30.0838 30.2941 32.6502 30.2941 35.1712C30.2941 38.0951 27.9239 40.4653 25 40.4653C22.0761 40.4653 19.7059 38.0951 19.7059 35.1712C19.7059 32.6502 21.3099 30.0838 24.4294 27.4394C24.7587 27.1603 25.2413 27.1603 25.5706 27.4394ZM26.974 26.0359C26.6949 25.7067 26.6949 25.224 26.974 24.8948C29.6185 21.7753 32.1849 20.1713 34.7059 20.1713C37.6298 20.1712 40 22.5414 40 25.4653C40 28.3892 37.6298 30.7595 34.7059 30.7595C32.1849 30.7595 29.6185 29.1554 26.974 26.0359ZM23.026 26.0359C20.3815 29.1554 17.8151 30.7595 15.2941 30.7595C12.3702 30.7595 10 28.3892 10 25.4653C10 22.5414 12.3702 20.1712 15.2941 20.1712C17.8151 20.1712 20.3815 21.7752 23.026 24.8947C23.3051 25.224 23.3051 25.7067 23.026 26.0359Z" fill="white"/>
</g>
<defs>
<clipPath id="clip0_120_9259">
<rect width="30" height="30" fill="white" transform="translate(10 10.4653)"/>
</clipPath>
</defs>
</svg>
