<svg width="159" height="51" viewBox="0 0 159 51" fill="none" xmlns="http://www.w3.org/2000/svg">
<path d="M85.209 33.1685C85.209 33.2687 85.1953 33.3735 85.168 33.4829C85.1497 33.5923 85.0996 33.6834 85.0176 33.7563C84.6074 34.0662 84.1608 34.3534 83.6777 34.6177C83.2038 34.8729 82.6888 35.0962 82.1328 35.2876C81.5768 35.479 80.9753 35.6248 80.3281 35.7251C79.6901 35.8345 79.002 35.8892 78.2637 35.8892C76.6048 35.8892 75.0918 35.6476 73.7246 35.1646C72.3574 34.6724 71.1816 33.9797 70.1973 33.0864C69.222 32.1932 68.4655 31.1222 67.9277 29.8735C67.39 28.6157 67.1211 27.2212 67.1211 25.6899C67.1211 24.8241 67.2305 23.9718 67.4492 23.1333C67.6771 22.2948 68.0052 21.4972 68.4336 20.7407C68.862 19.9842 69.3906 19.2915 70.0195 18.6626C70.6484 18.0246 71.3639 17.4731 72.166 17.0083C72.9772 16.5435 73.8659 16.1834 74.832 15.9282C75.8073 15.6639 76.86 15.5317 77.9902 15.5317C78.4277 15.5317 78.8743 15.5545 79.3301 15.6001C79.7858 15.6366 80.237 15.6958 80.6836 15.7778C81.1302 15.8507 81.5586 15.9419 81.9688 16.0513C82.388 16.1606 82.7845 16.2837 83.1582 16.4204L84.0879 18.9497L83.9785 19.0044C83.623 18.6854 83.2129 18.3892 82.748 18.1157C82.2832 17.8423 81.7865 17.6053 81.2578 17.4048C80.7292 17.2043 80.1732 17.0493 79.5898 16.9399C79.0156 16.8215 78.4323 16.7622 77.8398 16.7622C76.6914 16.7622 75.6387 16.9445 74.6816 17.3091C73.7246 17.6646 72.8997 18.1841 72.207 18.8677C71.5234 19.5513 70.9902 20.3898 70.6074 21.3833C70.2246 22.3768 70.0332 23.507 70.0332 24.7739C70.0332 26.1685 70.2155 27.4627 70.5801 28.6567C70.9447 29.8507 71.487 30.8853 72.207 31.7603C72.9271 32.6353 73.8249 33.3234 74.9004 33.8247C75.985 34.3169 77.2474 34.563 78.6875 34.563C79.3255 34.563 79.8952 34.5129 80.3965 34.4126C80.8978 34.3123 81.3216 34.1893 81.668 34.0435C82.0143 33.8885 82.2741 33.7244 82.4473 33.5513C82.6296 33.369 82.7207 33.2049 82.7207 33.0591V32.5259C82.7207 31.8879 82.7116 31.3364 82.6934 30.8716C82.6751 30.4067 82.6478 30.0057 82.6113 29.6685C82.5749 29.3221 82.5339 29.0259 82.4883 28.7798C82.4427 28.5337 82.388 28.3058 82.3242 28.0962V28.0415H85.6055V28.0962C85.5508 28.2876 85.4961 28.5155 85.4414 28.7798C85.3958 29.035 85.3548 29.3403 85.3184 29.6958C85.2819 30.0513 85.2546 30.4705 85.2363 30.9536C85.2181 31.4276 85.209 31.979 85.209 32.6079V33.1685ZM88.9688 20.3716C88.9688 19.5968 88.9551 18.9224 88.9277 18.3481C88.9095 17.7648 88.8822 17.2635 88.8457 16.8442C88.8184 16.425 88.7773 16.0741 88.7227 15.7915C88.6771 15.509 88.627 15.272 88.5723 15.0806V15.0259H91.7305V15.0806C91.6758 15.272 91.6257 15.509 91.5801 15.7915C91.5345 16.0741 91.4935 16.425 91.457 16.8442C91.4206 17.2635 91.3932 17.7648 91.375 18.3481C91.3568 18.9224 91.3477 19.5968 91.3477 20.3716V30.1196C91.3477 30.8944 91.3568 31.5734 91.375 32.1567C91.3932 32.731 91.4206 33.2277 91.457 33.647C91.4935 34.0662 91.5345 34.4172 91.5801 34.6997C91.6257 34.9823 91.6758 35.2192 91.7305 35.4106V35.4653H88.5723V35.4106C88.627 35.2192 88.6771 34.9823 88.7227 34.6997C88.7773 34.4172 88.8184 34.0662 88.8457 33.647C88.8822 33.2277 88.9095 32.731 88.9277 32.1567C88.9551 31.5734 88.9688 30.8944 88.9688 30.1196V20.3716ZM94.4922 28.438C94.4922 27.408 94.6836 26.4556 95.0664 25.5806C95.4492 24.6965 95.9733 23.9308 96.6387 23.2837C97.3132 22.6366 98.1061 22.1307 99.0176 21.7661C99.929 21.4015 100.909 21.2192 101.957 21.2192C102.987 21.2192 103.953 21.3924 104.855 21.7388C105.767 22.076 106.56 22.5591 107.234 23.188C107.909 23.8169 108.438 24.5825 108.82 25.4849C109.212 26.3872 109.408 27.3989 109.408 28.52C109.408 29.4588 109.244 30.3612 108.916 31.2271C108.588 32.0929 108.105 32.8586 107.467 33.5239C106.829 34.1893 106.045 34.7225 105.115 35.1235C104.195 35.5155 103.133 35.7114 101.93 35.7114C100.909 35.7114 99.9473 35.5428 99.0449 35.2056C98.1426 34.8683 97.3542 34.3853 96.6797 33.7563C96.0052 33.1274 95.472 32.3664 95.0801 31.4731C94.6882 30.5708 94.4922 29.5591 94.4922 28.438ZM102.244 34.7134C102.891 34.7134 103.484 34.5858 104.021 34.3306C104.568 34.0754 105.038 33.7062 105.43 33.2231C105.822 32.7401 106.127 32.1522 106.346 31.4595C106.564 30.7668 106.674 29.9829 106.674 29.1079C106.674 28.1235 106.569 27.2121 106.359 26.3735C106.15 25.5259 105.835 24.7967 105.416 24.186C105.006 23.5662 104.486 23.0832 103.857 22.7368C103.229 22.3905 102.495 22.2173 101.656 22.2173C101.009 22.2173 100.417 22.3449 99.8789 22.6001C99.3411 22.8462 98.8717 23.2062 98.4707 23.6802C98.0788 24.1541 97.7734 24.7375 97.5547 25.4302C97.3359 26.1138 97.2266 26.8931 97.2266 27.7681C97.2266 28.7524 97.3314 29.6685 97.541 30.5161C97.7598 31.3638 98.0788 32.1021 98.498 32.731C98.9173 33.3507 99.4368 33.8384 100.057 34.1938C100.686 34.5402 101.415 34.7134 102.244 34.7134ZM121.713 22.7231L125.363 31.9106L128.412 24.2954C128.476 24.1313 128.549 23.9491 128.631 23.7485C128.713 23.5389 128.786 23.3293 128.85 23.1196C128.913 22.9009 128.968 22.6958 129.014 22.5044C129.059 22.3039 129.082 22.1261 129.082 21.9712C129.082 21.8527 129.073 21.757 129.055 21.6841C129.036 21.6021 129.018 21.5474 129 21.52V21.4653H131.461V21.52C131.297 21.6932 131.096 21.9803 130.859 22.3813C130.632 22.7733 130.358 23.3475 130.039 24.104L125.186 35.6567H124.406L120.879 27.0981L117.352 35.6567H116.572L112.088 24.7739C111.924 24.3729 111.746 23.9901 111.555 23.6255C111.372 23.2518 111.195 22.9191 111.021 22.6274C110.857 22.3358 110.712 22.0942 110.584 21.9028C110.456 21.7023 110.37 21.5747 110.324 21.52V21.4653H113.961V21.52C113.943 21.5656 113.929 21.634 113.92 21.7251C113.911 21.8162 113.906 21.8983 113.906 21.9712C113.906 22.2537 113.947 22.5682 114.029 22.9146C114.12 23.2518 114.266 23.6756 114.467 24.186L117.516 31.9106L121.193 22.7231H121.713ZM133.594 26.811C133.594 26.0363 133.58 25.3618 133.553 24.7876C133.535 24.2043 133.507 23.703 133.471 23.2837C133.443 22.8644 133.402 22.5135 133.348 22.231C133.302 21.9484 133.252 21.7114 133.197 21.52V21.4653H136.355V21.52C136.301 21.7114 136.251 21.9484 136.205 22.231C136.16 22.5135 136.118 22.8644 136.082 23.2837C136.046 23.703 136.018 24.2043 136 24.7876C135.982 25.3618 135.973 26.0363 135.973 26.811V30.1196C135.973 30.8944 135.982 31.5734 136 32.1567C136.018 32.731 136.046 33.2277 136.082 33.647C136.118 34.0662 136.16 34.4172 136.205 34.6997C136.251 34.9823 136.301 35.2192 136.355 35.4106V35.4653H133.197V35.4106C133.252 35.2192 133.302 34.9823 133.348 34.6997C133.402 34.4172 133.443 34.0662 133.471 33.647C133.507 33.2277 133.535 32.731 133.553 32.1567C133.58 31.5734 133.594 30.8944 133.594 30.1196V26.811ZM133.307 17.3228C133.307 17.1222 133.343 16.9354 133.416 16.7622C133.498 16.5799 133.603 16.425 133.73 16.2974C133.858 16.1606 134.008 16.0558 134.182 15.9829C134.364 15.9009 134.56 15.8599 134.77 15.8599C134.979 15.8599 135.171 15.9009 135.344 15.9829C135.526 16.0558 135.681 16.1606 135.809 16.2974C135.945 16.425 136.05 16.5799 136.123 16.7622C136.205 16.9354 136.246 17.1222 136.246 17.3228C136.246 17.742 136.105 18.0929 135.822 18.3755C135.54 18.658 135.189 18.7993 134.77 18.7993C134.56 18.7993 134.364 18.7629 134.182 18.6899C134.008 18.6079 133.858 18.5031 133.73 18.3755C133.603 18.2388 133.498 18.0838 133.416 17.9106C133.343 17.7284 133.307 17.5324 133.307 17.3228ZM145.023 29.5864L141.742 33.729C141.624 33.884 141.501 34.0435 141.373 34.2075C141.255 34.3716 141.145 34.5311 141.045 34.686C140.954 34.841 140.876 34.9868 140.812 35.1235C140.758 35.2603 140.73 35.3742 140.73 35.4653H138.434V35.4106C138.579 35.283 138.78 35.0916 139.035 34.8364C139.299 34.5812 139.577 34.2668 139.869 33.8931L144.176 28.438L139.951 22.7231C139.714 22.4132 139.482 22.1489 139.254 21.9302C139.026 21.7114 138.857 21.5747 138.748 21.52V21.4653H142.494C142.494 21.6203 142.549 21.8664 142.658 22.2036C142.777 22.5317 143.005 22.9282 143.342 23.3931L145.666 26.5649L148.318 23.2017C148.428 23.0558 148.537 22.9009 148.646 22.7368C148.765 22.5728 148.865 22.4132 148.947 22.2583C149.038 22.0942 149.111 21.9438 149.166 21.8071C149.221 21.6704 149.248 21.5565 149.248 21.4653H151.545V21.52C151.417 21.6203 151.258 21.7661 151.066 21.9575C150.875 22.1489 150.624 22.4406 150.314 22.8325L146.5 27.686L151.094 33.8931C151.404 34.3032 151.691 34.6405 151.955 34.9048C152.219 35.1691 152.411 35.3377 152.529 35.4106V35.4653H148.797C148.797 35.3104 148.738 35.0643 148.619 34.7271C148.501 34.3807 148.282 33.9842 147.963 33.5376L145.023 29.5864Z" fill="#481E0B"/>
<path d="M154.211 34.2622C154.211 34.0617 154.247 33.8748 154.32 33.7017C154.402 33.5194 154.507 33.3644 154.635 33.2368C154.771 33.1001 154.926 32.9953 155.1 32.9224C155.282 32.8403 155.473 32.7993 155.674 32.7993C155.883 32.7993 156.075 32.8403 156.248 32.9224C156.43 32.9953 156.585 33.1001 156.713 33.2368C156.85 33.3644 156.954 33.5194 157.027 33.7017C157.109 33.8748 157.15 34.0617 157.15 34.2622C157.15 34.6815 157.009 35.0324 156.727 35.3149C156.444 35.5975 156.093 35.7388 155.674 35.7388C155.473 35.7388 155.282 35.6978 155.1 35.6157C154.926 35.5428 154.771 35.4425 154.635 35.3149C154.507 35.1782 154.402 35.0233 154.32 34.8501C154.247 34.6678 154.211 34.4718 154.211 34.2622Z" fill="#CD5F37"/>
<circle cx="25" cy="25.4653" r="25" fill="#CD5F37"/>
<g clip-path="url(#clip0_120_9264)">
<path d="M25.5706 23.4913C25.2414 23.7704 24.7587 23.7704 24.4295 23.4913C21.3099 20.8469 19.7059 18.2804 19.7059 15.7595C19.7059 12.8356 22.0762 10.4653 25 10.4653C27.9238 10.4653 30.2941 12.8356 30.2941 15.7595C30.2941 18.2804 28.6901 20.8469 25.5706 23.4913ZM25.5706 27.4394C28.6901 30.0838 30.2941 32.6502 30.2941 35.1712C30.2941 38.0951 27.9239 40.4653 25 40.4653C22.0761 40.4653 19.7059 38.0951 19.7059 35.1712C19.7059 32.6502 21.3099 30.0838 24.4294 27.4394C24.7587 27.1603 25.2413 27.1603 25.5706 27.4394ZM26.974 26.0359C26.6949 25.7067 26.6949 25.224 26.974 24.8948C29.6185 21.7753 32.1849 20.1713 34.7059 20.1713C37.6298 20.1712 40 22.5414 40 25.4653C40 28.3892 37.6298 30.7595 34.7059 30.7595C32.1849 30.7595 29.6185 29.1554 26.974 26.0359ZM23.026 26.0359C20.3815 29.1554 17.8151 30.7595 15.2941 30.7595C12.3702 30.7595 10 28.3892 10 25.4653C10 22.5414 12.3702 20.1712 15.2941 20.1712C17.8151 20.1712 20.3815 21.7752 23.026 24.8947C23.3051 25.224 23.3051 25.7067 23.026 26.0359Z" fill="white"/>
</g>
<defs>
<clipPath id="clip0_120_9264">
<rect width="30" height="30" fill="white" transform="translate(10 10.4653)"/>
</clipPath>
</defs>
</svg>
