<svg width="1872" height="427" viewBox="0 0 1872 427" fill="none" xmlns="http://www.w3.org/2000/svg">
<path d="M1765.21 100.218C1745.93 101.846 1744.68 103.097 1743.17 122.251C1741.55 102.972 1740.29 101.72 1721.14 100.218C1740.42 98.5908 1741.67 97.339 1743.17 78.1855C1744.68 97.339 1745.93 98.5908 1765.21 100.218Z" fill="white"/>
<path d="M118.892 291.898C118.892 295.298 116.092 298.098 112.692 298.098C109.292 298.098 106.492 295.298 106.492 291.898C106.492 288.498 109.292 285.698 112.692 285.698C116.092 285.698 118.892 288.398 118.892 291.898Z" fill="white"/>
<path d="M30.7928 26.7763C39.4384 18.5207 52.107 14.7168 63.8968 16.8C63.1725 17.6111 62.4022 18.4178 61.6779 19.2288C67.4317 20.0488 73.1855 20.8689 78.9393 21.6889C77.8047 22.9241 76.7117 24.2094 75.5772 25.4445C79.7853 26.9519 83.989 28.5051 88.1971 30.0125C87.3109 30.5768 86.4247 31.1412 85.5844 31.7099C90.2478 34.2783 94.8653 36.8424 99.5244 39.4567C98.3284 40.3621 97.1323 41.2675 95.9822 42.1772C100.522 45.5669 105.016 48.9524 109.56 52.2963C108.237 53.56 106.957 54.8738 105.634 56.1376C108.846 59.865 112.058 63.5924 115.27 67.3198C114.234 68.0088 113.201 68.6519 112.21 69.3453C114.064 72.7595 115.875 76.1234 117.728 79.5376C116.558 80.1678 115.43 80.8481 114.26 81.4783C115.577 84.1941 116.845 86.9514 118.162 89.6672C117.134 90.2645 116.106 90.8617 115.123 91.4633C116.787 95.415 117.261 99.7173 117.739 103.974C118.318 109.119 118.893 114.31 119.427 119.451C115.025 118.527 110.332 117.252 105.93 116.328C101.135 115.644 96.345 114.915 91.5501 114.232C90.85 115.276 90.1499 116.321 89.4498 117.366C87.2469 113.733 81.43 113.093 78.4538 116.19C71.3237 112.788 63.3523 108.982 57.2383 106.092C56.7147 106.737 56.1868 107.427 55.6633 108.072C50.6968 103.809 45.7762 99.5503 40.8141 95.2415C39.978 95.7643 39.1464 96.2412 38.3103 96.764C35.6711 91.3783 33.0318 85.9926 30.4341 80.6571C29.393 81.392 28.3519 82.1268 27.3107 82.8617C25.5647 77.3288 23.8186 71.7959 22.0725 66.263C21.2391 67.2488 19.4761 66.8049 18.7914 65.7223C18.1067 64.6396 18.2866 63.2219 18.7703 62.018C19.2082 60.8097 19.9585 59.7235 20.3505 58.5109C21.2651 55.6816 20.1959 52.2951 17.8201 50.4976C20.5293 42.3766 24.6414 32.6292 30.7928 26.7763Z" stroke="white" stroke-opacity="0.1" stroke-miterlimit="10"/>
<path d="M0.756531 0.714236C48.5147 34.6031 86.5035 70.9956 119.371 119.493" stroke="white" stroke-opacity="0.1" stroke-miterlimit="10"/>
<path d="M117.601 89.7074C109.433 85.05 100.99 82.3105 91.6034 82.7215" stroke="white" stroke-opacity="0.1" stroke-miterlimit="10"/>
<path d="M117.674 79.1163C105.672 73.4033 93.4065 69.9794 80.1507 69.7017" stroke="white" stroke-opacity="0.1" stroke-miterlimit="10"/>
<path d="M114.723 65.7872C100.832 59.4798 85.7784 56.6724 70.8093 59.8429" stroke="white" stroke-opacity="0.1" stroke-miterlimit="10"/>
<path d="M109.23 52.3581C93.9698 47.8189 77.4356 47.4636 61.9844 51.3291" stroke="white" stroke-opacity="0.1" stroke-miterlimit="10"/>
<path d="M98.3032 40.0829C83.3922 33.309 65.5589 33.4791 50.7812 40.5088" stroke="white" stroke-opacity="0.1" stroke-miterlimit="10"/>
<path d="M78.9551 26.8745C65.6352 25.804 52.0472 27.5775 39.4141 31.9863" stroke="white" stroke-opacity="0.1" stroke-miterlimit="10"/>
<path d="M117.346 101.207C112.626 98.2634 107.683 95.715 102.126 95.7466" stroke="white" stroke-opacity="0.1" stroke-miterlimit="10"/>
<path d="M102.132 95.7002C100.777 101.728 100.18 109.539 101.557 115.546" stroke="white" stroke-opacity="0.1" stroke-miterlimit="10"/>
<path d="M91.5997 82.7214C89.1589 92.904 89.7362 104.945 94.3101 114.354" stroke="white" stroke-opacity="0.1" stroke-miterlimit="10"/>
<path d="M79.9932 69.9185C76.7002 84.2321 77.8058 100.488 83.0412 114.17" stroke="white" stroke-opacity="0.1" stroke-miterlimit="10"/>
<path d="M70.8481 59.8469C67.4335 68.0866 65.6495 77.6833 66.1998 86.5743C66.75 95.4654 68.7482 104.215 71.1808 112.775" stroke="white" stroke-opacity="0.1" stroke-miterlimit="10"/>
<path d="M61.9774 51.329C58.9736 55.2109 57.0328 60.5814 56.5285 65.4394C54.9976 79.2249 55.4851 93.2007 57.9968 106.812" stroke="white" stroke-opacity="0.1" stroke-miterlimit="10"/>
<path d="M50.784 40.5083C44.8794 59.944 42.8115 80.8984 47.2425 100.661" stroke="white" stroke-opacity="0.1" stroke-miterlimit="10"/>
<path d="M40.2656 31.3255C37.7694 40.6236 34.6379 50.2783 32.6878 59.6741C31.153 67.1191 29.0354 70.4367 30.6927 81.3296" stroke="white" stroke-opacity="0.1" stroke-miterlimit="10"/>
<path d="M1823.29 403.814C1823.93 408.624 1823.75 414.267 1819.96 417.504C1816.16 420.65 1809.6 419.262 1807.38 414.914C1807.75 420.187 1803.58 425.367 1798.4 426.107C1793.22 426.847 1787.76 422.87 1786.75 417.689C1785.64 421.39 1781.01 423.147 1777.4 421.945C1773.8 420.742 1771.21 417.319 1770.28 413.619C1769.26 409.919 1769.63 406.034 1770.19 402.241C1772.5 386.885 1778.42 372.177 1787.39 359.504C1789.24 356.821 1791.37 352.104 1794.7 353.491C1797.66 354.694 1800.9 358.857 1803.03 361.169C1808.12 366.627 1812.46 372.825 1815.79 379.485C1819.68 386.978 1822.27 395.303 1823.29 403.814Z" stroke="white" stroke-opacity="0.1" stroke-miterlimit="10"/>
<path d="M1801.64 359.504C1807.47 372.64 1811.35 386.701 1813.2 400.946C1808.67 390.863 1804.14 380.78 1799.61 370.605C1798.31 384.018 1798.22 397.616 1799.24 411.122C1793.13 399.466 1790.26 386.146 1791.1 373.01C1785.82 383.185 1781.85 394.101 1779.35 405.294C1778.05 393.361 1779.63 381.15 1783.79 369.957C1785.08 366.442 1786.66 362.927 1787.58 359.319" stroke="white" stroke-opacity="0.1" stroke-miterlimit="10"/>
<path d="M1804.68 272.55C1807 268.294 1810.51 263.762 1815.32 263.484C1820.22 263.114 1824.76 268.109 1823.93 273.012C1826.7 268.479 1833.18 266.814 1837.8 269.312C1842.43 271.81 1844.55 278.192 1842.24 282.91C1845.29 280.598 1850.1 281.893 1852.32 284.945C1854.54 287.998 1854.64 292.346 1853.25 295.861C1851.86 299.468 1849.27 302.429 1846.59 305.111C1835.77 316.119 1822.26 324.63 1807.55 329.625C1804.5 330.642 1799.97 333.233 1798.02 330.18C1796.36 327.497 1796.17 322.225 1795.8 319.079C1794.88 311.679 1795.06 304.186 1796.27 296.786C1797.84 288.275 1800.61 280.043 1804.68 272.55Z" stroke="white" stroke-opacity="0.1" stroke-miterlimit="10"/>
<path d="M1796.17 321.207C1799.22 307.147 1804.31 293.456 1811.16 280.783C1808.84 291.606 1806.62 302.429 1804.31 313.252C1813.29 303.076 1821.33 292.253 1828.36 280.69C1826.42 293.734 1820.96 306.222 1812.55 316.397C1822.81 311.217 1832.43 304.834 1841.04 297.249C1835.02 307.609 1826.61 316.582 1816.71 323.242C1813.56 325.37 1810.23 327.22 1807.36 329.625" stroke="white" stroke-opacity="0.1" stroke-miterlimit="10"/>
<path d="M1730.68 308.442C1727.35 304.834 1724.12 300.209 1725.32 295.491C1726.52 290.681 1732.63 287.906 1736.97 290.218C1733.55 286.24 1733.92 279.488 1737.71 275.88C1741.51 272.272 1748.26 272.272 1752.05 275.88C1750.85 272.272 1753.44 268.11 1757.14 266.907C1760.75 265.704 1764.91 267 1767.87 269.405C1770.83 271.81 1772.87 275.14 1774.62 278.563C1781.75 292.346 1785.63 307.702 1785.82 323.242C1785.82 326.48 1786.93 331.568 1783.41 332.493C1780.27 333.325 1775.27 331.753 1772.13 331.198C1764.82 329.81 1757.7 327.312 1751.04 323.89C1743.54 319.912 1736.51 314.639 1730.68 308.442Z" stroke="white" stroke-opacity="0.1" stroke-miterlimit="10"/>
<path d="M1774.26 331.568C1761.86 324.352 1750.39 315.287 1740.49 304.742C1750.11 310.292 1759.73 315.75 1769.35 321.3C1762.51 309.644 1754.65 298.636 1745.86 288.276C1757.7 294.104 1767.78 303.261 1774.9 314.362C1773.15 302.984 1770 291.883 1765.47 281.338C1773.42 290.311 1779.34 301.041 1782.67 312.604C1783.69 316.212 1784.43 320.005 1785.82 323.427" stroke="white" stroke-opacity="0.1" stroke-miterlimit="10"/>
<path d="M1857.61 329.902C1862.42 330.828 1867.69 332.678 1869.54 337.21C1871.39 341.743 1868.06 347.663 1863.16 348.311C1868.24 349.513 1871.94 355.156 1870.93 360.336C1870 365.517 1864.54 369.494 1859.36 368.754C1862.51 370.974 1862.79 375.877 1860.57 379.022C1858.35 382.075 1854.28 383.463 1850.39 383.278C1846.6 383.093 1842.99 381.52 1839.57 379.855C1825.69 372.917 1813.48 362.742 1804.23 350.346C1802.29 347.756 1798.5 344.241 1800.72 341.466C1802.75 338.968 1807.75 337.21 1810.61 335.915C1817.37 332.77 1824.58 330.55 1831.98 329.44C1840.49 328.237 1849.19 328.33 1857.61 329.902Z" stroke="white" stroke-opacity="0.1" stroke-miterlimit="10"/>
<path d="M1808.77 336.841C1823.1 335.361 1837.63 336.008 1851.87 338.691C1840.86 339.893 1829.86 341.096 1818.85 342.298C1831.24 347.664 1844.1 352.011 1857.24 355.157C1844.29 357.377 1830.69 355.989 1818.39 351.086C1826.43 359.227 1835.5 366.35 1845.4 372.27C1833.65 369.772 1822.55 364.592 1813.11 357.192C1810.15 354.879 1807.38 352.289 1804.14 350.254" stroke="white" stroke-opacity="0.1" stroke-miterlimit="10"/>
<path d="M1746.78 387.44C1742.34 389.475 1736.98 391.14 1732.81 388.55C1728.65 385.96 1727.91 379.207 1731.43 375.785C1726.52 377.82 1720.33 375.415 1718.01 370.697C1715.7 365.979 1717.83 359.596 1722.45 357.006C1718.66 357.099 1715.52 353.213 1715.52 349.421C1715.52 345.628 1718.01 342.113 1721.25 339.985C1724.49 337.95 1728.28 337.025 1732.07 336.378C1747.34 333.787 1763.25 334.898 1778.05 339.523C1781.19 340.448 1786.28 341.095 1786.1 344.611C1785.91 347.848 1782.95 352.103 1781.38 354.879C1777.77 361.446 1773.24 367.367 1767.97 372.639C1761.68 378.745 1754.55 383.74 1746.78 387.44Z" stroke="white" stroke-opacity="0.1" stroke-miterlimit="10"/>
<path d="M1782.3 353.121C1771.57 362.741 1759.36 370.789 1746.32 376.987C1754.55 369.586 1762.69 362.094 1770.93 354.693C1757.7 357.653 1744.75 361.724 1732.26 366.904C1741.42 357.468 1753.26 350.623 1766.02 347.385C1754.74 345.535 1743.17 345.073 1731.7 346.183C1742.62 341.28 1754.74 338.967 1766.67 339.43C1770.46 339.615 1774.26 339.985 1777.96 339.8" stroke="white" stroke-opacity="0.1" stroke-miterlimit="10"/>
<path d="M1796.37 322.872C1794.79 322.502 1793.13 322.41 1791.37 322.502C1789.43 322.595 1787.58 323.057 1785.82 323.705" stroke="white" stroke-opacity="0.1" stroke-miterlimit="10"/>
<path d="M1780.27 356.544C1782.21 358.117 1784.43 359.412 1786.93 360.152" stroke="white" stroke-opacity="0.1" stroke-miterlimit="10"/>
<path d="M1801.17 358.949C1803.58 357.746 1805.61 356.081 1807.28 354.139" stroke="white" stroke-opacity="0.1" stroke-miterlimit="10"/>
<path d="M1773.61 338.413C1773.98 336.1 1774.81 333.973 1776.01 332.03" stroke="white" stroke-opacity="0.1" stroke-miterlimit="10"/>
<path d="M1807.47 329.625C1808.95 331.475 1810.15 333.603 1810.89 335.915" stroke="white" stroke-opacity="0.1" stroke-miterlimit="10"/>
</svg>
