<svg width="1800" height="1511" viewBox="0 0 1800 1511" fill="none" xmlns="http://www.w3.org/2000/svg">
<g clip-path="url(#clip0_137_45)">
<path d="M1934.32 659.803C1927.29 682.43 1885.29 679.773 1860.27 678.145C1855.81 677.888 1851.87 677.631 1848.95 677.545C1847.32 677.545 1845.61 677.459 1843.81 677.459C1821.18 676.945 1783.38 676.002 1768.3 693.315C1762.73 699.743 1760.76 708.229 1762.39 718.685C1764.7 732.913 1775.07 744.312 1785.18 755.283C1797.36 768.653 1810.04 782.452 1808.41 801.565C1806.87 819.993 1775.24 821.107 1756.39 821.792C1752.36 821.964 1748.93 822.05 1746.44 822.307C1709.68 826.164 1690.82 838.677 1688.68 860.533C1686.02 887.959 1710.19 905.358 1733.67 912.472L1735.9 913.158C1758.7 920.1 1780.3 926.7 1799.93 940.07C1856.24 978.468 1828.98 1029.81 1828.64 1030.24L1827.18 1029.46C1827.44 1028.95 1853.92 978.982 1798.98 941.442C1779.53 928.157 1758.1 921.643 1735.39 914.7L1733.16 914.015C1708.99 906.644 1684.22 888.731 1686.96 860.276C1689.19 837.477 1708.56 824.449 1746.27 820.507C1748.84 820.25 1752.27 820.078 1756.3 819.993C1774.64 819.307 1805.33 818.278 1806.78 801.308C1808.33 782.881 1796.5 770.024 1783.98 756.311C1773.79 745.169 1763.16 733.598 1760.84 718.856C1759.04 707.886 1761.19 698.972 1767.1 692.115C1782.7 674.288 1821.01 675.145 1843.89 675.745C1845.69 675.745 1847.41 675.831 1849.04 675.831C1852.04 675.917 1855.98 676.174 1860.44 676.431C1885.04 677.974 1926.18 680.63 1932.77 659.289L1934.32 659.803Z" fill="#481E0B" fill-opacity="0.1"/>
<path d="M1678.78 32.2178C1688.28 32.2178 1688.68 20.5178 1679.28 20.6178C1669.88 20.5178 1669.18 32.2178 1678.78 32.2178Z" fill="#481E0B" fill-opacity="0.1"/>
<path d="M1699.38 20.3177C1708.78 20.3177 1708.88 8.71777 1699.78 8.71777C1690.58 8.71777 1689.88 20.3177 1699.38 20.3177Z" fill="#481E0B" fill-opacity="0.1"/>
<path d="M1733.58 17.3177C1742.98 17.3177 1742.38 5.71777 1733.28 5.71777C1724.18 5.81777 1724.18 17.3177 1733.58 17.3177Z" fill="#481E0B" fill-opacity="0.1"/>
<path d="M1710.38 34.618C1719.88 34.618 1719.88 22.918 1710.48 22.918C1701.08 22.918 1700.88 34.618 1710.38 34.618Z" fill="#481E0B" fill-opacity="0.1"/>
<path d="M1729.38 49.5174C1738.98 49.5174 1738.88 37.8174 1729.38 37.8174C1719.78 37.8174 1719.78 49.5174 1729.38 49.5174Z" fill="#481E0B" fill-opacity="0.1"/>
<path d="M1755.28 44.7176C1764.88 44.7176 1764.58 33.0176 1755.08 33.0176C1745.48 33.0176 1745.68 44.7176 1755.28 44.7176Z" fill="#481E0B" fill-opacity="0.1"/>
<path d="M1757.98 16.7172C1767.38 16.7172 1766.28 5.11719 1757.18 5.11719C1748.08 5.21719 1748.68 16.7172 1757.98 16.7172Z" fill="#481E0B" fill-opacity="0.1"/>
<path d="M1679.98 56.118C1689.58 56.118 1689.58 44.418 1679.98 44.418C1670.38 44.418 1670.28 56.118 1679.98 56.118Z" fill="#481E0B" fill-opacity="0.1"/>
<path d="M1708.88 70.4178C1718.38 70.4178 1718.48 58.7178 1708.78 58.7178C1699.28 58.7178 1699.38 70.4178 1708.88 70.4178Z" fill="#481E0B" fill-opacity="0.1"/>
<path d="M1757.58 82.9178C1766.98 82.9178 1767.68 71.3178 1758.08 71.2178C1748.58 71.3178 1748.18 82.9178 1757.58 82.9178Z" fill="#481E0B" fill-opacity="0.1"/>
<path d="M1791.68 60.9178C1801.28 60.9178 1801.38 49.2178 1791.78 49.2178C1782.28 49.2178 1782.18 60.9178 1791.68 60.9178Z" fill="#481E0B" fill-opacity="0.1"/>
<path d="M1787.68 38.2176C1797.28 38.2176 1796.48 26.5176 1786.98 26.5176C1777.68 26.5176 1778.18 38.2176 1787.68 38.2176Z" fill="#481E0B" fill-opacity="0.1"/>
<path d="M1784.58 23.9171C1794.08 23.9171 1792.78 12.317 1783.48 12.317C1774.28 12.217 1775.18 23.9171 1784.58 23.9171Z" fill="#481E0B" fill-opacity="0.1"/>
<path d="M1723.88 98.3177C1733.08 98.3177 1733.38 86.7178 1723.98 86.7178C1714.58 86.7178 1714.68 98.3177 1723.88 98.3177Z" fill="#481E0B" fill-opacity="0.1"/>
<path d="M1686.88 88.2172C1696.18 88.2172 1695.88 76.6172 1686.38 76.6172C1676.88 76.6172 1677.48 88.2172 1686.88 88.2172Z" fill="#481E0B" fill-opacity="0.1"/>
<path d="M1685.08 106.518C1694.08 106.518 1693.58 95.0176 1684.28 95.0176C1674.98 95.0176 1676.08 106.518 1685.08 106.518Z" fill="#481E0B" fill-opacity="0.1"/>
<path d="M1707.38 110.018C1716.28 110.018 1716.28 98.5176 1707.08 98.5176C1697.88 98.5176 1698.48 110.018 1707.38 110.018Z" fill="#481E0B" fill-opacity="0.1"/>
<path d="M1733.68 124.618C1742.18 124.618 1743.18 113.218 1734.18 113.218C1725.28 113.218 1725.18 124.618 1733.68 124.618Z" fill="#481E0B" fill-opacity="0.1"/>
<path d="M1768.28 104.817C1777.38 104.817 1778.78 93.317 1769.48 93.317C1760.18 93.217 1759.38 104.817 1768.28 104.817Z" fill="#481E0B" fill-opacity="0.1"/>
<path d="M1650.48 79.3171C1659.88 79.3171 1659.38 67.6172 1649.78 67.6172C1640.18 67.7172 1640.98 79.3171 1650.48 79.3171Z" fill="#481E0B" fill-opacity="0.1"/>
<path d="M1650.78 102.417C1659.78 102.417 1658.58 90.9174 1649.28 90.8174C1639.88 90.9174 1641.68 102.417 1650.78 102.417Z" fill="#481E0B" fill-opacity="0.1"/>
<path d="M1669.98 125.717C1678.38 125.717 1677.08 114.417 1668.18 114.317C1659.28 114.417 1661.38 125.717 1669.98 125.717Z" fill="#481E0B" fill-opacity="0.1"/>
<path d="M1700.18 132.018C1708.48 132.018 1708.18 120.718 1699.48 120.718C1690.68 120.818 1691.88 132.118 1700.18 132.018Z" fill="#481E0B" fill-opacity="0.1"/>
<path d="M1718.08 142.918C1725.98 142.918 1726.48 131.818 1718.08 131.718C1709.58 131.718 1710.18 142.918 1718.08 142.918Z" fill="#481E0B" fill-opacity="0.1"/>
<path d="M1701.78 157.417C1708.98 157.417 1708.58 146.518 1700.78 146.518C1692.78 146.518 1694.48 157.417 1701.78 157.417Z" fill="#481E0B" fill-opacity="0.1"/>
<path d="M1679.88 150.718C1687.38 150.718 1685.78 139.718 1677.68 139.718C1669.48 139.718 1672.28 150.818 1679.88 150.718Z" fill="#481E0B" fill-opacity="0.1"/>
<path d="M1641.68 130.917C1649.88 130.917 1647.28 119.617 1638.58 119.617C1629.78 119.617 1633.28 130.917 1641.68 130.917Z" fill="#481E0B" fill-opacity="0.1"/>
<path d="M1637.38 114.718C1646.08 114.718 1644.08 103.318 1634.98 103.218C1625.78 103.318 1628.58 114.718 1637.38 114.718Z" fill="#481E0B" fill-opacity="0.1"/>
<path d="M1799.98 77.0174C1809.48 77.0174 1810.38 65.3174 1800.68 65.3174C1791.18 65.3174 1790.58 77.0174 1799.98 77.0174Z" fill="#481E0B" fill-opacity="0.1"/>
<path d="M1767.28 66.2176C1776.88 66.2176 1777.08 54.5176 1767.48 54.5176C1757.88 54.5176 1757.78 66.2176 1767.28 66.2176Z" fill="#481E0B" fill-opacity="0.1"/>
<path d="M1794.18 104.817C1803.28 104.817 1805.38 93.317 1795.98 93.317C1786.78 93.217 1785.28 104.817 1794.18 104.817Z" fill="#481E0B" fill-opacity="0.1"/>
<path d="M1773.08 128.018C1781.58 128.018 1784.08 116.718 1775.18 116.718C1766.38 116.718 1764.68 128.018 1773.08 128.018Z" fill="#481E0B" fill-opacity="0.1"/>
<path d="M1752.08 134.318C1760.28 134.318 1762.28 123.118 1753.48 123.018C1744.88 123.118 1743.88 134.418 1752.08 134.318Z" fill="#481E0B" fill-opacity="0.1"/>
<path d="M1741.98 148.518C1749.68 148.518 1751.58 137.518 1743.28 137.418C1735.08 137.418 1734.28 148.518 1741.98 148.518Z" fill="#481E0B" fill-opacity="0.1"/>
<path d="M1626.58 71.618C1635.98 71.618 1635.58 59.918 1625.98 59.918C1616.28 59.918 1616.88 71.618 1626.58 71.618Z" fill="#481E0B" fill-opacity="0.1"/>
<path d="M1650.98 51.9178C1660.48 51.9178 1660.68 40.2178 1651.18 40.2178C1641.58 40.2178 1641.28 51.9178 1650.98 51.9178Z" fill="#481E0B" fill-opacity="0.1"/>
<path d="M1659.08 20.9174C1668.48 20.9174 1669.38 9.31738 1660.18 9.31738C1650.98 9.31738 1649.58 20.9174 1659.08 20.9174Z" fill="#481E0B" fill-opacity="0.1"/>
<path d="M-85.0874 1480.84C-94.8386 1473.52 -104.229 1465.04 -113.077 1455.29C-156.145 1408.06 -192.26 1344.41 -209.506 1284.91C-238.669 1184.42 -179.801 1069.03 -83.5525 1037.97C-72.9887 1034.54 -62.786 1032.91 -53.2154 1033C-16.6483 1033.36 20.4604 1050.88 60.2779 1086.54C100.547 1122.66 100.998 1168.53 89.3509 1226.22C85.2879 1246.09 82.1278 1271.64 92.7819 1292.86C98.4701 1304.14 107.68 1313.35 116.618 1322.29C127.995 1333.67 139.732 1345.4 144.427 1361.57C151.831 1386.94 145.872 1417.36 128.717 1443.01C103.978 1479.84 62.8963 1505.12 18.7449 1510.63C-17.3707 1515.06 -53.3057 1504.67 -85.0874 1480.84ZM-82.7399 1040.77C-177.543 1071.38 -235.509 1185.14 -206.797 1284.19C-189.642 1343.24 -153.888 1406.53 -111 1453.39C-73.711 1494.2 -27.7539 1513.52 18.3838 1507.74C61.6322 1502.33 101.991 1477.59 126.279 1441.38C142.983 1416.46 148.761 1386.94 141.628 1362.38C137.114 1347.03 126.189 1336.01 114.542 1324.37C105.422 1315.25 96.0323 1305.86 90.1635 1294.21C79.058 1272.18 82.3987 1246 86.4617 1225.68C97.9284 1168.98 97.5672 1123.92 58.2915 1088.71C19.0158 1053.5 -17.4609 1036.25 -53.3057 1035.89C-62.6054 1035.8 -72.4469 1037.43 -82.7399 1040.77Z" fill="#481E0B" fill-opacity="0.1"/>
<path d="M-74.6128 1467.29C-83.6417 1460.61 -92.3094 1452.67 -100.435 1443.73C-141.878 1398.4 -176.459 1337.28 -192.982 1280.22C-205.442 1237.42 -200.295 1188.12 -178.897 1144.87C-156.866 1100.36 -121.112 1068.22 -78.3146 1054.4C-69.5566 1051.6 -61.1597 1050.16 -53.3949 1050.25C-27.2111 1050.52 -0.575818 1060.99 27.8652 1082.21C34.7272 1087.36 41.5892 1092.96 48.8123 1099.46C83.1221 1130.25 83.3027 1169.52 72.5583 1222.88C67.9535 1245.45 64.4323 1274.71 77.5242 1300.71C84.4764 1314.43 94.6791 1324.73 104.521 1334.57C115.265 1345.31 124.474 1354.61 127.905 1366.44C133.774 1386.67 128.628 1412.31 114.452 1433.44C92.3316 1466.12 55.7645 1488.6 16.5791 1493.48C-15.2929 1497.45 -45.9009 1488.69 -74.6128 1467.29ZM26.0594 1084.47C-1.93015 1063.61 -27.9334 1053.32 -53.4852 1053.14C-60.8889 1053.05 -69.0149 1054.4 -77.502 1057.2C-119.577 1070.74 -154.699 1102.35 -176.368 1146.23C-197.406 1188.75 -202.552 1237.33 -190.273 1279.49C-173.84 1336.1 -139.44 1396.87 -98.3588 1441.92C-90.3231 1450.68 -81.7456 1458.54 -72.8973 1465.13C-44.9077 1486.07 -14.9318 1494.65 16.1276 1490.77C54.5005 1485.98 90.3452 1463.95 111.834 1431.9C125.558 1411.5 130.614 1386.76 124.926 1367.25C121.675 1356.06 112.647 1347.03 102.263 1336.65C92.2413 1326.53 81.858 1316.15 74.7252 1301.97C61.3624 1275.16 64.974 1245.27 69.5787 1222.25C80.1426 1169.88 80.0523 1131.42 46.7356 1101.53C39.6028 1095.12 32.8311 1089.52 26.0594 1084.47Z" fill="#481E0B" fill-opacity="0.1"/>
<path d="M-64.2323 1453.48C-72.3583 1447.43 -80.2135 1440.21 -87.7075 1432.08C-127.435 1388.56 -160.571 1330.05 -176.462 1275.34C-187.657 1236.61 -182.962 1191.91 -163.46 1152.46C-143.506 1112.19 -111.363 1083.11 -73.0806 1070.74C-66.0381 1068.49 -59.5373 1067.31 -53.6685 1067.4C-25.4983 1067.68 4.38731 1081.22 30.4808 1105.51C55.4006 1128.71 64.8809 1155.53 60.3665 1190.11C59.283 1198.32 57.6578 1206.63 56.0326 1214.67C53.4142 1228.12 50.6153 1242.02 50.4347 1255.84C49.9832 1288.79 63.1654 1317.69 92.0579 1346.58C101.087 1355.61 108.942 1363.46 111.109 1371.05C116.165 1388.29 112.915 1406.26 101.899 1423.05C82.2164 1453.03 42.0378 1472.8 14.2288 1476.32C-12.8579 1479.84 -39.3126 1472.08 -64.2323 1453.48ZM14.59 1095.94C-7.35027 1079.59 -31.0963 1070.56 -53.5782 1070.38C-59.1762 1070.29 -65.4061 1071.38 -72.0875 1073.54C-109.648 1085.64 -141.159 1114.17 -160.842 1153.81C-179.983 1192.54 -184.678 1236.61 -173.663 1274.62C-157.952 1328.88 -124.997 1387.03 -85.5405 1430.19C-78.2271 1438.22 -70.4623 1445.26 -62.5168 1451.22C-38.1388 1469.37 -12.4064 1476.96 14.0482 1473.61C41.2252 1470.27 80.4106 1450.86 99.6422 1421.7C110.296 1405.45 113.276 1388.74 108.491 1372.13C106.504 1365.18 98.9199 1357.59 90.1618 1348.84C61.0888 1319.76 47.1843 1289.33 47.726 1256.02C47.9066 1241.93 50.7056 1227.85 53.3239 1214.3C54.8589 1206.36 56.484 1198.05 57.5675 1189.93C61.9917 1156.43 52.7822 1130.34 28.5848 1107.85C24.0703 1103.43 19.3753 1099.55 14.59 1095.94Z" fill="#481E0B" fill-opacity="0.1"/>
<path d="M-54.1178 1438.85C-60.6186 1434.07 -66.9388 1428.38 -73.0785 1422.06C-111.812 1382.33 -143.414 1327.08 -159.846 1270.55C-169.868 1235.97 -165.534 1195.7 -147.928 1160.13C-128.335 1120.58 -79.9404 1069.48 -26.8505 1090.61C13.9601 1106.86 37.5255 1129.16 43.2137 1156.97C47.0962 1175.75 43.1234 1194.44 39.241 1212.59C37.6158 1220.17 35.9906 1228.03 34.9072 1235.79C31.0247 1264.87 35.0877 1293.4 46.5544 1316.15C53.2358 1329.42 63.0773 1340.89 72.7382 1351.27C97.2066 1377.64 99.3735 1400.39 79.6905 1422.96C62.5356 1442.55 37.345 1456.19 12.3349 1459.35C-9.6956 1462.06 -31.8164 1455.38 -53.5761 1439.3C-53.8469 1439.12 -53.9372 1438.94 -54.1178 1438.85ZM9.98739 1113.72C-0.215263 1106.14 -12.8557 1099.28 -28.0243 1093.23C-79.3084 1072.82 -126.349 1122.84 -145.49 1161.39C-162.826 1196.34 -167.069 1235.79 -157.228 1269.74C-140.976 1325.9 -109.555 1380.62 -71.1824 1420.07C-64.9525 1426.48 -58.4517 1432.08 -52.0411 1436.96C-30.9135 1452.58 -9.42474 1459.17 11.7932 1456.46C36.1712 1453.39 60.7298 1440.21 77.343 1421.07C95.9425 1399.76 93.7756 1378.27 70.481 1353.17C60.8201 1342.7 50.8883 1331.05 44.0263 1317.41C32.3791 1294.21 28.1355 1265.05 32.1082 1235.43C33.1917 1227.67 34.8169 1219.72 36.4421 1212.05C40.2342 1194.26 44.1166 1175.84 40.4148 1157.6C36.8935 1140.9 26.7811 1126.27 9.98739 1113.72Z" fill="#481E0B" fill-opacity="0.1"/>
<path d="M-43.8253 1425.76C-50.0552 1421.16 -56.0143 1415.65 -62.2442 1408.79C-98.5404 1368.97 -128.878 1315.52 -143.324 1265.68C-152.172 1235.16 -148.199 1199.5 -132.489 1167.72C-116.689 1135.84 -91.7687 1113 -62.4248 1103.52C-57.8201 1102.08 -55.1114 1101.8 -53.9377 1101.89C-29.5596 1102.17 -2.11177 1116.88 14.4111 1138.64C31.7466 1161.49 26.6904 1187.31 21.8148 1212.23C21.0022 1216.11 20.2799 1220.08 19.5576 1224.06C14.2305 1254.57 16.7586 1284.37 26.871 1310.46C32.1078 1323.82 39.4212 1336.92 48.8112 1349.38C51.6102 1353.17 55.312 1356.78 59.2847 1360.66C70.5709 1371.86 83.3919 1384.5 74.9047 1402.02C60.9099 1430.82 23.6206 1444.9 -4.27871 1441.92C-18.2735 1440.48 -31.1848 1435.15 -43.6447 1425.85C-43.735 1425.85 -43.8253 1425.85 -43.8253 1425.76ZM-6.17478 1122.48C-20.7113 1111.65 -38.0468 1105.05 -54.0279 1104.87C-55.1114 1104.87 -57.4589 1105.05 -61.6122 1106.41C-90.3241 1115.71 -114.612 1137.92 -130.051 1169.16C-145.491 1200.31 -149.283 1235.25 -140.705 1265.05C-126.349 1314.43 -96.2832 1367.52 -60.2579 1406.98C-54.2085 1413.66 -48.3397 1419.08 -42.2904 1423.5C-42.2001 1423.5 -42.2001 1423.59 -42.1098 1423.59C-30.0111 1432.62 -17.6415 1437.68 -4.09813 1439.03C22.808 1441.92 58.743 1428.38 72.2864 1400.75C79.8706 1385.13 68.4039 1373.75 57.2081 1362.74C53.2354 1358.77 49.4432 1355.06 46.4637 1351.09C36.9834 1338.45 29.3991 1325.09 24.1623 1311.55C13.7791 1285 11.251 1254.57 16.6683 1223.6C17.3906 1219.63 18.113 1215.66 18.9256 1211.78C23.8915 1186.31 28.5865 1162.3 12.0636 1140.54C7.00741 1133.68 0.777469 1127.63 -6.17478 1122.48Z" fill="#481E0B" fill-opacity="0.1"/>
<path d="M1704.66 1382.97C1704.06 1383.17 1703.46 1382.87 1703.36 1382.27C1703.36 1382.17 1703.16 1381.77 1702.86 1380.97C1700.06 1375.17 1686.66 1363.37 1673.66 1351.97C1649.56 1330.87 1633.96 1316.47 1636.46 1309.17C1637.36 1306.77 1639.96 1305.47 1644.66 1305.27C1676.46 1304.07 1701.26 1369.87 1704.96 1380.27C1705.16 1380.77 1705.36 1381.17 1705.46 1381.67C1705.56 1382.17 1705.26 1382.77 1704.86 1382.97C1704.76 1382.97 1704.76 1382.97 1704.66 1382.97ZM1638.56 1309.97C1636.26 1316.37 1657.76 1335.17 1675.06 1350.37C1685.16 1359.17 1694.36 1367.27 1699.96 1373.47C1691.86 1353.47 1670.16 1306.67 1644.76 1307.67C1643.26 1307.77 1641.66 1307.87 1640.36 1308.47C1639.46 1308.67 1638.86 1309.17 1638.56 1309.97Z" fill="#481E0B" fill-opacity="0.1"/>
<path d="M1729.06 1367.77C1728.56 1367.47 1728.36 1366.87 1728.66 1366.27C1728.66 1366.17 1728.86 1365.77 1729.26 1365.07C1731.56 1359.07 1730.76 1341.17 1729.96 1323.87C1728.56 1291.87 1728.16 1270.67 1735.16 1267.47H1735.26C1737.56 1266.47 1740.36 1267.57 1743.66 1270.77C1766.46 1292.87 1736.06 1356.37 1731.16 1366.17C1730.96 1366.67 1730.76 1367.07 1730.46 1367.47C1730.36 1367.67 1730.16 1367.77 1729.96 1367.87C1729.76 1367.97 1729.36 1367.97 1729.06 1367.77ZM1736.16 1269.57C1729.96 1272.37 1731.26 1300.97 1732.26 1323.87C1732.86 1337.27 1733.36 1349.47 1732.76 1357.77C1741.66 1338.07 1760.46 1290.07 1742.16 1272.37C1740.36 1270.67 1737.96 1268.77 1736.16 1269.57C1736.16 1269.47 1736.16 1269.47 1736.16 1269.57Z" fill="#481E0B" fill-opacity="0.1"/>
<path d="M1728.76 1372.87C1728.16 1372.97 1727.66 1372.47 1727.56 1371.97C1727.56 1371.87 1727.46 1371.47 1727.36 1370.57C1725.76 1364.37 1714.76 1350.27 1704.06 1336.57C1684.36 1311.27 1671.76 1294.27 1675.66 1287.57C1676.96 1285.37 1679.86 1284.57 1684.46 1285.27C1715.86 1290.07 1727.86 1359.37 1729.56 1370.27C1729.66 1370.77 1729.76 1371.27 1729.76 1371.67C1729.76 1372.17 1729.46 1372.57 1729.06 1372.77C1728.96 1372.87 1728.86 1372.87 1728.76 1372.87ZM1677.56 1288.77C1674.16 1294.67 1691.66 1317.17 1705.86 1335.27C1714.06 1345.87 1721.66 1355.47 1725.96 1362.57C1721.76 1341.37 1709.26 1291.37 1684.16 1287.47C1682.36 1287.17 1680.26 1287.07 1678.86 1287.67C1678.26 1287.97 1677.86 1288.27 1677.56 1288.77Z" fill="#481E0B" fill-opacity="0.1"/>
<path d="M1726.26 1398.07C1725.96 1397.57 1726.06 1396.97 1726.56 1396.57C1726.56 1396.57 1727.06 1396.27 1727.76 1395.77C1732.66 1391.57 1740.56 1375.57 1748.26 1360.07C1762.46 1331.37 1772.36 1312.57 1780.06 1313.17C1782.66 1313.37 1784.56 1315.67 1785.96 1320.07C1795.26 1350.47 1737.96 1391.37 1728.96 1397.57C1728.56 1397.87 1728.16 1398.17 1727.76 1398.37H1727.66C1727.06 1398.67 1726.56 1398.47 1726.26 1398.07ZM1750.16 1361.07C1744.26 1373.07 1738.76 1383.97 1734.26 1390.97C1751.56 1377.97 1791.16 1344.97 1783.76 1320.77C1783.06 1318.37 1781.76 1315.57 1779.86 1315.37C1779.36 1315.37 1778.76 1315.47 1778.26 1315.67C1771.16 1318.67 1759.66 1342.07 1750.16 1361.07Z" fill="#481E0B" fill-opacity="0.1"/>
<path d="M1769.36 1432.07C1768.76 1431.87 1768.46 1431.37 1768.56 1430.77C1768.66 1430.37 1768.86 1429.87 1769.06 1429.37C1772.76 1419.07 1797.36 1353.07 1829.16 1354.17C1833.76 1354.37 1836.46 1355.57 1837.36 1358.07C1839.96 1365.37 1824.36 1379.77 1800.36 1400.97C1787.36 1412.37 1773.96 1424.27 1771.26 1430.07C1770.96 1430.87 1770.86 1431.37 1770.76 1431.37C1770.66 1431.67 1770.46 1431.87 1770.16 1432.07C1769.86 1432.07 1769.56 1432.07 1769.36 1432.07ZM1774.06 1422.37C1779.66 1416.17 1788.76 1408.07 1798.86 1399.27C1816.06 1384.07 1837.56 1365.17 1835.26 1358.77C1834.56 1356.97 1831.56 1356.47 1829.06 1356.37C1825.76 1356.27 1822.56 1356.97 1819.46 1358.27C1798.36 1367.17 1781.06 1404.97 1774.06 1422.37Z" fill="#481E0B" fill-opacity="0.1"/>
<path d="M1764.56 1446.57C1764.06 1446.27 1763.96 1445.57 1764.26 1445.07C1764.46 1444.67 1764.76 1444.37 1765.16 1443.97C1772.26 1435.57 1818.66 1382.67 1847.96 1394.97C1852.26 1396.77 1854.26 1398.87 1854.26 1401.47C1854.16 1409.17 1834.46 1417.17 1804.46 1428.47C1788.26 1434.57 1771.56 1440.87 1766.96 1445.37C1766.36 1445.97 1766.06 1446.37 1766.06 1446.47C1765.96 1446.57 1765.76 1446.67 1765.66 1446.77C1765.36 1446.87 1764.86 1446.87 1764.56 1446.57ZM1772.36 1439.27C1779.76 1435.47 1791.16 1431.17 1803.76 1426.37C1825.26 1418.27 1851.96 1408.17 1852.16 1401.37C1852.16 1399.47 1849.46 1397.87 1847.26 1396.97C1840.16 1393.97 1831.96 1395.27 1823.36 1398.87C1803.56 1407.17 1782.56 1428.17 1772.36 1439.27Z" fill="#481E0B" fill-opacity="0.1"/>
<path d="M1709.66 1394.17C1709.66 1394.17 1709.26 1393.77 1708.66 1393.17C1703.76 1388.97 1686.66 1383.77 1670.16 1378.67C1639.56 1369.27 1619.36 1362.57 1618.76 1354.87C1618.56 1352.27 1620.46 1350.07 1624.66 1347.97C1653.16 1333.77 1702.76 1383.77 1710.36 1391.67C1710.76 1392.07 1711.06 1392.37 1711.36 1392.77C1711.76 1393.27 1711.66 1393.87 1711.16 1394.27C1711.06 1394.37 1710.96 1394.37 1710.86 1394.47C1710.46 1394.67 1709.96 1394.57 1709.66 1394.17ZM1625.66 1349.97C1623.46 1351.07 1620.86 1352.77 1620.96 1354.67C1621.46 1361.47 1648.86 1369.77 1670.86 1376.57C1683.66 1380.47 1695.36 1384.07 1702.96 1387.37C1687.56 1372.67 1649.66 1339.77 1626.76 1349.37C1626.36 1349.67 1625.96 1349.77 1625.66 1349.97Z" fill="#481E0B" fill-opacity="0.1"/>
<path d="M1683.76 1422.77C1683.76 1422.77 1683.36 1422.37 1682.76 1421.77C1677.76 1417.67 1660.56 1412.87 1643.96 1408.17C1613.16 1399.47 1592.86 1393.17 1592.06 1385.47C1591.76 1382.87 1593.66 1380.57 1597.76 1378.47C1625.86 1363.77 1676.66 1412.57 1684.36 1420.37C1684.76 1420.67 1685.06 1421.07 1685.36 1421.37C1685.76 1421.87 1685.66 1422.47 1685.26 1422.87C1685.16 1422.97 1685.06 1422.97 1684.96 1423.07C1684.56 1423.17 1684.06 1423.07 1683.76 1422.77ZM1598.76 1380.37C1596.56 1381.47 1593.96 1383.27 1594.16 1385.17C1594.86 1391.97 1622.36 1399.67 1644.46 1405.97C1657.36 1409.57 1669.06 1412.97 1676.76 1416.17C1661.16 1401.87 1622.86 1370.07 1600.16 1379.67C1599.76 1379.87 1599.26 1380.07 1598.76 1380.37Z" fill="#481E0B" fill-opacity="0.1"/>
<path d="M1713.86 1441.87C1713.76 1441.87 1713.36 1441.77 1712.46 1441.57C1706.06 1440.87 1689.06 1446.27 1672.46 1451.37C1641.86 1460.97 1621.46 1466.77 1616.56 1460.77C1614.96 1458.77 1615.26 1455.77 1617.56 1451.77C1633.16 1424.07 1702.26 1437.27 1712.96 1439.47C1713.46 1439.57 1713.96 1439.67 1714.36 1439.77C1714.96 1439.97 1715.26 1440.57 1715.06 1441.07C1714.96 1441.37 1714.76 1441.67 1714.46 1441.77C1714.36 1441.87 1714.16 1441.87 1713.86 1441.87ZM1619.56 1452.87C1618.36 1455.07 1617.16 1457.87 1618.36 1459.37C1622.66 1464.67 1649.96 1456.17 1671.86 1449.27C1684.66 1445.27 1696.26 1441.67 1704.46 1440.07C1687.96 1437.37 1653.36 1433.17 1632.86 1441.77C1627.06 1444.37 1622.36 1447.87 1619.56 1452.87Z" fill="#481E0B" fill-opacity="0.1"/>
<path d="M1763.56 1481.77C1763.46 1481.77 1763.06 1481.67 1762.16 1481.47C1755.76 1480.77 1738.76 1486.17 1722.16 1491.27C1691.56 1500.87 1671.16 1506.67 1666.26 1500.67C1664.66 1498.67 1664.96 1495.67 1667.26 1491.67C1682.86 1463.97 1751.96 1477.17 1762.66 1479.37C1763.16 1479.47 1763.66 1479.57 1764.06 1479.67C1764.66 1479.87 1764.96 1480.47 1764.76 1480.97C1764.66 1481.27 1764.46 1481.57 1764.16 1481.67C1764.06 1481.77 1763.86 1481.87 1763.56 1481.77ZM1669.26 1492.77C1668.06 1494.97 1666.86 1497.77 1668.06 1499.27C1672.36 1504.57 1699.66 1496.07 1721.56 1489.17C1734.36 1485.17 1745.96 1481.57 1754.16 1479.97C1737.66 1477.27 1703.06 1473.07 1682.56 1481.67C1676.76 1484.27 1672.06 1487.77 1669.26 1492.77Z" fill="#481E0B" fill-opacity="0.1"/>
<path d="M1797.36 1521.87C1797.46 1521.87 1797.56 1521.77 1797.66 1521.67C1798.06 1521.27 1798.16 1520.57 1797.76 1520.07C1747.06 1465.37 1706.06 1382.07 1705.66 1381.27C1705.36 1380.77 1704.76 1380.47 1704.16 1380.77C1703.66 1381.07 1703.36 1381.67 1703.66 1382.27C1704.06 1383.07 1745.16 1466.67 1796.16 1521.67C1796.46 1521.97 1796.96 1522.07 1797.36 1521.87Z" fill="#481E0B" fill-opacity="0.1"/>
<path d="M1732.36 1432.17C1732.86 1431.97 1733.16 1431.37 1732.96 1430.87C1732.86 1430.47 1721.76 1388.57 1733.36 1359.97C1733.56 1359.37 1733.36 1358.77 1732.76 1358.57C1732.16 1358.37 1731.56 1358.57 1731.36 1359.17C1719.46 1388.47 1730.76 1430.97 1730.86 1431.47C1731.06 1432.07 1731.66 1432.37 1732.16 1432.27C1732.26 1432.17 1732.26 1432.17 1732.36 1432.17Z" fill="#481E0B" fill-opacity="0.1"/>
<path d="M1745.26 1452.87C1745.56 1452.77 1745.76 1452.47 1745.86 1452.17C1746.06 1451.57 1745.66 1450.97 1745.16 1450.77C1744.76 1450.67 1704.46 1438.67 1684.06 1420.17C1683.66 1419.77 1682.96 1419.77 1682.46 1420.27C1682.06 1420.67 1682.06 1421.37 1682.56 1421.87C1703.26 1440.67 1744.06 1452.77 1744.46 1452.87C1744.76 1453.07 1744.96 1452.97 1745.26 1452.87Z" fill="#481E0B" fill-opacity="0.1"/>
<path d="M1768.16 1486.27C1768.66 1486.07 1768.96 1485.47 1768.76 1484.97C1768.66 1484.67 1759.86 1452.77 1770.66 1431.47C1770.96 1430.97 1770.76 1430.27 1770.16 1429.97C1769.66 1429.67 1768.96 1429.87 1768.66 1430.47C1757.46 1452.57 1766.26 1484.17 1766.66 1485.57C1766.86 1486.17 1767.46 1486.47 1768.06 1486.37C1768.06 1486.27 1768.06 1486.27 1768.16 1486.27Z" fill="#481E0B" fill-opacity="0.1"/>
<path d="M123.035 151.857C127.835 149.957 137.635 154.457 147.935 159.257C153.535 161.857 159.335 164.457 163.635 165.757C171.235 167.957 189.435 174.757 195.335 190.857C199.635 202.557 196.335 216.557 185.635 232.457C185.535 232.557 185.435 232.657 185.335 232.757C184.935 232.957 143.735 254.457 124.535 230.257C112.335 214.857 115.735 198.357 118.635 183.757C120.335 175.257 122.035 167.257 120.435 160.357C119.535 156.557 119.935 153.957 121.735 152.557C122.135 152.257 122.535 152.057 123.035 151.857ZM184.335 231.257C194.635 215.857 197.735 202.457 193.735 191.457C188.135 176.057 170.535 169.557 163.135 167.457C158.635 166.157 153.035 163.557 147.135 160.857C137.335 156.357 126.235 151.157 122.835 153.957C121.635 154.857 121.435 156.957 122.135 160.057C123.835 167.357 122.135 175.457 120.335 184.157C117.435 198.357 114.135 214.457 125.835 229.157C143.635 251.357 181.335 232.857 184.335 231.257Z" fill="#481E0B" fill-opacity="0.1"/>
<path d="M121.539 152.857C121.839 152.757 122.239 152.857 122.539 153.057C122.639 153.257 137.439 169.357 154.739 194.757C171.939 220.057 185.439 231.057 185.539 231.157C185.939 231.457 185.939 232.057 185.639 232.357C185.339 232.757 184.739 232.757 184.439 232.457C184.339 232.357 170.639 221.157 153.339 195.657C136.139 170.357 121.439 154.257 121.339 154.157C121.039 153.757 121.039 153.257 121.439 152.957C121.339 152.957 121.439 152.857 121.539 152.857Z" fill="#481E0B" fill-opacity="0.1"/>
<path d="M127.735 151.656C128.035 151.556 128.435 151.556 128.635 151.856C128.835 151.956 144.035 166.456 170.135 195.156C184.235 210.656 191.035 221.356 189.735 226.156C189.335 227.656 188.235 228.056 188.135 228.056C187.635 228.156 187.135 227.956 187.035 227.456C186.935 227.056 187.135 226.556 187.535 226.356C187.535 226.356 187.935 226.156 188.035 225.556C188.435 223.556 187.435 216.856 168.835 196.356C142.735 167.756 127.535 153.356 127.335 153.156C126.935 152.856 126.935 152.256 127.335 151.956C127.535 151.856 127.635 151.756 127.735 151.656Z" fill="#481E0B" fill-opacity="0.1"/>
<path d="M152.937 161.857C153.237 161.757 153.637 161.757 153.937 162.057C154.037 162.157 161.137 169.557 172.637 180.157C184.237 190.857 196.137 208.357 196.237 208.557C196.537 208.957 196.437 209.457 196.037 209.757C195.637 210.057 195.137 209.957 194.837 209.557C194.737 209.357 182.837 192.057 171.437 181.457C159.937 170.857 152.737 163.357 152.737 163.257C152.437 162.957 152.437 162.357 152.737 162.057C152.737 161.957 152.837 161.857 152.937 161.857Z" fill="#481E0B" fill-opacity="0.1"/>
<path d="M120.836 174.856C121.136 174.756 121.536 174.856 121.836 175.156C121.936 175.256 127.836 182.556 142.336 202.456C156.736 222.256 174.936 235.556 175.136 235.656C175.536 235.956 175.636 236.456 175.336 236.856C175.036 237.256 174.536 237.356 174.136 237.056C173.936 236.956 155.537 223.456 140.937 203.456C126.437 183.556 120.537 176.356 120.437 176.256C120.137 175.856 120.136 175.356 120.536 175.056C120.636 174.956 120.736 174.956 120.836 174.856Z" fill="#481E0B" fill-opacity="0.1"/>
<path d="M117.138 194.657C117.538 194.457 117.938 194.657 118.238 195.057C118.238 195.157 123.038 203.057 130.538 215.957C137.938 228.557 157.538 239.757 157.738 239.857C158.138 240.057 158.338 240.657 158.038 241.057C157.838 241.457 157.238 241.657 156.838 241.357C156.038 240.857 136.638 229.857 129.038 216.757C121.538 203.957 116.738 195.957 116.738 195.857C116.438 195.457 116.638 194.857 117.038 194.657H117.138Z" fill="#481E0B" fill-opacity="0.1"/>
<path d="M147.539 61.1563C155.739 57.9563 166.439 55.8563 176.639 59.9563C188.139 64.6563 196.339 76.4563 200.939 95.0563C200.939 95.1563 200.939 95.3563 200.939 95.4563C200.839 95.9563 189.039 140.856 158.139 138.756C138.539 137.456 128.539 123.856 119.739 111.856C114.639 104.856 109.839 98.2563 103.639 94.8563C100.239 92.9563 98.6388 90.8563 98.7388 88.6563C99.0388 83.2563 109.839 78.6563 121.239 73.8563C126.939 71.4563 132.739 68.9563 136.639 66.5563C139.039 65.0563 142.839 62.9563 147.539 61.1563ZM199.139 95.3563C194.639 77.4563 186.839 66.0563 175.939 61.6563C160.739 55.4563 144.039 64.1563 137.539 68.1563C133.539 70.6563 127.939 73.0563 121.939 75.5563C112.039 79.7563 100.739 84.5563 100.439 88.8563C100.339 90.3563 101.739 91.8563 104.439 93.4563C110.939 97.0563 115.839 103.856 121.139 110.956C129.739 122.656 139.439 135.856 158.239 137.156C186.639 138.956 198.239 98.5563 199.139 95.3563Z" fill="#481E0B" fill-opacity="0.1"/>
<path d="M83.1383 83.9563C83.4383 83.8563 83.8384 83.8563 84.0384 84.1563C86.9384 87.0563 96.3383 88.2563 99.6383 88.4563C99.8383 88.4563 121.638 88.3563 152.138 92.6563C182.438 96.9563 199.638 94.3563 199.838 94.3563C200.338 94.2563 200.738 94.6563 200.838 95.0563C200.938 95.5563 200.538 95.9563 200.138 96.0563C199.938 96.0563 182.438 98.6563 151.938 94.3563C121.538 90.0563 99.8383 90.1563 99.6383 90.1563C99.0383 90.1563 86.8383 89.3563 82.8383 85.3563C82.5383 85.0563 82.5383 84.4563 82.8383 84.1563C82.9383 84.0563 83.0383 84.0563 83.1383 83.9563Z" fill="#481E0B" fill-opacity="0.1"/>
<path d="M102.635 83.1561C102.735 83.1561 102.835 83.1561 102.835 83.0561C103.035 83.0561 124.035 81.4561 162.835 81.4561C183.835 81.4561 196.335 83.6561 198.935 87.7561C199.735 89.0561 199.335 90.1561 199.235 90.2561C199.035 90.6561 198.535 90.8561 198.035 90.6561C197.635 90.4561 197.435 89.9561 197.635 89.5561C197.635 89.5561 197.735 89.1561 197.335 88.6561C196.135 87.0561 190.435 83.2561 162.835 83.2561C124.135 83.2561 103.235 84.8561 103.035 84.8561C102.535 84.8561 102.135 84.5561 102.135 84.0561C102.035 83.6561 102.235 83.3561 102.635 83.1561Z" fill="#481E0B" fill-opacity="0.1"/>
<path d="M127.037 71.3565C127.137 71.3565 127.237 71.2565 127.337 71.2565C127.437 71.2565 137.737 70.9565 153.337 69.6565C169.037 68.2565 190.037 71.1565 190.237 71.2565C190.737 71.3565 191.038 71.7565 190.938 72.2565C190.837 72.7565 190.438 73.0565 189.938 72.9565C189.737 72.9565 168.938 70.0565 153.438 71.3565C137.837 72.6565 127.437 72.9565 127.337 72.9565C126.837 72.9565 126.438 72.5565 126.438 72.0565C126.437 71.8565 126.737 71.4565 127.037 71.3565Z" fill="#481E0B" fill-opacity="0.1"/>
<path d="M115.137 103.956C115.237 103.956 115.337 103.856 115.537 103.856C115.637 103.856 125.037 104.356 149.537 106.956C173.837 109.556 195.937 105.056 196.237 105.056C196.737 104.956 197.137 105.256 197.237 105.756C197.337 106.256 197.037 106.656 196.537 106.756C196.337 106.756 173.937 111.356 149.337 108.756C124.937 106.156 115.537 105.656 115.437 105.656C114.937 105.656 114.537 105.256 114.637 104.756C114.537 104.356 114.837 104.056 115.137 103.956Z" fill="#481E0B" fill-opacity="0.1"/>
<path d="M127.238 119.856C127.338 119.756 127.538 119.756 127.738 119.856C127.838 119.856 136.938 121.656 151.538 124.756C165.838 127.756 187.238 120.756 187.538 120.756C188.038 120.556 188.538 120.856 188.638 121.356C188.838 121.856 188.638 122.356 188.038 122.456C187.138 122.756 165.938 129.656 151.138 126.556C136.638 123.456 127.538 121.656 127.438 121.656C126.938 121.556 126.638 121.056 126.738 120.656C126.838 120.256 127.038 119.956 127.238 119.856Z" fill="#481E0B" fill-opacity="0.1"/>
<path d="M119.735 -25.4438C123.935 -27.0438 128.635 -28.0438 133.635 -27.7438C146.035 -26.9438 157.535 -18.3438 167.735 -2.14382C167.835 -2.04382 167.835 -1.84382 167.835 -1.74382C167.835 -1.24382 170.935 45.0562 141.035 52.8562C122.035 57.8562 108.235 48.0562 96.135 39.4562C89.035 34.4562 82.435 29.7562 75.435 28.3562C71.535 27.6562 69.4349 26.1562 68.8349 24.0562C67.4349 18.8562 76.235 11.0562 85.535 2.85618C90.135 -1.24382 94.9349 -5.44382 97.8349 -8.94382C101.435 -13.1438 109.335 -21.4438 119.735 -25.4438ZM166.135 -1.34382C156.235 -16.9438 145.235 -25.2438 133.435 -25.9438C117.135 -27.0438 103.935 -13.5438 99.135 -7.64382C96.135 -4.04382 91.535 0.0561781 86.635 4.35618C78.535 11.5562 69.335 19.6562 70.535 23.7562C70.935 25.1562 72.7349 26.2562 75.8349 26.8562C83.1349 28.2562 89.9349 33.0562 97.2349 38.1562C109.035 46.5562 122.435 56.0562 140.635 51.2562C168.135 44.0562 166.335 2.05618 166.135 -1.34382Z" fill="#481E0B" fill-opacity="0.1"/>
<path d="M58.9375 20.3565C59.3375 20.1565 59.7375 20.3565 60.0375 20.7565C61.5375 23.3565 67.4375 23.7565 69.7375 23.6565C71.5375 23.0565 91.7374 16.3565 120.837 11.0565C150.937 5.55654 166.437 -2.34346 166.637 -2.44346C167.037 -2.64346 167.637 -2.54346 167.837 -2.04346C168.037 -1.64346 167.938 -1.04346 167.438 -0.843464C167.238 -0.743464 151.537 7.25654 121.137 12.8565C91.0375 18.4565 70.4375 25.3565 70.2375 25.4565C70.1375 25.4565 70.0375 25.4565 69.9375 25.4565C69.5375 25.4565 60.9375 25.7565 58.5375 21.7565C58.3375 21.3565 58.4374 20.7565 58.8374 20.5565C58.8374 20.4565 58.9375 20.4565 58.9375 20.3565Z" fill="#481E0B" fill-opacity="0.1"/>
<path d="M80.536 13.7563C89.736 10.1563 105.436 4.3563 127.336 -3.0437C147.236 -9.7437 159.736 -11.6437 163.536 -8.5437C164.736 -7.5437 164.636 -6.4437 164.636 -6.3437C164.536 -5.8437 164.136 -5.5437 163.636 -5.5437C163.136 -5.6437 162.836 -6.0437 162.836 -6.4437C162.836 -6.4437 162.836 -6.8437 162.236 -7.2437C160.636 -8.4437 154.036 -10.2437 127.736 -1.4437C91.0359 10.8563 71.736 18.9563 71.536 19.0563C71.036 19.1563 70.536 19.0563 70.436 18.5563C70.236 18.1563 70.436 17.5563 70.936 17.4563C71.136 17.5563 74.336 16.1563 80.536 13.7563Z" fill="#481E0B" fill-opacity="0.1"/>
<path d="M117.839 -12.5437C131.939 -18.0437 149.839 -21.3437 150.039 -21.4437C150.539 -21.5437 150.939 -21.2437 151.039 -20.7437C151.139 -20.2437 150.839 -19.8437 150.339 -19.7437C150.139 -19.7437 129.539 -15.8437 115.239 -9.64373C100.839 -3.44373 91.1386 0.156269 91.0386 0.156269C90.5386 0.356269 90.0387 0.0562691 89.9387 -0.343731C89.7387 -0.743731 90.0387 -1.24373 90.4387 -1.44373C90.5387 -1.44373 100.239 -5.04373 114.539 -11.2437C115.639 -11.6437 116.739 -12.0437 117.839 -12.5437Z" fill="#481E0B" fill-opacity="0.1"/>
<path d="M89.436 33.2559C89.536 33.2559 89.536 33.2559 89.436 33.2559C89.636 33.1559 98.636 30.6559 122.736 25.4559C146.636 20.2559 166.136 8.95586 166.336 8.85586C166.736 8.65586 167.336 8.75586 167.536 9.15586C167.736 9.55586 167.636 10.1559 167.236 10.3559C167.036 10.4559 147.236 21.9559 123.036 27.1559C99.036 32.3559 90.036 34.8559 89.936 34.9559C89.436 35.0559 88.9359 34.8559 88.8359 34.3559C88.8359 33.8559 89.036 33.4559 89.436 33.2559Z" fill="#481E0B" fill-opacity="0.1"/>
<path d="M106.137 44.5561C106.237 44.5561 106.237 44.5561 106.337 44.4561C106.437 44.4561 115.637 43.2561 130.438 41.5561C144.938 39.9561 163.037 26.4561 163.237 26.3561C163.637 26.0561 164.137 26.1561 164.438 26.5561C164.738 26.9561 164.637 27.4561 164.237 27.7561C163.437 28.3561 145.537 41.6561 130.537 43.2561C115.737 44.9561 106.538 46.1561 106.438 46.1561C105.938 46.2561 105.538 45.8561 105.438 45.3561C105.438 45.0561 105.737 44.7561 106.137 44.5561Z" fill="#481E0B" fill-opacity="0.1"/>
<path d="M68.8365 102.556C69.6365 102.256 70.4365 102.156 71.2365 102.256C76.5365 103.156 79.8365 114.456 83.3365 126.356C85.0365 132.256 86.8365 138.356 88.7365 142.456C92.0365 149.656 98.9366 167.856 90.6366 182.856C84.6366 193.756 71.9366 200.456 52.9366 202.856C52.8366 202.856 52.6366 202.856 52.5366 202.756C52.1366 202.556 8.83657 185.656 14.5366 155.256C18.1366 135.956 32.8365 127.656 45.7365 120.356C53.2365 116.056 60.4366 112.056 64.5366 106.356C65.9366 104.456 67.4365 103.156 68.8365 102.556ZM70.6366 196.956C79.3366 193.556 85.4366 188.656 89.0366 182.156C96.9366 167.856 90.3366 150.256 87.1366 143.256C85.1366 139.056 83.4366 133.156 81.6366 126.856C78.6366 116.456 75.1366 104.756 70.9366 103.956C69.4366 103.656 67.7366 104.856 65.9366 107.456C61.5366 113.456 54.2366 117.556 46.5366 121.956C33.9366 129.056 19.6366 137.156 16.1366 155.656C10.9366 183.656 49.6365 199.856 52.8365 201.156C59.6365 200.356 65.5366 198.956 70.6366 196.956Z" fill="#481E0B" fill-opacity="0.1"/>
<path d="M78.3361 75.5561C78.4361 75.5561 78.5361 75.4561 78.7361 75.4561C79.2361 75.4561 79.5361 75.8561 79.5361 76.3561C78.9361 85.2561 72.0361 101.656 71.2361 103.356C71.0361 105.256 68.4361 126.356 60.9361 154.956C53.1361 184.456 53.6361 201.956 53.6361 202.156C53.6361 202.656 53.236 203.056 52.836 203.056C52.336 203.056 51.9361 202.656 51.9361 202.256C51.9361 202.056 51.4361 184.456 59.2361 154.556C67.0361 124.956 69.5361 103.356 69.5361 103.156C69.5361 103.056 69.5361 102.956 69.6361 102.956C69.7361 102.756 77.2361 85.3561 77.8361 76.4561C77.8361 75.9561 78.0361 75.6561 78.3361 75.5561Z" fill="#481E0B" fill-opacity="0.1"/>
<path d="M75.0375 106.256C75.1375 106.256 75.2375 106.156 75.4375 106.156C75.9375 106.156 76.3375 106.556 76.2375 107.056C76.2375 107.256 75.3374 128.256 70.8374 166.756C68.4374 187.556 64.7374 199.756 60.3374 201.856C58.9374 202.556 57.9374 201.956 57.8374 201.856C57.4374 201.556 57.3375 201.056 57.5375 200.656C57.7375 200.256 58.3375 200.156 58.7375 200.356C58.7375 200.356 59.1375 200.456 59.7375 200.156C61.5375 199.156 65.9375 193.956 69.1375 166.456C73.6375 127.956 74.5375 107.056 74.5375 106.856C74.5375 106.656 74.7375 106.356 75.0375 106.256Z" fill="#481E0B" fill-opacity="0.1"/>
<path d="M83.9344 131.856C84.0344 131.856 84.2343 131.756 84.3343 131.756C84.8343 131.756 85.1344 132.256 85.1344 132.756C85.1344 132.856 84.2344 143.156 83.7344 158.756C83.2344 174.456 77.9343 194.956 77.8343 195.156C77.7343 195.656 77.2344 195.856 76.7344 195.756C76.2344 195.656 76.0344 195.156 76.1344 194.656C76.2344 194.456 81.4344 174.156 81.9344 158.556C82.4344 142.856 83.3343 132.556 83.3343 132.456C83.4343 132.256 83.6344 132.056 83.9344 131.856Z" fill="#481E0B" fill-opacity="0.1"/>
<path d="M53.0355 116.257C53.1355 116.157 53.3355 116.157 53.5355 116.257C54.0355 116.357 54.3355 116.757 54.2355 117.257C54.2355 117.357 52.6355 126.657 47.1355 150.657C41.6355 174.457 43.5355 197.057 43.6355 197.257C43.6355 197.757 43.3355 198.157 42.8355 198.257C42.3355 198.257 41.9355 197.957 41.8355 197.457C41.8355 197.257 39.8356 174.457 45.4356 150.357C50.9356 126.357 52.5355 117.157 52.5355 117.057C52.5355 116.557 52.7355 116.357 53.0355 116.257Z" fill="#481E0B" fill-opacity="0.1"/>
<path d="M35.7345 126.456C35.9345 126.356 36.1345 126.356 36.3345 126.456C36.8345 126.556 37.0346 127.056 36.9346 127.556C36.9346 127.656 34.0345 136.456 29.2345 150.556C24.5345 164.456 28.9345 186.556 29.0345 186.756C29.1345 187.256 28.8345 187.656 28.3345 187.756C27.8345 187.856 27.4345 187.556 27.3345 187.056C27.1345 186.156 22.7345 164.256 27.6345 149.956C32.4345 135.856 35.2345 127.056 35.2345 126.956C35.2345 126.756 35.4345 126.556 35.7345 126.456Z" fill="#481E0B" fill-opacity="0.1"/>
<path d="M-14.1634 44.5564C-5.56338 41.2564 3.73662 40.7564 12.3366 40.3564C20.9366 39.9564 29.1367 39.5564 35.4367 36.3564C38.9367 34.5564 41.5366 34.3564 43.3366 35.6564C47.6366 38.8564 45.5366 50.4564 43.2366 62.6564C42.1366 68.6564 40.9366 74.9564 40.7366 79.5564C40.4366 87.4564 38.3367 106.856 24.1367 116.456C13.8367 123.456 -0.463284 123.656 -18.5633 117.256C-18.6633 117.256 -18.8633 117.156 -18.9633 117.056C-19.2633 116.756 -50.1633 82.0564 -31.3633 57.4564C-26.2633 50.8564 -20.4634 46.9564 -14.1634 44.5564ZM33.8366 39.0564C27.6366 41.4564 20.2367 41.7564 12.4367 42.1564C-2.06329 42.8564 -18.4633 43.5564 -29.8633 58.5564C-47.1633 81.1564 -19.9634 113.156 -17.6634 115.756C-0.263382 121.956 13.5366 121.756 23.2366 115.156C36.7366 105.956 38.8367 87.2564 39.1367 79.6564C39.3367 74.9564 40.4367 68.9564 41.6367 62.5564C43.6367 51.9564 45.9367 39.9564 42.4367 37.3564C41.2367 36.4564 39.2367 36.7564 36.4367 38.1564C35.4367 38.3564 34.6366 38.7564 33.8366 39.0564Z" fill="#481E0B" fill-opacity="0.1"/>
<path d="M57.5378 14.4559C57.6378 14.3559 57.8378 14.3559 58.0378 14.4559C58.5378 14.5559 58.8378 14.9559 58.7378 15.4559C57.5378 22.6559 43.4378 36.1559 42.8378 36.7559C42.8378 36.7559 30.8378 55.0559 10.3378 78.0559C-9.96224 100.856 -17.4622 116.656 -17.4622 116.856C-17.6622 117.256 -18.1622 117.456 -18.6622 117.256C-19.0622 117.056 -19.2621 116.556 -19.0621 116.056C-18.9621 115.856 -11.4622 99.9559 9.03783 76.8559C29.4378 53.9559 41.3378 35.8559 41.5378 35.6559C41.8378 35.3559 55.9378 21.7559 57.0378 15.1559C57.0378 14.8559 57.2378 14.5559 57.5378 14.4559Z" fill="#481E0B" fill-opacity="0.1"/>
<path d="M44.5359 41.0559C44.7359 40.9559 45.0359 40.9559 45.2359 41.1559C45.6359 41.3559 45.8359 41.9559 45.5359 42.3559C45.4359 42.5559 35.1359 60.8559 13.7359 93.2559C2.13586 110.756 -6.56409 119.956 -11.4641 119.856C-13.0641 119.856 -13.6642 118.856 -13.6642 118.756C-13.9642 118.356 -13.7641 117.756 -13.3641 117.556C-12.9641 117.356 -12.4642 117.456 -12.1642 117.856C-12.1642 117.856 -11.8641 118.156 -11.2641 118.156C-9.26414 118.056 -2.96416 115.456 12.3358 92.3559C33.7358 60.0559 44.0359 41.7559 44.1359 41.6559C44.2359 41.2559 44.3359 41.1559 44.5359 41.0559Z" fill="#481E0B" fill-opacity="0.1"/>
<path d="M40.8364 67.9563C41.1364 67.8563 41.3365 67.8563 41.6365 68.0563C42.0365 68.3563 42.1365 68.8563 41.9365 69.2563C41.8365 69.3563 36.4365 78.0563 28.9365 91.7563C21.3365 105.556 7.33644 121.456 7.23644 121.656C6.93644 122.056 6.33649 122.056 6.03649 121.756C5.63649 121.456 5.63651 120.856 5.93651 120.556C6.03651 120.356 19.9365 104.656 27.4365 91.0563C34.9365 77.2563 40.4365 68.5563 40.5365 68.4563C40.5365 68.1563 40.7364 67.9563 40.8364 67.9563Z" fill="#481E0B" fill-opacity="0.1"/>
<path d="M20.3378 39.9563C20.6378 39.8563 20.9379 39.8563 21.1379 40.0563C21.5379 40.3563 21.6378 40.8563 21.3378 41.2563C21.2378 41.3563 15.6379 48.8563 -0.0620728 67.8563C-15.7621 86.6563 -24.1621 107.556 -24.2621 107.756C-24.4621 108.256 -24.9621 108.456 -25.3621 108.256C-25.7621 108.056 -26.0621 107.556 -25.8621 107.156C-25.7621 106.956 -17.2621 85.7563 -1.36212 66.7563C14.3379 47.8563 19.9379 40.3563 20.0379 40.2563C20.0379 40.1563 20.2378 40.0563 20.3378 39.9563Z" fill="#481E0B" fill-opacity="0.1"/>
<path d="M0.335915 41.2561C0.635915 41.1561 1.03594 41.1561 1.23594 41.4561C1.53594 41.7561 1.53594 42.3561 1.23594 42.6561C1.13594 42.7561 -5.36401 49.3561 -15.964 59.7561C-26.464 69.9561 -32.464 91.7561 -32.564 91.9561C-32.664 92.4561 -33.1641 92.6561 -33.6641 92.5561C-34.1641 92.4561 -34.3641 91.9561 -34.2641 91.4561C-34.0641 90.5561 -28.0641 69.0561 -17.2641 58.4561C-6.66406 48.0561 -0.0639877 41.4561 -0.0639877 41.4561C0.136012 41.3561 0.235915 41.2561 0.335915 41.2561Z" fill="#481E0B" fill-opacity="0.1"/>
<path d="M74.3364 -88.0437C74.6364 -88.1437 75.0364 -88.1437 75.2364 -87.8437C75.6364 -87.5437 75.6364 -86.9437 75.3364 -86.6437C7.43641 -12.4437 122.336 150.156 123.536 151.856C123.836 152.256 123.736 152.756 123.336 153.056C122.936 153.356 122.436 153.256 122.136 152.856C121.836 152.456 92.5365 111.256 72.0365 61.2563C44.8365 -5.04372 45.5365 -56.6437 74.0365 -87.8437C74.0365 -87.9437 74.1364 -88.0437 74.3364 -88.0437Z" fill="#481E0B" fill-opacity="0.1"/>
</g>
<defs>
<clipPath id="clip0_137_45">
<rect width="1800" height="1511" fill="white"/>
</clipPath>
</defs>
</svg>
