<svg width="1800" height="762" viewBox="0 0 1800 762" fill="none" xmlns="http://www.w3.org/2000/svg">
<g clip-path="url(#clip0_147_9010)">
<path d="M1903.74 437.399C1896.71 460.026 1854.71 457.369 1829.68 455.741C1825.23 455.484 1821.28 455.226 1818.37 455.141C1816.74 455.141 1815.03 455.055 1813.23 455.055C1790.6 454.541 1752.8 453.598 1737.72 470.911C1732.15 477.339 1730.18 485.824 1731.8 496.281C1734.12 510.508 1744.49 521.908 1754.6 532.878C1766.77 546.249 1779.46 560.048 1777.83 579.161C1776.29 597.588 1744.66 598.702 1725.8 599.388C1721.78 599.56 1718.35 599.645 1715.86 599.902C1679.09 603.759 1660.24 616.273 1658.09 638.128C1655.44 665.555 1679.61 682.954 1703.09 690.068L1705.32 690.753C1728.12 697.696 1749.72 704.295 1769.34 717.666C1825.65 756.063 1798.4 807.403 1798.06 807.831L1796.6 807.06C1796.86 806.546 1823.34 756.578 1768.4 719.037C1748.95 705.752 1727.52 699.239 1704.81 692.296L1702.58 691.611C1678.41 684.24 1653.64 666.326 1656.38 637.871C1658.61 615.073 1677.98 602.045 1715.69 598.102C1718.26 597.845 1721.69 597.674 1725.72 597.588C1744.06 596.903 1774.74 595.874 1776.2 578.904C1777.74 560.476 1765.92 547.62 1753.4 533.907C1743.2 522.765 1732.58 511.194 1730.26 496.452C1728.46 485.481 1730.6 476.568 1736.52 469.711C1752.12 451.884 1790.43 452.741 1813.31 453.341C1815.11 453.341 1816.83 453.427 1818.46 453.427C1821.46 453.512 1825.4 453.769 1829.85 454.026C1854.45 455.569 1895.59 458.226 1902.19 436.885L1903.74 437.399Z" fill="#481E0B" fill-opacity="0.1"/>
<path d="M-109.809 282.916C-97.4415 265.338 -61.9737 279.416 -40.7396 287.816C-36.9284 289.294 -33.6616 290.616 -31.0949 291.472C-29.6948 291.938 -28.217 292.483 -26.6614 293.027C-7.29408 299.794 25.0626 311.15 42.952 300.417C49.5634 296.45 53.6857 289.605 55.0858 280.194C57.0303 267.282 51.2745 254.526 45.6744 242.237C38.8297 227.303 31.8294 211.825 38.5963 195.802C45.1299 180.324 72.6641 188.179 89.2314 192.924C92.7315 193.935 95.7649 194.791 97.9427 195.257C130.766 202.18 150.522 196.658 158.534 178.379C168.49 155.512 152.545 133.733 134.188 120.977L132.399 119.733C114.666 107.366 97.865 95.6986 84.6423 78.5869C46.7633 29.7409 84.6423 -6.97145 85.0312 -7.36035L86.0424 -6.27143C85.6535 -5.88252 48.7856 29.8964 85.809 77.6536C98.8761 94.5319 115.599 106.199 133.255 118.488L135.044 119.733C153.867 132.8 170.201 155.278 159.856 179.001C151.533 198.058 131.155 203.891 97.5538 196.735C95.2982 196.269 92.2648 195.413 88.6869 194.402C72.6641 189.813 45.9077 182.19 39.9186 196.424C33.4628 211.825 39.9964 226.37 46.9966 241.692C52.6746 254.215 58.5859 267.127 56.5636 280.505C55.008 290.461 50.7301 297.616 43.6521 301.817C25.2181 312.861 -7.60519 301.428 -27.2058 294.505C-28.7615 293.961 -30.2393 293.416 -31.6393 292.95C-34.2061 292.094 -37.5506 290.772 -41.3619 289.216C-62.1292 280.971 -96.9748 267.204 -108.642 283.849L-109.809 282.916Z" fill="#481E0B" fill-opacity="0.1"/>
</g>
<defs>
<clipPath id="clip0_147_9010">
<rect y="0.435547" width="1800" height="761" rx="40" fill="white"/>
</clipPath>
</defs>
</svg>
